%TF.GenerationSoftware,KiCad,Pcbnew,7.0.11+dfsg-1build4*%
%TF.CreationDate,2025-08-26T14:56:19-06:00*%
%TF.ProjectId,,58585858-5858-4585-9858-585858585858,rev?*%
%TF.SameCoordinates,Original*%
%TF.FileFunction,Copper,L2,Bot*%
%TF.FilePolarity,Positive*%
%FSLAX46Y46*%
G04 Gerber Fmt 4.6, Leading zero omitted, Abs format (unit mm)*
G04 Created by KiCad (PCBNEW 7.0.11+dfsg-1build4) date 2025-08-26 14:56:19*
%MOMM*%
%LPD*%
G01*
G04 APERTURE LIST*
%TA.AperFunction,SMDPad,CuDef*%
%ADD10R,4.200000X1.350000*%
%TD*%
%TA.AperFunction,ComponentPad*%
%ADD11C,1.600000*%
%TD*%
%TA.AperFunction,ComponentPad*%
%ADD12O,3.016000X1.508000*%
%TD*%
%TA.AperFunction,ComponentPad*%
%ADD13R,1.350000X1.350000*%
%TD*%
%TA.AperFunction,ComponentPad*%
%ADD14O,1.350000X1.350000*%
%TD*%
%TA.AperFunction,ViaPad*%
%ADD15C,1.900000*%
%TD*%
%TA.AperFunction,ViaPad*%
%ADD16C,6.000000*%
%TD*%
%TA.AperFunction,Conductor*%
%ADD17C,1.000000*%
%TD*%
G04 APERTURE END LIST*
D10*
%TO.P,J1,2_2*%
%TO.N,Board_4-GND*%
X-36921458Y-23569167D03*
%TO.P,J1,3_2*%
X-36921458Y-29219167D03*
%TD*%
D11*
%TO.P,SW1,1,1*%
%TO.N,Board_3-GND*%
X-7219458Y-3999084D03*
%TO.P,SW1,2,2*%
%TO.N,Board_3-Net-(U2-PA1)*%
X-9419458Y-3999084D03*
%TD*%
%TO.P,SW1,1,1*%
%TO.N,Board_1-GND*%
X-7219458Y31597282D03*
%TO.P,SW1,2,2*%
%TO.N,Board_1-Net-(U2-PA1)*%
X-9419458Y31597282D03*
%TD*%
%TO.P,SW1,1,1*%
%TO.N,Board_0-GND*%
X-7219458Y49395465D03*
%TO.P,SW1,2,2*%
%TO.N,Board_0-Net-(U2-PA1)*%
X-9419458Y49395465D03*
%TD*%
D12*
%TO.P,BAT0,1,S*%
%TO.N,Board_3-GND*%
X28359742Y-10117784D03*
%TO.P,BAT0,2,S*%
%TO.N,Board_3-Net-(BAT0B-S)*%
X28359742Y-7577784D03*
%TD*%
D10*
%TO.P,J1,2_2*%
%TO.N,Board_1-GND*%
X-36921458Y29825382D03*
%TO.P,J1,3_2*%
X-36921458Y24175382D03*
%TD*%
D13*
%TO.P,U3,1,RX*%
%TO.N,Board_0-Net-(U2-PA6)*%
X-3779658Y40024565D03*
D14*
%TO.P,U3,2,TX*%
%TO.N,Board_0-Net-(U2-PA7)*%
X-3779658Y42024565D03*
%TO.P,U3,3,VDD*%
%TO.N,Board_0-VCC*%
X-3779658Y44024565D03*
%TO.P,U3,4,GND*%
%TO.N,Board_0-GND*%
X-3779658Y46024565D03*
%TD*%
D12*
%TO.P,BAT0,1,S*%
%TO.N,Board_2-GND*%
X28359742Y7680399D03*
%TO.P,BAT0,2,S*%
%TO.N,Board_2-Net-(BAT0B-S)*%
X28359742Y10220399D03*
%TD*%
%TO.P,BAT0,1,S*%
%TO.N,Board_4-GND*%
X28359742Y-27915967D03*
%TO.P,BAT0,2,S*%
%TO.N,Board_4-Net-(BAT0B-S)*%
X28359742Y-25375967D03*
%TD*%
D13*
%TO.P,U3,1,RX*%
%TO.N,Board_2-Net-(U2-PA6)*%
X-3779658Y4428199D03*
D14*
%TO.P,U3,2,TX*%
%TO.N,Board_2-Net-(U2-PA7)*%
X-3779658Y6428199D03*
%TO.P,U3,3,VDD*%
%TO.N,Board_2-VCC*%
X-3779658Y8428199D03*
%TO.P,U3,4,GND*%
%TO.N,Board_2-GND*%
X-3779658Y10428199D03*
%TD*%
D13*
%TO.P,U3,1,RX*%
%TO.N,Board_1-Net-(U2-PA6)*%
X-3779658Y22226382D03*
D14*
%TO.P,U3,2,TX*%
%TO.N,Board_1-Net-(U2-PA7)*%
X-3779658Y24226382D03*
%TO.P,U3,3,VDD*%
%TO.N,Board_1-VCC*%
X-3779658Y26226382D03*
%TO.P,U3,4,GND*%
%TO.N,Board_1-GND*%
X-3779658Y28226382D03*
%TD*%
D13*
%TO.P,U3,1,RX*%
%TO.N,Board_3-Net-(U2-PA6)*%
X-3779658Y-13369984D03*
D14*
%TO.P,U3,2,TX*%
%TO.N,Board_3-Net-(U2-PA7)*%
X-3779658Y-11369984D03*
%TO.P,U3,3,VDD*%
%TO.N,Board_3-VCC*%
X-3779658Y-9369984D03*
%TO.P,U3,4,GND*%
%TO.N,Board_3-GND*%
X-3779658Y-7369984D03*
%TD*%
D12*
%TO.P,BAT0,1,S*%
%TO.N,Board_1-GND*%
X28359742Y25478582D03*
%TO.P,BAT0,2,S*%
%TO.N,Board_1-Net-(BAT0B-S)*%
X28359742Y28018582D03*
%TD*%
D13*
%TO.P,U3,1,RX*%
%TO.N,Board_5-Net-(U2-PA6)*%
X-3779658Y-48966350D03*
D14*
%TO.P,U3,2,TX*%
%TO.N,Board_5-Net-(U2-PA7)*%
X-3779658Y-46966350D03*
%TO.P,U3,3,VDD*%
%TO.N,Board_5-VCC*%
X-3779658Y-44966350D03*
%TO.P,U3,4,GND*%
%TO.N,Board_5-GND*%
X-3779658Y-42966350D03*
%TD*%
D11*
%TO.P,SW1,1,1*%
%TO.N,Board_5-GND*%
X-7219458Y-39595450D03*
%TO.P,SW1,2,2*%
%TO.N,Board_5-Net-(U2-PA1)*%
X-9419458Y-39595450D03*
%TD*%
D10*
%TO.P,J1,2_2*%
%TO.N,Board_5-GND*%
X-36921458Y-41367350D03*
%TO.P,J1,3_2*%
X-36921458Y-47017350D03*
%TD*%
D11*
%TO.P,SW1,1,1*%
%TO.N,Board_4-GND*%
X-7219458Y-21797267D03*
%TO.P,SW1,2,2*%
%TO.N,Board_4-Net-(U2-PA1)*%
X-9419458Y-21797267D03*
%TD*%
%TO.P,SW1,1,1*%
%TO.N,Board_2-GND*%
X-7219458Y13799099D03*
%TO.P,SW1,2,2*%
%TO.N,Board_2-Net-(U2-PA1)*%
X-9419458Y13799099D03*
%TD*%
D12*
%TO.P,BAT0,1,S*%
%TO.N,Board_0-GND*%
X28359742Y43276765D03*
%TO.P,BAT0,2,S*%
%TO.N,Board_0-Net-(BAT0B-S)*%
X28359742Y45816765D03*
%TD*%
D13*
%TO.P,U3,1,RX*%
%TO.N,Board_4-Net-(U2-PA6)*%
X-3779658Y-31168167D03*
D14*
%TO.P,U3,2,TX*%
%TO.N,Board_4-Net-(U2-PA7)*%
X-3779658Y-29168167D03*
%TO.P,U3,3,VDD*%
%TO.N,Board_4-VCC*%
X-3779658Y-27168167D03*
%TO.P,U3,4,GND*%
%TO.N,Board_4-GND*%
X-3779658Y-25168167D03*
%TD*%
D10*
%TO.P,J1,2_2*%
%TO.N,Board_2-GND*%
X-36921458Y12027199D03*
%TO.P,J1,3_2*%
X-36921458Y6377199D03*
%TD*%
%TO.P,J1,2_2*%
%TO.N,Board_3-GND*%
X-36921458Y-5770984D03*
%TO.P,J1,3_2*%
X-36921458Y-11420984D03*
%TD*%
%TO.P,J1,2_2*%
%TO.N,Board_0-GND*%
X-36921458Y47623565D03*
%TO.P,J1,3_2*%
X-36921458Y41973565D03*
%TD*%
D12*
%TO.P,BAT0,1,S*%
%TO.N,Board_5-GND*%
X28359742Y-45714150D03*
%TO.P,BAT0,2,S*%
%TO.N,Board_5-Net-(BAT0B-S)*%
X28359742Y-43174150D03*
%TD*%
D15*
%TO.N,Board_5-VCC*%
X-30009458Y-40171950D03*
X-10400658Y-48355750D03*
D16*
%TO.N,Board_5-GND*%
X34760542Y-44469550D03*
D15*
X21219940Y-39909661D03*
X-18528658Y-49625750D03*
X-22389458Y-40171950D03*
%TO.N,Board_4-VCC*%
X-10400658Y-30557567D03*
X-30009458Y-22373767D03*
%TO.N,Board_4-GND*%
X21219940Y-22111478D03*
D16*
X34760542Y-26671367D03*
D15*
X-18528658Y-31827567D03*
X-22389458Y-22373767D03*
%TO.N,Board_3-VCC*%
X-30009458Y-4575584D03*
X-10400658Y-12759384D03*
%TO.N,Board_3-GND*%
X21219940Y-4313295D03*
X-22389458Y-4575584D03*
X-18528658Y-14029384D03*
D16*
X34760542Y-8873184D03*
D15*
%TO.N,Board_2-VCC*%
X-30009458Y13222599D03*
X-10400658Y5038799D03*
%TO.N,Board_2-GND*%
X-22389458Y13222599D03*
X-18528658Y3768799D03*
X21219940Y13484888D03*
D16*
X34760542Y8924999D03*
D15*
%TO.N,Board_1-VCC*%
X-30009458Y31020782D03*
X-10400658Y22836982D03*
%TO.N,Board_1-GND*%
X-18528658Y21566982D03*
D16*
X34760542Y26723182D03*
D15*
X21219940Y31283071D03*
X-22389458Y31020782D03*
%TO.N,Board_0-VCC*%
X-30009458Y48818965D03*
X-10400658Y40635165D03*
D16*
%TO.N,Board_0-GND*%
X34760542Y44521365D03*
D15*
X-18528658Y39365165D03*
X-22389458Y48818965D03*
X21219940Y49081254D03*
%TD*%
D17*
%TO.N,Board_5-VCC*%
X-10400658Y-44966350D02*
X-26413858Y-44966350D01*
X-30009458Y-41370750D02*
X-30009458Y-40171950D01*
X-3779658Y-44966350D02*
X-10400658Y-44966350D01*
X-10400658Y-48355750D02*
X-10400658Y-44966350D01*
X-26413858Y-44966350D02*
X-30009458Y-41370750D01*
%TO.N,Board_4-VCC*%
X-26413858Y-27168167D02*
X-30009458Y-23572567D01*
X-3779658Y-27168167D02*
X-10400658Y-27168167D01*
X-10400658Y-27168167D02*
X-26413858Y-27168167D01*
X-30009458Y-23572567D02*
X-30009458Y-22373767D01*
X-10400658Y-30557567D02*
X-10400658Y-27168167D01*
%TO.N,Board_3-VCC*%
X-3779658Y-9369984D02*
X-10400658Y-9369984D01*
X-10400658Y-9369984D02*
X-26413858Y-9369984D01*
X-26413858Y-9369984D02*
X-30009458Y-5774384D01*
X-10400658Y-12759384D02*
X-10400658Y-9369984D01*
X-30009458Y-5774384D02*
X-30009458Y-4575584D01*
%TO.N,Board_2-VCC*%
X-10400658Y5038799D02*
X-10400658Y8428199D01*
X-30009458Y12023799D02*
X-30009458Y13222599D01*
X-10400658Y8428199D02*
X-26413858Y8428199D01*
X-3779658Y8428199D02*
X-10400658Y8428199D01*
X-26413858Y8428199D02*
X-30009458Y12023799D01*
%TO.N,Board_1-VCC*%
X-3779658Y26226382D02*
X-10400658Y26226382D01*
X-26413858Y26226382D02*
X-30009458Y29821982D01*
X-30009458Y29821982D02*
X-30009458Y31020782D01*
X-10400658Y26226382D02*
X-26413858Y26226382D01*
X-10400658Y22836982D02*
X-10400658Y26226382D01*
%TO.N,Board_0-VCC*%
X-26413858Y44024565D02*
X-30009458Y47620165D01*
X-30009458Y47620165D02*
X-30009458Y48818965D01*
X-3779658Y44024565D02*
X-10400658Y44024565D01*
X-10400658Y44024565D02*
X-26413858Y44024565D01*
X-10400658Y40635165D02*
X-10400658Y44024565D01*
%TD*%
%TA.AperFunction,Conductor*%
%TO.N,Board_3-GND*%
G36*
X-10100822Y-2576275D02*
G01*
X-10014537Y-2596232D01*
X-9945455Y-2651650D01*
X-9907260Y-2731554D01*
X-9907516Y-2820116D01*
X-9946173Y-2899798D01*
X-9996638Y-2944467D01*
X-10146020Y-3036960D01*
X-10310439Y-3186848D01*
X-10310442Y-3186852D01*
X-10444512Y-3364389D01*
X-10444513Y-3364391D01*
X-10444516Y-3364395D01*
X-10543687Y-3563556D01*
X-10604573Y-3777548D01*
X-10621891Y-3964445D01*
X-10624833Y-3996196D01*
X-10625101Y-3999084D01*
X-10604573Y-4220620D01*
X-10543687Y-4434612D01*
X-10444516Y-4633773D01*
X-10310439Y-4811320D01*
X-10146020Y-4961208D01*
X-9956859Y-5078331D01*
X-9749398Y-5158702D01*
X-9530701Y-5199584D01*
X-9530699Y-5199584D01*
X-9308217Y-5199584D01*
X-9308215Y-5199584D01*
X-9089518Y-5158702D01*
X-8882057Y-5078331D01*
X-8767342Y-5007303D01*
X-7661993Y-5007303D01*
X-7661992Y-5007304D01*
X-7521779Y-5061624D01*
X-7321384Y-5099084D01*
X-7117531Y-5099084D01*
X-6917135Y-5061623D01*
X-6917133Y-5061623D01*
X-6776922Y-5007305D01*
X-6776921Y-5007304D01*
X-7219458Y-4564769D01*
X-7219459Y-4564769D01*
X-7661993Y-5007303D01*
X-8767342Y-5007303D01*
X-8692896Y-4961208D01*
X-8528477Y-4811320D01*
X-8519093Y-4798894D01*
X-8394403Y-4633778D01*
X-8394401Y-4633774D01*
X-8394400Y-4633773D01*
X-8358858Y-4562396D01*
X-8302731Y-4493891D01*
X-8260119Y-4474059D01*
X-7785143Y-3999084D01*
X-7624444Y-3999084D01*
X-7604623Y-4124232D01*
X-7547099Y-4237129D01*
X-7457503Y-4326725D01*
X-7344606Y-4384249D01*
X-7250939Y-4399084D01*
X-7187977Y-4399084D01*
X-7094310Y-4384249D01*
X-6981413Y-4326725D01*
X-6891817Y-4237129D01*
X-6834293Y-4124232D01*
X-6814472Y-3999084D01*
X-6653772Y-3999084D01*
X-6211070Y-4441784D01*
X-6189341Y-4398145D01*
X-6133556Y-4202080D01*
X-6133554Y-4202070D01*
X-6114745Y-3999084D01*
X-6114745Y-3999083D01*
X-6133554Y-3796097D01*
X-6133556Y-3796087D01*
X-6189342Y-3600020D01*
X-6189344Y-3600014D01*
X-6211069Y-3556382D01*
X-6211070Y-3556382D01*
X-6653772Y-3999083D01*
X-6653772Y-3999084D01*
X-6814472Y-3999084D01*
X-6834293Y-3873936D01*
X-6891817Y-3761039D01*
X-6981413Y-3671443D01*
X-7094310Y-3613919D01*
X-7187977Y-3599084D01*
X-7250939Y-3599084D01*
X-7344606Y-3613919D01*
X-7457503Y-3671443D01*
X-7547099Y-3761039D01*
X-7604623Y-3873936D01*
X-7624444Y-3999084D01*
X-7785143Y-3999084D01*
X-7785143Y-3999083D01*
X-8258120Y-3526105D01*
X-8314307Y-3494564D01*
X-8358859Y-3435768D01*
X-8394398Y-3364397D01*
X-8394403Y-3364389D01*
X-8528473Y-3186852D01*
X-8550618Y-3166664D01*
X-8692896Y-3036960D01*
X-8692898Y-3036958D01*
X-8692900Y-3036957D01*
X-8835878Y-2948429D01*
X-8898914Y-2886220D01*
X-8928715Y-2802821D01*
X-8919380Y-2714751D01*
X-8872758Y-2639453D01*
X-8798082Y-2591841D01*
X-8730545Y-2580237D01*
X-7673909Y-2583292D01*
X-7587626Y-2603249D01*
X-7518544Y-2658667D01*
X-7480349Y-2738570D01*
X-7480605Y-2827133D01*
X-7519262Y-2906815D01*
X-7588663Y-2961833D01*
X-7602601Y-2967853D01*
X-7661992Y-2990861D01*
X-7661993Y-2990862D01*
X-7219459Y-3433398D01*
X-7219458Y-3433398D01*
X-6776922Y-2990862D01*
X-6776922Y-2990861D01*
X-6829471Y-2970504D01*
X-6902864Y-2920937D01*
X-6947483Y-2844434D01*
X-6954490Y-2756149D01*
X-6922497Y-2673566D01*
X-6857841Y-2613042D01*
X-6773328Y-2586566D01*
X-6757030Y-2585943D01*
X33056748Y-2701065D01*
X33061095Y-2701126D01*
X33371363Y-2708948D01*
X33381322Y-2709451D01*
X33687953Y-2732683D01*
X33697858Y-2733685D01*
X34002993Y-2772346D01*
X34012850Y-2773849D01*
X34315582Y-2827827D01*
X34325361Y-2829826D01*
X34624984Y-2898988D01*
X34634672Y-2901483D01*
X34930430Y-2985655D01*
X34939971Y-2988633D01*
X35162670Y-3064337D01*
X35231078Y-3087592D01*
X35240491Y-3091058D01*
X35526248Y-3204562D01*
X35535475Y-3208499D01*
X35815176Y-3336272D01*
X35824191Y-3340669D01*
X36097031Y-3482337D01*
X36105798Y-3487174D01*
X36371216Y-3642450D01*
X36379743Y-3647731D01*
X36636945Y-3816148D01*
X36645196Y-3821853D01*
X36893654Y-4003068D01*
X36901607Y-4009182D01*
X37140550Y-4202632D01*
X37148185Y-4209138D01*
X37377111Y-4414415D01*
X37384408Y-4421298D01*
X37602689Y-4637840D01*
X37609606Y-4645056D01*
X37816722Y-4872349D01*
X37823276Y-4879917D01*
X38018665Y-5117346D01*
X38024841Y-5125249D01*
X38207995Y-5372191D01*
X38213766Y-5380396D01*
X38384263Y-5636282D01*
X38389600Y-5644747D01*
X38546999Y-5908924D01*
X38551896Y-5917635D01*
X38611506Y-6030225D01*
X38695765Y-6189374D01*
X38700228Y-6198343D01*
X38830231Y-6477004D01*
X38834234Y-6486182D01*
X38950017Y-6771015D01*
X38953559Y-6780399D01*
X39054841Y-7070698D01*
X39057906Y-7080250D01*
X39144442Y-7375325D01*
X39147021Y-7385019D01*
X39218562Y-7684012D01*
X39220650Y-7693823D01*
X39277043Y-7996090D01*
X39278633Y-8005994D01*
X39319717Y-8310675D01*
X39320807Y-8320648D01*
X39346490Y-8627084D01*
X39347075Y-8637096D01*
X39357283Y-8944363D01*
X39357364Y-8954395D01*
X39352073Y-9261860D01*
X39351647Y-9271883D01*
X39330872Y-9578634D01*
X39329942Y-9588621D01*
X39293735Y-9893943D01*
X39292304Y-9903871D01*
X39240753Y-10207005D01*
X39238828Y-10216823D01*
X39172070Y-10516964D01*
X39169646Y-10526698D01*
X39087850Y-10823090D01*
X39084938Y-10832690D01*
X38988309Y-11124583D01*
X38984918Y-11134022D01*
X38873714Y-11420652D01*
X38869851Y-11429911D01*
X38744329Y-11710602D01*
X38740005Y-11719652D01*
X38600498Y-11993665D01*
X38595723Y-12002486D01*
X38442603Y-12269090D01*
X38437389Y-12277661D01*
X38271019Y-12536224D01*
X38265381Y-12544519D01*
X38086181Y-12794390D01*
X38080131Y-12802392D01*
X37888583Y-13042893D01*
X37882138Y-13050579D01*
X37678715Y-13281123D01*
X37671890Y-13288476D01*
X37457091Y-13508492D01*
X37449905Y-13515490D01*
X37224318Y-13724379D01*
X37216789Y-13731007D01*
X36980930Y-13928290D01*
X36973076Y-13934530D01*
X36892258Y-13995480D01*
X36727586Y-14119668D01*
X36719456Y-14125485D01*
X36486621Y-14283326D01*
X36464953Y-14298015D01*
X36456511Y-14303432D01*
X36193625Y-14462926D01*
X36184921Y-14467911D01*
X35914349Y-14613947D01*
X35905404Y-14618488D01*
X35627828Y-14750697D01*
X35618665Y-14754781D01*
X35334750Y-14872846D01*
X35325395Y-14876462D01*
X35035901Y-14980068D01*
X35026374Y-14983209D01*
X34732046Y-15072090D01*
X34722373Y-15074747D01*
X34423925Y-15148686D01*
X34414151Y-15150848D01*
X34112346Y-15209656D01*
X34102456Y-15211325D01*
X33798071Y-15254851D01*
X33788107Y-15256020D01*
X33481949Y-15284148D01*
X33471941Y-15284814D01*
X33164049Y-15297508D01*
X33155378Y-15297676D01*
X-36204787Y-15132674D01*
X-36209067Y-15132618D01*
X-36364645Y-15128901D01*
X-36374941Y-15128388D01*
X-36527065Y-15116851D01*
X-36537325Y-15115805D01*
X-36688656Y-15096401D01*
X-36698845Y-15094825D01*
X-36848936Y-15067615D01*
X-36859030Y-15065514D01*
X-37007518Y-15030565D01*
X-37017490Y-15027944D01*
X-37163990Y-14985345D01*
X-37173814Y-14982210D01*
X-37317914Y-14932078D01*
X-37327560Y-14928439D01*
X-37468829Y-14870928D01*
X-37478275Y-14866794D01*
X-37616408Y-14802028D01*
X-37625626Y-14797411D01*
X-37760233Y-14725570D01*
X-37769203Y-14720480D01*
X-37899853Y-14641795D01*
X-37908543Y-14636249D01*
X-38035000Y-14550865D01*
X-38043394Y-14544876D01*
X-38165224Y-14453082D01*
X-38173294Y-14446666D01*
X-38290218Y-14348676D01*
X-38297948Y-14341850D01*
X-38409654Y-14237920D01*
X-38417017Y-14230704D01*
X-38523158Y-14121162D01*
X-38530140Y-14113573D01*
X-38630489Y-13998651D01*
X-38637067Y-13990712D01*
X-38731324Y-13870754D01*
X-38737483Y-13862483D01*
X-38825395Y-13737809D01*
X-38831115Y-13729233D01*
X-38912449Y-13600180D01*
X-38917719Y-13591317D01*
X-38992273Y-13458199D01*
X-38997077Y-13449075D01*
X-39064617Y-13312311D01*
X-39068942Y-13302951D01*
X-39129330Y-13162821D01*
X-39133163Y-13153250D01*
X-39186188Y-13010247D01*
X-39189522Y-13000487D01*
X-39235088Y-12854861D01*
X-39237911Y-12844947D01*
X-39275862Y-12697206D01*
X-39278167Y-12687157D01*
X-39289217Y-12632541D01*
X-39287023Y-12544005D01*
X-39246632Y-12465189D01*
X-39176044Y-12411702D01*
X-39089240Y-12394140D01*
X-39071230Y-12395406D01*
X-39066249Y-12395983D01*
X-37321458Y-12395983D01*
X-37321458Y-11820984D01*
X-36521458Y-11820984D01*
X-36521458Y-12395983D01*
X-34776668Y-12395983D01*
X-34751581Y-12393073D01*
X-34751579Y-12393072D01*
X-34648980Y-12347771D01*
X-34648975Y-12347767D01*
X-34569674Y-12268466D01*
X-34569670Y-12268461D01*
X-34524368Y-12165861D01*
X-34524367Y-12165856D01*
X-34521458Y-12140782D01*
X-34521458Y-11820984D01*
X-36521458Y-11820984D01*
X-37321458Y-11820984D01*
X-37321458Y-10445984D01*
X-36521458Y-10445984D01*
X-36521458Y-11020984D01*
X-34521459Y-11020984D01*
X-34521459Y-10701194D01*
X-34524368Y-10676107D01*
X-34524369Y-10676105D01*
X-34569670Y-10573506D01*
X-34569674Y-10573501D01*
X-34648975Y-10494200D01*
X-34648980Y-10494196D01*
X-34751580Y-10448894D01*
X-34751585Y-10448893D01*
X-34776659Y-10445984D01*
X-36521458Y-10445984D01*
X-37321458Y-10445984D01*
X-39066247Y-10445984D01*
X-39091332Y-10448894D01*
X-39105321Y-10452700D01*
X-39193809Y-10456348D01*
X-39275117Y-10421242D01*
X-39333141Y-10354334D01*
X-39356389Y-10268876D01*
X-39356558Y-10260715D01*
X-39357181Y-6931129D01*
X-39337490Y-6844783D01*
X-39282285Y-6775531D01*
X-39202499Y-6737090D01*
X-39113936Y-6737073D01*
X-39105939Y-6739744D01*
X-39105776Y-6739144D01*
X-39091330Y-6743074D01*
X-39066249Y-6745983D01*
X-37321458Y-6745983D01*
X-37321458Y-6170984D01*
X-36521458Y-6170984D01*
X-36521458Y-6745983D01*
X-34776668Y-6745983D01*
X-34751581Y-6743073D01*
X-34751579Y-6743072D01*
X-34648980Y-6697771D01*
X-34648975Y-6697767D01*
X-34569674Y-6618466D01*
X-34569670Y-6618461D01*
X-34524368Y-6515861D01*
X-34524367Y-6515856D01*
X-34521458Y-6490782D01*
X-34521458Y-6170984D01*
X-36521458Y-6170984D01*
X-37321458Y-6170984D01*
X-37321458Y-4795984D01*
X-36521458Y-4795984D01*
X-36521458Y-5370984D01*
X-34521459Y-5370984D01*
X-34521459Y-5051194D01*
X-34524368Y-5026107D01*
X-34524369Y-5026105D01*
X-34569670Y-4923506D01*
X-34569674Y-4923501D01*
X-34648975Y-4844200D01*
X-34648980Y-4844196D01*
X-34751580Y-4798894D01*
X-34751585Y-4798893D01*
X-34776659Y-4795984D01*
X-36521458Y-4795984D01*
X-37321458Y-4795984D01*
X-38994040Y-4795984D01*
X-39080383Y-4776277D01*
X-39149624Y-4721058D01*
X-39188051Y-4641266D01*
X-39188051Y-4575584D01*
X-31365117Y-4575584D01*
X-31344521Y-4810992D01*
X-31283361Y-5039247D01*
X-31183493Y-5253414D01*
X-31097844Y-5375734D01*
X-31047952Y-5446986D01*
X-30968245Y-5526693D01*
X-30921126Y-5601681D01*
X-30909958Y-5667408D01*
X-30909958Y-5687854D01*
X-30912406Y-5718974D01*
X-30913677Y-5726996D01*
X-30910231Y-5792753D01*
X-30909958Y-5803168D01*
X-30909958Y-5821576D01*
X-30909957Y-5821583D01*
X-30908034Y-5839878D01*
X-30907219Y-5850215D01*
X-30903771Y-5916030D01*
X-30901671Y-5923865D01*
X-30895979Y-5954575D01*
X-30895132Y-5962640D01*
X-30895131Y-5962643D01*
X-30895130Y-5962647D01*
X-30874782Y-6025270D01*
X-30871825Y-6035250D01*
X-30854778Y-6098872D01*
X-30851100Y-6106089D01*
X-30839141Y-6134961D01*
X-30836638Y-6142665D01*
X-30836636Y-6142670D01*
X-30803716Y-6199687D01*
X-30798741Y-6208849D01*
X-30768841Y-6267533D01*
X-30763745Y-6273825D01*
X-30746040Y-6299586D01*
X-30741991Y-6306600D01*
X-30697898Y-6355569D01*
X-30691159Y-6363460D01*
X-30679577Y-6377764D01*
X-30666542Y-6390797D01*
X-30659407Y-6398316D01*
X-30615329Y-6447272D01*
X-30608758Y-6452045D01*
X-30585020Y-6472319D01*
X-27111793Y-9945546D01*
X-27091519Y-9969284D01*
X-27086746Y-9975855D01*
X-27037790Y-10019933D01*
X-27030271Y-10027068D01*
X-27017238Y-10040103D01*
X-27002934Y-10051685D01*
X-26995043Y-10058424D01*
X-26946074Y-10102517D01*
X-26939060Y-10106566D01*
X-26913301Y-10124269D01*
X-26907007Y-10129367D01*
X-26856866Y-10154914D01*
X-26848323Y-10159267D01*
X-26839161Y-10164241D01*
X-26782142Y-10197163D01*
X-26774429Y-10199668D01*
X-26745569Y-10211622D01*
X-26738346Y-10215304D01*
X-26674726Y-10232349D01*
X-26664755Y-10235303D01*
X-26602114Y-10255658D01*
X-26594044Y-10256505D01*
X-26563330Y-10262198D01*
X-26555504Y-10264296D01*
X-26489731Y-10267742D01*
X-26479380Y-10268557D01*
X-26461050Y-10270484D01*
X-26442638Y-10270484D01*
X-26432222Y-10270757D01*
X-26366470Y-10274203D01*
X-26358457Y-10272933D01*
X-26327329Y-10270484D01*
X-11500158Y-10270484D01*
X-11413815Y-10290191D01*
X-11344574Y-10345410D01*
X-11306147Y-10425202D01*
X-11301158Y-10469484D01*
X-11301158Y-11667560D01*
X-11320865Y-11753903D01*
X-11359444Y-11808274D01*
X-11439153Y-11887983D01*
X-11574693Y-12081555D01*
X-11674561Y-12295721D01*
X-11674563Y-12295726D01*
X-11701426Y-12395983D01*
X-11735721Y-12523976D01*
X-11756317Y-12759384D01*
X-11735721Y-12994792D01*
X-11674561Y-13223047D01*
X-11634861Y-13308184D01*
X-11574693Y-13437213D01*
X-11574691Y-13437217D01*
X-11562880Y-13454085D01*
X-11439153Y-13630785D01*
X-11272059Y-13797879D01*
X-11078488Y-13933419D01*
X-10864321Y-14033287D01*
X-10864318Y-14033287D01*
X-10864318Y-14033288D01*
X-10788236Y-14053673D01*
X-10636066Y-14094447D01*
X-10400658Y-14115043D01*
X-10165250Y-14094447D01*
X-10076677Y-14070714D01*
X-9936998Y-14033288D01*
X-9936997Y-14033288D01*
X-9722828Y-13933419D01*
X-9722824Y-13933417D01*
X-9529254Y-13797877D01*
X-9362164Y-13630787D01*
X-9226624Y-13437217D01*
X-9226622Y-13437213D01*
X-9126753Y-13223044D01*
X-9126753Y-13223043D01*
X-9065596Y-12994798D01*
X-9053352Y-12854861D01*
X-9044999Y-12759384D01*
X-9065595Y-12523976D01*
X-9065595Y-12523973D01*
X-9065596Y-12523969D01*
X-9126752Y-12295726D01*
X-9226623Y-12081555D01*
X-9362159Y-11887987D01*
X-9362166Y-11887979D01*
X-9441872Y-11808274D01*
X-9488991Y-11733286D01*
X-9500158Y-11667560D01*
X-9500158Y-10469484D01*
X-9480451Y-10383141D01*
X-9425232Y-10313900D01*
X-9345440Y-10275473D01*
X-9301158Y-10270484D01*
X-4683661Y-10270484D01*
X-4597318Y-10290191D01*
X-4528077Y-10345410D01*
X-4489650Y-10425202D01*
X-4489650Y-10513766D01*
X-4528077Y-10593558D01*
X-4549597Y-10616548D01*
X-4577861Y-10642314D01*
X-4577865Y-10642318D01*
X-4697983Y-10801378D01*
X-4697983Y-10801379D01*
X-4697984Y-10801380D01*
X-4786829Y-10979804D01*
X-4841375Y-11171515D01*
X-4859766Y-11369984D01*
X-4841375Y-11568453D01*
X-4786829Y-11760164D01*
X-4697984Y-11938588D01*
X-4606077Y-12060291D01*
X-4569770Y-12141069D01*
X-4572107Y-12229602D01*
X-4612626Y-12308353D01*
X-4674535Y-12357525D01*
X-4693001Y-12366934D01*
X-4782708Y-12456641D01*
X-4825656Y-12540932D01*
X-4840304Y-12569680D01*
X-4855158Y-12663465D01*
X-4855157Y-14076502D01*
X-4840304Y-14170288D01*
X-4782708Y-14283326D01*
X-4693000Y-14373034D01*
X-4579962Y-14430630D01*
X-4486177Y-14445484D01*
X-3073140Y-14445483D01*
X-3073139Y-14445483D01*
X-3060316Y-14443452D01*
X-2979354Y-14430630D01*
X-2866316Y-14373034D01*
X-2866315Y-14373033D01*
X-2866313Y-14373032D01*
X-2776607Y-14283326D01*
X-2719013Y-14170291D01*
X-2719011Y-14170284D01*
X-2704158Y-14076502D01*
X-2704158Y-12663465D01*
X-2719012Y-12569680D01*
X-2719012Y-12569678D01*
X-2776609Y-12456639D01*
X-2866314Y-12366934D01*
X-2884782Y-12357524D01*
X-2952766Y-12300763D01*
X-2989390Y-12220127D01*
X-2987400Y-12131586D01*
X-2953238Y-12060291D01*
X-2861332Y-11938590D01*
X-2861332Y-11938589D01*
X-2772486Y-11760163D01*
X-2742104Y-11653379D01*
X-2717941Y-11568453D01*
X-2699550Y-11369984D01*
X-2717941Y-11171515D01*
X-2731294Y-11124583D01*
X-2772486Y-10979804D01*
X-2861332Y-10801378D01*
X-2981450Y-10642318D01*
X-2981454Y-10642313D01*
X-3118058Y-10517784D01*
X26625653Y-10517784D01*
X26627262Y-10523087D01*
X26725133Y-10706188D01*
X26856845Y-10866680D01*
X27017337Y-10998392D01*
X27200439Y-11096264D01*
X27399123Y-11156534D01*
X27553953Y-11171783D01*
X27553962Y-11171784D01*
X27959742Y-11171784D01*
X27959742Y-10517784D01*
X26625653Y-10517784D01*
X-3118058Y-10517784D01*
X-3118866Y-10517047D01*
X-3169398Y-10444314D01*
X-3183368Y-10356860D01*
X-3158009Y-10272005D01*
X-3118866Y-10222921D01*
X-2981454Y-10097654D01*
X-2981450Y-10097649D01*
X-2861332Y-9938589D01*
X-2772486Y-9760163D01*
X-2731977Y-9617784D01*
X-2717941Y-9568453D01*
X-2699550Y-9369984D01*
X-2717941Y-9171515D01*
X-2749258Y-9061446D01*
X-2772486Y-8979804D01*
X-2861332Y-8801378D01*
X-2981450Y-8642318D01*
X-2981454Y-8642313D01*
X-3128746Y-8508040D01*
X-3128753Y-8508034D01*
X-3177565Y-8477811D01*
X-3240600Y-8415601D01*
X-3270400Y-8332202D01*
X-3261063Y-8244132D01*
X-3214439Y-8168835D01*
X-3199046Y-8154791D01*
X-3086892Y-8062749D01*
X-2965050Y-7914284D01*
X-2887921Y-7769984D01*
X-3748177Y-7769984D01*
X-3654510Y-7755149D01*
X-3541613Y-7697625D01*
X-3528752Y-7684764D01*
X26451242Y-7684764D01*
X26490557Y-7895081D01*
X26555512Y-8062749D01*
X26567851Y-8094598D01*
X26567852Y-8094600D01*
X26680481Y-8276502D01*
X26680485Y-8276507D01*
X26803271Y-8411198D01*
X26824628Y-8434625D01*
X26864979Y-8465097D01*
X26995367Y-8563562D01*
X26995370Y-8563563D01*
X26995372Y-8563565D01*
X27186902Y-8658935D01*
X27186904Y-8658935D01*
X27186905Y-8658936D01*
X27359792Y-8708127D01*
X27437445Y-8750710D01*
X27488933Y-8822770D01*
X27504056Y-8910032D01*
X27479819Y-8995215D01*
X27421024Y-9061446D01*
X27363100Y-9089961D01*
X27200439Y-9139303D01*
X27017337Y-9237175D01*
X26856845Y-9368887D01*
X26725133Y-9529379D01*
X26627262Y-9712480D01*
X26625653Y-9717783D01*
X26625653Y-9717784D01*
X28057845Y-9717784D01*
X27977981Y-9786986D01*
X27900249Y-9907940D01*
X27859742Y-10045895D01*
X27859742Y-10189673D01*
X27900249Y-10327628D01*
X27977981Y-10448582D01*
X28086642Y-10542736D01*
X28217427Y-10602464D01*
X28323979Y-10617784D01*
X28395505Y-10617784D01*
X28502057Y-10602464D01*
X28632842Y-10542736D01*
X28661639Y-10517784D01*
X28759742Y-10517784D01*
X28759742Y-11171784D01*
X29165522Y-11171784D01*
X29165530Y-11171783D01*
X29320360Y-11156534D01*
X29519044Y-11096264D01*
X29702146Y-10998392D01*
X29862638Y-10866680D01*
X29994350Y-10706188D01*
X30092221Y-10523087D01*
X30093831Y-10517784D01*
X28759742Y-10517784D01*
X28661639Y-10517784D01*
X28741503Y-10448582D01*
X28819235Y-10327628D01*
X28859742Y-10189673D01*
X28859742Y-10045895D01*
X28819235Y-9907940D01*
X28741503Y-9786986D01*
X28661639Y-9717784D01*
X30093831Y-9717784D01*
X30093830Y-9717783D01*
X30092221Y-9712480D01*
X29994350Y-9529379D01*
X29862638Y-9368887D01*
X29702146Y-9237175D01*
X29519044Y-9139303D01*
X29356383Y-9089961D01*
X29279479Y-9046038D01*
X29229248Y-8973098D01*
X29215639Y-8885586D01*
X29241348Y-8800837D01*
X29301282Y-8735634D01*
X29359692Y-8708127D01*
X29532576Y-8658937D01*
X29532577Y-8658937D01*
X29532579Y-8658935D01*
X29532582Y-8658935D01*
X29724112Y-8563565D01*
X29894856Y-8434625D01*
X30039000Y-8276506D01*
X30151635Y-8094594D01*
X30228927Y-7895081D01*
X30268242Y-7684764D01*
X30268242Y-7470804D01*
X30228927Y-7260487D01*
X30151635Y-7060974D01*
X30140099Y-7042343D01*
X30039002Y-6879065D01*
X30038998Y-6879060D01*
X29894856Y-6720943D01*
X29894852Y-6720940D01*
X29724116Y-6592005D01*
X29532578Y-6496631D01*
X29326796Y-6438081D01*
X29326785Y-6438079D01*
X29208099Y-6427081D01*
X29167117Y-6423284D01*
X27552367Y-6423284D01*
X27516045Y-6426649D01*
X27392698Y-6438079D01*
X27392687Y-6438081D01*
X27186905Y-6496631D01*
X26995367Y-6592005D01*
X26824631Y-6720940D01*
X26824627Y-6720943D01*
X26680485Y-6879060D01*
X26680481Y-6879065D01*
X26567852Y-7060967D01*
X26567851Y-7060969D01*
X26567849Y-7060973D01*
X26567849Y-7060974D01*
X26490557Y-7260487D01*
X26451242Y-7470804D01*
X26451242Y-7684764D01*
X-3528752Y-7684764D01*
X-3452017Y-7608029D01*
X-3394493Y-7495132D01*
X-3374672Y-7369984D01*
X-3394493Y-7244836D01*
X-3452017Y-7131939D01*
X-3541613Y-7042343D01*
X-3654510Y-6984819D01*
X-3748177Y-6969984D01*
X-3379658Y-6969984D01*
X-2887921Y-6969984D01*
X-2887920Y-6969983D01*
X-2965050Y-6825683D01*
X-3086892Y-6677218D01*
X-3235357Y-6555376D01*
X-3379657Y-6478246D01*
X-3379658Y-6478247D01*
X-3379658Y-6969984D01*
X-3748177Y-6969984D01*
X-3811139Y-6969984D01*
X-3904806Y-6984819D01*
X-4017703Y-7042343D01*
X-4107299Y-7131939D01*
X-4164823Y-7244836D01*
X-4184644Y-7369984D01*
X-4164823Y-7495132D01*
X-4107299Y-7608029D01*
X-4017703Y-7697625D01*
X-3904806Y-7755149D01*
X-3811139Y-7769984D01*
X-4671395Y-7769984D01*
X-4594265Y-7914284D01*
X-4472423Y-8062749D01*
X-4406739Y-8116655D01*
X-4352497Y-8186664D01*
X-4334003Y-8273275D01*
X-4354919Y-8359333D01*
X-4411103Y-8427793D01*
X-4491426Y-8465097D01*
X-4532983Y-8469484D01*
X-25958431Y-8469484D01*
X-26044774Y-8449777D01*
X-26099145Y-8411198D01*
X-27540358Y-6969984D01*
X-4671395Y-6969984D01*
X-4179658Y-6969984D01*
X-4179658Y-6478246D01*
X-4323958Y-6555376D01*
X-4472423Y-6677218D01*
X-4594265Y-6825683D01*
X-4671395Y-6969983D01*
X-4671395Y-6969984D01*
X-27540358Y-6969984D01*
X-28890940Y-5619401D01*
X-28938059Y-5544412D01*
X-28947975Y-5456406D01*
X-28918724Y-5372813D01*
X-28913237Y-5364545D01*
X-28835424Y-5253417D01*
X-28835422Y-5253413D01*
X-28735553Y-5039244D01*
X-28735553Y-5039243D01*
X-28674396Y-4810998D01*
X-28673336Y-4798893D01*
X-28653799Y-4575584D01*
X-28674395Y-4340176D01*
X-28674395Y-4340173D01*
X-28674396Y-4340169D01*
X-28735552Y-4111926D01*
X-28835423Y-3897755D01*
X-28970959Y-3704187D01*
X-28970961Y-3704185D01*
X-29138058Y-3537087D01*
X-29331624Y-3401550D01*
X-29331628Y-3401548D01*
X-29545797Y-3301679D01*
X-29774043Y-3240522D01*
X-29774047Y-3240521D01*
X-29774050Y-3240521D01*
X-30009458Y-3219925D01*
X-30244866Y-3240521D01*
X-30244868Y-3240521D01*
X-30244872Y-3240522D01*
X-30473115Y-3301678D01*
X-30473121Y-3301681D01*
X-30687287Y-3401549D01*
X-30800310Y-3480688D01*
X-30880854Y-3537085D01*
X-30880856Y-3537087D01*
X-30880859Y-3537089D01*
X-31047953Y-3704183D01*
X-31047955Y-3704185D01*
X-31047956Y-3704187D01*
X-31068101Y-3732958D01*
X-31183493Y-3897755D01*
X-31283361Y-4111921D01*
X-31283363Y-4111926D01*
X-31327484Y-4276591D01*
X-31344521Y-4340176D01*
X-31365117Y-4575584D01*
X-39188051Y-4575584D01*
X-39188051Y-4552702D01*
X-39180771Y-4528192D01*
X-39143369Y-4426667D01*
X-39139555Y-4417087D01*
X-39081395Y-4281344D01*
X-39077090Y-4271974D01*
X-39011969Y-4139411D01*
X-39007184Y-4130277D01*
X-38935300Y-4001294D01*
X-38930049Y-3992420D01*
X-38851565Y-3867309D01*
X-38845861Y-3858718D01*
X-38761002Y-3737841D01*
X-38754860Y-3729558D01*
X-38663860Y-3613248D01*
X-38657298Y-3605295D01*
X-38560386Y-3493843D01*
X-38553420Y-3486238D01*
X-38450871Y-3379963D01*
X-38443523Y-3372733D01*
X-38335618Y-3271921D01*
X-38327901Y-3265077D01*
X-38274250Y-3219925D01*
X-38214902Y-3169978D01*
X-38206867Y-3163563D01*
X-38089080Y-3074434D01*
X-38080701Y-3068429D01*
X-37958465Y-2985527D01*
X-37949806Y-2979976D01*
X-37823427Y-2903509D01*
X-37814505Y-2898421D01*
X-37684306Y-2828588D01*
X-37675124Y-2823966D01*
X-37630266Y-2802821D01*
X-37541533Y-2760994D01*
X-37532129Y-2756856D01*
X-37470341Y-2731554D01*
X-37395433Y-2700880D01*
X-37385806Y-2697226D01*
X-37246395Y-2648405D01*
X-37236645Y-2645272D01*
X-37094876Y-2603733D01*
X-37084915Y-2601093D01*
X-36941223Y-2566963D01*
X-36931148Y-2564843D01*
X-36830885Y-2546455D01*
X-36785863Y-2538199D01*
X-36775683Y-2536603D01*
X-36629211Y-2517520D01*
X-36619001Y-2516458D01*
X-36471719Y-2504986D01*
X-36461444Y-2504453D01*
X-36311518Y-2500568D01*
X-36305826Y-2500503D01*
X-10100822Y-2576275D01*
G37*
%TD.AperFunction*%
%TD*%
%TA.AperFunction,Conductor*%
%TO.N,Board_1-GND*%
G36*
X-10100825Y33020089D02*
G01*
X-10014539Y33000132D01*
X-9945457Y32944714D01*
X-9907262Y32864810D01*
X-9907518Y32776248D01*
X-9946175Y32696566D01*
X-9996636Y32651899D01*
X-10146020Y32559406D01*
X-10310439Y32409518D01*
X-10444516Y32231971D01*
X-10543687Y32032810D01*
X-10604573Y31818818D01*
X-10623496Y31614601D01*
X-10624840Y31600094D01*
X-10625101Y31597282D01*
X-10604573Y31375746D01*
X-10543687Y31161754D01*
X-10444516Y30962593D01*
X-10444513Y30962589D01*
X-10444512Y30962587D01*
X-10322019Y30800381D01*
X-10310439Y30785046D01*
X-10146020Y30635158D01*
X-9956859Y30518035D01*
X-9749398Y30437664D01*
X-9530701Y30396782D01*
X-9530699Y30396782D01*
X-9308217Y30396782D01*
X-9308215Y30396782D01*
X-9089518Y30437664D01*
X-8882057Y30518035D01*
X-8882055Y30518036D01*
X-8882053Y30518037D01*
X-8767346Y30589060D01*
X-7661993Y30589060D01*
X-7661992Y30589059D01*
X-7521785Y30534743D01*
X-7521779Y30534741D01*
X-7321385Y30497282D01*
X-7117531Y30497282D01*
X-6917136Y30534741D01*
X-6917130Y30534743D01*
X-6776922Y30589059D01*
X-6776922Y30589060D01*
X-7219458Y31031596D01*
X-7219459Y31031596D01*
X-7661993Y30589060D01*
X-8767346Y30589060D01*
X-8692900Y30635155D01*
X-8692898Y30635156D01*
X-8692896Y30635158D01*
X-8528477Y30785046D01*
X-8528476Y30785047D01*
X-8528473Y30785050D01*
X-8394403Y30962587D01*
X-8394398Y30962595D01*
X-8358859Y31033966D01*
X-8302731Y31102472D01*
X-8260121Y31122302D01*
X-7785143Y31597281D01*
X-7785143Y31597282D01*
X-7624444Y31597282D01*
X-7604623Y31472134D01*
X-7547099Y31359237D01*
X-7457503Y31269641D01*
X-7344606Y31212117D01*
X-7250939Y31197282D01*
X-7187977Y31197282D01*
X-7094310Y31212117D01*
X-6981413Y31269641D01*
X-6891817Y31359237D01*
X-6834293Y31472134D01*
X-6814472Y31597281D01*
X-6653772Y31597281D01*
X-6211070Y31154580D01*
X-6211069Y31154580D01*
X-6189344Y31198212D01*
X-6189342Y31198218D01*
X-6133556Y31394285D01*
X-6133554Y31394295D01*
X-6114745Y31597281D01*
X-6114745Y31597282D01*
X-6133554Y31800268D01*
X-6133556Y31800278D01*
X-6189341Y31996343D01*
X-6211070Y32039982D01*
X-6653772Y31597282D01*
X-6653772Y31597281D01*
X-6814472Y31597281D01*
X-6814472Y31597282D01*
X-6834293Y31722430D01*
X-6891817Y31835327D01*
X-6981413Y31924923D01*
X-7094310Y31982447D01*
X-7187977Y31997282D01*
X-7250939Y31997282D01*
X-7344606Y31982447D01*
X-7457503Y31924923D01*
X-7547099Y31835327D01*
X-7604623Y31722430D01*
X-7624444Y31597282D01*
X-7785143Y31597282D01*
X-8258122Y32070260D01*
X-8314298Y32101792D01*
X-8358859Y32160595D01*
X-8360040Y32162967D01*
X-8394400Y32231971D01*
X-8394401Y32231972D01*
X-8394403Y32231976D01*
X-8528473Y32409513D01*
X-8528477Y32409518D01*
X-8692896Y32559406D01*
X-8835876Y32647935D01*
X-8898911Y32710143D01*
X-8928713Y32793542D01*
X-8919379Y32881612D01*
X-8872756Y32956910D01*
X-8798080Y33004523D01*
X-8730541Y33016127D01*
X-7673914Y33013072D01*
X-7587628Y32993115D01*
X-7518546Y32937697D01*
X-7480351Y32857794D01*
X-7480607Y32769231D01*
X-7519264Y32689549D01*
X-7588665Y32634531D01*
X-7602602Y32628511D01*
X-7661992Y32605502D01*
X-7661993Y32605501D01*
X-7219459Y32162967D01*
X-7219458Y32162967D01*
X-6776921Y32605502D01*
X-6776922Y32605503D01*
X-6829469Y32625860D01*
X-6902863Y32675427D01*
X-6947481Y32751930D01*
X-6954488Y32840216D01*
X-6922495Y32922798D01*
X-6857839Y32983322D01*
X-6773326Y33009798D01*
X-6757007Y33010421D01*
X33056700Y32895299D01*
X33061141Y32895237D01*
X33371334Y32887416D01*
X33381352Y32886910D01*
X33687916Y32863683D01*
X33697896Y32862674D01*
X34002963Y32824021D01*
X34012880Y32822509D01*
X34315562Y32768540D01*
X34325390Y32766531D01*
X34624967Y32697379D01*
X34634680Y32694878D01*
X34930411Y32610714D01*
X34939988Y32607725D01*
X35231079Y32508771D01*
X35240491Y32505305D01*
X35526248Y32391801D01*
X35535475Y32387864D01*
X35815176Y32260091D01*
X35824191Y32255694D01*
X36097014Y32114035D01*
X36105798Y32109189D01*
X36371216Y31953913D01*
X36379743Y31948632D01*
X36636945Y31780215D01*
X36645196Y31774510D01*
X36893654Y31593295D01*
X36901607Y31587181D01*
X37140550Y31393731D01*
X37148185Y31387225D01*
X37377111Y31181948D01*
X37384408Y31175065D01*
X37602689Y30958523D01*
X37609624Y30951287D01*
X37729178Y30820088D01*
X37816709Y30724029D01*
X37823276Y30716446D01*
X38018665Y30479017D01*
X38024841Y30471114D01*
X38207995Y30224172D01*
X38213766Y30215967D01*
X38384263Y29960081D01*
X38389611Y29951598D01*
X38494960Y29774782D01*
X38546985Y29687465D01*
X38551901Y29678720D01*
X38695765Y29406989D01*
X38700233Y29398010D01*
X38830223Y29119377D01*
X38834234Y29110181D01*
X38950017Y28825348D01*
X38953559Y28815964D01*
X39054841Y28525665D01*
X39057906Y28516113D01*
X39144442Y28221038D01*
X39147021Y28211344D01*
X39218562Y27912351D01*
X39220650Y27902540D01*
X39277043Y27600273D01*
X39278633Y27590369D01*
X39319717Y27285689D01*
X39320807Y27275716D01*
X39346490Y26969279D01*
X39347075Y26959267D01*
X39357283Y26652000D01*
X39357364Y26641968D01*
X39352073Y26334503D01*
X39351647Y26324480D01*
X39330872Y26017729D01*
X39329942Y26007742D01*
X39293735Y25702420D01*
X39292304Y25692492D01*
X39240752Y25389350D01*
X39238828Y25379540D01*
X39172070Y25079399D01*
X39169646Y25069665D01*
X39087850Y24773273D01*
X39084938Y24763675D01*
X39042805Y24636399D01*
X38988309Y24471780D01*
X38984918Y24462341D01*
X38873711Y24175704D01*
X38869849Y24166449D01*
X38763579Y23928806D01*
X38744333Y23885769D01*
X38740012Y23876725D01*
X38724562Y23846378D01*
X38600498Y23602698D01*
X38595723Y23593877D01*
X38442603Y23327273D01*
X38437389Y23318702D01*
X38271019Y23060139D01*
X38265381Y23051844D01*
X38086181Y22801973D01*
X38080131Y22793971D01*
X37888583Y22553470D01*
X37882138Y22545784D01*
X37678715Y22315240D01*
X37671890Y22307887D01*
X37457091Y22087871D01*
X37449905Y22080873D01*
X37224318Y21871984D01*
X37216789Y21865356D01*
X36980930Y21668073D01*
X36973089Y21661844D01*
X36727560Y21476675D01*
X36719482Y21470897D01*
X36464922Y21298328D01*
X36456513Y21292932D01*
X36193609Y21133427D01*
X36184937Y21128461D01*
X35914337Y20982410D01*
X35905432Y20977889D01*
X35627793Y20845650D01*
X35618685Y20841591D01*
X35341923Y20726500D01*
X35334750Y20723517D01*
X35325395Y20719901D01*
X35035901Y20616295D01*
X35026398Y20613161D01*
X34732020Y20524265D01*
X34722399Y20521623D01*
X34423904Y20447672D01*
X34414189Y20445523D01*
X34112307Y20386700D01*
X34102457Y20385038D01*
X33798060Y20341510D01*
X33788117Y20340344D01*
X33481923Y20312213D01*
X33471966Y20311550D01*
X33164034Y20298854D01*
X33155393Y20298687D01*
X-36204871Y20463691D01*
X-36208986Y20463744D01*
X-36364675Y20467463D01*
X-36374909Y20467973D01*
X-36527093Y20479514D01*
X-36537297Y20480555D01*
X-36688685Y20499966D01*
X-36698816Y20501533D01*
X-36848961Y20528753D01*
X-36859006Y20530844D01*
X-37007530Y20565801D01*
X-37017478Y20568416D01*
X-37164002Y20611022D01*
X-37173803Y20614149D01*
X-37317934Y20664292D01*
X-37327526Y20667911D01*
X-37468845Y20725442D01*
X-37478257Y20729561D01*
X-37616419Y20794340D01*
X-37625626Y20798952D01*
X-37760233Y20870793D01*
X-37769185Y20875873D01*
X-37899864Y20954575D01*
X-37908543Y20960114D01*
X-38035000Y21045498D01*
X-38043362Y21051464D01*
X-38165236Y21143290D01*
X-38173294Y21149697D01*
X-38290218Y21247687D01*
X-38297948Y21254513D01*
X-38341073Y21294636D01*
X-38409658Y21358447D01*
X-38417017Y21365659D01*
X-38523158Y21475201D01*
X-38530140Y21482790D01*
X-38630489Y21597712D01*
X-38637067Y21605651D01*
X-38681212Y21661833D01*
X-38731327Y21725614D01*
X-38737483Y21733880D01*
X-38825395Y21858554D01*
X-38831115Y21867130D01*
X-38912449Y21996183D01*
X-38917719Y22005046D01*
X-38960187Y22080873D01*
X-38992273Y22138164D01*
X-38997077Y22147288D01*
X-39064617Y22284052D01*
X-39068942Y22293412D01*
X-39129330Y22433542D01*
X-39133163Y22443113D01*
X-39186188Y22586116D01*
X-39189522Y22595876D01*
X-39235088Y22741502D01*
X-39237911Y22751416D01*
X-39249715Y22797367D01*
X-39275863Y22899161D01*
X-39278167Y22909207D01*
X-39289217Y22963825D01*
X-39287023Y23052361D01*
X-39246631Y23131177D01*
X-39176043Y23184663D01*
X-39089238Y23202225D01*
X-39071248Y23200962D01*
X-39066249Y23200382D01*
X-37321458Y23200382D01*
X-37321458Y23775382D01*
X-36521458Y23775382D01*
X-36521458Y23200382D01*
X-34776668Y23200382D01*
X-34751581Y23203292D01*
X-34751579Y23203293D01*
X-34648980Y23248594D01*
X-34648975Y23248598D01*
X-34569674Y23327899D01*
X-34569670Y23327904D01*
X-34524368Y23430504D01*
X-34524367Y23430509D01*
X-34521458Y23455583D01*
X-34521458Y23775382D01*
X-36521458Y23775382D01*
X-37321458Y23775382D01*
X-37321458Y24575382D01*
X-36521458Y24575382D01*
X-34521459Y24575382D01*
X-34521459Y24895171D01*
X-34524368Y24920258D01*
X-34524369Y24920260D01*
X-34569670Y25022859D01*
X-34569674Y25022864D01*
X-34648975Y25102165D01*
X-34648980Y25102169D01*
X-34751580Y25147471D01*
X-34751585Y25147472D01*
X-34776666Y25150381D01*
X-36521457Y25150381D01*
X-36521458Y25150380D01*
X-36521458Y24575382D01*
X-37321458Y24575382D01*
X-37321458Y25150381D01*
X-39066248Y25150381D01*
X-39091331Y25147471D01*
X-39105315Y25143667D01*
X-39193803Y25140016D01*
X-39275112Y25175119D01*
X-39333138Y25242025D01*
X-39356389Y25327482D01*
X-39356558Y25335650D01*
X-39357181Y28665236D01*
X-39337490Y28751582D01*
X-39282285Y28820834D01*
X-39202499Y28859275D01*
X-39113936Y28859292D01*
X-39105933Y28856642D01*
X-39105776Y28857222D01*
X-39091330Y28853291D01*
X-39066256Y28850382D01*
X-37321458Y28850382D01*
X-37321458Y29425382D01*
X-36521458Y29425382D01*
X-36521458Y28850382D01*
X-34776668Y28850382D01*
X-34751581Y28853292D01*
X-34751579Y28853293D01*
X-34648980Y28898594D01*
X-34648975Y28898598D01*
X-34569674Y28977899D01*
X-34569670Y28977904D01*
X-34524368Y29080504D01*
X-34524367Y29080509D01*
X-34521458Y29105583D01*
X-34521458Y29425382D01*
X-36521458Y29425382D01*
X-37321458Y29425382D01*
X-37321458Y30225382D01*
X-36521458Y30225382D01*
X-34521459Y30225382D01*
X-34521459Y30545171D01*
X-34524368Y30570258D01*
X-34524369Y30570260D01*
X-34569670Y30672859D01*
X-34569674Y30672864D01*
X-34648975Y30752165D01*
X-34648980Y30752169D01*
X-34751580Y30797471D01*
X-34751585Y30797472D01*
X-34776666Y30800381D01*
X-36521457Y30800381D01*
X-36521458Y30800380D01*
X-36521458Y30225382D01*
X-37321458Y30225382D01*
X-37321458Y30800381D01*
X-38994040Y30800381D01*
X-39080383Y30820088D01*
X-39149624Y30875307D01*
X-39188051Y30955099D01*
X-39188051Y31020782D01*
X-31365117Y31020782D01*
X-31344521Y30785374D01*
X-31327243Y30720892D01*
X-31283362Y30557122D01*
X-31283362Y30557121D01*
X-31183493Y30342952D01*
X-31183491Y30342948D01*
X-31047951Y30149378D01*
X-30968244Y30069671D01*
X-30921125Y29994683D01*
X-30909958Y29928957D01*
X-30909958Y29908512D01*
X-30912408Y29877383D01*
X-30913677Y29869371D01*
X-30910231Y29803610D01*
X-30909958Y29793196D01*
X-30909958Y29774790D01*
X-30909957Y29774782D01*
X-30908034Y29756488D01*
X-30907219Y29746151D01*
X-30903771Y29680336D01*
X-30901671Y29672500D01*
X-30895979Y29641788D01*
X-30895132Y29633726D01*
X-30874774Y29571072D01*
X-30871828Y29561127D01*
X-30854778Y29497494D01*
X-30851098Y29490273D01*
X-30839140Y29461403D01*
X-30836637Y29453698D01*
X-30807113Y29402561D01*
X-30803715Y29396677D01*
X-30798742Y29387518D01*
X-30768842Y29328835D01*
X-30768839Y29328831D01*
X-30763738Y29322532D01*
X-30746041Y29296782D01*
X-30741991Y29289766D01*
X-30741990Y29289765D01*
X-30697912Y29240811D01*
X-30691176Y29232925D01*
X-30679577Y29218602D01*
X-30679570Y29218595D01*
X-30666573Y29205598D01*
X-30659402Y29198042D01*
X-30615329Y29149094D01*
X-30615325Y29149091D01*
X-30608758Y29144320D01*
X-30585018Y29124043D01*
X-27111797Y25650822D01*
X-27091519Y25627080D01*
X-27086746Y25620511D01*
X-27086745Y25620510D01*
X-27037798Y25576438D01*
X-27030237Y25569262D01*
X-27017241Y25556265D01*
X-27017233Y25556258D01*
X-27002950Y25544692D01*
X-26995028Y25537926D01*
X-26946078Y25493852D01*
X-26946070Y25493846D01*
X-26939043Y25489789D01*
X-26913311Y25472104D01*
X-26907007Y25466999D01*
X-26848310Y25437092D01*
X-26839186Y25432137D01*
X-26819743Y25420912D01*
X-26782140Y25399201D01*
X-26774428Y25396696D01*
X-26745582Y25384748D01*
X-26738351Y25381064D01*
X-26738348Y25381062D01*
X-26711931Y25373984D01*
X-26674721Y25364014D01*
X-26664768Y25361065D01*
X-26602114Y25340708D01*
X-26594030Y25339858D01*
X-26563341Y25334169D01*
X-26555511Y25332071D01*
X-26555504Y25332070D01*
X-26489745Y25328622D01*
X-26479373Y25327807D01*
X-26461056Y25325882D01*
X-26461050Y25325882D01*
X-26442638Y25325882D01*
X-26432223Y25325609D01*
X-26366472Y25322163D01*
X-26366470Y25322163D01*
X-26366469Y25322163D01*
X-26358458Y25323432D01*
X-26327329Y25325882D01*
X-11500158Y25325882D01*
X-11413815Y25306175D01*
X-11344574Y25250956D01*
X-11306147Y25171164D01*
X-11301158Y25126882D01*
X-11301158Y23928806D01*
X-11320865Y23842463D01*
X-11359444Y23788092D01*
X-11439153Y23708383D01*
X-11574693Y23514811D01*
X-11674561Y23300645D01*
X-11674562Y23300640D01*
X-11674563Y23300639D01*
X-11694870Y23224850D01*
X-11735721Y23072390D01*
X-11756317Y22836982D01*
X-11735721Y22601574D01*
X-11735719Y22601567D01*
X-11674562Y22373322D01*
X-11674562Y22373321D01*
X-11574693Y22159152D01*
X-11574691Y22159148D01*
X-11439151Y21965578D01*
X-11272061Y21798488D01*
X-11078491Y21662948D01*
X-11078487Y21662946D01*
X-10864318Y21563077D01*
X-10636072Y21501920D01*
X-10636068Y21501919D01*
X-10636066Y21501919D01*
X-10400658Y21481323D01*
X-10165250Y21501919D01*
X-10165247Y21501919D01*
X-10165243Y21501920D01*
X-9936998Y21563077D01*
X-9936997Y21563077D01*
X-9722828Y21662946D01*
X-9722824Y21662948D01*
X-9529254Y21798488D01*
X-9362164Y21965578D01*
X-9226624Y22159148D01*
X-9226622Y22159152D01*
X-9126753Y22373321D01*
X-9126753Y22373322D01*
X-9065596Y22601567D01*
X-9052947Y22746133D01*
X-9044999Y22836982D01*
X-9065595Y23072390D01*
X-9065595Y23072392D01*
X-9065596Y23072396D01*
X-9126752Y23300639D01*
X-9198870Y23455295D01*
X-9226623Y23514811D01*
X-9305762Y23627834D01*
X-9362159Y23708378D01*
X-9362166Y23708386D01*
X-9441872Y23788092D01*
X-9488991Y23863080D01*
X-9500158Y23928806D01*
X-9500158Y25126882D01*
X-9480451Y25213225D01*
X-9425232Y25282466D01*
X-9345440Y25320893D01*
X-9301158Y25325882D01*
X-4683661Y25325882D01*
X-4597318Y25306175D01*
X-4528077Y25250956D01*
X-4489650Y25171164D01*
X-4489650Y25082600D01*
X-4528077Y25002808D01*
X-4549597Y24979818D01*
X-4563390Y24967242D01*
X-4577867Y24954046D01*
X-4697984Y24794986D01*
X-4786829Y24616562D01*
X-4841375Y24424851D01*
X-4859766Y24226382D01*
X-4841375Y24027913D01*
X-4794476Y23863080D01*
X-4786829Y23836202D01*
X-4697983Y23657776D01*
X-4606077Y23536074D01*
X-4569770Y23455295D01*
X-4572108Y23366762D01*
X-4612626Y23288012D01*
X-4674537Y23238839D01*
X-4693000Y23229432D01*
X-4782708Y23139724D01*
X-4840304Y23026686D01*
X-4855158Y22932901D01*
X-4855157Y21519864D01*
X-4840304Y21426078D01*
X-4807232Y21361170D01*
X-4782706Y21313037D01*
X-4693000Y21223331D01*
X-4579965Y21165737D01*
X-4579958Y21165735D01*
X-4514476Y21155364D01*
X-4486177Y21150882D01*
X-4486176Y21150882D01*
X-3073139Y21150882D01*
X-2979354Y21165736D01*
X-2979352Y21165736D01*
X-2866313Y21223333D01*
X-2776607Y21313039D01*
X-2719013Y21426074D01*
X-2719011Y21426081D01*
X-2704158Y21519863D01*
X-2704158Y22932900D01*
X-2716981Y23013862D01*
X-2719012Y23026686D01*
X-2719012Y23026687D01*
X-2776609Y23139726D01*
X-2866313Y23229430D01*
X-2866315Y23229431D01*
X-2866316Y23229432D01*
X-2884778Y23238839D01*
X-2952763Y23295598D01*
X-2989389Y23376233D01*
X-2987401Y23464774D01*
X-2953238Y23536073D01*
X-2861336Y23657770D01*
X-2861332Y23657776D01*
X-2772486Y23836202D01*
X-2717941Y24027914D01*
X-2699550Y24226381D01*
X-2699550Y24226382D01*
X-2717941Y24424849D01*
X-2717941Y24424851D01*
X-2760770Y24575382D01*
X-2772486Y24616561D01*
X-2861332Y24794987D01*
X-2981450Y24954047D01*
X-2981454Y24954052D01*
X-3118058Y25078582D01*
X26625653Y25078582D01*
X26627262Y25073278D01*
X26725133Y24890177D01*
X26856845Y24729685D01*
X27017337Y24597973D01*
X27200439Y24500101D01*
X27399123Y24439831D01*
X27553953Y24424582D01*
X27959742Y24424582D01*
X27959742Y25078582D01*
X26625653Y25078582D01*
X-3118058Y25078582D01*
X-3118866Y25079319D01*
X-3169398Y25152052D01*
X-3183368Y25239506D01*
X-3158009Y25324361D01*
X-3118866Y25373445D01*
X-2981454Y25498711D01*
X-2981450Y25498716D01*
X-2861332Y25657776D01*
X-2772486Y25836202D01*
X-2722314Y26012544D01*
X-2717941Y26027913D01*
X-2699550Y26226382D01*
X-2717941Y26424851D01*
X-2753641Y26550326D01*
X-2772486Y26616561D01*
X-2861332Y26794987D01*
X-2952041Y26915104D01*
X-2981449Y26954046D01*
X-2981450Y26954047D01*
X-2981454Y26954052D01*
X-3128746Y27088325D01*
X-3128747Y27088326D01*
X-3128748Y27088327D01*
X-3177563Y27118552D01*
X-3240598Y27180762D01*
X-3270400Y27264161D01*
X-3261064Y27352231D01*
X-3214441Y27427528D01*
X-3199047Y27441574D01*
X-3086890Y27533618D01*
X-2965050Y27682081D01*
X-2887921Y27826382D01*
X-3748177Y27826382D01*
X-3654510Y27841217D01*
X-3541613Y27898741D01*
X-3528749Y27911605D01*
X26451241Y27911605D01*
X26490557Y27701285D01*
X26567851Y27501767D01*
X26567852Y27501765D01*
X26680481Y27319863D01*
X26680485Y27319858D01*
X26824627Y27161741D01*
X26824631Y27161738D01*
X26995367Y27032803D01*
X27186904Y26937429D01*
X27359793Y26888238D01*
X27437446Y26845654D01*
X27488933Y26773595D01*
X27504056Y26686332D01*
X27479819Y26601150D01*
X27421023Y26534919D01*
X27363099Y26506404D01*
X27200441Y26457063D01*
X27200439Y26457062D01*
X27017337Y26359190D01*
X26856845Y26227478D01*
X26725133Y26066986D01*
X26627262Y25883885D01*
X26625653Y25878582D01*
X28057845Y25878582D01*
X27977981Y25809380D01*
X27900249Y25688426D01*
X27859742Y25550471D01*
X27859742Y25406693D01*
X27900249Y25268738D01*
X27977981Y25147784D01*
X28086642Y25053630D01*
X28217427Y24993902D01*
X28323979Y24978582D01*
X28395505Y24978582D01*
X28502057Y24993902D01*
X28632842Y25053630D01*
X28661639Y25078582D01*
X28759742Y25078582D01*
X28759742Y24424582D01*
X29165530Y24424582D01*
X29320360Y24439831D01*
X29519044Y24500101D01*
X29702146Y24597973D01*
X29862638Y24729685D01*
X29994350Y24890177D01*
X30092221Y25073278D01*
X30093831Y25078582D01*
X28759742Y25078582D01*
X28661639Y25078582D01*
X28741503Y25147784D01*
X28819235Y25268738D01*
X28859742Y25406693D01*
X28859742Y25550471D01*
X28819235Y25688426D01*
X28741503Y25809380D01*
X28661639Y25878582D01*
X30093830Y25878582D01*
X30092221Y25883885D01*
X29994350Y26066986D01*
X29862638Y26227478D01*
X29702146Y26359190D01*
X29519043Y26457062D01*
X29356384Y26506404D01*
X29279480Y26550326D01*
X29229248Y26623266D01*
X29215639Y26710777D01*
X29241347Y26795527D01*
X29301281Y26860730D01*
X29359691Y26888238D01*
X29532578Y26937429D01*
X29724116Y27032803D01*
X29894852Y27161738D01*
X29894856Y27161741D01*
X29989224Y27265258D01*
X30039000Y27319860D01*
X30114362Y27441574D01*
X30151631Y27501765D01*
X30151632Y27501767D01*
X30151635Y27501772D01*
X30228927Y27701285D01*
X30268242Y27911602D01*
X30268242Y28125562D01*
X30228927Y28335879D01*
X30151635Y28535392D01*
X30039000Y28717304D01*
X29894856Y28875423D01*
X29724112Y29004363D01*
X29532582Y29099733D01*
X29326790Y29158286D01*
X29167117Y29173082D01*
X27552367Y29173082D01*
X27392694Y29158286D01*
X27392687Y29158284D01*
X27186905Y29099734D01*
X27186904Y29099733D01*
X27186902Y29099733D01*
X26995372Y29004363D01*
X26995370Y29004361D01*
X26995367Y29004360D01*
X26824631Y28875425D01*
X26824627Y28875422D01*
X26680485Y28717305D01*
X26680481Y28717300D01*
X26567852Y28535398D01*
X26567851Y28535396D01*
X26567849Y28535392D01*
X26490557Y28335879D01*
X26451242Y28125562D01*
X26451242Y28125558D01*
X26451242Y27911605D01*
X26451241Y27911605D01*
X-3528749Y27911605D01*
X-3452017Y27988337D01*
X-3394493Y28101234D01*
X-3374672Y28226382D01*
X-3394493Y28351530D01*
X-3452017Y28464427D01*
X-3541613Y28554023D01*
X-3654510Y28611547D01*
X-3748177Y28626382D01*
X-3811139Y28626382D01*
X-3904806Y28611547D01*
X-4017703Y28554023D01*
X-4107299Y28464427D01*
X-4164823Y28351530D01*
X-4184644Y28226382D01*
X-4164823Y28101234D01*
X-4107299Y27988337D01*
X-4017703Y27898741D01*
X-3904806Y27841217D01*
X-3811139Y27826382D01*
X-4671395Y27826382D01*
X-4594265Y27682081D01*
X-4472423Y27533616D01*
X-4406739Y27479711D01*
X-4352497Y27409702D01*
X-4334003Y27323091D01*
X-4354919Y27237033D01*
X-4411103Y27168573D01*
X-4491426Y27131269D01*
X-4532983Y27126882D01*
X-25958431Y27126882D01*
X-26044774Y27146589D01*
X-26099145Y27185168D01*
X-27540359Y28626382D01*
X-4671395Y28626382D01*
X-4179658Y28626382D01*
X-4179658Y29118117D01*
X-3379658Y29118117D01*
X-3379658Y28626382D01*
X-2887920Y28626382D01*
X-2965050Y28770682D01*
X-3086892Y28919147D01*
X-3235349Y29040982D01*
X-3235358Y29040988D01*
X-3379658Y29118117D01*
X-4179658Y29118117D01*
X-4323957Y29040988D01*
X-4323966Y29040982D01*
X-4472423Y28919147D01*
X-4594265Y28770682D01*
X-4671395Y28626382D01*
X-27540359Y28626382D01*
X-28890941Y29976964D01*
X-28938060Y30051952D01*
X-28947976Y30139959D01*
X-28918725Y30223552D01*
X-28913238Y30231820D01*
X-28835424Y30342948D01*
X-28835422Y30342952D01*
X-28735553Y30557121D01*
X-28735553Y30557122D01*
X-28674396Y30785367D01*
X-28666488Y30875744D01*
X-28653799Y31020782D01*
X-28674395Y31256190D01*
X-28674395Y31256192D01*
X-28674396Y31256196D01*
X-28735552Y31484439D01*
X-28784940Y31590351D01*
X-28835423Y31698611D01*
X-28950343Y31862735D01*
X-28970959Y31892178D01*
X-28970961Y31892180D01*
X-28970963Y31892183D01*
X-29138057Y32059277D01*
X-29153742Y32070260D01*
X-29331624Y32194815D01*
X-29331628Y32194817D01*
X-29545797Y32294686D01*
X-29774043Y32355843D01*
X-29774050Y32355845D01*
X-30009458Y32376441D01*
X-30244866Y32355845D01*
X-30345890Y32328776D01*
X-30473115Y32294687D01*
X-30473116Y32294686D01*
X-30473121Y32294685D01*
X-30687287Y32194817D01*
X-30880859Y32059277D01*
X-31047953Y31892183D01*
X-31183493Y31698611D01*
X-31283361Y31484445D01*
X-31283362Y31484440D01*
X-31283363Y31484439D01*
X-31308325Y31391276D01*
X-31344521Y31256190D01*
X-31365117Y31020782D01*
X-39188051Y31020782D01*
X-39188051Y31043663D01*
X-39180771Y31068174D01*
X-39143369Y31169697D01*
X-39139555Y31179276D01*
X-39081395Y31315019D01*
X-39077090Y31324389D01*
X-39011969Y31456952D01*
X-39007184Y31466086D01*
X-38935300Y31595069D01*
X-38930049Y31603943D01*
X-38851565Y31729054D01*
X-38845861Y31737645D01*
X-38761002Y31858522D01*
X-38754860Y31866805D01*
X-38663860Y31983115D01*
X-38657298Y31991068D01*
X-38560386Y32102520D01*
X-38553420Y32110125D01*
X-38450871Y32216400D01*
X-38443523Y32223630D01*
X-38335618Y32324442D01*
X-38327901Y32331286D01*
X-38214913Y32426376D01*
X-38206856Y32432808D01*
X-38089083Y32521927D01*
X-38080701Y32527934D01*
X-37958465Y32610836D01*
X-37949784Y32616401D01*
X-37823430Y32692852D01*
X-37814473Y32697960D01*
X-37684334Y32767761D01*
X-37675124Y32772397D01*
X-37541557Y32835358D01*
X-37532118Y32839512D01*
X-37395433Y32895483D01*
X-37385795Y32899141D01*
X-37246435Y32947945D01*
X-37236617Y32951100D01*
X-37094883Y32992628D01*
X-37084915Y32995270D01*
X-36941223Y33029400D01*
X-36931132Y33031523D01*
X-36785863Y33058164D01*
X-36775678Y33059760D01*
X-36629238Y33078840D01*
X-36618980Y33079907D01*
X-36471730Y33091376D01*
X-36461433Y33091910D01*
X-36311537Y33095795D01*
X-36305806Y33095861D01*
X-10100825Y33020089D01*
G37*
%TD.AperFunction*%
%TD*%
%TA.AperFunction,Conductor*%
%TO.N,Board_0-GND*%
G36*
X-10100825Y50818272D02*
G01*
X-10014539Y50798315D01*
X-9945457Y50742897D01*
X-9907262Y50662993D01*
X-9907518Y50574431D01*
X-9946175Y50494749D01*
X-9996636Y50450082D01*
X-10146020Y50357589D01*
X-10310439Y50207701D01*
X-10444516Y50030154D01*
X-10543687Y49830993D01*
X-10604573Y49617001D01*
X-10623496Y49412784D01*
X-10624840Y49398277D01*
X-10625101Y49395465D01*
X-10604573Y49173929D01*
X-10543687Y48959937D01*
X-10444516Y48760776D01*
X-10444513Y48760772D01*
X-10444512Y48760770D01*
X-10322019Y48598564D01*
X-10310439Y48583229D01*
X-10146020Y48433341D01*
X-9956859Y48316218D01*
X-9749398Y48235847D01*
X-9530701Y48194965D01*
X-9530699Y48194965D01*
X-9308217Y48194965D01*
X-9308215Y48194965D01*
X-9089518Y48235847D01*
X-8882057Y48316218D01*
X-8882055Y48316219D01*
X-8882053Y48316220D01*
X-8767346Y48387243D01*
X-7661993Y48387243D01*
X-7661992Y48387242D01*
X-7521785Y48332926D01*
X-7521779Y48332924D01*
X-7321385Y48295465D01*
X-7117531Y48295465D01*
X-6917136Y48332924D01*
X-6917130Y48332926D01*
X-6776922Y48387242D01*
X-6776922Y48387243D01*
X-7219458Y48829779D01*
X-7219459Y48829779D01*
X-7661993Y48387243D01*
X-8767346Y48387243D01*
X-8692900Y48433338D01*
X-8692898Y48433339D01*
X-8692896Y48433341D01*
X-8528477Y48583229D01*
X-8528476Y48583230D01*
X-8528473Y48583233D01*
X-8394403Y48760770D01*
X-8394398Y48760778D01*
X-8358859Y48832149D01*
X-8302731Y48900655D01*
X-8260121Y48920485D01*
X-7785143Y49395464D01*
X-7785143Y49395465D01*
X-7624444Y49395465D01*
X-7604623Y49270317D01*
X-7547099Y49157420D01*
X-7457503Y49067824D01*
X-7344606Y49010300D01*
X-7250939Y48995465D01*
X-7187977Y48995465D01*
X-7094310Y49010300D01*
X-6981413Y49067824D01*
X-6891817Y49157420D01*
X-6834293Y49270317D01*
X-6814472Y49395464D01*
X-6653772Y49395464D01*
X-6211070Y48952763D01*
X-6211069Y48952763D01*
X-6189344Y48996395D01*
X-6189342Y48996401D01*
X-6133556Y49192468D01*
X-6133554Y49192478D01*
X-6114745Y49395464D01*
X-6114745Y49395465D01*
X-6133554Y49598451D01*
X-6133556Y49598461D01*
X-6189341Y49794526D01*
X-6211070Y49838165D01*
X-6653772Y49395465D01*
X-6653772Y49395464D01*
X-6814472Y49395464D01*
X-6814472Y49395465D01*
X-6834293Y49520613D01*
X-6891817Y49633510D01*
X-6981413Y49723106D01*
X-7094310Y49780630D01*
X-7187977Y49795465D01*
X-7250939Y49795465D01*
X-7344606Y49780630D01*
X-7457503Y49723106D01*
X-7547099Y49633510D01*
X-7604623Y49520613D01*
X-7624444Y49395465D01*
X-7785143Y49395465D01*
X-8258122Y49868443D01*
X-8314298Y49899975D01*
X-8358859Y49958778D01*
X-8360040Y49961150D01*
X-8394400Y50030154D01*
X-8394401Y50030155D01*
X-8394403Y50030159D01*
X-8528473Y50207696D01*
X-8528477Y50207701D01*
X-8692896Y50357589D01*
X-8835876Y50446118D01*
X-8898911Y50508326D01*
X-8928713Y50591725D01*
X-8919379Y50679795D01*
X-8872756Y50755093D01*
X-8798080Y50802706D01*
X-8730541Y50814310D01*
X-7673914Y50811255D01*
X-7587628Y50791298D01*
X-7518546Y50735880D01*
X-7480351Y50655977D01*
X-7480607Y50567414D01*
X-7519264Y50487732D01*
X-7588665Y50432714D01*
X-7602602Y50426694D01*
X-7661992Y50403685D01*
X-7661993Y50403684D01*
X-7219459Y49961150D01*
X-7219458Y49961150D01*
X-6776921Y50403685D01*
X-6776922Y50403686D01*
X-6829469Y50424043D01*
X-6902863Y50473610D01*
X-6947481Y50550113D01*
X-6954488Y50638399D01*
X-6922495Y50720981D01*
X-6857839Y50781505D01*
X-6773326Y50807981D01*
X-6757007Y50808604D01*
X33056700Y50693482D01*
X33061141Y50693420D01*
X33371334Y50685599D01*
X33381352Y50685093D01*
X33687916Y50661866D01*
X33697896Y50660857D01*
X34002963Y50622204D01*
X34012880Y50620692D01*
X34315562Y50566723D01*
X34325390Y50564714D01*
X34624967Y50495562D01*
X34634680Y50493061D01*
X34930411Y50408897D01*
X34939988Y50405908D01*
X35231079Y50306954D01*
X35240491Y50303488D01*
X35526248Y50189984D01*
X35535475Y50186047D01*
X35815176Y50058274D01*
X35824191Y50053877D01*
X36097014Y49912218D01*
X36105798Y49907372D01*
X36371216Y49752096D01*
X36379743Y49746815D01*
X36636945Y49578398D01*
X36645196Y49572693D01*
X36893654Y49391478D01*
X36901607Y49385364D01*
X37140550Y49191914D01*
X37148185Y49185408D01*
X37377111Y48980131D01*
X37384408Y48973248D01*
X37602689Y48756706D01*
X37609624Y48749470D01*
X37729178Y48618271D01*
X37816709Y48522212D01*
X37823276Y48514629D01*
X38018665Y48277200D01*
X38024841Y48269297D01*
X38207995Y48022355D01*
X38213766Y48014150D01*
X38384263Y47758264D01*
X38389611Y47749781D01*
X38494960Y47572965D01*
X38546985Y47485648D01*
X38551901Y47476903D01*
X38695765Y47205172D01*
X38700233Y47196193D01*
X38830223Y46917560D01*
X38834234Y46908364D01*
X38950017Y46623531D01*
X38953559Y46614147D01*
X39054841Y46323848D01*
X39057906Y46314296D01*
X39144442Y46019221D01*
X39147021Y46009527D01*
X39218562Y45710534D01*
X39220650Y45700723D01*
X39277043Y45398456D01*
X39278633Y45388552D01*
X39319717Y45083872D01*
X39320807Y45073899D01*
X39346490Y44767462D01*
X39347075Y44757450D01*
X39357283Y44450183D01*
X39357364Y44440151D01*
X39352073Y44132686D01*
X39351647Y44122663D01*
X39330872Y43815912D01*
X39329942Y43805925D01*
X39293735Y43500603D01*
X39292304Y43490675D01*
X39240752Y43187533D01*
X39238828Y43177723D01*
X39172070Y42877582D01*
X39169646Y42867848D01*
X39087850Y42571456D01*
X39084938Y42561858D01*
X39042805Y42434582D01*
X38988309Y42269963D01*
X38984918Y42260524D01*
X38873711Y41973887D01*
X38869849Y41964632D01*
X38763579Y41726989D01*
X38744333Y41683952D01*
X38740012Y41674908D01*
X38724562Y41644561D01*
X38600498Y41400881D01*
X38595723Y41392060D01*
X38442603Y41125456D01*
X38437389Y41116885D01*
X38271019Y40858322D01*
X38265381Y40850027D01*
X38086181Y40600156D01*
X38080131Y40592154D01*
X37888583Y40351653D01*
X37882138Y40343967D01*
X37678715Y40113423D01*
X37671890Y40106070D01*
X37457091Y39886054D01*
X37449905Y39879056D01*
X37224318Y39670167D01*
X37216789Y39663539D01*
X36980930Y39466256D01*
X36973089Y39460027D01*
X36727560Y39274858D01*
X36719482Y39269080D01*
X36464922Y39096511D01*
X36456513Y39091115D01*
X36193609Y38931610D01*
X36184937Y38926644D01*
X35914337Y38780593D01*
X35905432Y38776072D01*
X35627793Y38643833D01*
X35618685Y38639774D01*
X35341923Y38524683D01*
X35334750Y38521700D01*
X35325395Y38518084D01*
X35035901Y38414478D01*
X35026398Y38411344D01*
X34732020Y38322448D01*
X34722399Y38319806D01*
X34423904Y38245855D01*
X34414189Y38243706D01*
X34112307Y38184883D01*
X34102457Y38183221D01*
X33798060Y38139693D01*
X33788117Y38138527D01*
X33481923Y38110396D01*
X33471966Y38109733D01*
X33164034Y38097037D01*
X33155393Y38096870D01*
X-36204871Y38261874D01*
X-36208986Y38261927D01*
X-36364675Y38265646D01*
X-36374909Y38266156D01*
X-36527093Y38277697D01*
X-36537297Y38278738D01*
X-36688685Y38298149D01*
X-36698816Y38299716D01*
X-36848961Y38326936D01*
X-36859006Y38329027D01*
X-37007530Y38363984D01*
X-37017478Y38366599D01*
X-37164002Y38409205D01*
X-37173803Y38412332D01*
X-37317934Y38462475D01*
X-37327526Y38466094D01*
X-37468845Y38523625D01*
X-37478257Y38527744D01*
X-37616419Y38592523D01*
X-37625626Y38597135D01*
X-37760233Y38668976D01*
X-37769185Y38674056D01*
X-37899864Y38752758D01*
X-37908543Y38758297D01*
X-38035000Y38843681D01*
X-38043362Y38849647D01*
X-38165236Y38941473D01*
X-38173294Y38947880D01*
X-38290218Y39045870D01*
X-38297948Y39052696D01*
X-38341073Y39092819D01*
X-38409658Y39156630D01*
X-38417017Y39163842D01*
X-38523158Y39273384D01*
X-38530140Y39280973D01*
X-38630489Y39395895D01*
X-38637067Y39403834D01*
X-38681212Y39460016D01*
X-38731327Y39523797D01*
X-38737483Y39532063D01*
X-38825395Y39656737D01*
X-38831115Y39665313D01*
X-38912449Y39794366D01*
X-38917719Y39803229D01*
X-38960187Y39879056D01*
X-38992273Y39936347D01*
X-38997077Y39945471D01*
X-39064617Y40082235D01*
X-39068942Y40091595D01*
X-39129330Y40231725D01*
X-39133163Y40241296D01*
X-39186188Y40384299D01*
X-39189522Y40394059D01*
X-39235088Y40539685D01*
X-39237911Y40549599D01*
X-39249715Y40595550D01*
X-39275863Y40697344D01*
X-39278167Y40707390D01*
X-39289217Y40762008D01*
X-39287023Y40850544D01*
X-39246631Y40929360D01*
X-39176043Y40982846D01*
X-39089238Y41000408D01*
X-39071248Y40999145D01*
X-39066249Y40998565D01*
X-37321458Y40998565D01*
X-37321458Y41573565D01*
X-36521458Y41573565D01*
X-36521458Y40998565D01*
X-34776668Y40998565D01*
X-34751581Y41001475D01*
X-34751579Y41001476D01*
X-34648980Y41046777D01*
X-34648975Y41046781D01*
X-34569674Y41126082D01*
X-34569670Y41126087D01*
X-34524368Y41228687D01*
X-34524367Y41228692D01*
X-34521458Y41253766D01*
X-34521458Y41573565D01*
X-36521458Y41573565D01*
X-37321458Y41573565D01*
X-37321458Y42373565D01*
X-36521458Y42373565D01*
X-34521459Y42373565D01*
X-34521459Y42693354D01*
X-34524368Y42718441D01*
X-34524369Y42718443D01*
X-34569670Y42821042D01*
X-34569674Y42821047D01*
X-34648975Y42900348D01*
X-34648980Y42900352D01*
X-34751580Y42945654D01*
X-34751585Y42945655D01*
X-34776666Y42948564D01*
X-36521457Y42948564D01*
X-36521458Y42948563D01*
X-36521458Y42373565D01*
X-37321458Y42373565D01*
X-37321458Y42948564D01*
X-39066248Y42948564D01*
X-39091331Y42945654D01*
X-39105315Y42941850D01*
X-39193803Y42938199D01*
X-39275112Y42973302D01*
X-39333138Y43040208D01*
X-39356389Y43125665D01*
X-39356558Y43133833D01*
X-39357181Y46463419D01*
X-39337490Y46549765D01*
X-39282285Y46619017D01*
X-39202499Y46657458D01*
X-39113936Y46657475D01*
X-39105933Y46654825D01*
X-39105776Y46655405D01*
X-39091330Y46651474D01*
X-39066256Y46648565D01*
X-37321458Y46648565D01*
X-37321458Y47223565D01*
X-36521458Y47223565D01*
X-36521458Y46648565D01*
X-34776668Y46648565D01*
X-34751581Y46651475D01*
X-34751579Y46651476D01*
X-34648980Y46696777D01*
X-34648975Y46696781D01*
X-34569674Y46776082D01*
X-34569670Y46776087D01*
X-34524368Y46878687D01*
X-34524367Y46878692D01*
X-34521458Y46903766D01*
X-34521458Y47223565D01*
X-36521458Y47223565D01*
X-37321458Y47223565D01*
X-37321458Y48023565D01*
X-36521458Y48023565D01*
X-34521459Y48023565D01*
X-34521459Y48343354D01*
X-34524368Y48368441D01*
X-34524369Y48368443D01*
X-34569670Y48471042D01*
X-34569674Y48471047D01*
X-34648975Y48550348D01*
X-34648980Y48550352D01*
X-34751580Y48595654D01*
X-34751585Y48595655D01*
X-34776666Y48598564D01*
X-36521457Y48598564D01*
X-36521458Y48598563D01*
X-36521458Y48023565D01*
X-37321458Y48023565D01*
X-37321458Y48598564D01*
X-38994040Y48598564D01*
X-39080383Y48618271D01*
X-39149624Y48673490D01*
X-39188051Y48753282D01*
X-39188051Y48818965D01*
X-31365117Y48818965D01*
X-31344521Y48583557D01*
X-31327243Y48519075D01*
X-31283362Y48355305D01*
X-31283362Y48355304D01*
X-31183493Y48141135D01*
X-31183491Y48141131D01*
X-31047951Y47947561D01*
X-30968244Y47867854D01*
X-30921125Y47792866D01*
X-30909958Y47727140D01*
X-30909958Y47706695D01*
X-30912408Y47675566D01*
X-30913677Y47667554D01*
X-30910231Y47601793D01*
X-30909958Y47591379D01*
X-30909958Y47572973D01*
X-30909957Y47572965D01*
X-30908034Y47554671D01*
X-30907219Y47544334D01*
X-30903771Y47478519D01*
X-30901671Y47470683D01*
X-30895979Y47439971D01*
X-30895132Y47431909D01*
X-30874774Y47369255D01*
X-30871828Y47359310D01*
X-30854778Y47295677D01*
X-30851098Y47288456D01*
X-30839140Y47259586D01*
X-30836637Y47251881D01*
X-30807113Y47200744D01*
X-30803715Y47194860D01*
X-30798742Y47185701D01*
X-30768842Y47127018D01*
X-30768839Y47127014D01*
X-30763738Y47120715D01*
X-30746041Y47094965D01*
X-30741991Y47087949D01*
X-30741990Y47087948D01*
X-30697912Y47038994D01*
X-30691176Y47031108D01*
X-30679577Y47016785D01*
X-30679570Y47016778D01*
X-30666573Y47003781D01*
X-30659402Y46996225D01*
X-30615329Y46947277D01*
X-30615325Y46947274D01*
X-30608758Y46942503D01*
X-30585018Y46922226D01*
X-27111797Y43449005D01*
X-27091519Y43425263D01*
X-27086746Y43418694D01*
X-27086745Y43418693D01*
X-27037798Y43374621D01*
X-27030237Y43367445D01*
X-27017241Y43354448D01*
X-27017233Y43354441D01*
X-27002950Y43342875D01*
X-26995028Y43336109D01*
X-26946078Y43292035D01*
X-26946070Y43292029D01*
X-26939043Y43287972D01*
X-26913311Y43270287D01*
X-26907007Y43265182D01*
X-26848310Y43235275D01*
X-26839186Y43230320D01*
X-26819743Y43219095D01*
X-26782140Y43197384D01*
X-26774428Y43194879D01*
X-26745582Y43182931D01*
X-26738351Y43179247D01*
X-26738348Y43179245D01*
X-26711931Y43172167D01*
X-26674721Y43162197D01*
X-26664768Y43159248D01*
X-26602114Y43138891D01*
X-26594030Y43138041D01*
X-26563341Y43132352D01*
X-26555511Y43130254D01*
X-26555504Y43130253D01*
X-26489745Y43126805D01*
X-26479373Y43125990D01*
X-26461056Y43124065D01*
X-26461050Y43124065D01*
X-26442638Y43124065D01*
X-26432223Y43123792D01*
X-26366472Y43120346D01*
X-26366470Y43120346D01*
X-26366469Y43120346D01*
X-26358458Y43121615D01*
X-26327329Y43124065D01*
X-11500158Y43124065D01*
X-11413815Y43104358D01*
X-11344574Y43049139D01*
X-11306147Y42969347D01*
X-11301158Y42925065D01*
X-11301158Y41726989D01*
X-11320865Y41640646D01*
X-11359444Y41586275D01*
X-11439153Y41506566D01*
X-11574693Y41312994D01*
X-11674561Y41098828D01*
X-11674562Y41098823D01*
X-11674563Y41098822D01*
X-11694870Y41023033D01*
X-11735721Y40870573D01*
X-11756317Y40635165D01*
X-11735721Y40399757D01*
X-11735719Y40399750D01*
X-11674562Y40171505D01*
X-11674562Y40171504D01*
X-11574693Y39957335D01*
X-11574691Y39957331D01*
X-11439151Y39763761D01*
X-11272061Y39596671D01*
X-11078491Y39461131D01*
X-11078487Y39461129D01*
X-10864318Y39361260D01*
X-10636072Y39300103D01*
X-10636068Y39300102D01*
X-10636066Y39300102D01*
X-10400658Y39279506D01*
X-10165250Y39300102D01*
X-10165247Y39300102D01*
X-10165243Y39300103D01*
X-9936998Y39361260D01*
X-9936997Y39361260D01*
X-9722828Y39461129D01*
X-9722824Y39461131D01*
X-9529254Y39596671D01*
X-9362164Y39763761D01*
X-9226624Y39957331D01*
X-9226622Y39957335D01*
X-9126753Y40171504D01*
X-9126753Y40171505D01*
X-9065596Y40399750D01*
X-9052947Y40544316D01*
X-9044999Y40635165D01*
X-9065595Y40870573D01*
X-9065595Y40870575D01*
X-9065596Y40870579D01*
X-9126752Y41098822D01*
X-9198870Y41253478D01*
X-9226623Y41312994D01*
X-9305762Y41426017D01*
X-9362159Y41506561D01*
X-9362166Y41506569D01*
X-9441872Y41586275D01*
X-9488991Y41661263D01*
X-9500158Y41726989D01*
X-9500158Y42925065D01*
X-9480451Y43011408D01*
X-9425232Y43080649D01*
X-9345440Y43119076D01*
X-9301158Y43124065D01*
X-4683661Y43124065D01*
X-4597318Y43104358D01*
X-4528077Y43049139D01*
X-4489650Y42969347D01*
X-4489650Y42880783D01*
X-4528077Y42800991D01*
X-4549597Y42778001D01*
X-4563390Y42765425D01*
X-4577867Y42752229D01*
X-4697984Y42593169D01*
X-4786829Y42414745D01*
X-4841375Y42223034D01*
X-4859766Y42024565D01*
X-4841375Y41826096D01*
X-4794476Y41661263D01*
X-4786829Y41634385D01*
X-4697983Y41455959D01*
X-4606077Y41334257D01*
X-4569770Y41253478D01*
X-4572108Y41164945D01*
X-4612626Y41086195D01*
X-4674537Y41037022D01*
X-4693000Y41027615D01*
X-4782708Y40937907D01*
X-4840304Y40824869D01*
X-4855158Y40731084D01*
X-4855157Y39318047D01*
X-4840304Y39224261D01*
X-4807232Y39159353D01*
X-4782706Y39111220D01*
X-4693000Y39021514D01*
X-4579965Y38963920D01*
X-4579958Y38963918D01*
X-4514476Y38953547D01*
X-4486177Y38949065D01*
X-4486176Y38949065D01*
X-3073139Y38949065D01*
X-2979354Y38963919D01*
X-2979352Y38963919D01*
X-2866313Y39021516D01*
X-2776607Y39111222D01*
X-2719013Y39224257D01*
X-2719011Y39224264D01*
X-2704158Y39318046D01*
X-2704158Y40731083D01*
X-2716981Y40812045D01*
X-2719012Y40824869D01*
X-2719012Y40824870D01*
X-2776609Y40937909D01*
X-2866313Y41027613D01*
X-2866315Y41027614D01*
X-2866316Y41027615D01*
X-2884778Y41037022D01*
X-2952763Y41093781D01*
X-2989389Y41174416D01*
X-2987401Y41262957D01*
X-2953238Y41334256D01*
X-2861336Y41455953D01*
X-2861332Y41455959D01*
X-2772486Y41634385D01*
X-2717941Y41826097D01*
X-2699550Y42024564D01*
X-2699550Y42024565D01*
X-2717941Y42223032D01*
X-2717941Y42223034D01*
X-2760770Y42373565D01*
X-2772486Y42414744D01*
X-2861332Y42593170D01*
X-2981450Y42752230D01*
X-2981454Y42752235D01*
X-3118058Y42876765D01*
X26625653Y42876765D01*
X26627262Y42871461D01*
X26725133Y42688360D01*
X26856845Y42527868D01*
X27017337Y42396156D01*
X27200439Y42298284D01*
X27399123Y42238014D01*
X27553953Y42222765D01*
X27959742Y42222765D01*
X27959742Y42876765D01*
X26625653Y42876765D01*
X-3118058Y42876765D01*
X-3118866Y42877502D01*
X-3169398Y42950235D01*
X-3183368Y43037689D01*
X-3158009Y43122544D01*
X-3118866Y43171628D01*
X-2981454Y43296894D01*
X-2981450Y43296899D01*
X-2861332Y43455959D01*
X-2772486Y43634385D01*
X-2722314Y43810727D01*
X-2717941Y43826096D01*
X-2699550Y44024565D01*
X-2717941Y44223034D01*
X-2753641Y44348509D01*
X-2772486Y44414744D01*
X-2861332Y44593170D01*
X-2952041Y44713287D01*
X-2981449Y44752229D01*
X-2981450Y44752230D01*
X-2981454Y44752235D01*
X-3128746Y44886508D01*
X-3128747Y44886509D01*
X-3128748Y44886510D01*
X-3177563Y44916735D01*
X-3240598Y44978945D01*
X-3270400Y45062344D01*
X-3261064Y45150414D01*
X-3214441Y45225711D01*
X-3199047Y45239757D01*
X-3086890Y45331801D01*
X-2965050Y45480264D01*
X-2887921Y45624565D01*
X-3748177Y45624565D01*
X-3654510Y45639400D01*
X-3541613Y45696924D01*
X-3528749Y45709788D01*
X26451241Y45709788D01*
X26490557Y45499468D01*
X26567851Y45299950D01*
X26567852Y45299948D01*
X26680481Y45118046D01*
X26680485Y45118041D01*
X26824627Y44959924D01*
X26824631Y44959921D01*
X26995367Y44830986D01*
X27186904Y44735612D01*
X27359793Y44686421D01*
X27437446Y44643837D01*
X27488933Y44571778D01*
X27504056Y44484515D01*
X27479819Y44399333D01*
X27421023Y44333102D01*
X27363099Y44304587D01*
X27200441Y44255246D01*
X27200439Y44255245D01*
X27017337Y44157373D01*
X26856845Y44025661D01*
X26725133Y43865169D01*
X26627262Y43682068D01*
X26625653Y43676765D01*
X28057845Y43676765D01*
X27977981Y43607563D01*
X27900249Y43486609D01*
X27859742Y43348654D01*
X27859742Y43204876D01*
X27900249Y43066921D01*
X27977981Y42945967D01*
X28086642Y42851813D01*
X28217427Y42792085D01*
X28323979Y42776765D01*
X28395505Y42776765D01*
X28502057Y42792085D01*
X28632842Y42851813D01*
X28661639Y42876765D01*
X28759742Y42876765D01*
X28759742Y42222765D01*
X29165530Y42222765D01*
X29320360Y42238014D01*
X29519044Y42298284D01*
X29702146Y42396156D01*
X29862638Y42527868D01*
X29994350Y42688360D01*
X30092221Y42871461D01*
X30093831Y42876765D01*
X28759742Y42876765D01*
X28661639Y42876765D01*
X28741503Y42945967D01*
X28819235Y43066921D01*
X28859742Y43204876D01*
X28859742Y43348654D01*
X28819235Y43486609D01*
X28741503Y43607563D01*
X28661639Y43676765D01*
X30093830Y43676765D01*
X30092221Y43682068D01*
X29994350Y43865169D01*
X29862638Y44025661D01*
X29702146Y44157373D01*
X29519043Y44255245D01*
X29356384Y44304587D01*
X29279480Y44348509D01*
X29229248Y44421449D01*
X29215639Y44508960D01*
X29241347Y44593710D01*
X29301281Y44658913D01*
X29359691Y44686421D01*
X29532578Y44735612D01*
X29724116Y44830986D01*
X29894852Y44959921D01*
X29894856Y44959924D01*
X29989224Y45063441D01*
X30039000Y45118043D01*
X30114362Y45239757D01*
X30151631Y45299948D01*
X30151632Y45299950D01*
X30151635Y45299955D01*
X30228927Y45499468D01*
X30268242Y45709785D01*
X30268242Y45923745D01*
X30228927Y46134062D01*
X30151635Y46333575D01*
X30039000Y46515487D01*
X29894856Y46673606D01*
X29724112Y46802546D01*
X29532582Y46897916D01*
X29326790Y46956469D01*
X29167117Y46971265D01*
X27552367Y46971265D01*
X27392694Y46956469D01*
X27392687Y46956467D01*
X27186905Y46897917D01*
X27186904Y46897916D01*
X27186902Y46897916D01*
X26995372Y46802546D01*
X26995370Y46802544D01*
X26995367Y46802543D01*
X26824631Y46673608D01*
X26824627Y46673605D01*
X26680485Y46515488D01*
X26680481Y46515483D01*
X26567852Y46333581D01*
X26567851Y46333579D01*
X26567849Y46333575D01*
X26490557Y46134062D01*
X26451242Y45923745D01*
X26451242Y45923741D01*
X26451242Y45709788D01*
X26451241Y45709788D01*
X-3528749Y45709788D01*
X-3452017Y45786520D01*
X-3394493Y45899417D01*
X-3374672Y46024565D01*
X-3394493Y46149713D01*
X-3452017Y46262610D01*
X-3541613Y46352206D01*
X-3654510Y46409730D01*
X-3748177Y46424565D01*
X-3811139Y46424565D01*
X-3904806Y46409730D01*
X-4017703Y46352206D01*
X-4107299Y46262610D01*
X-4164823Y46149713D01*
X-4184644Y46024565D01*
X-4164823Y45899417D01*
X-4107299Y45786520D01*
X-4017703Y45696924D01*
X-3904806Y45639400D01*
X-3811139Y45624565D01*
X-4671395Y45624565D01*
X-4594265Y45480264D01*
X-4472423Y45331799D01*
X-4406739Y45277894D01*
X-4352497Y45207885D01*
X-4334003Y45121274D01*
X-4354919Y45035216D01*
X-4411103Y44966756D01*
X-4491426Y44929452D01*
X-4532983Y44925065D01*
X-25958431Y44925065D01*
X-26044774Y44944772D01*
X-26099145Y44983351D01*
X-27540359Y46424565D01*
X-4671395Y46424565D01*
X-4179658Y46424565D01*
X-4179658Y46916300D01*
X-3379658Y46916300D01*
X-3379658Y46424565D01*
X-2887920Y46424565D01*
X-2965050Y46568865D01*
X-3086892Y46717330D01*
X-3235349Y46839165D01*
X-3235358Y46839171D01*
X-3379658Y46916300D01*
X-4179658Y46916300D01*
X-4323957Y46839171D01*
X-4323966Y46839165D01*
X-4472423Y46717330D01*
X-4594265Y46568865D01*
X-4671395Y46424565D01*
X-27540359Y46424565D01*
X-28890941Y47775147D01*
X-28938060Y47850135D01*
X-28947976Y47938142D01*
X-28918725Y48021735D01*
X-28913238Y48030003D01*
X-28835424Y48141131D01*
X-28835422Y48141135D01*
X-28735553Y48355304D01*
X-28735553Y48355305D01*
X-28674396Y48583550D01*
X-28666488Y48673927D01*
X-28653799Y48818965D01*
X-28674395Y49054373D01*
X-28674395Y49054375D01*
X-28674396Y49054379D01*
X-28735552Y49282622D01*
X-28784940Y49388534D01*
X-28835423Y49496794D01*
X-28950343Y49660918D01*
X-28970959Y49690361D01*
X-28970961Y49690363D01*
X-28970963Y49690366D01*
X-29138057Y49857460D01*
X-29153742Y49868443D01*
X-29331624Y49992998D01*
X-29331628Y49993000D01*
X-29545797Y50092869D01*
X-29774043Y50154026D01*
X-29774050Y50154028D01*
X-30009458Y50174624D01*
X-30244866Y50154028D01*
X-30345890Y50126959D01*
X-30473115Y50092870D01*
X-30473116Y50092869D01*
X-30473121Y50092868D01*
X-30687287Y49993000D01*
X-30880859Y49857460D01*
X-31047953Y49690366D01*
X-31183493Y49496794D01*
X-31283361Y49282628D01*
X-31283362Y49282623D01*
X-31283363Y49282622D01*
X-31308325Y49189459D01*
X-31344521Y49054373D01*
X-31365117Y48818965D01*
X-39188051Y48818965D01*
X-39188051Y48841846D01*
X-39180771Y48866357D01*
X-39143369Y48967880D01*
X-39139555Y48977459D01*
X-39081395Y49113202D01*
X-39077090Y49122572D01*
X-39011969Y49255135D01*
X-39007184Y49264269D01*
X-38935300Y49393252D01*
X-38930049Y49402126D01*
X-38851565Y49527237D01*
X-38845861Y49535828D01*
X-38761002Y49656705D01*
X-38754860Y49664988D01*
X-38663860Y49781298D01*
X-38657298Y49789251D01*
X-38560386Y49900703D01*
X-38553420Y49908308D01*
X-38450871Y50014583D01*
X-38443523Y50021813D01*
X-38335618Y50122625D01*
X-38327901Y50129469D01*
X-38214913Y50224559D01*
X-38206856Y50230991D01*
X-38089083Y50320110D01*
X-38080701Y50326117D01*
X-37958465Y50409019D01*
X-37949784Y50414584D01*
X-37823430Y50491035D01*
X-37814473Y50496143D01*
X-37684334Y50565944D01*
X-37675124Y50570580D01*
X-37541557Y50633541D01*
X-37532118Y50637695D01*
X-37395433Y50693666D01*
X-37385795Y50697324D01*
X-37246435Y50746128D01*
X-37236617Y50749283D01*
X-37094883Y50790811D01*
X-37084915Y50793453D01*
X-36941223Y50827583D01*
X-36931132Y50829706D01*
X-36785863Y50856347D01*
X-36775678Y50857943D01*
X-36629238Y50877023D01*
X-36618980Y50878090D01*
X-36471730Y50889559D01*
X-36461433Y50890093D01*
X-36311537Y50893978D01*
X-36305806Y50894044D01*
X-10100825Y50818272D01*
G37*
%TD.AperFunction*%
%TD*%
%TA.AperFunction,Conductor*%
%TO.N,Board_5-GND*%
G36*
X-10100822Y-38172641D02*
G01*
X-10014537Y-38192598D01*
X-9945455Y-38248016D01*
X-9907260Y-38327920D01*
X-9907516Y-38416482D01*
X-9946173Y-38496164D01*
X-9996638Y-38540833D01*
X-10146020Y-38633326D01*
X-10310439Y-38783214D01*
X-10310442Y-38783218D01*
X-10444512Y-38960755D01*
X-10444513Y-38960757D01*
X-10444516Y-38960761D01*
X-10543687Y-39159922D01*
X-10604573Y-39373914D01*
X-10621891Y-39560811D01*
X-10624833Y-39592562D01*
X-10625101Y-39595450D01*
X-10604573Y-39816986D01*
X-10543687Y-40030978D01*
X-10444516Y-40230139D01*
X-10310439Y-40407686D01*
X-10146020Y-40557574D01*
X-9956859Y-40674697D01*
X-9749398Y-40755068D01*
X-9530701Y-40795950D01*
X-9530699Y-40795950D01*
X-9308217Y-40795950D01*
X-9308215Y-40795950D01*
X-9089518Y-40755068D01*
X-8882057Y-40674697D01*
X-8767342Y-40603669D01*
X-7661993Y-40603669D01*
X-7661992Y-40603670D01*
X-7521779Y-40657990D01*
X-7321384Y-40695450D01*
X-7117531Y-40695450D01*
X-6917135Y-40657989D01*
X-6917133Y-40657989D01*
X-6776922Y-40603671D01*
X-6776921Y-40603670D01*
X-7219458Y-40161135D01*
X-7219459Y-40161135D01*
X-7661993Y-40603669D01*
X-8767342Y-40603669D01*
X-8692896Y-40557574D01*
X-8528477Y-40407686D01*
X-8519093Y-40395260D01*
X-8394403Y-40230144D01*
X-8394401Y-40230140D01*
X-8394400Y-40230139D01*
X-8358858Y-40158762D01*
X-8302731Y-40090257D01*
X-8260119Y-40070425D01*
X-7785143Y-39595450D01*
X-7624444Y-39595450D01*
X-7604623Y-39720598D01*
X-7547099Y-39833495D01*
X-7457503Y-39923091D01*
X-7344606Y-39980615D01*
X-7250939Y-39995450D01*
X-7187977Y-39995450D01*
X-7094310Y-39980615D01*
X-6981413Y-39923091D01*
X-6891817Y-39833495D01*
X-6834293Y-39720598D01*
X-6814472Y-39595450D01*
X-6653772Y-39595450D01*
X-6211070Y-40038150D01*
X-6189341Y-39994511D01*
X-6133556Y-39798446D01*
X-6133554Y-39798436D01*
X-6114745Y-39595450D01*
X-6114745Y-39595449D01*
X-6133554Y-39392463D01*
X-6133556Y-39392453D01*
X-6189342Y-39196386D01*
X-6189344Y-39196380D01*
X-6211069Y-39152748D01*
X-6211070Y-39152748D01*
X-6653772Y-39595449D01*
X-6653772Y-39595450D01*
X-6814472Y-39595450D01*
X-6834293Y-39470302D01*
X-6891817Y-39357405D01*
X-6981413Y-39267809D01*
X-7094310Y-39210285D01*
X-7187977Y-39195450D01*
X-7250939Y-39195450D01*
X-7344606Y-39210285D01*
X-7457503Y-39267809D01*
X-7547099Y-39357405D01*
X-7604623Y-39470302D01*
X-7624444Y-39595450D01*
X-7785143Y-39595450D01*
X-7785143Y-39595449D01*
X-8258120Y-39122471D01*
X-8314307Y-39090930D01*
X-8358859Y-39032134D01*
X-8394398Y-38960763D01*
X-8394403Y-38960755D01*
X-8528473Y-38783218D01*
X-8550618Y-38763030D01*
X-8692896Y-38633326D01*
X-8692898Y-38633324D01*
X-8692900Y-38633323D01*
X-8835878Y-38544795D01*
X-8898914Y-38482586D01*
X-8928715Y-38399187D01*
X-8919380Y-38311117D01*
X-8872758Y-38235819D01*
X-8798082Y-38188207D01*
X-8730545Y-38176603D01*
X-7673909Y-38179658D01*
X-7587626Y-38199615D01*
X-7518544Y-38255033D01*
X-7480349Y-38334936D01*
X-7480605Y-38423499D01*
X-7519262Y-38503181D01*
X-7588663Y-38558199D01*
X-7602601Y-38564219D01*
X-7661992Y-38587227D01*
X-7661993Y-38587228D01*
X-7219459Y-39029764D01*
X-7219458Y-39029764D01*
X-6776922Y-38587228D01*
X-6776922Y-38587227D01*
X-6829471Y-38566870D01*
X-6902864Y-38517303D01*
X-6947483Y-38440800D01*
X-6954490Y-38352515D01*
X-6922497Y-38269932D01*
X-6857841Y-38209408D01*
X-6773328Y-38182932D01*
X-6757030Y-38182309D01*
X33056748Y-38297431D01*
X33061095Y-38297492D01*
X33371363Y-38305314D01*
X33381322Y-38305817D01*
X33687953Y-38329049D01*
X33697858Y-38330051D01*
X34002993Y-38368712D01*
X34012850Y-38370215D01*
X34315582Y-38424193D01*
X34325361Y-38426192D01*
X34624984Y-38495354D01*
X34634672Y-38497849D01*
X34930430Y-38582021D01*
X34939971Y-38584999D01*
X35162670Y-38660703D01*
X35231078Y-38683958D01*
X35240491Y-38687424D01*
X35526248Y-38800928D01*
X35535475Y-38804865D01*
X35815176Y-38932638D01*
X35824191Y-38937035D01*
X36097031Y-39078703D01*
X36105798Y-39083540D01*
X36371216Y-39238816D01*
X36379743Y-39244097D01*
X36636945Y-39412514D01*
X36645196Y-39418219D01*
X36893654Y-39599434D01*
X36901607Y-39605548D01*
X37140550Y-39798998D01*
X37148185Y-39805504D01*
X37377111Y-40010781D01*
X37384408Y-40017664D01*
X37602689Y-40234206D01*
X37609606Y-40241422D01*
X37816722Y-40468715D01*
X37823276Y-40476283D01*
X38018665Y-40713712D01*
X38024841Y-40721615D01*
X38207995Y-40968557D01*
X38213766Y-40976762D01*
X38384263Y-41232648D01*
X38389600Y-41241113D01*
X38546999Y-41505290D01*
X38551896Y-41514001D01*
X38611506Y-41626591D01*
X38695765Y-41785740D01*
X38700228Y-41794709D01*
X38830231Y-42073370D01*
X38834234Y-42082548D01*
X38950017Y-42367381D01*
X38953559Y-42376765D01*
X39054841Y-42667064D01*
X39057906Y-42676616D01*
X39144442Y-42971691D01*
X39147021Y-42981385D01*
X39218562Y-43280378D01*
X39220650Y-43290189D01*
X39277043Y-43592456D01*
X39278633Y-43602360D01*
X39319717Y-43907041D01*
X39320807Y-43917014D01*
X39346490Y-44223450D01*
X39347075Y-44233462D01*
X39357283Y-44540729D01*
X39357364Y-44550761D01*
X39352073Y-44858226D01*
X39351647Y-44868249D01*
X39330872Y-45175000D01*
X39329942Y-45184987D01*
X39293735Y-45490309D01*
X39292304Y-45500237D01*
X39240753Y-45803371D01*
X39238828Y-45813189D01*
X39172070Y-46113330D01*
X39169646Y-46123064D01*
X39087850Y-46419456D01*
X39084938Y-46429056D01*
X38988309Y-46720949D01*
X38984918Y-46730388D01*
X38873714Y-47017018D01*
X38869851Y-47026277D01*
X38744329Y-47306968D01*
X38740005Y-47316018D01*
X38600498Y-47590031D01*
X38595723Y-47598852D01*
X38442603Y-47865456D01*
X38437389Y-47874027D01*
X38271019Y-48132590D01*
X38265381Y-48140885D01*
X38086181Y-48390756D01*
X38080131Y-48398758D01*
X37888583Y-48639259D01*
X37882138Y-48646945D01*
X37678715Y-48877489D01*
X37671890Y-48884842D01*
X37457091Y-49104858D01*
X37449905Y-49111856D01*
X37224318Y-49320745D01*
X37216789Y-49327373D01*
X36980930Y-49524656D01*
X36973076Y-49530896D01*
X36892258Y-49591846D01*
X36727586Y-49716034D01*
X36719456Y-49721851D01*
X36486621Y-49879692D01*
X36464953Y-49894381D01*
X36456511Y-49899798D01*
X36193625Y-50059292D01*
X36184921Y-50064277D01*
X35914349Y-50210313D01*
X35905404Y-50214854D01*
X35627828Y-50347063D01*
X35618665Y-50351147D01*
X35334750Y-50469212D01*
X35325395Y-50472828D01*
X35035901Y-50576434D01*
X35026374Y-50579575D01*
X34732046Y-50668456D01*
X34722373Y-50671113D01*
X34423925Y-50745052D01*
X34414151Y-50747214D01*
X34112346Y-50806022D01*
X34102456Y-50807691D01*
X33798071Y-50851217D01*
X33788107Y-50852386D01*
X33481949Y-50880514D01*
X33471941Y-50881180D01*
X33164049Y-50893874D01*
X33155378Y-50894042D01*
X-36204787Y-50729040D01*
X-36209067Y-50728984D01*
X-36364645Y-50725267D01*
X-36374941Y-50724754D01*
X-36527065Y-50713217D01*
X-36537325Y-50712171D01*
X-36688656Y-50692767D01*
X-36698845Y-50691191D01*
X-36848936Y-50663981D01*
X-36859030Y-50661880D01*
X-37007518Y-50626931D01*
X-37017490Y-50624310D01*
X-37163990Y-50581711D01*
X-37173814Y-50578576D01*
X-37317914Y-50528444D01*
X-37327560Y-50524805D01*
X-37468829Y-50467294D01*
X-37478275Y-50463160D01*
X-37616408Y-50398394D01*
X-37625626Y-50393777D01*
X-37760233Y-50321936D01*
X-37769203Y-50316846D01*
X-37899853Y-50238161D01*
X-37908543Y-50232615D01*
X-38035000Y-50147231D01*
X-38043394Y-50141242D01*
X-38165224Y-50049448D01*
X-38173294Y-50043032D01*
X-38290218Y-49945042D01*
X-38297948Y-49938216D01*
X-38409654Y-49834286D01*
X-38417017Y-49827070D01*
X-38523158Y-49717528D01*
X-38530140Y-49709939D01*
X-38630489Y-49595017D01*
X-38637067Y-49587078D01*
X-38731324Y-49467120D01*
X-38737483Y-49458849D01*
X-38825395Y-49334175D01*
X-38831115Y-49325599D01*
X-38912449Y-49196546D01*
X-38917719Y-49187683D01*
X-38992273Y-49054565D01*
X-38997077Y-49045441D01*
X-39064617Y-48908677D01*
X-39068942Y-48899317D01*
X-39129330Y-48759187D01*
X-39133163Y-48749616D01*
X-39186188Y-48606613D01*
X-39189522Y-48596853D01*
X-39235088Y-48451227D01*
X-39237911Y-48441313D01*
X-39275862Y-48293572D01*
X-39278167Y-48283523D01*
X-39289217Y-48228907D01*
X-39287023Y-48140371D01*
X-39246632Y-48061555D01*
X-39176044Y-48008068D01*
X-39089240Y-47990506D01*
X-39071230Y-47991772D01*
X-39066249Y-47992349D01*
X-37321458Y-47992349D01*
X-37321458Y-47417350D01*
X-36521458Y-47417350D01*
X-36521458Y-47992349D01*
X-34776668Y-47992349D01*
X-34751581Y-47989439D01*
X-34751579Y-47989438D01*
X-34648980Y-47944137D01*
X-34648975Y-47944133D01*
X-34569674Y-47864832D01*
X-34569670Y-47864827D01*
X-34524368Y-47762227D01*
X-34524367Y-47762222D01*
X-34521458Y-47737148D01*
X-34521458Y-47417350D01*
X-36521458Y-47417350D01*
X-37321458Y-47417350D01*
X-37321458Y-46042350D01*
X-36521458Y-46042350D01*
X-36521458Y-46617350D01*
X-34521459Y-46617350D01*
X-34521459Y-46297560D01*
X-34524368Y-46272473D01*
X-34524369Y-46272471D01*
X-34569670Y-46169872D01*
X-34569674Y-46169867D01*
X-34648975Y-46090566D01*
X-34648980Y-46090562D01*
X-34751580Y-46045260D01*
X-34751585Y-46045259D01*
X-34776659Y-46042350D01*
X-36521458Y-46042350D01*
X-37321458Y-46042350D01*
X-39066247Y-46042350D01*
X-39091332Y-46045260D01*
X-39105321Y-46049066D01*
X-39193809Y-46052714D01*
X-39275117Y-46017608D01*
X-39333141Y-45950700D01*
X-39356389Y-45865242D01*
X-39356558Y-45857081D01*
X-39357181Y-42527495D01*
X-39337490Y-42441149D01*
X-39282285Y-42371897D01*
X-39202499Y-42333456D01*
X-39113936Y-42333439D01*
X-39105939Y-42336110D01*
X-39105776Y-42335510D01*
X-39091330Y-42339440D01*
X-39066249Y-42342349D01*
X-37321458Y-42342349D01*
X-37321458Y-41767350D01*
X-36521458Y-41767350D01*
X-36521458Y-42342349D01*
X-34776668Y-42342349D01*
X-34751581Y-42339439D01*
X-34751579Y-42339438D01*
X-34648980Y-42294137D01*
X-34648975Y-42294133D01*
X-34569674Y-42214832D01*
X-34569670Y-42214827D01*
X-34524368Y-42112227D01*
X-34524367Y-42112222D01*
X-34521458Y-42087148D01*
X-34521458Y-41767350D01*
X-36521458Y-41767350D01*
X-37321458Y-41767350D01*
X-37321458Y-40392350D01*
X-36521458Y-40392350D01*
X-36521458Y-40967350D01*
X-34521459Y-40967350D01*
X-34521459Y-40647560D01*
X-34524368Y-40622473D01*
X-34524369Y-40622471D01*
X-34569670Y-40519872D01*
X-34569674Y-40519867D01*
X-34648975Y-40440566D01*
X-34648980Y-40440562D01*
X-34751580Y-40395260D01*
X-34751585Y-40395259D01*
X-34776659Y-40392350D01*
X-36521458Y-40392350D01*
X-37321458Y-40392350D01*
X-38994040Y-40392350D01*
X-39080383Y-40372643D01*
X-39149624Y-40317424D01*
X-39188051Y-40237632D01*
X-39188051Y-40171950D01*
X-31365117Y-40171950D01*
X-31344521Y-40407358D01*
X-31283361Y-40635613D01*
X-31183493Y-40849780D01*
X-31097844Y-40972100D01*
X-31047952Y-41043352D01*
X-30968245Y-41123059D01*
X-30921126Y-41198047D01*
X-30909958Y-41263774D01*
X-30909958Y-41284220D01*
X-30912406Y-41315340D01*
X-30913677Y-41323362D01*
X-30910231Y-41389119D01*
X-30909958Y-41399534D01*
X-30909958Y-41417942D01*
X-30909957Y-41417949D01*
X-30908034Y-41436244D01*
X-30907219Y-41446581D01*
X-30903771Y-41512396D01*
X-30901671Y-41520231D01*
X-30895979Y-41550941D01*
X-30895132Y-41559006D01*
X-30895131Y-41559009D01*
X-30895130Y-41559013D01*
X-30874782Y-41621636D01*
X-30871825Y-41631616D01*
X-30854778Y-41695238D01*
X-30851100Y-41702455D01*
X-30839141Y-41731327D01*
X-30836638Y-41739031D01*
X-30836636Y-41739036D01*
X-30803716Y-41796053D01*
X-30798741Y-41805215D01*
X-30768841Y-41863899D01*
X-30763745Y-41870191D01*
X-30746040Y-41895952D01*
X-30741991Y-41902966D01*
X-30697898Y-41951935D01*
X-30691159Y-41959826D01*
X-30679577Y-41974130D01*
X-30666542Y-41987163D01*
X-30659407Y-41994682D01*
X-30615329Y-42043638D01*
X-30608758Y-42048411D01*
X-30585020Y-42068685D01*
X-27111793Y-45541912D01*
X-27091519Y-45565650D01*
X-27086746Y-45572221D01*
X-27037790Y-45616299D01*
X-27030271Y-45623434D01*
X-27017238Y-45636469D01*
X-27002934Y-45648051D01*
X-26995043Y-45654790D01*
X-26946074Y-45698883D01*
X-26939060Y-45702932D01*
X-26913301Y-45720635D01*
X-26907007Y-45725733D01*
X-26856866Y-45751280D01*
X-26848323Y-45755633D01*
X-26839161Y-45760607D01*
X-26782142Y-45793529D01*
X-26774429Y-45796034D01*
X-26745569Y-45807988D01*
X-26738346Y-45811670D01*
X-26674726Y-45828715D01*
X-26664755Y-45831669D01*
X-26602114Y-45852024D01*
X-26594044Y-45852871D01*
X-26563330Y-45858564D01*
X-26555504Y-45860662D01*
X-26489731Y-45864108D01*
X-26479380Y-45864923D01*
X-26461050Y-45866850D01*
X-26442638Y-45866850D01*
X-26432222Y-45867123D01*
X-26366470Y-45870569D01*
X-26358457Y-45869299D01*
X-26327329Y-45866850D01*
X-11500158Y-45866850D01*
X-11413815Y-45886557D01*
X-11344574Y-45941776D01*
X-11306147Y-46021568D01*
X-11301158Y-46065850D01*
X-11301158Y-47263926D01*
X-11320865Y-47350269D01*
X-11359444Y-47404640D01*
X-11439153Y-47484349D01*
X-11574693Y-47677921D01*
X-11674561Y-47892087D01*
X-11674563Y-47892092D01*
X-11701426Y-47992349D01*
X-11735721Y-48120342D01*
X-11756317Y-48355750D01*
X-11735721Y-48591158D01*
X-11674561Y-48819413D01*
X-11634861Y-48904550D01*
X-11574693Y-49033579D01*
X-11574691Y-49033583D01*
X-11562880Y-49050451D01*
X-11439153Y-49227151D01*
X-11272059Y-49394245D01*
X-11078488Y-49529785D01*
X-10864321Y-49629653D01*
X-10864318Y-49629653D01*
X-10864318Y-49629654D01*
X-10788236Y-49650039D01*
X-10636066Y-49690813D01*
X-10400658Y-49711409D01*
X-10165250Y-49690813D01*
X-10076677Y-49667080D01*
X-9936998Y-49629654D01*
X-9936997Y-49629654D01*
X-9722828Y-49529785D01*
X-9722824Y-49529783D01*
X-9529254Y-49394243D01*
X-9362164Y-49227153D01*
X-9226624Y-49033583D01*
X-9226622Y-49033579D01*
X-9126753Y-48819410D01*
X-9126753Y-48819409D01*
X-9065596Y-48591164D01*
X-9053352Y-48451227D01*
X-9044999Y-48355750D01*
X-9065595Y-48120342D01*
X-9065595Y-48120339D01*
X-9065596Y-48120335D01*
X-9126752Y-47892092D01*
X-9226623Y-47677921D01*
X-9362159Y-47484353D01*
X-9362166Y-47484345D01*
X-9441872Y-47404640D01*
X-9488991Y-47329652D01*
X-9500158Y-47263926D01*
X-9500158Y-46065850D01*
X-9480451Y-45979507D01*
X-9425232Y-45910266D01*
X-9345440Y-45871839D01*
X-9301158Y-45866850D01*
X-4683661Y-45866850D01*
X-4597318Y-45886557D01*
X-4528077Y-45941776D01*
X-4489650Y-46021568D01*
X-4489650Y-46110132D01*
X-4528077Y-46189924D01*
X-4549597Y-46212914D01*
X-4577861Y-46238680D01*
X-4577865Y-46238684D01*
X-4697983Y-46397744D01*
X-4697983Y-46397745D01*
X-4697984Y-46397746D01*
X-4786829Y-46576170D01*
X-4841375Y-46767881D01*
X-4859766Y-46966350D01*
X-4841375Y-47164819D01*
X-4786829Y-47356530D01*
X-4697984Y-47534954D01*
X-4606077Y-47656657D01*
X-4569770Y-47737435D01*
X-4572107Y-47825968D01*
X-4612626Y-47904719D01*
X-4674535Y-47953891D01*
X-4693001Y-47963300D01*
X-4782708Y-48053007D01*
X-4825656Y-48137298D01*
X-4840304Y-48166046D01*
X-4855158Y-48259831D01*
X-4855157Y-49672868D01*
X-4840304Y-49766654D01*
X-4782708Y-49879692D01*
X-4693000Y-49969400D01*
X-4579962Y-50026996D01*
X-4486177Y-50041850D01*
X-3073140Y-50041849D01*
X-3073139Y-50041849D01*
X-3060316Y-50039818D01*
X-2979354Y-50026996D01*
X-2866316Y-49969400D01*
X-2866315Y-49969399D01*
X-2866313Y-49969398D01*
X-2776607Y-49879692D01*
X-2719013Y-49766657D01*
X-2719011Y-49766650D01*
X-2704158Y-49672868D01*
X-2704158Y-48259831D01*
X-2719012Y-48166046D01*
X-2719012Y-48166044D01*
X-2776609Y-48053005D01*
X-2866314Y-47963300D01*
X-2884782Y-47953890D01*
X-2952766Y-47897129D01*
X-2989390Y-47816493D01*
X-2987400Y-47727952D01*
X-2953238Y-47656657D01*
X-2861332Y-47534956D01*
X-2861332Y-47534955D01*
X-2772486Y-47356529D01*
X-2742104Y-47249745D01*
X-2717941Y-47164819D01*
X-2699550Y-46966350D01*
X-2717941Y-46767881D01*
X-2731294Y-46720949D01*
X-2772486Y-46576170D01*
X-2861332Y-46397744D01*
X-2981450Y-46238684D01*
X-2981454Y-46238679D01*
X-3118058Y-46114150D01*
X26625653Y-46114150D01*
X26627262Y-46119453D01*
X26725133Y-46302554D01*
X26856845Y-46463046D01*
X27017337Y-46594758D01*
X27200439Y-46692630D01*
X27399123Y-46752900D01*
X27553953Y-46768149D01*
X27553962Y-46768150D01*
X27959742Y-46768150D01*
X27959742Y-46114150D01*
X26625653Y-46114150D01*
X-3118058Y-46114150D01*
X-3118866Y-46113413D01*
X-3169398Y-46040680D01*
X-3183368Y-45953226D01*
X-3158009Y-45868371D01*
X-3118866Y-45819287D01*
X-2981454Y-45694020D01*
X-2981450Y-45694015D01*
X-2861332Y-45534955D01*
X-2772486Y-45356529D01*
X-2731977Y-45214150D01*
X-2717941Y-45164819D01*
X-2699550Y-44966350D01*
X-2717941Y-44767881D01*
X-2749258Y-44657812D01*
X-2772486Y-44576170D01*
X-2861332Y-44397744D01*
X-2981450Y-44238684D01*
X-2981454Y-44238679D01*
X-3128746Y-44104406D01*
X-3128753Y-44104400D01*
X-3177565Y-44074177D01*
X-3240600Y-44011967D01*
X-3270400Y-43928568D01*
X-3261063Y-43840498D01*
X-3214439Y-43765201D01*
X-3199046Y-43751157D01*
X-3086892Y-43659115D01*
X-2965050Y-43510650D01*
X-2887921Y-43366350D01*
X-3748177Y-43366350D01*
X-3654510Y-43351515D01*
X-3541613Y-43293991D01*
X-3528752Y-43281130D01*
X26451242Y-43281130D01*
X26490557Y-43491447D01*
X26555512Y-43659115D01*
X26567851Y-43690964D01*
X26567852Y-43690966D01*
X26680481Y-43872868D01*
X26680485Y-43872873D01*
X26803271Y-44007564D01*
X26824628Y-44030991D01*
X26864979Y-44061463D01*
X26995367Y-44159928D01*
X26995370Y-44159929D01*
X26995372Y-44159931D01*
X27186902Y-44255301D01*
X27186904Y-44255301D01*
X27186905Y-44255302D01*
X27359792Y-44304493D01*
X27437445Y-44347076D01*
X27488933Y-44419136D01*
X27504056Y-44506398D01*
X27479819Y-44591581D01*
X27421024Y-44657812D01*
X27363100Y-44686327D01*
X27200439Y-44735669D01*
X27017337Y-44833541D01*
X26856845Y-44965253D01*
X26725133Y-45125745D01*
X26627262Y-45308846D01*
X26625653Y-45314149D01*
X26625653Y-45314150D01*
X28057845Y-45314150D01*
X27977981Y-45383352D01*
X27900249Y-45504306D01*
X27859742Y-45642261D01*
X27859742Y-45786039D01*
X27900249Y-45923994D01*
X27977981Y-46044948D01*
X28086642Y-46139102D01*
X28217427Y-46198830D01*
X28323979Y-46214150D01*
X28395505Y-46214150D01*
X28502057Y-46198830D01*
X28632842Y-46139102D01*
X28661639Y-46114150D01*
X28759742Y-46114150D01*
X28759742Y-46768150D01*
X29165522Y-46768150D01*
X29165530Y-46768149D01*
X29320360Y-46752900D01*
X29519044Y-46692630D01*
X29702146Y-46594758D01*
X29862638Y-46463046D01*
X29994350Y-46302554D01*
X30092221Y-46119453D01*
X30093831Y-46114150D01*
X28759742Y-46114150D01*
X28661639Y-46114150D01*
X28741503Y-46044948D01*
X28819235Y-45923994D01*
X28859742Y-45786039D01*
X28859742Y-45642261D01*
X28819235Y-45504306D01*
X28741503Y-45383352D01*
X28661639Y-45314150D01*
X30093831Y-45314150D01*
X30093830Y-45314149D01*
X30092221Y-45308846D01*
X29994350Y-45125745D01*
X29862638Y-44965253D01*
X29702146Y-44833541D01*
X29519044Y-44735669D01*
X29356383Y-44686327D01*
X29279479Y-44642404D01*
X29229248Y-44569464D01*
X29215639Y-44481952D01*
X29241348Y-44397203D01*
X29301282Y-44332000D01*
X29359692Y-44304493D01*
X29532576Y-44255303D01*
X29532577Y-44255303D01*
X29532579Y-44255301D01*
X29532582Y-44255301D01*
X29724112Y-44159931D01*
X29894856Y-44030991D01*
X30039000Y-43872872D01*
X30151635Y-43690960D01*
X30228927Y-43491447D01*
X30268242Y-43281130D01*
X30268242Y-43067170D01*
X30228927Y-42856853D01*
X30151635Y-42657340D01*
X30140099Y-42638709D01*
X30039002Y-42475431D01*
X30038998Y-42475426D01*
X29894856Y-42317309D01*
X29894852Y-42317306D01*
X29724116Y-42188371D01*
X29532578Y-42092997D01*
X29326796Y-42034447D01*
X29326785Y-42034445D01*
X29208099Y-42023447D01*
X29167117Y-42019650D01*
X27552367Y-42019650D01*
X27516045Y-42023015D01*
X27392698Y-42034445D01*
X27392687Y-42034447D01*
X27186905Y-42092997D01*
X26995367Y-42188371D01*
X26824631Y-42317306D01*
X26824627Y-42317309D01*
X26680485Y-42475426D01*
X26680481Y-42475431D01*
X26567852Y-42657333D01*
X26567851Y-42657335D01*
X26567849Y-42657339D01*
X26567849Y-42657340D01*
X26490557Y-42856853D01*
X26451242Y-43067170D01*
X26451242Y-43281130D01*
X-3528752Y-43281130D01*
X-3452017Y-43204395D01*
X-3394493Y-43091498D01*
X-3374672Y-42966350D01*
X-3394493Y-42841202D01*
X-3452017Y-42728305D01*
X-3541613Y-42638709D01*
X-3654510Y-42581185D01*
X-3748177Y-42566350D01*
X-3379658Y-42566350D01*
X-2887921Y-42566350D01*
X-2887920Y-42566349D01*
X-2965050Y-42422049D01*
X-3086892Y-42273584D01*
X-3235357Y-42151742D01*
X-3379657Y-42074612D01*
X-3379658Y-42074613D01*
X-3379658Y-42566350D01*
X-3748177Y-42566350D01*
X-3811139Y-42566350D01*
X-3904806Y-42581185D01*
X-4017703Y-42638709D01*
X-4107299Y-42728305D01*
X-4164823Y-42841202D01*
X-4184644Y-42966350D01*
X-4164823Y-43091498D01*
X-4107299Y-43204395D01*
X-4017703Y-43293991D01*
X-3904806Y-43351515D01*
X-3811139Y-43366350D01*
X-4671395Y-43366350D01*
X-4594265Y-43510650D01*
X-4472423Y-43659115D01*
X-4406739Y-43713021D01*
X-4352497Y-43783030D01*
X-4334003Y-43869641D01*
X-4354919Y-43955699D01*
X-4411103Y-44024159D01*
X-4491426Y-44061463D01*
X-4532983Y-44065850D01*
X-25958431Y-44065850D01*
X-26044774Y-44046143D01*
X-26099145Y-44007564D01*
X-27540358Y-42566350D01*
X-4671395Y-42566350D01*
X-4179658Y-42566350D01*
X-4179658Y-42074612D01*
X-4323958Y-42151742D01*
X-4472423Y-42273584D01*
X-4594265Y-42422049D01*
X-4671395Y-42566349D01*
X-4671395Y-42566350D01*
X-27540358Y-42566350D01*
X-28890940Y-41215767D01*
X-28938059Y-41140778D01*
X-28947975Y-41052772D01*
X-28918724Y-40969179D01*
X-28913237Y-40960911D01*
X-28835424Y-40849783D01*
X-28835422Y-40849779D01*
X-28735553Y-40635610D01*
X-28735553Y-40635609D01*
X-28674396Y-40407364D01*
X-28673336Y-40395259D01*
X-28653799Y-40171950D01*
X-28674395Y-39936542D01*
X-28674395Y-39936539D01*
X-28674396Y-39936535D01*
X-28735552Y-39708292D01*
X-28835423Y-39494121D01*
X-28970959Y-39300553D01*
X-28970961Y-39300551D01*
X-29138058Y-39133453D01*
X-29331624Y-38997916D01*
X-29331628Y-38997914D01*
X-29545797Y-38898045D01*
X-29774043Y-38836888D01*
X-29774047Y-38836887D01*
X-29774050Y-38836887D01*
X-30009458Y-38816291D01*
X-30244866Y-38836887D01*
X-30244868Y-38836887D01*
X-30244872Y-38836888D01*
X-30473115Y-38898044D01*
X-30473121Y-38898047D01*
X-30687287Y-38997915D01*
X-30800310Y-39077054D01*
X-30880854Y-39133451D01*
X-30880856Y-39133453D01*
X-30880859Y-39133455D01*
X-31047953Y-39300549D01*
X-31047955Y-39300551D01*
X-31047956Y-39300553D01*
X-31068101Y-39329324D01*
X-31183493Y-39494121D01*
X-31283361Y-39708287D01*
X-31283363Y-39708292D01*
X-31327484Y-39872957D01*
X-31344521Y-39936542D01*
X-31365117Y-40171950D01*
X-39188051Y-40171950D01*
X-39188051Y-40149068D01*
X-39180771Y-40124558D01*
X-39143369Y-40023033D01*
X-39139555Y-40013453D01*
X-39081395Y-39877710D01*
X-39077090Y-39868340D01*
X-39011969Y-39735777D01*
X-39007184Y-39726643D01*
X-38935300Y-39597660D01*
X-38930049Y-39588786D01*
X-38851565Y-39463675D01*
X-38845861Y-39455084D01*
X-38761002Y-39334207D01*
X-38754860Y-39325924D01*
X-38663860Y-39209614D01*
X-38657298Y-39201661D01*
X-38560386Y-39090209D01*
X-38553420Y-39082604D01*
X-38450871Y-38976329D01*
X-38443523Y-38969099D01*
X-38335618Y-38868287D01*
X-38327901Y-38861443D01*
X-38274250Y-38816291D01*
X-38214902Y-38766344D01*
X-38206867Y-38759929D01*
X-38089080Y-38670800D01*
X-38080701Y-38664795D01*
X-37958465Y-38581893D01*
X-37949806Y-38576342D01*
X-37823427Y-38499875D01*
X-37814505Y-38494787D01*
X-37684306Y-38424954D01*
X-37675124Y-38420332D01*
X-37630266Y-38399187D01*
X-37541533Y-38357360D01*
X-37532129Y-38353222D01*
X-37470341Y-38327920D01*
X-37395433Y-38297246D01*
X-37385806Y-38293592D01*
X-37246395Y-38244771D01*
X-37236645Y-38241638D01*
X-37094876Y-38200099D01*
X-37084915Y-38197459D01*
X-36941223Y-38163329D01*
X-36931148Y-38161209D01*
X-36830885Y-38142821D01*
X-36785863Y-38134565D01*
X-36775683Y-38132969D01*
X-36629211Y-38113886D01*
X-36619001Y-38112824D01*
X-36471719Y-38101352D01*
X-36461444Y-38100819D01*
X-36311518Y-38096934D01*
X-36305826Y-38096869D01*
X-10100822Y-38172641D01*
G37*
%TD.AperFunction*%
%TD*%
%TA.AperFunction,Conductor*%
%TO.N,Board_4-GND*%
G36*
X-10100822Y-20374458D02*
G01*
X-10014537Y-20394415D01*
X-9945455Y-20449833D01*
X-9907260Y-20529737D01*
X-9907516Y-20618299D01*
X-9946173Y-20697981D01*
X-9996638Y-20742650D01*
X-10146020Y-20835143D01*
X-10310439Y-20985031D01*
X-10310442Y-20985035D01*
X-10444512Y-21162572D01*
X-10444513Y-21162574D01*
X-10444516Y-21162578D01*
X-10543687Y-21361739D01*
X-10604573Y-21575731D01*
X-10621891Y-21762628D01*
X-10624833Y-21794379D01*
X-10625101Y-21797267D01*
X-10604573Y-22018803D01*
X-10543687Y-22232795D01*
X-10444516Y-22431956D01*
X-10310439Y-22609503D01*
X-10146020Y-22759391D01*
X-9956859Y-22876514D01*
X-9749398Y-22956885D01*
X-9530701Y-22997767D01*
X-9530699Y-22997767D01*
X-9308217Y-22997767D01*
X-9308215Y-22997767D01*
X-9089518Y-22956885D01*
X-8882057Y-22876514D01*
X-8767342Y-22805486D01*
X-7661993Y-22805486D01*
X-7661992Y-22805487D01*
X-7521779Y-22859807D01*
X-7321384Y-22897267D01*
X-7117531Y-22897267D01*
X-6917135Y-22859806D01*
X-6917133Y-22859806D01*
X-6776922Y-22805488D01*
X-6776921Y-22805487D01*
X-7219458Y-22362952D01*
X-7219459Y-22362952D01*
X-7661993Y-22805486D01*
X-8767342Y-22805486D01*
X-8692896Y-22759391D01*
X-8528477Y-22609503D01*
X-8519093Y-22597077D01*
X-8394403Y-22431961D01*
X-8394401Y-22431957D01*
X-8394400Y-22431956D01*
X-8358858Y-22360579D01*
X-8302731Y-22292074D01*
X-8260119Y-22272242D01*
X-7785143Y-21797267D01*
X-7624444Y-21797267D01*
X-7604623Y-21922415D01*
X-7547099Y-22035312D01*
X-7457503Y-22124908D01*
X-7344606Y-22182432D01*
X-7250939Y-22197267D01*
X-7187977Y-22197267D01*
X-7094310Y-22182432D01*
X-6981413Y-22124908D01*
X-6891817Y-22035312D01*
X-6834293Y-21922415D01*
X-6814472Y-21797267D01*
X-6653772Y-21797267D01*
X-6211070Y-22239967D01*
X-6189341Y-22196328D01*
X-6133556Y-22000263D01*
X-6133554Y-22000253D01*
X-6114745Y-21797267D01*
X-6114745Y-21797266D01*
X-6133554Y-21594280D01*
X-6133556Y-21594270D01*
X-6189342Y-21398203D01*
X-6189344Y-21398197D01*
X-6211069Y-21354565D01*
X-6211070Y-21354565D01*
X-6653772Y-21797266D01*
X-6653772Y-21797267D01*
X-6814472Y-21797267D01*
X-6834293Y-21672119D01*
X-6891817Y-21559222D01*
X-6981413Y-21469626D01*
X-7094310Y-21412102D01*
X-7187977Y-21397267D01*
X-7250939Y-21397267D01*
X-7344606Y-21412102D01*
X-7457503Y-21469626D01*
X-7547099Y-21559222D01*
X-7604623Y-21672119D01*
X-7624444Y-21797267D01*
X-7785143Y-21797267D01*
X-7785143Y-21797266D01*
X-8258120Y-21324288D01*
X-8314307Y-21292747D01*
X-8358859Y-21233951D01*
X-8394398Y-21162580D01*
X-8394403Y-21162572D01*
X-8528473Y-20985035D01*
X-8550618Y-20964847D01*
X-8692896Y-20835143D01*
X-8692898Y-20835141D01*
X-8692900Y-20835140D01*
X-8835878Y-20746612D01*
X-8898914Y-20684403D01*
X-8928715Y-20601004D01*
X-8919380Y-20512934D01*
X-8872758Y-20437636D01*
X-8798082Y-20390024D01*
X-8730545Y-20378420D01*
X-7673909Y-20381475D01*
X-7587626Y-20401432D01*
X-7518544Y-20456850D01*
X-7480349Y-20536753D01*
X-7480605Y-20625316D01*
X-7519262Y-20704998D01*
X-7588663Y-20760016D01*
X-7602601Y-20766036D01*
X-7661992Y-20789044D01*
X-7661993Y-20789045D01*
X-7219459Y-21231581D01*
X-7219458Y-21231581D01*
X-6776922Y-20789045D01*
X-6776922Y-20789044D01*
X-6829471Y-20768687D01*
X-6902864Y-20719120D01*
X-6947483Y-20642617D01*
X-6954490Y-20554332D01*
X-6922497Y-20471749D01*
X-6857841Y-20411225D01*
X-6773328Y-20384749D01*
X-6757030Y-20384126D01*
X33056748Y-20499248D01*
X33061095Y-20499309D01*
X33371363Y-20507131D01*
X33381322Y-20507634D01*
X33687953Y-20530866D01*
X33697858Y-20531868D01*
X34002993Y-20570529D01*
X34012850Y-20572032D01*
X34315582Y-20626010D01*
X34325361Y-20628009D01*
X34624984Y-20697171D01*
X34634672Y-20699666D01*
X34930430Y-20783838D01*
X34939971Y-20786816D01*
X35162670Y-20862520D01*
X35231078Y-20885775D01*
X35240491Y-20889241D01*
X35526248Y-21002745D01*
X35535475Y-21006682D01*
X35815176Y-21134455D01*
X35824191Y-21138852D01*
X36097031Y-21280520D01*
X36105798Y-21285357D01*
X36371216Y-21440633D01*
X36379743Y-21445914D01*
X36636945Y-21614331D01*
X36645196Y-21620036D01*
X36893654Y-21801251D01*
X36901607Y-21807365D01*
X37140550Y-22000815D01*
X37148185Y-22007321D01*
X37377111Y-22212598D01*
X37384408Y-22219481D01*
X37602689Y-22436023D01*
X37609606Y-22443239D01*
X37816722Y-22670532D01*
X37823276Y-22678100D01*
X38018665Y-22915529D01*
X38024841Y-22923432D01*
X38207995Y-23170374D01*
X38213766Y-23178579D01*
X38384263Y-23434465D01*
X38389600Y-23442930D01*
X38546999Y-23707107D01*
X38551896Y-23715818D01*
X38611506Y-23828408D01*
X38695765Y-23987557D01*
X38700228Y-23996526D01*
X38830231Y-24275187D01*
X38834234Y-24284365D01*
X38950017Y-24569198D01*
X38953559Y-24578582D01*
X39054841Y-24868881D01*
X39057906Y-24878433D01*
X39144442Y-25173508D01*
X39147021Y-25183202D01*
X39218562Y-25482195D01*
X39220650Y-25492006D01*
X39277043Y-25794273D01*
X39278633Y-25804177D01*
X39319717Y-26108858D01*
X39320807Y-26118831D01*
X39346490Y-26425267D01*
X39347075Y-26435279D01*
X39357283Y-26742546D01*
X39357364Y-26752578D01*
X39352073Y-27060043D01*
X39351647Y-27070066D01*
X39330872Y-27376817D01*
X39329942Y-27386804D01*
X39293735Y-27692126D01*
X39292304Y-27702054D01*
X39240753Y-28005188D01*
X39238828Y-28015006D01*
X39172070Y-28315147D01*
X39169646Y-28324881D01*
X39087850Y-28621273D01*
X39084938Y-28630873D01*
X38988309Y-28922766D01*
X38984918Y-28932205D01*
X38873714Y-29218835D01*
X38869851Y-29228094D01*
X38744329Y-29508785D01*
X38740005Y-29517835D01*
X38600498Y-29791848D01*
X38595723Y-29800669D01*
X38442603Y-30067273D01*
X38437389Y-30075844D01*
X38271019Y-30334407D01*
X38265381Y-30342702D01*
X38086181Y-30592573D01*
X38080131Y-30600575D01*
X37888583Y-30841076D01*
X37882138Y-30848762D01*
X37678715Y-31079306D01*
X37671890Y-31086659D01*
X37457091Y-31306675D01*
X37449905Y-31313673D01*
X37224318Y-31522562D01*
X37216789Y-31529190D01*
X36980930Y-31726473D01*
X36973076Y-31732713D01*
X36892258Y-31793663D01*
X36727586Y-31917851D01*
X36719456Y-31923668D01*
X36486621Y-32081509D01*
X36464953Y-32096198D01*
X36456511Y-32101615D01*
X36193625Y-32261109D01*
X36184921Y-32266094D01*
X35914349Y-32412130D01*
X35905404Y-32416671D01*
X35627828Y-32548880D01*
X35618665Y-32552964D01*
X35334750Y-32671029D01*
X35325395Y-32674645D01*
X35035901Y-32778251D01*
X35026374Y-32781392D01*
X34732046Y-32870273D01*
X34722373Y-32872930D01*
X34423925Y-32946869D01*
X34414151Y-32949031D01*
X34112346Y-33007839D01*
X34102456Y-33009508D01*
X33798071Y-33053034D01*
X33788107Y-33054203D01*
X33481949Y-33082331D01*
X33471941Y-33082997D01*
X33164049Y-33095691D01*
X33155378Y-33095859D01*
X-36204787Y-32930857D01*
X-36209067Y-32930801D01*
X-36364645Y-32927084D01*
X-36374941Y-32926571D01*
X-36527065Y-32915034D01*
X-36537325Y-32913988D01*
X-36688656Y-32894584D01*
X-36698845Y-32893008D01*
X-36848936Y-32865798D01*
X-36859030Y-32863697D01*
X-37007518Y-32828748D01*
X-37017490Y-32826127D01*
X-37163990Y-32783528D01*
X-37173814Y-32780393D01*
X-37317914Y-32730261D01*
X-37327560Y-32726622D01*
X-37468829Y-32669111D01*
X-37478275Y-32664977D01*
X-37616408Y-32600211D01*
X-37625626Y-32595594D01*
X-37760233Y-32523753D01*
X-37769203Y-32518663D01*
X-37899853Y-32439978D01*
X-37908543Y-32434432D01*
X-38035000Y-32349048D01*
X-38043394Y-32343059D01*
X-38165224Y-32251265D01*
X-38173294Y-32244849D01*
X-38290218Y-32146859D01*
X-38297948Y-32140033D01*
X-38409654Y-32036103D01*
X-38417017Y-32028887D01*
X-38523158Y-31919345D01*
X-38530140Y-31911756D01*
X-38630489Y-31796834D01*
X-38637067Y-31788895D01*
X-38731324Y-31668937D01*
X-38737483Y-31660666D01*
X-38825395Y-31535992D01*
X-38831115Y-31527416D01*
X-38912449Y-31398363D01*
X-38917719Y-31389500D01*
X-38992273Y-31256382D01*
X-38997077Y-31247258D01*
X-39064617Y-31110494D01*
X-39068942Y-31101134D01*
X-39129330Y-30961004D01*
X-39133163Y-30951433D01*
X-39186188Y-30808430D01*
X-39189522Y-30798670D01*
X-39235088Y-30653044D01*
X-39237911Y-30643130D01*
X-39275862Y-30495389D01*
X-39278167Y-30485340D01*
X-39289217Y-30430724D01*
X-39287023Y-30342188D01*
X-39246632Y-30263372D01*
X-39176044Y-30209885D01*
X-39089240Y-30192323D01*
X-39071230Y-30193589D01*
X-39066249Y-30194166D01*
X-37321458Y-30194166D01*
X-37321458Y-29619167D01*
X-36521458Y-29619167D01*
X-36521458Y-30194166D01*
X-34776668Y-30194166D01*
X-34751581Y-30191256D01*
X-34751579Y-30191255D01*
X-34648980Y-30145954D01*
X-34648975Y-30145950D01*
X-34569674Y-30066649D01*
X-34569670Y-30066644D01*
X-34524368Y-29964044D01*
X-34524367Y-29964039D01*
X-34521458Y-29938965D01*
X-34521458Y-29619167D01*
X-36521458Y-29619167D01*
X-37321458Y-29619167D01*
X-37321458Y-28244167D01*
X-36521458Y-28244167D01*
X-36521458Y-28819167D01*
X-34521459Y-28819167D01*
X-34521459Y-28499377D01*
X-34524368Y-28474290D01*
X-34524369Y-28474288D01*
X-34569670Y-28371689D01*
X-34569674Y-28371684D01*
X-34648975Y-28292383D01*
X-34648980Y-28292379D01*
X-34751580Y-28247077D01*
X-34751585Y-28247076D01*
X-34776659Y-28244167D01*
X-36521458Y-28244167D01*
X-37321458Y-28244167D01*
X-39066247Y-28244167D01*
X-39091332Y-28247077D01*
X-39105321Y-28250883D01*
X-39193809Y-28254531D01*
X-39275117Y-28219425D01*
X-39333141Y-28152517D01*
X-39356389Y-28067059D01*
X-39356558Y-28058898D01*
X-39357181Y-24729312D01*
X-39337490Y-24642966D01*
X-39282285Y-24573714D01*
X-39202499Y-24535273D01*
X-39113936Y-24535256D01*
X-39105939Y-24537927D01*
X-39105776Y-24537327D01*
X-39091330Y-24541257D01*
X-39066249Y-24544166D01*
X-37321458Y-24544166D01*
X-37321458Y-23969167D01*
X-36521458Y-23969167D01*
X-36521458Y-24544166D01*
X-34776668Y-24544166D01*
X-34751581Y-24541256D01*
X-34751579Y-24541255D01*
X-34648980Y-24495954D01*
X-34648975Y-24495950D01*
X-34569674Y-24416649D01*
X-34569670Y-24416644D01*
X-34524368Y-24314044D01*
X-34524367Y-24314039D01*
X-34521458Y-24288965D01*
X-34521458Y-23969167D01*
X-36521458Y-23969167D01*
X-37321458Y-23969167D01*
X-37321458Y-22594167D01*
X-36521458Y-22594167D01*
X-36521458Y-23169167D01*
X-34521459Y-23169167D01*
X-34521459Y-22849377D01*
X-34524368Y-22824290D01*
X-34524369Y-22824288D01*
X-34569670Y-22721689D01*
X-34569674Y-22721684D01*
X-34648975Y-22642383D01*
X-34648980Y-22642379D01*
X-34751580Y-22597077D01*
X-34751585Y-22597076D01*
X-34776659Y-22594167D01*
X-36521458Y-22594167D01*
X-37321458Y-22594167D01*
X-38994040Y-22594167D01*
X-39080383Y-22574460D01*
X-39149624Y-22519241D01*
X-39188051Y-22439449D01*
X-39188051Y-22373767D01*
X-31365117Y-22373767D01*
X-31344521Y-22609175D01*
X-31283361Y-22837430D01*
X-31183493Y-23051597D01*
X-31097844Y-23173917D01*
X-31047952Y-23245169D01*
X-30968245Y-23324876D01*
X-30921126Y-23399864D01*
X-30909958Y-23465591D01*
X-30909958Y-23486037D01*
X-30912406Y-23517157D01*
X-30913677Y-23525179D01*
X-30910231Y-23590936D01*
X-30909958Y-23601351D01*
X-30909958Y-23619759D01*
X-30909957Y-23619766D01*
X-30908034Y-23638061D01*
X-30907219Y-23648398D01*
X-30903771Y-23714213D01*
X-30901671Y-23722048D01*
X-30895979Y-23752758D01*
X-30895132Y-23760823D01*
X-30895131Y-23760826D01*
X-30895130Y-23760830D01*
X-30874782Y-23823453D01*
X-30871825Y-23833433D01*
X-30854778Y-23897055D01*
X-30851100Y-23904272D01*
X-30839141Y-23933144D01*
X-30836638Y-23940848D01*
X-30836636Y-23940853D01*
X-30803716Y-23997870D01*
X-30798741Y-24007032D01*
X-30768841Y-24065716D01*
X-30763745Y-24072008D01*
X-30746040Y-24097769D01*
X-30741991Y-24104783D01*
X-30697898Y-24153752D01*
X-30691159Y-24161643D01*
X-30679577Y-24175947D01*
X-30666542Y-24188980D01*
X-30659407Y-24196499D01*
X-30615329Y-24245455D01*
X-30608758Y-24250228D01*
X-30585020Y-24270502D01*
X-27111793Y-27743729D01*
X-27091519Y-27767467D01*
X-27086746Y-27774038D01*
X-27037790Y-27818116D01*
X-27030271Y-27825251D01*
X-27017238Y-27838286D01*
X-27002934Y-27849868D01*
X-26995043Y-27856607D01*
X-26946074Y-27900700D01*
X-26939060Y-27904749D01*
X-26913301Y-27922452D01*
X-26907007Y-27927550D01*
X-26856866Y-27953097D01*
X-26848323Y-27957450D01*
X-26839161Y-27962424D01*
X-26782142Y-27995346D01*
X-26774429Y-27997851D01*
X-26745569Y-28009805D01*
X-26738346Y-28013487D01*
X-26674726Y-28030532D01*
X-26664755Y-28033486D01*
X-26602114Y-28053841D01*
X-26594044Y-28054688D01*
X-26563330Y-28060381D01*
X-26555504Y-28062479D01*
X-26489731Y-28065925D01*
X-26479380Y-28066740D01*
X-26461050Y-28068667D01*
X-26442638Y-28068667D01*
X-26432222Y-28068940D01*
X-26366470Y-28072386D01*
X-26358457Y-28071116D01*
X-26327329Y-28068667D01*
X-11500158Y-28068667D01*
X-11413815Y-28088374D01*
X-11344574Y-28143593D01*
X-11306147Y-28223385D01*
X-11301158Y-28267667D01*
X-11301158Y-29465743D01*
X-11320865Y-29552086D01*
X-11359444Y-29606457D01*
X-11439153Y-29686166D01*
X-11574693Y-29879738D01*
X-11674561Y-30093904D01*
X-11674563Y-30093909D01*
X-11701426Y-30194166D01*
X-11735721Y-30322159D01*
X-11756317Y-30557567D01*
X-11735721Y-30792975D01*
X-11674561Y-31021230D01*
X-11634861Y-31106367D01*
X-11574693Y-31235396D01*
X-11574691Y-31235400D01*
X-11562880Y-31252268D01*
X-11439153Y-31428968D01*
X-11272059Y-31596062D01*
X-11078488Y-31731602D01*
X-10864321Y-31831470D01*
X-10864318Y-31831470D01*
X-10864318Y-31831471D01*
X-10788236Y-31851856D01*
X-10636066Y-31892630D01*
X-10400658Y-31913226D01*
X-10165250Y-31892630D01*
X-10076677Y-31868897D01*
X-9936998Y-31831471D01*
X-9936997Y-31831471D01*
X-9722828Y-31731602D01*
X-9722824Y-31731600D01*
X-9529254Y-31596060D01*
X-9362164Y-31428970D01*
X-9226624Y-31235400D01*
X-9226622Y-31235396D01*
X-9126753Y-31021227D01*
X-9126753Y-31021226D01*
X-9065596Y-30792981D01*
X-9053352Y-30653044D01*
X-9044999Y-30557567D01*
X-9065595Y-30322159D01*
X-9065595Y-30322156D01*
X-9065596Y-30322152D01*
X-9126752Y-30093909D01*
X-9226623Y-29879738D01*
X-9362159Y-29686170D01*
X-9362166Y-29686162D01*
X-9441872Y-29606457D01*
X-9488991Y-29531469D01*
X-9500158Y-29465743D01*
X-9500158Y-28267667D01*
X-9480451Y-28181324D01*
X-9425232Y-28112083D01*
X-9345440Y-28073656D01*
X-9301158Y-28068667D01*
X-4683661Y-28068667D01*
X-4597318Y-28088374D01*
X-4528077Y-28143593D01*
X-4489650Y-28223385D01*
X-4489650Y-28311949D01*
X-4528077Y-28391741D01*
X-4549597Y-28414731D01*
X-4577861Y-28440497D01*
X-4577865Y-28440501D01*
X-4697983Y-28599561D01*
X-4697983Y-28599562D01*
X-4697984Y-28599563D01*
X-4786829Y-28777987D01*
X-4841375Y-28969698D01*
X-4859766Y-29168167D01*
X-4841375Y-29366636D01*
X-4786829Y-29558347D01*
X-4697984Y-29736771D01*
X-4606077Y-29858474D01*
X-4569770Y-29939252D01*
X-4572107Y-30027785D01*
X-4612626Y-30106536D01*
X-4674535Y-30155708D01*
X-4693001Y-30165117D01*
X-4782708Y-30254824D01*
X-4825656Y-30339115D01*
X-4840304Y-30367863D01*
X-4855158Y-30461648D01*
X-4855157Y-31874685D01*
X-4840304Y-31968471D01*
X-4782708Y-32081509D01*
X-4693000Y-32171217D01*
X-4579962Y-32228813D01*
X-4486177Y-32243667D01*
X-3073140Y-32243666D01*
X-3073139Y-32243666D01*
X-3060316Y-32241635D01*
X-2979354Y-32228813D01*
X-2866316Y-32171217D01*
X-2866315Y-32171216D01*
X-2866313Y-32171215D01*
X-2776607Y-32081509D01*
X-2719013Y-31968474D01*
X-2719011Y-31968467D01*
X-2704158Y-31874685D01*
X-2704158Y-30461648D01*
X-2719012Y-30367863D01*
X-2719012Y-30367861D01*
X-2776609Y-30254822D01*
X-2866314Y-30165117D01*
X-2884782Y-30155707D01*
X-2952766Y-30098946D01*
X-2989390Y-30018310D01*
X-2987400Y-29929769D01*
X-2953238Y-29858474D01*
X-2861332Y-29736773D01*
X-2861332Y-29736772D01*
X-2772486Y-29558346D01*
X-2742104Y-29451562D01*
X-2717941Y-29366636D01*
X-2699550Y-29168167D01*
X-2717941Y-28969698D01*
X-2731294Y-28922766D01*
X-2772486Y-28777987D01*
X-2861332Y-28599561D01*
X-2981450Y-28440501D01*
X-2981454Y-28440496D01*
X-3118058Y-28315967D01*
X26625653Y-28315967D01*
X26627262Y-28321270D01*
X26725133Y-28504371D01*
X26856845Y-28664863D01*
X27017337Y-28796575D01*
X27200439Y-28894447D01*
X27399123Y-28954717D01*
X27553953Y-28969966D01*
X27553962Y-28969967D01*
X27959742Y-28969967D01*
X27959742Y-28315967D01*
X26625653Y-28315967D01*
X-3118058Y-28315967D01*
X-3118866Y-28315230D01*
X-3169398Y-28242497D01*
X-3183368Y-28155043D01*
X-3158009Y-28070188D01*
X-3118866Y-28021104D01*
X-2981454Y-27895837D01*
X-2981450Y-27895832D01*
X-2861332Y-27736772D01*
X-2772486Y-27558346D01*
X-2731977Y-27415967D01*
X-2717941Y-27366636D01*
X-2699550Y-27168167D01*
X-2717941Y-26969698D01*
X-2749258Y-26859629D01*
X-2772486Y-26777987D01*
X-2861332Y-26599561D01*
X-2981450Y-26440501D01*
X-2981454Y-26440496D01*
X-3128746Y-26306223D01*
X-3128753Y-26306217D01*
X-3177565Y-26275994D01*
X-3240600Y-26213784D01*
X-3270400Y-26130385D01*
X-3261063Y-26042315D01*
X-3214439Y-25967018D01*
X-3199046Y-25952974D01*
X-3086892Y-25860932D01*
X-2965050Y-25712467D01*
X-2887921Y-25568167D01*
X-3748177Y-25568167D01*
X-3654510Y-25553332D01*
X-3541613Y-25495808D01*
X-3528752Y-25482947D01*
X26451242Y-25482947D01*
X26490557Y-25693264D01*
X26555512Y-25860932D01*
X26567851Y-25892781D01*
X26567852Y-25892783D01*
X26680481Y-26074685D01*
X26680485Y-26074690D01*
X26803271Y-26209381D01*
X26824628Y-26232808D01*
X26864979Y-26263280D01*
X26995367Y-26361745D01*
X26995370Y-26361746D01*
X26995372Y-26361748D01*
X27186902Y-26457118D01*
X27186904Y-26457118D01*
X27186905Y-26457119D01*
X27359792Y-26506310D01*
X27437445Y-26548893D01*
X27488933Y-26620953D01*
X27504056Y-26708215D01*
X27479819Y-26793398D01*
X27421024Y-26859629D01*
X27363100Y-26888144D01*
X27200439Y-26937486D01*
X27017337Y-27035358D01*
X26856845Y-27167070D01*
X26725133Y-27327562D01*
X26627262Y-27510663D01*
X26625653Y-27515966D01*
X26625653Y-27515967D01*
X28057845Y-27515967D01*
X27977981Y-27585169D01*
X27900249Y-27706123D01*
X27859742Y-27844078D01*
X27859742Y-27987856D01*
X27900249Y-28125811D01*
X27977981Y-28246765D01*
X28086642Y-28340919D01*
X28217427Y-28400647D01*
X28323979Y-28415967D01*
X28395505Y-28415967D01*
X28502057Y-28400647D01*
X28632842Y-28340919D01*
X28661639Y-28315967D01*
X28759742Y-28315967D01*
X28759742Y-28969967D01*
X29165522Y-28969967D01*
X29165530Y-28969966D01*
X29320360Y-28954717D01*
X29519044Y-28894447D01*
X29702146Y-28796575D01*
X29862638Y-28664863D01*
X29994350Y-28504371D01*
X30092221Y-28321270D01*
X30093831Y-28315967D01*
X28759742Y-28315967D01*
X28661639Y-28315967D01*
X28741503Y-28246765D01*
X28819235Y-28125811D01*
X28859742Y-27987856D01*
X28859742Y-27844078D01*
X28819235Y-27706123D01*
X28741503Y-27585169D01*
X28661639Y-27515967D01*
X30093831Y-27515967D01*
X30093830Y-27515966D01*
X30092221Y-27510663D01*
X29994350Y-27327562D01*
X29862638Y-27167070D01*
X29702146Y-27035358D01*
X29519044Y-26937486D01*
X29356383Y-26888144D01*
X29279479Y-26844221D01*
X29229248Y-26771281D01*
X29215639Y-26683769D01*
X29241348Y-26599020D01*
X29301282Y-26533817D01*
X29359692Y-26506310D01*
X29532576Y-26457120D01*
X29532577Y-26457120D01*
X29532579Y-26457118D01*
X29532582Y-26457118D01*
X29724112Y-26361748D01*
X29894856Y-26232808D01*
X30039000Y-26074689D01*
X30151635Y-25892777D01*
X30228927Y-25693264D01*
X30268242Y-25482947D01*
X30268242Y-25268987D01*
X30228927Y-25058670D01*
X30151635Y-24859157D01*
X30140099Y-24840526D01*
X30039002Y-24677248D01*
X30038998Y-24677243D01*
X29894856Y-24519126D01*
X29894852Y-24519123D01*
X29724116Y-24390188D01*
X29532578Y-24294814D01*
X29326796Y-24236264D01*
X29326785Y-24236262D01*
X29208099Y-24225264D01*
X29167117Y-24221467D01*
X27552367Y-24221467D01*
X27516045Y-24224832D01*
X27392698Y-24236262D01*
X27392687Y-24236264D01*
X27186905Y-24294814D01*
X26995367Y-24390188D01*
X26824631Y-24519123D01*
X26824627Y-24519126D01*
X26680485Y-24677243D01*
X26680481Y-24677248D01*
X26567852Y-24859150D01*
X26567851Y-24859152D01*
X26567849Y-24859156D01*
X26567849Y-24859157D01*
X26490557Y-25058670D01*
X26451242Y-25268987D01*
X26451242Y-25482947D01*
X-3528752Y-25482947D01*
X-3452017Y-25406212D01*
X-3394493Y-25293315D01*
X-3374672Y-25168167D01*
X-3394493Y-25043019D01*
X-3452017Y-24930122D01*
X-3541613Y-24840526D01*
X-3654510Y-24783002D01*
X-3748177Y-24768167D01*
X-3379658Y-24768167D01*
X-2887921Y-24768167D01*
X-2887920Y-24768166D01*
X-2965050Y-24623866D01*
X-3086892Y-24475401D01*
X-3235357Y-24353559D01*
X-3379657Y-24276429D01*
X-3379658Y-24276430D01*
X-3379658Y-24768167D01*
X-3748177Y-24768167D01*
X-3811139Y-24768167D01*
X-3904806Y-24783002D01*
X-4017703Y-24840526D01*
X-4107299Y-24930122D01*
X-4164823Y-25043019D01*
X-4184644Y-25168167D01*
X-4164823Y-25293315D01*
X-4107299Y-25406212D01*
X-4017703Y-25495808D01*
X-3904806Y-25553332D01*
X-3811139Y-25568167D01*
X-4671395Y-25568167D01*
X-4594265Y-25712467D01*
X-4472423Y-25860932D01*
X-4406739Y-25914838D01*
X-4352497Y-25984847D01*
X-4334003Y-26071458D01*
X-4354919Y-26157516D01*
X-4411103Y-26225976D01*
X-4491426Y-26263280D01*
X-4532983Y-26267667D01*
X-25958431Y-26267667D01*
X-26044774Y-26247960D01*
X-26099145Y-26209381D01*
X-27540358Y-24768167D01*
X-4671395Y-24768167D01*
X-4179658Y-24768167D01*
X-4179658Y-24276429D01*
X-4323958Y-24353559D01*
X-4472423Y-24475401D01*
X-4594265Y-24623866D01*
X-4671395Y-24768166D01*
X-4671395Y-24768167D01*
X-27540358Y-24768167D01*
X-28890940Y-23417584D01*
X-28938059Y-23342595D01*
X-28947975Y-23254589D01*
X-28918724Y-23170996D01*
X-28913237Y-23162728D01*
X-28835424Y-23051600D01*
X-28835422Y-23051596D01*
X-28735553Y-22837427D01*
X-28735553Y-22837426D01*
X-28674396Y-22609181D01*
X-28673336Y-22597076D01*
X-28653799Y-22373767D01*
X-28674395Y-22138359D01*
X-28674395Y-22138356D01*
X-28674396Y-22138352D01*
X-28735552Y-21910109D01*
X-28835423Y-21695938D01*
X-28970959Y-21502370D01*
X-28970961Y-21502368D01*
X-29138058Y-21335270D01*
X-29331624Y-21199733D01*
X-29331628Y-21199731D01*
X-29545797Y-21099862D01*
X-29774043Y-21038705D01*
X-29774047Y-21038704D01*
X-29774050Y-21038704D01*
X-30009458Y-21018108D01*
X-30244866Y-21038704D01*
X-30244868Y-21038704D01*
X-30244872Y-21038705D01*
X-30473115Y-21099861D01*
X-30473121Y-21099864D01*
X-30687287Y-21199732D01*
X-30800310Y-21278871D01*
X-30880854Y-21335268D01*
X-30880856Y-21335270D01*
X-30880859Y-21335272D01*
X-31047953Y-21502366D01*
X-31047955Y-21502368D01*
X-31047956Y-21502370D01*
X-31068101Y-21531141D01*
X-31183493Y-21695938D01*
X-31283361Y-21910104D01*
X-31283363Y-21910109D01*
X-31327484Y-22074774D01*
X-31344521Y-22138359D01*
X-31365117Y-22373767D01*
X-39188051Y-22373767D01*
X-39188051Y-22350885D01*
X-39180771Y-22326375D01*
X-39143369Y-22224850D01*
X-39139555Y-22215270D01*
X-39081395Y-22079527D01*
X-39077090Y-22070157D01*
X-39011969Y-21937594D01*
X-39007184Y-21928460D01*
X-38935300Y-21799477D01*
X-38930049Y-21790603D01*
X-38851565Y-21665492D01*
X-38845861Y-21656901D01*
X-38761002Y-21536024D01*
X-38754860Y-21527741D01*
X-38663860Y-21411431D01*
X-38657298Y-21403478D01*
X-38560386Y-21292026D01*
X-38553420Y-21284421D01*
X-38450871Y-21178146D01*
X-38443523Y-21170916D01*
X-38335618Y-21070104D01*
X-38327901Y-21063260D01*
X-38274250Y-21018108D01*
X-38214902Y-20968161D01*
X-38206867Y-20961746D01*
X-38089080Y-20872617D01*
X-38080701Y-20866612D01*
X-37958465Y-20783710D01*
X-37949806Y-20778159D01*
X-37823427Y-20701692D01*
X-37814505Y-20696604D01*
X-37684306Y-20626771D01*
X-37675124Y-20622149D01*
X-37630266Y-20601004D01*
X-37541533Y-20559177D01*
X-37532129Y-20555039D01*
X-37470341Y-20529737D01*
X-37395433Y-20499063D01*
X-37385806Y-20495409D01*
X-37246395Y-20446588D01*
X-37236645Y-20443455D01*
X-37094876Y-20401916D01*
X-37084915Y-20399276D01*
X-36941223Y-20365146D01*
X-36931148Y-20363026D01*
X-36830885Y-20344638D01*
X-36785863Y-20336382D01*
X-36775683Y-20334786D01*
X-36629211Y-20315703D01*
X-36619001Y-20314641D01*
X-36471719Y-20303169D01*
X-36461444Y-20302636D01*
X-36311518Y-20298751D01*
X-36305826Y-20298686D01*
X-10100822Y-20374458D01*
G37*
%TD.AperFunction*%
%TD*%
%TA.AperFunction,Conductor*%
%TO.N,Board_2-GND*%
G36*
X-10100825Y15221906D02*
G01*
X-10014539Y15201949D01*
X-9945457Y15146531D01*
X-9907262Y15066627D01*
X-9907518Y14978065D01*
X-9946175Y14898383D01*
X-9996636Y14853716D01*
X-10146020Y14761223D01*
X-10310439Y14611335D01*
X-10444516Y14433788D01*
X-10543687Y14234627D01*
X-10604573Y14020635D01*
X-10623496Y13816418D01*
X-10624840Y13801911D01*
X-10625101Y13799099D01*
X-10604573Y13577563D01*
X-10543687Y13363571D01*
X-10444516Y13164410D01*
X-10444513Y13164406D01*
X-10444512Y13164404D01*
X-10322019Y13002198D01*
X-10310439Y12986863D01*
X-10146020Y12836975D01*
X-9956859Y12719852D01*
X-9749398Y12639481D01*
X-9530701Y12598599D01*
X-9530699Y12598599D01*
X-9308217Y12598599D01*
X-9308215Y12598599D01*
X-9089518Y12639481D01*
X-8882057Y12719852D01*
X-8882055Y12719853D01*
X-8882053Y12719854D01*
X-8767346Y12790877D01*
X-7661993Y12790877D01*
X-7661992Y12790876D01*
X-7521785Y12736560D01*
X-7521779Y12736558D01*
X-7321385Y12699099D01*
X-7117531Y12699099D01*
X-6917136Y12736558D01*
X-6917130Y12736560D01*
X-6776922Y12790876D01*
X-6776922Y12790877D01*
X-7219458Y13233413D01*
X-7219459Y13233413D01*
X-7661993Y12790877D01*
X-8767346Y12790877D01*
X-8692900Y12836972D01*
X-8692898Y12836973D01*
X-8692896Y12836975D01*
X-8528477Y12986863D01*
X-8528476Y12986864D01*
X-8528473Y12986867D01*
X-8394403Y13164404D01*
X-8394398Y13164412D01*
X-8358859Y13235783D01*
X-8302731Y13304289D01*
X-8260121Y13324119D01*
X-7785143Y13799098D01*
X-7785143Y13799099D01*
X-7624444Y13799099D01*
X-7604623Y13673951D01*
X-7547099Y13561054D01*
X-7457503Y13471458D01*
X-7344606Y13413934D01*
X-7250939Y13399099D01*
X-7187977Y13399099D01*
X-7094310Y13413934D01*
X-6981413Y13471458D01*
X-6891817Y13561054D01*
X-6834293Y13673951D01*
X-6814472Y13799098D01*
X-6653772Y13799098D01*
X-6211070Y13356397D01*
X-6211069Y13356397D01*
X-6189344Y13400029D01*
X-6189342Y13400035D01*
X-6133556Y13596102D01*
X-6133554Y13596112D01*
X-6114745Y13799098D01*
X-6114745Y13799099D01*
X-6133554Y14002085D01*
X-6133556Y14002095D01*
X-6189341Y14198160D01*
X-6211070Y14241799D01*
X-6653772Y13799099D01*
X-6653772Y13799098D01*
X-6814472Y13799098D01*
X-6814472Y13799099D01*
X-6834293Y13924247D01*
X-6891817Y14037144D01*
X-6981413Y14126740D01*
X-7094310Y14184264D01*
X-7187977Y14199099D01*
X-7250939Y14199099D01*
X-7344606Y14184264D01*
X-7457503Y14126740D01*
X-7547099Y14037144D01*
X-7604623Y13924247D01*
X-7624444Y13799099D01*
X-7785143Y13799099D01*
X-8258122Y14272077D01*
X-8314298Y14303609D01*
X-8358859Y14362412D01*
X-8360040Y14364784D01*
X-8394400Y14433788D01*
X-8394401Y14433789D01*
X-8394403Y14433793D01*
X-8528473Y14611330D01*
X-8528477Y14611335D01*
X-8692896Y14761223D01*
X-8835876Y14849752D01*
X-8898911Y14911960D01*
X-8928713Y14995359D01*
X-8919379Y15083429D01*
X-8872756Y15158727D01*
X-8798080Y15206340D01*
X-8730541Y15217944D01*
X-7673914Y15214889D01*
X-7587628Y15194932D01*
X-7518546Y15139514D01*
X-7480351Y15059611D01*
X-7480607Y14971048D01*
X-7519264Y14891366D01*
X-7588665Y14836348D01*
X-7602602Y14830328D01*
X-7661992Y14807319D01*
X-7661993Y14807318D01*
X-7219459Y14364784D01*
X-7219458Y14364784D01*
X-6776921Y14807319D01*
X-6776922Y14807320D01*
X-6829469Y14827677D01*
X-6902863Y14877244D01*
X-6947481Y14953747D01*
X-6954488Y15042033D01*
X-6922495Y15124615D01*
X-6857839Y15185139D01*
X-6773326Y15211615D01*
X-6757007Y15212238D01*
X33056700Y15097116D01*
X33061141Y15097054D01*
X33371334Y15089233D01*
X33381352Y15088727D01*
X33687916Y15065500D01*
X33697896Y15064491D01*
X34002963Y15025838D01*
X34012880Y15024326D01*
X34315562Y14970357D01*
X34325390Y14968348D01*
X34624967Y14899196D01*
X34634680Y14896695D01*
X34930411Y14812531D01*
X34939988Y14809542D01*
X35231079Y14710588D01*
X35240491Y14707122D01*
X35526248Y14593618D01*
X35535475Y14589681D01*
X35815176Y14461908D01*
X35824191Y14457511D01*
X36097014Y14315852D01*
X36105798Y14311006D01*
X36371216Y14155730D01*
X36379743Y14150449D01*
X36636945Y13982032D01*
X36645196Y13976327D01*
X36893654Y13795112D01*
X36901607Y13788998D01*
X37140550Y13595548D01*
X37148185Y13589042D01*
X37377111Y13383765D01*
X37384408Y13376882D01*
X37602689Y13160340D01*
X37609624Y13153104D01*
X37729178Y13021905D01*
X37816709Y12925846D01*
X37823276Y12918263D01*
X38018665Y12680834D01*
X38024841Y12672931D01*
X38207995Y12425989D01*
X38213766Y12417784D01*
X38384263Y12161898D01*
X38389611Y12153415D01*
X38494960Y11976599D01*
X38546985Y11889282D01*
X38551901Y11880537D01*
X38695765Y11608806D01*
X38700233Y11599827D01*
X38830223Y11321194D01*
X38834234Y11311998D01*
X38950017Y11027165D01*
X38953559Y11017781D01*
X39054841Y10727482D01*
X39057906Y10717930D01*
X39144442Y10422855D01*
X39147021Y10413161D01*
X39218562Y10114168D01*
X39220650Y10104357D01*
X39277043Y9802090D01*
X39278633Y9792186D01*
X39319717Y9487506D01*
X39320807Y9477533D01*
X39346490Y9171096D01*
X39347075Y9161084D01*
X39357283Y8853817D01*
X39357364Y8843785D01*
X39352073Y8536320D01*
X39351647Y8526297D01*
X39330872Y8219546D01*
X39329942Y8209559D01*
X39293735Y7904237D01*
X39292304Y7894309D01*
X39240752Y7591167D01*
X39238828Y7581357D01*
X39172070Y7281216D01*
X39169646Y7271482D01*
X39087850Y6975090D01*
X39084938Y6965492D01*
X39042805Y6838216D01*
X38988309Y6673597D01*
X38984918Y6664158D01*
X38873711Y6377521D01*
X38869849Y6368266D01*
X38763579Y6130623D01*
X38744333Y6087586D01*
X38740012Y6078542D01*
X38724562Y6048195D01*
X38600498Y5804515D01*
X38595723Y5795694D01*
X38442603Y5529090D01*
X38437389Y5520519D01*
X38271019Y5261956D01*
X38265381Y5253661D01*
X38086181Y5003790D01*
X38080131Y4995788D01*
X37888583Y4755287D01*
X37882138Y4747601D01*
X37678715Y4517057D01*
X37671890Y4509704D01*
X37457091Y4289688D01*
X37449905Y4282690D01*
X37224318Y4073801D01*
X37216789Y4067173D01*
X36980930Y3869890D01*
X36973089Y3863661D01*
X36727560Y3678492D01*
X36719482Y3672714D01*
X36464922Y3500145D01*
X36456513Y3494749D01*
X36193609Y3335244D01*
X36184937Y3330278D01*
X35914337Y3184227D01*
X35905432Y3179706D01*
X35627793Y3047467D01*
X35618685Y3043408D01*
X35341923Y2928317D01*
X35334750Y2925334D01*
X35325395Y2921718D01*
X35035901Y2818112D01*
X35026398Y2814978D01*
X34732020Y2726082D01*
X34722399Y2723440D01*
X34423904Y2649489D01*
X34414189Y2647340D01*
X34112307Y2588517D01*
X34102457Y2586855D01*
X33798060Y2543327D01*
X33788117Y2542161D01*
X33481923Y2514030D01*
X33471966Y2513367D01*
X33164034Y2500671D01*
X33155393Y2500504D01*
X-36204871Y2665508D01*
X-36208986Y2665561D01*
X-36364675Y2669280D01*
X-36374909Y2669790D01*
X-36527093Y2681331D01*
X-36537297Y2682372D01*
X-36688685Y2701783D01*
X-36698816Y2703350D01*
X-36848961Y2730570D01*
X-36859006Y2732661D01*
X-37007530Y2767618D01*
X-37017478Y2770233D01*
X-37164002Y2812839D01*
X-37173803Y2815966D01*
X-37317934Y2866109D01*
X-37327526Y2869728D01*
X-37468845Y2927259D01*
X-37478257Y2931378D01*
X-37616419Y2996157D01*
X-37625626Y3000769D01*
X-37760233Y3072610D01*
X-37769185Y3077690D01*
X-37899864Y3156392D01*
X-37908543Y3161931D01*
X-38035000Y3247315D01*
X-38043362Y3253281D01*
X-38165236Y3345107D01*
X-38173294Y3351514D01*
X-38290218Y3449504D01*
X-38297948Y3456330D01*
X-38341073Y3496453D01*
X-38409658Y3560264D01*
X-38417017Y3567476D01*
X-38523158Y3677018D01*
X-38530140Y3684607D01*
X-38630489Y3799529D01*
X-38637067Y3807468D01*
X-38681212Y3863650D01*
X-38731327Y3927431D01*
X-38737483Y3935697D01*
X-38825395Y4060371D01*
X-38831115Y4068947D01*
X-38912449Y4198000D01*
X-38917719Y4206863D01*
X-38960187Y4282690D01*
X-38992273Y4339981D01*
X-38997077Y4349105D01*
X-39064617Y4485869D01*
X-39068942Y4495229D01*
X-39129330Y4635359D01*
X-39133163Y4644930D01*
X-39186188Y4787933D01*
X-39189522Y4797693D01*
X-39235088Y4943319D01*
X-39237911Y4953233D01*
X-39249715Y4999184D01*
X-39275863Y5100978D01*
X-39278167Y5111024D01*
X-39289217Y5165642D01*
X-39287023Y5254178D01*
X-39246631Y5332994D01*
X-39176043Y5386480D01*
X-39089238Y5404042D01*
X-39071248Y5402779D01*
X-39066249Y5402199D01*
X-37321458Y5402199D01*
X-37321458Y5977199D01*
X-36521458Y5977199D01*
X-36521458Y5402199D01*
X-34776668Y5402199D01*
X-34751581Y5405109D01*
X-34751579Y5405110D01*
X-34648980Y5450411D01*
X-34648975Y5450415D01*
X-34569674Y5529716D01*
X-34569670Y5529721D01*
X-34524368Y5632321D01*
X-34524367Y5632326D01*
X-34521458Y5657400D01*
X-34521458Y5977199D01*
X-36521458Y5977199D01*
X-37321458Y5977199D01*
X-37321458Y6777199D01*
X-36521458Y6777199D01*
X-34521459Y6777199D01*
X-34521459Y7096988D01*
X-34524368Y7122075D01*
X-34524369Y7122077D01*
X-34569670Y7224676D01*
X-34569674Y7224681D01*
X-34648975Y7303982D01*
X-34648980Y7303986D01*
X-34751580Y7349288D01*
X-34751585Y7349289D01*
X-34776666Y7352198D01*
X-36521457Y7352198D01*
X-36521458Y7352197D01*
X-36521458Y6777199D01*
X-37321458Y6777199D01*
X-37321458Y7352198D01*
X-39066248Y7352198D01*
X-39091331Y7349288D01*
X-39105315Y7345484D01*
X-39193803Y7341833D01*
X-39275112Y7376936D01*
X-39333138Y7443842D01*
X-39356389Y7529299D01*
X-39356558Y7537467D01*
X-39357181Y10867053D01*
X-39337490Y10953399D01*
X-39282285Y11022651D01*
X-39202499Y11061092D01*
X-39113936Y11061109D01*
X-39105933Y11058459D01*
X-39105776Y11059039D01*
X-39091330Y11055108D01*
X-39066256Y11052199D01*
X-37321458Y11052199D01*
X-37321458Y11627199D01*
X-36521458Y11627199D01*
X-36521458Y11052199D01*
X-34776668Y11052199D01*
X-34751581Y11055109D01*
X-34751579Y11055110D01*
X-34648980Y11100411D01*
X-34648975Y11100415D01*
X-34569674Y11179716D01*
X-34569670Y11179721D01*
X-34524368Y11282321D01*
X-34524367Y11282326D01*
X-34521458Y11307400D01*
X-34521458Y11627199D01*
X-36521458Y11627199D01*
X-37321458Y11627199D01*
X-37321458Y12427199D01*
X-36521458Y12427199D01*
X-34521459Y12427199D01*
X-34521459Y12746988D01*
X-34524368Y12772075D01*
X-34524369Y12772077D01*
X-34569670Y12874676D01*
X-34569674Y12874681D01*
X-34648975Y12953982D01*
X-34648980Y12953986D01*
X-34751580Y12999288D01*
X-34751585Y12999289D01*
X-34776666Y13002198D01*
X-36521457Y13002198D01*
X-36521458Y13002197D01*
X-36521458Y12427199D01*
X-37321458Y12427199D01*
X-37321458Y13002198D01*
X-38994040Y13002198D01*
X-39080383Y13021905D01*
X-39149624Y13077124D01*
X-39188051Y13156916D01*
X-39188051Y13222599D01*
X-31365117Y13222599D01*
X-31344521Y12987191D01*
X-31327243Y12922709D01*
X-31283362Y12758939D01*
X-31283362Y12758938D01*
X-31183493Y12544769D01*
X-31183491Y12544765D01*
X-31047951Y12351195D01*
X-30968244Y12271488D01*
X-30921125Y12196500D01*
X-30909958Y12130774D01*
X-30909958Y12110329D01*
X-30912408Y12079200D01*
X-30913677Y12071188D01*
X-30910231Y12005427D01*
X-30909958Y11995013D01*
X-30909958Y11976607D01*
X-30909957Y11976599D01*
X-30908034Y11958305D01*
X-30907219Y11947968D01*
X-30903771Y11882153D01*
X-30901671Y11874317D01*
X-30895979Y11843605D01*
X-30895132Y11835543D01*
X-30874774Y11772889D01*
X-30871828Y11762944D01*
X-30854778Y11699311D01*
X-30851098Y11692090D01*
X-30839140Y11663220D01*
X-30836637Y11655515D01*
X-30807113Y11604378D01*
X-30803715Y11598494D01*
X-30798742Y11589335D01*
X-30768842Y11530652D01*
X-30768839Y11530648D01*
X-30763738Y11524349D01*
X-30746041Y11498599D01*
X-30741991Y11491583D01*
X-30741990Y11491582D01*
X-30697912Y11442628D01*
X-30691176Y11434742D01*
X-30679577Y11420419D01*
X-30679570Y11420412D01*
X-30666573Y11407415D01*
X-30659402Y11399859D01*
X-30615329Y11350911D01*
X-30615325Y11350908D01*
X-30608758Y11346137D01*
X-30585018Y11325860D01*
X-27111797Y7852639D01*
X-27091519Y7828897D01*
X-27086746Y7822328D01*
X-27086745Y7822327D01*
X-27037798Y7778255D01*
X-27030237Y7771079D01*
X-27017241Y7758082D01*
X-27017233Y7758075D01*
X-27002950Y7746509D01*
X-26995028Y7739743D01*
X-26946078Y7695669D01*
X-26946070Y7695663D01*
X-26939043Y7691606D01*
X-26913311Y7673921D01*
X-26907007Y7668816D01*
X-26848310Y7638909D01*
X-26839186Y7633954D01*
X-26819743Y7622729D01*
X-26782140Y7601018D01*
X-26774428Y7598513D01*
X-26745582Y7586565D01*
X-26738351Y7582881D01*
X-26738348Y7582879D01*
X-26711931Y7575801D01*
X-26674721Y7565831D01*
X-26664768Y7562882D01*
X-26602114Y7542525D01*
X-26594030Y7541675D01*
X-26563341Y7535986D01*
X-26555511Y7533888D01*
X-26555504Y7533887D01*
X-26489745Y7530439D01*
X-26479373Y7529624D01*
X-26461056Y7527699D01*
X-26461050Y7527699D01*
X-26442638Y7527699D01*
X-26432223Y7527426D01*
X-26366472Y7523980D01*
X-26366470Y7523980D01*
X-26366469Y7523980D01*
X-26358458Y7525249D01*
X-26327329Y7527699D01*
X-11500158Y7527699D01*
X-11413815Y7507992D01*
X-11344574Y7452773D01*
X-11306147Y7372981D01*
X-11301158Y7328699D01*
X-11301158Y6130623D01*
X-11320865Y6044280D01*
X-11359444Y5989909D01*
X-11439153Y5910200D01*
X-11574693Y5716628D01*
X-11674561Y5502462D01*
X-11674562Y5502457D01*
X-11674563Y5502456D01*
X-11694870Y5426667D01*
X-11735721Y5274207D01*
X-11756317Y5038799D01*
X-11735721Y4803391D01*
X-11735719Y4803384D01*
X-11674562Y4575139D01*
X-11674562Y4575138D01*
X-11574693Y4360969D01*
X-11574691Y4360965D01*
X-11439151Y4167395D01*
X-11272061Y4000305D01*
X-11078491Y3864765D01*
X-11078487Y3864763D01*
X-10864318Y3764894D01*
X-10636072Y3703737D01*
X-10636068Y3703736D01*
X-10636066Y3703736D01*
X-10400658Y3683140D01*
X-10165250Y3703736D01*
X-10165247Y3703736D01*
X-10165243Y3703737D01*
X-9936998Y3764894D01*
X-9936997Y3764894D01*
X-9722828Y3864763D01*
X-9722824Y3864765D01*
X-9529254Y4000305D01*
X-9362164Y4167395D01*
X-9226624Y4360965D01*
X-9226622Y4360969D01*
X-9126753Y4575138D01*
X-9126753Y4575139D01*
X-9065596Y4803384D01*
X-9052947Y4947950D01*
X-9044999Y5038799D01*
X-9065595Y5274207D01*
X-9065595Y5274209D01*
X-9065596Y5274213D01*
X-9126752Y5502456D01*
X-9198870Y5657112D01*
X-9226623Y5716628D01*
X-9305762Y5829651D01*
X-9362159Y5910195D01*
X-9362166Y5910203D01*
X-9441872Y5989909D01*
X-9488991Y6064897D01*
X-9500158Y6130623D01*
X-9500158Y7328699D01*
X-9480451Y7415042D01*
X-9425232Y7484283D01*
X-9345440Y7522710D01*
X-9301158Y7527699D01*
X-4683661Y7527699D01*
X-4597318Y7507992D01*
X-4528077Y7452773D01*
X-4489650Y7372981D01*
X-4489650Y7284417D01*
X-4528077Y7204625D01*
X-4549597Y7181635D01*
X-4563390Y7169059D01*
X-4577867Y7155863D01*
X-4697984Y6996803D01*
X-4786829Y6818379D01*
X-4841375Y6626668D01*
X-4859766Y6428199D01*
X-4841375Y6229730D01*
X-4794476Y6064897D01*
X-4786829Y6038019D01*
X-4697983Y5859593D01*
X-4606077Y5737891D01*
X-4569770Y5657112D01*
X-4572108Y5568579D01*
X-4612626Y5489829D01*
X-4674537Y5440656D01*
X-4693000Y5431249D01*
X-4782708Y5341541D01*
X-4840304Y5228503D01*
X-4855158Y5134718D01*
X-4855157Y3721681D01*
X-4840304Y3627895D01*
X-4807232Y3562987D01*
X-4782706Y3514854D01*
X-4693000Y3425148D01*
X-4579965Y3367554D01*
X-4579958Y3367552D01*
X-4514476Y3357181D01*
X-4486177Y3352699D01*
X-4486176Y3352699D01*
X-3073139Y3352699D01*
X-2979354Y3367553D01*
X-2979352Y3367553D01*
X-2866313Y3425150D01*
X-2776607Y3514856D01*
X-2719013Y3627891D01*
X-2719011Y3627898D01*
X-2704158Y3721680D01*
X-2704158Y5134717D01*
X-2716981Y5215679D01*
X-2719012Y5228503D01*
X-2719012Y5228504D01*
X-2776609Y5341543D01*
X-2866313Y5431247D01*
X-2866315Y5431248D01*
X-2866316Y5431249D01*
X-2884778Y5440656D01*
X-2952763Y5497415D01*
X-2989389Y5578050D01*
X-2987401Y5666591D01*
X-2953238Y5737890D01*
X-2861336Y5859587D01*
X-2861332Y5859593D01*
X-2772486Y6038019D01*
X-2717941Y6229731D01*
X-2699550Y6428198D01*
X-2699550Y6428199D01*
X-2717941Y6626666D01*
X-2717941Y6626668D01*
X-2760770Y6777199D01*
X-2772486Y6818378D01*
X-2861332Y6996804D01*
X-2981450Y7155864D01*
X-2981454Y7155869D01*
X-3118058Y7280399D01*
X26625653Y7280399D01*
X26627262Y7275095D01*
X26725133Y7091994D01*
X26856845Y6931502D01*
X27017337Y6799790D01*
X27200439Y6701918D01*
X27399123Y6641648D01*
X27553953Y6626399D01*
X27959742Y6626399D01*
X27959742Y7280399D01*
X26625653Y7280399D01*
X-3118058Y7280399D01*
X-3118866Y7281136D01*
X-3169398Y7353869D01*
X-3183368Y7441323D01*
X-3158009Y7526178D01*
X-3118866Y7575262D01*
X-2981454Y7700528D01*
X-2981450Y7700533D01*
X-2861332Y7859593D01*
X-2772486Y8038019D01*
X-2722314Y8214361D01*
X-2717941Y8229730D01*
X-2699550Y8428199D01*
X-2717941Y8626668D01*
X-2753641Y8752143D01*
X-2772486Y8818378D01*
X-2861332Y8996804D01*
X-2952041Y9116921D01*
X-2981449Y9155863D01*
X-2981450Y9155864D01*
X-2981454Y9155869D01*
X-3128746Y9290142D01*
X-3128747Y9290143D01*
X-3128748Y9290144D01*
X-3177563Y9320369D01*
X-3240598Y9382579D01*
X-3270400Y9465978D01*
X-3261064Y9554048D01*
X-3214441Y9629345D01*
X-3199047Y9643391D01*
X-3086890Y9735435D01*
X-2965050Y9883898D01*
X-2887921Y10028199D01*
X-3748177Y10028199D01*
X-3654510Y10043034D01*
X-3541613Y10100558D01*
X-3528749Y10113422D01*
X26451241Y10113422D01*
X26490557Y9903102D01*
X26567851Y9703584D01*
X26567852Y9703582D01*
X26680481Y9521680D01*
X26680485Y9521675D01*
X26824627Y9363558D01*
X26824631Y9363555D01*
X26995367Y9234620D01*
X27186904Y9139246D01*
X27359793Y9090055D01*
X27437446Y9047471D01*
X27488933Y8975412D01*
X27504056Y8888149D01*
X27479819Y8802967D01*
X27421023Y8736736D01*
X27363099Y8708221D01*
X27200441Y8658880D01*
X27200439Y8658879D01*
X27017337Y8561007D01*
X26856845Y8429295D01*
X26725133Y8268803D01*
X26627262Y8085702D01*
X26625653Y8080399D01*
X28057845Y8080399D01*
X27977981Y8011197D01*
X27900249Y7890243D01*
X27859742Y7752288D01*
X27859742Y7608510D01*
X27900249Y7470555D01*
X27977981Y7349601D01*
X28086642Y7255447D01*
X28217427Y7195719D01*
X28323979Y7180399D01*
X28395505Y7180399D01*
X28502057Y7195719D01*
X28632842Y7255447D01*
X28661639Y7280399D01*
X28759742Y7280399D01*
X28759742Y6626399D01*
X29165530Y6626399D01*
X29320360Y6641648D01*
X29519044Y6701918D01*
X29702146Y6799790D01*
X29862638Y6931502D01*
X29994350Y7091994D01*
X30092221Y7275095D01*
X30093831Y7280399D01*
X28759742Y7280399D01*
X28661639Y7280399D01*
X28741503Y7349601D01*
X28819235Y7470555D01*
X28859742Y7608510D01*
X28859742Y7752288D01*
X28819235Y7890243D01*
X28741503Y8011197D01*
X28661639Y8080399D01*
X30093830Y8080399D01*
X30092221Y8085702D01*
X29994350Y8268803D01*
X29862638Y8429295D01*
X29702146Y8561007D01*
X29519043Y8658879D01*
X29356384Y8708221D01*
X29279480Y8752143D01*
X29229248Y8825083D01*
X29215639Y8912594D01*
X29241347Y8997344D01*
X29301281Y9062547D01*
X29359691Y9090055D01*
X29532578Y9139246D01*
X29724116Y9234620D01*
X29894852Y9363555D01*
X29894856Y9363558D01*
X29989224Y9467075D01*
X30039000Y9521677D01*
X30114362Y9643391D01*
X30151631Y9703582D01*
X30151632Y9703584D01*
X30151635Y9703589D01*
X30228927Y9903102D01*
X30268242Y10113419D01*
X30268242Y10327379D01*
X30228927Y10537696D01*
X30151635Y10737209D01*
X30039000Y10919121D01*
X29894856Y11077240D01*
X29724112Y11206180D01*
X29532582Y11301550D01*
X29326790Y11360103D01*
X29167117Y11374899D01*
X27552367Y11374899D01*
X27392694Y11360103D01*
X27392687Y11360101D01*
X27186905Y11301551D01*
X27186904Y11301550D01*
X27186902Y11301550D01*
X26995372Y11206180D01*
X26995370Y11206178D01*
X26995367Y11206177D01*
X26824631Y11077242D01*
X26824627Y11077239D01*
X26680485Y10919122D01*
X26680481Y10919117D01*
X26567852Y10737215D01*
X26567851Y10737213D01*
X26567849Y10737209D01*
X26490557Y10537696D01*
X26451242Y10327379D01*
X26451242Y10327375D01*
X26451242Y10113422D01*
X26451241Y10113422D01*
X-3528749Y10113422D01*
X-3452017Y10190154D01*
X-3394493Y10303051D01*
X-3374672Y10428199D01*
X-3394493Y10553347D01*
X-3452017Y10666244D01*
X-3541613Y10755840D01*
X-3654510Y10813364D01*
X-3748177Y10828199D01*
X-3811139Y10828199D01*
X-3904806Y10813364D01*
X-4017703Y10755840D01*
X-4107299Y10666244D01*
X-4164823Y10553347D01*
X-4184644Y10428199D01*
X-4164823Y10303051D01*
X-4107299Y10190154D01*
X-4017703Y10100558D01*
X-3904806Y10043034D01*
X-3811139Y10028199D01*
X-4671395Y10028199D01*
X-4594265Y9883898D01*
X-4472423Y9735433D01*
X-4406739Y9681528D01*
X-4352497Y9611519D01*
X-4334003Y9524908D01*
X-4354919Y9438850D01*
X-4411103Y9370390D01*
X-4491426Y9333086D01*
X-4532983Y9328699D01*
X-25958431Y9328699D01*
X-26044774Y9348406D01*
X-26099145Y9386985D01*
X-27540359Y10828199D01*
X-4671395Y10828199D01*
X-4179658Y10828199D01*
X-4179658Y11319934D01*
X-3379658Y11319934D01*
X-3379658Y10828199D01*
X-2887920Y10828199D01*
X-2965050Y10972499D01*
X-3086892Y11120964D01*
X-3235349Y11242799D01*
X-3235358Y11242805D01*
X-3379658Y11319934D01*
X-4179658Y11319934D01*
X-4323957Y11242805D01*
X-4323966Y11242799D01*
X-4472423Y11120964D01*
X-4594265Y10972499D01*
X-4671395Y10828199D01*
X-27540359Y10828199D01*
X-28890941Y12178781D01*
X-28938060Y12253769D01*
X-28947976Y12341776D01*
X-28918725Y12425369D01*
X-28913238Y12433637D01*
X-28835424Y12544765D01*
X-28835422Y12544769D01*
X-28735553Y12758938D01*
X-28735553Y12758939D01*
X-28674396Y12987184D01*
X-28666488Y13077561D01*
X-28653799Y13222599D01*
X-28674395Y13458007D01*
X-28674395Y13458009D01*
X-28674396Y13458013D01*
X-28735552Y13686256D01*
X-28784940Y13792168D01*
X-28835423Y13900428D01*
X-28950343Y14064552D01*
X-28970959Y14093995D01*
X-28970961Y14093997D01*
X-28970963Y14094000D01*
X-29138057Y14261094D01*
X-29153742Y14272077D01*
X-29331624Y14396632D01*
X-29331628Y14396634D01*
X-29545797Y14496503D01*
X-29774043Y14557660D01*
X-29774050Y14557662D01*
X-30009458Y14578258D01*
X-30244866Y14557662D01*
X-30345890Y14530593D01*
X-30473115Y14496504D01*
X-30473116Y14496503D01*
X-30473121Y14496502D01*
X-30687287Y14396634D01*
X-30880859Y14261094D01*
X-31047953Y14094000D01*
X-31183493Y13900428D01*
X-31283361Y13686262D01*
X-31283362Y13686257D01*
X-31283363Y13686256D01*
X-31308325Y13593093D01*
X-31344521Y13458007D01*
X-31365117Y13222599D01*
X-39188051Y13222599D01*
X-39188051Y13245480D01*
X-39180771Y13269991D01*
X-39143369Y13371514D01*
X-39139555Y13381093D01*
X-39081395Y13516836D01*
X-39077090Y13526206D01*
X-39011969Y13658769D01*
X-39007184Y13667903D01*
X-38935300Y13796886D01*
X-38930049Y13805760D01*
X-38851565Y13930871D01*
X-38845861Y13939462D01*
X-38761002Y14060339D01*
X-38754860Y14068622D01*
X-38663860Y14184932D01*
X-38657298Y14192885D01*
X-38560386Y14304337D01*
X-38553420Y14311942D01*
X-38450871Y14418217D01*
X-38443523Y14425447D01*
X-38335618Y14526259D01*
X-38327901Y14533103D01*
X-38214913Y14628193D01*
X-38206856Y14634625D01*
X-38089083Y14723744D01*
X-38080701Y14729751D01*
X-37958465Y14812653D01*
X-37949784Y14818218D01*
X-37823430Y14894669D01*
X-37814473Y14899777D01*
X-37684334Y14969578D01*
X-37675124Y14974214D01*
X-37541557Y15037175D01*
X-37532118Y15041329D01*
X-37395433Y15097300D01*
X-37385795Y15100958D01*
X-37246435Y15149762D01*
X-37236617Y15152917D01*
X-37094883Y15194445D01*
X-37084915Y15197087D01*
X-36941223Y15231217D01*
X-36931132Y15233340D01*
X-36785863Y15259981D01*
X-36775678Y15261577D01*
X-36629238Y15280657D01*
X-36618980Y15281724D01*
X-36471730Y15293193D01*
X-36461433Y15293727D01*
X-36311537Y15297612D01*
X-36305806Y15297678D01*
X-10100825Y15221906D01*
G37*
%TD.AperFunction*%
%TD*%
M02*
