%TF.GenerationSoftware,KiCad,Pcbnew,7.0.11+dfsg-1build4*%
%TF.CreationDate,2025-08-26T14:56:19-06:00*%
%TF.ProjectId,,58585858-5858-4585-9858-585858585858,rev?*%
%TF.SameCoordinates,Original*%
%TF.FileFunction,Copper,L1,Top*%
%TF.FilePolarity,Positive*%
%FSLAX46Y46*%
G04 Gerber Fmt 4.6, Leading zero omitted, Abs format (unit mm)*
G04 Created by KiCad (PCBNEW 7.0.11+dfsg-1build4) date 2025-08-26 14:56:19*
%MOMM*%
%LPD*%
G01*
G04 APERTURE LIST*
G04 Aperture macros list*
%AMRoundRect*
0 Rectangle with rounded corners*
0 $1 Rounding radius*
0 $2 $3 $4 $5 $6 $7 $8 $9 X,Y pos of 4 corners*
0 Add a 4 corners polygon primitive as box body*
4,1,4,$2,$3,$4,$5,$6,$7,$8,$9,$2,$3,0*
0 Add four circle primitives for the rounded corners*
1,1,$1+$1,$2,$3*
1,1,$1+$1,$4,$5*
1,1,$1+$1,$6,$7*
1,1,$1+$1,$8,$9*
0 Add four rect primitives between the rounded corners*
20,1,$1+$1,$2,$3,$4,$5,0*
20,1,$1+$1,$4,$5,$6,$7,0*
20,1,$1+$1,$6,$7,$8,$9,0*
20,1,$1+$1,$8,$9,$2,$3,0*%
G04 Aperture macros list end*
%TA.AperFunction,SMDPad,CuDef*%
%ADD10RoundRect,0.075000X0.875000X0.225000X-0.875000X0.225000X-0.875000X-0.225000X0.875000X-0.225000X0*%
%TD*%
%TA.AperFunction,SMDPad,CuDef*%
%ADD11R,3.600000X1.270000*%
%TD*%
%TA.AperFunction,SMDPad,CuDef*%
%ADD12R,4.200000X1.350000*%
%TD*%
%TA.AperFunction,SMDPad,CuDef*%
%ADD13R,0.939800X1.778000*%
%TD*%
%TA.AperFunction,SMDPad,CuDef*%
%ADD14R,3.200400X1.778000*%
%TD*%
%TA.AperFunction,SMDPad,CuDef*%
%ADD15R,1.651000X1.778000*%
%TD*%
%TA.AperFunction,ComponentPad*%
%ADD16C,1.600000*%
%TD*%
%TA.AperFunction,SMDPad,CuDef*%
%ADD17R,0.900000X1.300000*%
%TD*%
%TA.AperFunction,SMDPad,CuDef*%
%ADD18R,1.676400X0.889000*%
%TD*%
%TA.AperFunction,ComponentPad*%
%ADD19O,3.016000X1.508000*%
%TD*%
%TA.AperFunction,ComponentPad*%
%ADD20R,1.350000X1.350000*%
%TD*%
%TA.AperFunction,ComponentPad*%
%ADD21O,1.350000X1.350000*%
%TD*%
%TA.AperFunction,ViaPad*%
%ADD22C,1.900000*%
%TD*%
%TA.AperFunction,ViaPad*%
%ADD23C,6.000000*%
%TD*%
%TA.AperFunction,Conductor*%
%ADD24C,0.812800*%
%TD*%
%TA.AperFunction,Conductor*%
%ADD25C,1.000000*%
%TD*%
%TA.AperFunction,Conductor*%
%ADD26C,0.600000*%
%TD*%
%TA.AperFunction,Conductor*%
%ADD27C,0.400000*%
%TD*%
%TA.AperFunction,Conductor*%
%ADD28C,2.800000*%
%TD*%
%TA.AperFunction,Conductor*%
%ADD29C,1.500000*%
%TD*%
%TA.AperFunction,Conductor*%
%ADD30C,0.800000*%
%TD*%
%TA.AperFunction,Conductor*%
%ADD31C,1.016000*%
%TD*%
G04 APERTURE END LIST*
D10*
%TO.P,U2,1,VDD*%
%TO.N,Board_4-VCC*%
X-12771658Y-30151167D03*
%TO.P,U2,2,PA6*%
%TO.N,Board_4-Net-(U2-PA6)*%
X-12771658Y-28881167D03*
%TO.P,U2,3,PA7*%
%TO.N,Board_4-Net-(U2-PA7)*%
X-12771658Y-27611167D03*
%TO.P,U2,4,PA1*%
%TO.N,Board_4-Net-(U2-PA1)*%
X-12771658Y-26341167D03*
%TO.P,U2,5,PA2*%
%TO.N,Board_4-Net-(IC3-DATA)*%
X-17681658Y-26341167D03*
%TO.P,U2,6,PA0/~{RESET}/UPDI*%
%TO.N,Board_4-Net-(IC3-GND_4)*%
X-17681658Y-27611167D03*
%TO.P,U2,7,PA3/EXTCLK*%
%TO.N,Board_4-Net-(U2-PA3{slash}EXTCLK)*%
X-17681658Y-28881167D03*
%TO.P,U2,8,GND*%
%TO.N,Board_4-GND*%
X-17681658Y-30151167D03*
%TD*%
D11*
%TO.P,J1,1*%
%TO.N,Board_4-Net-(IC3-ANT)*%
X-37121458Y-26394167D03*
D12*
%TO.P,J1,2_1*%
%TO.N,Board_4-GND*%
X-36921458Y-23569167D03*
%TO.P,J1,3_1*%
X-36921458Y-29219167D03*
%TD*%
D13*
%TO.P,U1,1,VIN*%
%TO.N,Board_1-Net-(BAT0B-S)*%
X23293742Y28798382D03*
%TO.P,U1,2,GND*%
%TO.N,Board_1-GND*%
X20993742Y28798382D03*
%TO.P,U1,3,VOUT*%
%TO.N,Board_1-VCC*%
X18693742Y28798382D03*
D14*
%TO.P,U1,4,EP*%
%TO.N,Board_1-unconnected-(U1-EP-Pad4)*%
X20993742Y22158782D03*
%TD*%
D15*
%TO.P,IC3,1,GND_1*%
%TO.N,Board_2-GND*%
X-22389458Y13222599D03*
%TO.P,IC3,2,DATA*%
%TO.N,Board_2-Net-(IC3-DATA)*%
X-24929458Y13222599D03*
%TO.P,IC3,3,GND_2*%
%TO.N,Board_2-unconnected-(IC3-GND_2-Pad3)*%
X-27469458Y13222599D03*
%TO.P,IC3,4,LADJ/GND*%
%TO.N,Board_2-VCC*%
X-30009458Y13222599D03*
%TO.P,IC3,5,ANT*%
%TO.N,Board_2-Net-(IC3-ANT)*%
X-30009458Y4586599D03*
%TO.P,IC3,6,GND_3*%
%TO.N,Board_2-GND*%
X-27469458Y4586599D03*
%TO.P,IC3,7,VCC*%
%TO.N,Board_2-VCC*%
X-24929458Y4586599D03*
%TO.P,IC3,8,GND_4*%
%TO.N,Board_2-Net-(IC3-GND_4)*%
X-22389458Y4586599D03*
%TD*%
D16*
%TO.P,SW1,1,1*%
%TO.N,Board_3-GND*%
X-7219458Y-3999084D03*
%TO.P,SW1,2,2*%
%TO.N,Board_3-Net-(U2-PA1)*%
X-9419458Y-3999084D03*
%TD*%
%TO.P,SW1,1,1*%
%TO.N,Board_1-GND*%
X-7219458Y31597282D03*
%TO.P,SW1,2,2*%
%TO.N,Board_1-Net-(U2-PA1)*%
X-9419458Y31597282D03*
%TD*%
D17*
%TO.P,C2,1,1*%
%TO.N,Board_3-VCC*%
X17476142Y-4312884D03*
%TO.P,C2,2,2*%
%TO.N,Board_3-GND*%
X19376142Y-4312884D03*
%TD*%
D10*
%TO.P,U2,1,VDD*%
%TO.N,Board_1-VCC*%
X-12771658Y23243382D03*
%TO.P,U2,2,PA6*%
%TO.N,Board_1-Net-(U2-PA6)*%
X-12771658Y24513382D03*
%TO.P,U2,3,PA7*%
%TO.N,Board_1-Net-(U2-PA7)*%
X-12771658Y25783382D03*
%TO.P,U2,4,PA1*%
%TO.N,Board_1-Net-(U2-PA1)*%
X-12771658Y27053382D03*
%TO.P,U2,5,PA2*%
%TO.N,Board_1-Net-(IC3-DATA)*%
X-17681658Y27053382D03*
%TO.P,U2,6,PA0/~{RESET}/UPDI*%
%TO.N,Board_1-Net-(IC3-GND_4)*%
X-17681658Y25783382D03*
%TO.P,U2,7,PA3/EXTCLK*%
%TO.N,Board_1-Net-(U2-PA3{slash}EXTCLK)*%
X-17681658Y24513382D03*
%TO.P,U2,8,GND*%
%TO.N,Board_1-GND*%
X-17681658Y23243382D03*
%TD*%
D17*
%TO.P,C1,1,1*%
%TO.N,Board_3-Net-(BAT0B-S)*%
X25017142Y-4351984D03*
%TO.P,C1,2,2*%
%TO.N,Board_3-GND*%
X23117142Y-4351984D03*
%TD*%
D18*
%TO.P,U4,1,Vc(VCTCXO)_or_NC_(TCXO)*%
%TO.N,Board_4-unconnected-(U4-Vc(VCTCXO)_or_NC_(TCXO)-Pad1)*%
X-13004158Y-21712167D03*
%TO.P,U4,2,GND*%
%TO.N,Board_4-GND*%
X-17449158Y-21712167D03*
%TO.P,U4,3,OUTPUT*%
%TO.N,Board_4-Net-(U2-PA3{slash}EXTCLK)*%
X-17449158Y-24112167D03*
%TO.P,U4,4,VDD*%
%TO.N,Board_4-VCC*%
X-13004158Y-24112167D03*
%TD*%
D16*
%TO.P,SW1,1,1*%
%TO.N,Board_0-GND*%
X-7219458Y49395465D03*
%TO.P,SW1,2,2*%
%TO.N,Board_0-Net-(U2-PA1)*%
X-9419458Y49395465D03*
%TD*%
D13*
%TO.P,U1,1,VIN*%
%TO.N,Board_0-Net-(BAT0B-S)*%
X23293742Y46596565D03*
%TO.P,U1,2,GND*%
%TO.N,Board_0-GND*%
X20993742Y46596565D03*
%TO.P,U1,3,VOUT*%
%TO.N,Board_0-VCC*%
X18693742Y46596565D03*
D14*
%TO.P,U1,4,EP*%
%TO.N,Board_0-unconnected-(U1-EP-Pad4)*%
X20993742Y39956965D03*
%TD*%
D19*
%TO.P,BAT0,1,S*%
%TO.N,Board_3-GND*%
X28359742Y-10117784D03*
%TO.P,BAT0,2,S*%
%TO.N,Board_3-Net-(BAT0B-S)*%
X28359742Y-7577784D03*
%TD*%
D13*
%TO.P,U1,1,VIN*%
%TO.N,Board_4-Net-(BAT0B-S)*%
X23293742Y-24596167D03*
%TO.P,U1,2,GND*%
%TO.N,Board_4-GND*%
X20993742Y-24596167D03*
%TO.P,U1,3,VOUT*%
%TO.N,Board_4-VCC*%
X18693742Y-24596167D03*
D14*
%TO.P,U1,4,EP*%
%TO.N,Board_4-unconnected-(U1-EP-Pad4)*%
X20993742Y-31235767D03*
%TD*%
D11*
%TO.P,J1,1*%
%TO.N,Board_1-Net-(IC3-ANT)*%
X-37121458Y27000382D03*
D12*
%TO.P,J1,2_1*%
%TO.N,Board_1-GND*%
X-36921458Y29825382D03*
%TO.P,J1,3_1*%
X-36921458Y24175382D03*
%TD*%
D15*
%TO.P,IC3,1,GND_1*%
%TO.N,Board_1-GND*%
X-22389458Y31020782D03*
%TO.P,IC3,2,DATA*%
%TO.N,Board_1-Net-(IC3-DATA)*%
X-24929458Y31020782D03*
%TO.P,IC3,3,GND_2*%
%TO.N,Board_1-unconnected-(IC3-GND_2-Pad3)*%
X-27469458Y31020782D03*
%TO.P,IC3,4,LADJ/GND*%
%TO.N,Board_1-VCC*%
X-30009458Y31020782D03*
%TO.P,IC3,5,ANT*%
%TO.N,Board_1-Net-(IC3-ANT)*%
X-30009458Y22384782D03*
%TO.P,IC3,6,GND_3*%
%TO.N,Board_1-GND*%
X-27469458Y22384782D03*
%TO.P,IC3,7,VCC*%
%TO.N,Board_1-VCC*%
X-24929458Y22384782D03*
%TO.P,IC3,8,GND_4*%
%TO.N,Board_1-Net-(IC3-GND_4)*%
X-22389458Y22384782D03*
%TD*%
D20*
%TO.P,U3,1,RX*%
%TO.N,Board_0-Net-(U2-PA6)*%
X-3779658Y40024565D03*
D21*
%TO.P,U3,2,TX*%
%TO.N,Board_0-Net-(U2-PA7)*%
X-3779658Y42024565D03*
%TO.P,U3,3,VDD*%
%TO.N,Board_0-VCC*%
X-3779658Y44024565D03*
%TO.P,U3,4,GND*%
%TO.N,Board_0-GND*%
X-3779658Y46024565D03*
%TD*%
D18*
%TO.P,U4,1,Vc(VCTCXO)_or_NC_(TCXO)*%
%TO.N,Board_2-unconnected-(U4-Vc(VCTCXO)_or_NC_(TCXO)-Pad1)*%
X-13004158Y13884199D03*
%TO.P,U4,2,GND*%
%TO.N,Board_2-GND*%
X-17449158Y13884199D03*
%TO.P,U4,3,OUTPUT*%
%TO.N,Board_2-Net-(U2-PA3{slash}EXTCLK)*%
X-17449158Y11484199D03*
%TO.P,U4,4,VDD*%
%TO.N,Board_2-VCC*%
X-13004158Y11484199D03*
%TD*%
D17*
%TO.P,C1,1,1*%
%TO.N,Board_4-Net-(BAT0B-S)*%
X25017142Y-22150167D03*
%TO.P,C1,2,2*%
%TO.N,Board_4-GND*%
X23117142Y-22150167D03*
%TD*%
D15*
%TO.P,IC3,1,GND_1*%
%TO.N,Board_4-GND*%
X-22389458Y-22373767D03*
%TO.P,IC3,2,DATA*%
%TO.N,Board_4-Net-(IC3-DATA)*%
X-24929458Y-22373767D03*
%TO.P,IC3,3,GND_2*%
%TO.N,Board_4-unconnected-(IC3-GND_2-Pad3)*%
X-27469458Y-22373767D03*
%TO.P,IC3,4,LADJ/GND*%
%TO.N,Board_4-VCC*%
X-30009458Y-22373767D03*
%TO.P,IC3,5,ANT*%
%TO.N,Board_4-Net-(IC3-ANT)*%
X-30009458Y-31009767D03*
%TO.P,IC3,6,GND_3*%
%TO.N,Board_4-GND*%
X-27469458Y-31009767D03*
%TO.P,IC3,7,VCC*%
%TO.N,Board_4-VCC*%
X-24929458Y-31009767D03*
%TO.P,IC3,8,GND_4*%
%TO.N,Board_4-Net-(IC3-GND_4)*%
X-22389458Y-31009767D03*
%TD*%
D13*
%TO.P,U1,1,VIN*%
%TO.N,Board_2-Net-(BAT0B-S)*%
X23293742Y11000199D03*
%TO.P,U1,2,GND*%
%TO.N,Board_2-GND*%
X20993742Y11000199D03*
%TO.P,U1,3,VOUT*%
%TO.N,Board_2-VCC*%
X18693742Y11000199D03*
D14*
%TO.P,U1,4,EP*%
%TO.N,Board_2-unconnected-(U1-EP-Pad4)*%
X20993742Y4360599D03*
%TD*%
D17*
%TO.P,C2,1,1*%
%TO.N,Board_5-VCC*%
X17476142Y-39909250D03*
%TO.P,C2,2,2*%
%TO.N,Board_5-GND*%
X19376142Y-39909250D03*
%TD*%
D19*
%TO.P,BAT0,1,S*%
%TO.N,Board_2-GND*%
X28359742Y7680399D03*
%TO.P,BAT0,2,S*%
%TO.N,Board_2-Net-(BAT0B-S)*%
X28359742Y10220399D03*
%TD*%
%TO.P,BAT0,1,S*%
%TO.N,Board_4-GND*%
X28359742Y-27915967D03*
%TO.P,BAT0,2,S*%
%TO.N,Board_4-Net-(BAT0B-S)*%
X28359742Y-25375967D03*
%TD*%
D15*
%TO.P,IC3,1,GND_1*%
%TO.N,Board_5-GND*%
X-22389458Y-40171950D03*
%TO.P,IC3,2,DATA*%
%TO.N,Board_5-Net-(IC3-DATA)*%
X-24929458Y-40171950D03*
%TO.P,IC3,3,GND_2*%
%TO.N,Board_5-unconnected-(IC3-GND_2-Pad3)*%
X-27469458Y-40171950D03*
%TO.P,IC3,4,LADJ/GND*%
%TO.N,Board_5-VCC*%
X-30009458Y-40171950D03*
%TO.P,IC3,5,ANT*%
%TO.N,Board_5-Net-(IC3-ANT)*%
X-30009458Y-48807950D03*
%TO.P,IC3,6,GND_3*%
%TO.N,Board_5-GND*%
X-27469458Y-48807950D03*
%TO.P,IC3,7,VCC*%
%TO.N,Board_5-VCC*%
X-24929458Y-48807950D03*
%TO.P,IC3,8,GND_4*%
%TO.N,Board_5-Net-(IC3-GND_4)*%
X-22389458Y-48807950D03*
%TD*%
D20*
%TO.P,U3,1,RX*%
%TO.N,Board_2-Net-(U2-PA6)*%
X-3779658Y4428199D03*
D21*
%TO.P,U3,2,TX*%
%TO.N,Board_2-Net-(U2-PA7)*%
X-3779658Y6428199D03*
%TO.P,U3,3,VDD*%
%TO.N,Board_2-VCC*%
X-3779658Y8428199D03*
%TO.P,U3,4,GND*%
%TO.N,Board_2-GND*%
X-3779658Y10428199D03*
%TD*%
D10*
%TO.P,U2,1,VDD*%
%TO.N,Board_0-VCC*%
X-12771658Y41041565D03*
%TO.P,U2,2,PA6*%
%TO.N,Board_0-Net-(U2-PA6)*%
X-12771658Y42311565D03*
%TO.P,U2,3,PA7*%
%TO.N,Board_0-Net-(U2-PA7)*%
X-12771658Y43581565D03*
%TO.P,U2,4,PA1*%
%TO.N,Board_0-Net-(U2-PA1)*%
X-12771658Y44851565D03*
%TO.P,U2,5,PA2*%
%TO.N,Board_0-Net-(IC3-DATA)*%
X-17681658Y44851565D03*
%TO.P,U2,6,PA0/~{RESET}/UPDI*%
%TO.N,Board_0-Net-(IC3-GND_4)*%
X-17681658Y43581565D03*
%TO.P,U2,7,PA3/EXTCLK*%
%TO.N,Board_0-Net-(U2-PA3{slash}EXTCLK)*%
X-17681658Y42311565D03*
%TO.P,U2,8,GND*%
%TO.N,Board_0-GND*%
X-17681658Y41041565D03*
%TD*%
D17*
%TO.P,C2,1,1*%
%TO.N,Board_4-VCC*%
X17476142Y-22111067D03*
%TO.P,C2,2,2*%
%TO.N,Board_4-GND*%
X19376142Y-22111067D03*
%TD*%
D20*
%TO.P,U3,1,RX*%
%TO.N,Board_1-Net-(U2-PA6)*%
X-3779658Y22226382D03*
D21*
%TO.P,U3,2,TX*%
%TO.N,Board_1-Net-(U2-PA7)*%
X-3779658Y24226382D03*
%TO.P,U3,3,VDD*%
%TO.N,Board_1-VCC*%
X-3779658Y26226382D03*
%TO.P,U3,4,GND*%
%TO.N,Board_1-GND*%
X-3779658Y28226382D03*
%TD*%
D20*
%TO.P,U3,1,RX*%
%TO.N,Board_3-Net-(U2-PA6)*%
X-3779658Y-13369984D03*
D21*
%TO.P,U3,2,TX*%
%TO.N,Board_3-Net-(U2-PA7)*%
X-3779658Y-11369984D03*
%TO.P,U3,3,VDD*%
%TO.N,Board_3-VCC*%
X-3779658Y-9369984D03*
%TO.P,U3,4,GND*%
%TO.N,Board_3-GND*%
X-3779658Y-7369984D03*
%TD*%
D18*
%TO.P,U4,1,Vc(VCTCXO)_or_NC_(TCXO)*%
%TO.N,Board_3-unconnected-(U4-Vc(VCTCXO)_or_NC_(TCXO)-Pad1)*%
X-13004158Y-3913984D03*
%TO.P,U4,2,GND*%
%TO.N,Board_3-GND*%
X-17449158Y-3913984D03*
%TO.P,U4,3,OUTPUT*%
%TO.N,Board_3-Net-(U2-PA3{slash}EXTCLK)*%
X-17449158Y-6313984D03*
%TO.P,U4,4,VDD*%
%TO.N,Board_3-VCC*%
X-13004158Y-6313984D03*
%TD*%
D19*
%TO.P,BAT0,1,S*%
%TO.N,Board_1-GND*%
X28359742Y25478582D03*
%TO.P,BAT0,2,S*%
%TO.N,Board_1-Net-(BAT0B-S)*%
X28359742Y28018582D03*
%TD*%
D20*
%TO.P,U3,1,RX*%
%TO.N,Board_5-Net-(U2-PA6)*%
X-3779658Y-48966350D03*
D21*
%TO.P,U3,2,TX*%
%TO.N,Board_5-Net-(U2-PA7)*%
X-3779658Y-46966350D03*
%TO.P,U3,3,VDD*%
%TO.N,Board_5-VCC*%
X-3779658Y-44966350D03*
%TO.P,U3,4,GND*%
%TO.N,Board_5-GND*%
X-3779658Y-42966350D03*
%TD*%
D16*
%TO.P,SW1,1,1*%
%TO.N,Board_5-GND*%
X-7219458Y-39595450D03*
%TO.P,SW1,2,2*%
%TO.N,Board_5-Net-(U2-PA1)*%
X-9419458Y-39595450D03*
%TD*%
D15*
%TO.P,IC3,1,GND_1*%
%TO.N,Board_0-GND*%
X-22389458Y48818965D03*
%TO.P,IC3,2,DATA*%
%TO.N,Board_0-Net-(IC3-DATA)*%
X-24929458Y48818965D03*
%TO.P,IC3,3,GND_2*%
%TO.N,Board_0-unconnected-(IC3-GND_2-Pad3)*%
X-27469458Y48818965D03*
%TO.P,IC3,4,LADJ/GND*%
%TO.N,Board_0-VCC*%
X-30009458Y48818965D03*
%TO.P,IC3,5,ANT*%
%TO.N,Board_0-Net-(IC3-ANT)*%
X-30009458Y40182965D03*
%TO.P,IC3,6,GND_3*%
%TO.N,Board_0-GND*%
X-27469458Y40182965D03*
%TO.P,IC3,7,VCC*%
%TO.N,Board_0-VCC*%
X-24929458Y40182965D03*
%TO.P,IC3,8,GND_4*%
%TO.N,Board_0-Net-(IC3-GND_4)*%
X-22389458Y40182965D03*
%TD*%
D10*
%TO.P,U2,1,VDD*%
%TO.N,Board_3-VCC*%
X-12771658Y-12352984D03*
%TO.P,U2,2,PA6*%
%TO.N,Board_3-Net-(U2-PA6)*%
X-12771658Y-11082984D03*
%TO.P,U2,3,PA7*%
%TO.N,Board_3-Net-(U2-PA7)*%
X-12771658Y-9812984D03*
%TO.P,U2,4,PA1*%
%TO.N,Board_3-Net-(U2-PA1)*%
X-12771658Y-8542984D03*
%TO.P,U2,5,PA2*%
%TO.N,Board_3-Net-(IC3-DATA)*%
X-17681658Y-8542984D03*
%TO.P,U2,6,PA0/~{RESET}/UPDI*%
%TO.N,Board_3-Net-(IC3-GND_4)*%
X-17681658Y-9812984D03*
%TO.P,U2,7,PA3/EXTCLK*%
%TO.N,Board_3-Net-(U2-PA3{slash}EXTCLK)*%
X-17681658Y-11082984D03*
%TO.P,U2,8,GND*%
%TO.N,Board_3-GND*%
X-17681658Y-12352984D03*
%TD*%
D11*
%TO.P,J1,1*%
%TO.N,Board_5-Net-(IC3-ANT)*%
X-37121458Y-44192350D03*
D12*
%TO.P,J1,2_1*%
%TO.N,Board_5-GND*%
X-36921458Y-41367350D03*
%TO.P,J1,3_1*%
X-36921458Y-47017350D03*
%TD*%
D16*
%TO.P,SW1,1,1*%
%TO.N,Board_4-GND*%
X-7219458Y-21797267D03*
%TO.P,SW1,2,2*%
%TO.N,Board_4-Net-(U2-PA1)*%
X-9419458Y-21797267D03*
%TD*%
D17*
%TO.P,C2,1,1*%
%TO.N,Board_0-VCC*%
X17476142Y49081665D03*
%TO.P,C2,2,2*%
%TO.N,Board_0-GND*%
X19376142Y49081665D03*
%TD*%
D15*
%TO.P,IC3,1,GND_1*%
%TO.N,Board_3-GND*%
X-22389458Y-4575584D03*
%TO.P,IC3,2,DATA*%
%TO.N,Board_3-Net-(IC3-DATA)*%
X-24929458Y-4575584D03*
%TO.P,IC3,3,GND_2*%
%TO.N,Board_3-unconnected-(IC3-GND_2-Pad3)*%
X-27469458Y-4575584D03*
%TO.P,IC3,4,LADJ/GND*%
%TO.N,Board_3-VCC*%
X-30009458Y-4575584D03*
%TO.P,IC3,5,ANT*%
%TO.N,Board_3-Net-(IC3-ANT)*%
X-30009458Y-13211584D03*
%TO.P,IC3,6,GND_3*%
%TO.N,Board_3-GND*%
X-27469458Y-13211584D03*
%TO.P,IC3,7,VCC*%
%TO.N,Board_3-VCC*%
X-24929458Y-13211584D03*
%TO.P,IC3,8,GND_4*%
%TO.N,Board_3-Net-(IC3-GND_4)*%
X-22389458Y-13211584D03*
%TD*%
D17*
%TO.P,C2,1,1*%
%TO.N,Board_1-VCC*%
X17476142Y31283482D03*
%TO.P,C2,2,2*%
%TO.N,Board_1-GND*%
X19376142Y31283482D03*
%TD*%
D16*
%TO.P,SW1,1,1*%
%TO.N,Board_2-GND*%
X-7219458Y13799099D03*
%TO.P,SW1,2,2*%
%TO.N,Board_2-Net-(U2-PA1)*%
X-9419458Y13799099D03*
%TD*%
D19*
%TO.P,BAT0,1,S*%
%TO.N,Board_0-GND*%
X28359742Y43276765D03*
%TO.P,BAT0,2,S*%
%TO.N,Board_0-Net-(BAT0B-S)*%
X28359742Y45816765D03*
%TD*%
D13*
%TO.P,U1,1,VIN*%
%TO.N,Board_5-Net-(BAT0B-S)*%
X23293742Y-42394350D03*
%TO.P,U1,2,GND*%
%TO.N,Board_5-GND*%
X20993742Y-42394350D03*
%TO.P,U1,3,VOUT*%
%TO.N,Board_5-VCC*%
X18693742Y-42394350D03*
D14*
%TO.P,U1,4,EP*%
%TO.N,Board_5-unconnected-(U1-EP-Pad4)*%
X20993742Y-49033950D03*
%TD*%
D13*
%TO.P,U1,1,VIN*%
%TO.N,Board_3-Net-(BAT0B-S)*%
X23293742Y-6797984D03*
%TO.P,U1,2,GND*%
%TO.N,Board_3-GND*%
X20993742Y-6797984D03*
%TO.P,U1,3,VOUT*%
%TO.N,Board_3-VCC*%
X18693742Y-6797984D03*
D14*
%TO.P,U1,4,EP*%
%TO.N,Board_3-unconnected-(U1-EP-Pad4)*%
X20993742Y-13437584D03*
%TD*%
D20*
%TO.P,U3,1,RX*%
%TO.N,Board_4-Net-(U2-PA6)*%
X-3779658Y-31168167D03*
D21*
%TO.P,U3,2,TX*%
%TO.N,Board_4-Net-(U2-PA7)*%
X-3779658Y-29168167D03*
%TO.P,U3,3,VDD*%
%TO.N,Board_4-VCC*%
X-3779658Y-27168167D03*
%TO.P,U3,4,GND*%
%TO.N,Board_4-GND*%
X-3779658Y-25168167D03*
%TD*%
D11*
%TO.P,J1,1*%
%TO.N,Board_2-Net-(IC3-ANT)*%
X-37121458Y9202199D03*
D12*
%TO.P,J1,2_1*%
%TO.N,Board_2-GND*%
X-36921458Y12027199D03*
%TO.P,J1,3_1*%
X-36921458Y6377199D03*
%TD*%
D18*
%TO.P,U4,1,Vc(VCTCXO)_or_NC_(TCXO)*%
%TO.N,Board_0-unconnected-(U4-Vc(VCTCXO)_or_NC_(TCXO)-Pad1)*%
X-13004158Y49480565D03*
%TO.P,U4,2,GND*%
%TO.N,Board_0-GND*%
X-17449158Y49480565D03*
%TO.P,U4,3,OUTPUT*%
%TO.N,Board_0-Net-(U2-PA3{slash}EXTCLK)*%
X-17449158Y47080565D03*
%TO.P,U4,4,VDD*%
%TO.N,Board_0-VCC*%
X-13004158Y47080565D03*
%TD*%
D17*
%TO.P,C1,1,1*%
%TO.N,Board_2-Net-(BAT0B-S)*%
X25017142Y13446199D03*
%TO.P,C1,2,2*%
%TO.N,Board_2-GND*%
X23117142Y13446199D03*
%TD*%
D11*
%TO.P,J1,1*%
%TO.N,Board_3-Net-(IC3-ANT)*%
X-37121458Y-8595984D03*
D12*
%TO.P,J1,2_1*%
%TO.N,Board_3-GND*%
X-36921458Y-5770984D03*
%TO.P,J1,3_1*%
X-36921458Y-11420984D03*
%TD*%
D11*
%TO.P,J1,1*%
%TO.N,Board_0-Net-(IC3-ANT)*%
X-37121458Y44798565D03*
D12*
%TO.P,J1,2_1*%
%TO.N,Board_0-GND*%
X-36921458Y47623565D03*
%TO.P,J1,3_1*%
X-36921458Y41973565D03*
%TD*%
D18*
%TO.P,U4,1,Vc(VCTCXO)_or_NC_(TCXO)*%
%TO.N,Board_1-unconnected-(U4-Vc(VCTCXO)_or_NC_(TCXO)-Pad1)*%
X-13004158Y31682382D03*
%TO.P,U4,2,GND*%
%TO.N,Board_1-GND*%
X-17449158Y31682382D03*
%TO.P,U4,3,OUTPUT*%
%TO.N,Board_1-Net-(U2-PA3{slash}EXTCLK)*%
X-17449158Y29282382D03*
%TO.P,U4,4,VDD*%
%TO.N,Board_1-VCC*%
X-13004158Y29282382D03*
%TD*%
%TO.P,U4,1,Vc(VCTCXO)_or_NC_(TCXO)*%
%TO.N,Board_5-unconnected-(U4-Vc(VCTCXO)_or_NC_(TCXO)-Pad1)*%
X-13004158Y-39510350D03*
%TO.P,U4,2,GND*%
%TO.N,Board_5-GND*%
X-17449158Y-39510350D03*
%TO.P,U4,3,OUTPUT*%
%TO.N,Board_5-Net-(U2-PA3{slash}EXTCLK)*%
X-17449158Y-41910350D03*
%TO.P,U4,4,VDD*%
%TO.N,Board_5-VCC*%
X-13004158Y-41910350D03*
%TD*%
D10*
%TO.P,U2,1,VDD*%
%TO.N,Board_2-VCC*%
X-12771658Y5445199D03*
%TO.P,U2,2,PA6*%
%TO.N,Board_2-Net-(U2-PA6)*%
X-12771658Y6715199D03*
%TO.P,U2,3,PA7*%
%TO.N,Board_2-Net-(U2-PA7)*%
X-12771658Y7985199D03*
%TO.P,U2,4,PA1*%
%TO.N,Board_2-Net-(U2-PA1)*%
X-12771658Y9255199D03*
%TO.P,U2,5,PA2*%
%TO.N,Board_2-Net-(IC3-DATA)*%
X-17681658Y9255199D03*
%TO.P,U2,6,PA0/~{RESET}/UPDI*%
%TO.N,Board_2-Net-(IC3-GND_4)*%
X-17681658Y7985199D03*
%TO.P,U2,7,PA3/EXTCLK*%
%TO.N,Board_2-Net-(U2-PA3{slash}EXTCLK)*%
X-17681658Y6715199D03*
%TO.P,U2,8,GND*%
%TO.N,Board_2-GND*%
X-17681658Y5445199D03*
%TD*%
D17*
%TO.P,C2,1,1*%
%TO.N,Board_2-VCC*%
X17476142Y13485299D03*
%TO.P,C2,2,2*%
%TO.N,Board_2-GND*%
X19376142Y13485299D03*
%TD*%
D19*
%TO.P,BAT0,1,S*%
%TO.N,Board_5-GND*%
X28359742Y-45714150D03*
%TO.P,BAT0,2,S*%
%TO.N,Board_5-Net-(BAT0B-S)*%
X28359742Y-43174150D03*
%TD*%
D10*
%TO.P,U2,1,VDD*%
%TO.N,Board_5-VCC*%
X-12771658Y-47949350D03*
%TO.P,U2,2,PA6*%
%TO.N,Board_5-Net-(U2-PA6)*%
X-12771658Y-46679350D03*
%TO.P,U2,3,PA7*%
%TO.N,Board_5-Net-(U2-PA7)*%
X-12771658Y-45409350D03*
%TO.P,U2,4,PA1*%
%TO.N,Board_5-Net-(U2-PA1)*%
X-12771658Y-44139350D03*
%TO.P,U2,5,PA2*%
%TO.N,Board_5-Net-(IC3-DATA)*%
X-17681658Y-44139350D03*
%TO.P,U2,6,PA0/~{RESET}/UPDI*%
%TO.N,Board_5-Net-(IC3-GND_4)*%
X-17681658Y-45409350D03*
%TO.P,U2,7,PA3/EXTCLK*%
%TO.N,Board_5-Net-(U2-PA3{slash}EXTCLK)*%
X-17681658Y-46679350D03*
%TO.P,U2,8,GND*%
%TO.N,Board_5-GND*%
X-17681658Y-47949350D03*
%TD*%
D17*
%TO.P,C1,1,1*%
%TO.N,Board_0-Net-(BAT0B-S)*%
X25017142Y49042565D03*
%TO.P,C1,2,2*%
%TO.N,Board_0-GND*%
X23117142Y49042565D03*
%TD*%
%TO.P,C1,1,1*%
%TO.N,Board_5-Net-(BAT0B-S)*%
X25017142Y-39948350D03*
%TO.P,C1,2,2*%
%TO.N,Board_5-GND*%
X23117142Y-39948350D03*
%TD*%
%TO.P,C1,1,1*%
%TO.N,Board_1-Net-(BAT0B-S)*%
X25017142Y31244382D03*
%TO.P,C1,2,2*%
%TO.N,Board_1-GND*%
X23117142Y31244382D03*
%TD*%
D22*
%TO.N,Board_5-VCC*%
X-30009458Y-40171950D03*
X-10400658Y-48355750D03*
D23*
%TO.N,Board_5-GND*%
X34760542Y-44469550D03*
D22*
X21219940Y-39909661D03*
X-18528658Y-49625750D03*
X-22389458Y-40171950D03*
%TO.N,Board_4-VCC*%
X-10400658Y-30557567D03*
X-30009458Y-22373767D03*
%TO.N,Board_4-GND*%
X21219940Y-22111478D03*
D23*
X34760542Y-26671367D03*
D22*
X-18528658Y-31827567D03*
X-22389458Y-22373767D03*
%TO.N,Board_3-VCC*%
X-30009458Y-4575584D03*
X-10400658Y-12759384D03*
%TO.N,Board_3-GND*%
X21219940Y-4313295D03*
X-22389458Y-4575584D03*
X-18528658Y-14029384D03*
D23*
X34760542Y-8873184D03*
D22*
%TO.N,Board_2-VCC*%
X-30009458Y13222599D03*
X-10400658Y5038799D03*
%TO.N,Board_2-GND*%
X-22389458Y13222599D03*
X-18528658Y3768799D03*
X21219940Y13484888D03*
D23*
X34760542Y8924999D03*
D22*
%TO.N,Board_1-VCC*%
X-30009458Y31020782D03*
X-10400658Y22836982D03*
%TO.N,Board_1-GND*%
X-18528658Y21566982D03*
D23*
X34760542Y26723182D03*
D22*
X21219940Y31283071D03*
X-22389458Y31020782D03*
%TO.N,Board_0-VCC*%
X-30009458Y48818965D03*
X-10400658Y40635165D03*
D23*
%TO.N,Board_0-GND*%
X34760542Y44521365D03*
D22*
X-18528658Y39365165D03*
X-22389458Y48818965D03*
X21219940Y49081254D03*
%TD*%
D24*
%TO.N,Board_5-VCC*%
X17476142Y-41942550D02*
X17476142Y-39909250D01*
D25*
X-24929458Y-48807950D02*
X-24929458Y-46450750D01*
X-3779658Y-44966350D02*
X6907942Y-44966350D01*
D26*
X-10807058Y-47949350D02*
X-12771658Y-47949350D01*
D25*
X11965042Y-39909250D02*
X17476142Y-39909250D01*
D24*
X18693742Y-42394350D02*
X17927942Y-42394350D01*
D26*
X-14286858Y-47949350D02*
X-12771658Y-47949350D01*
D25*
X-30009458Y-41370750D02*
X-30009458Y-40171950D01*
D26*
X-14769458Y-42437550D02*
X-14769458Y-47466750D01*
D24*
X18693742Y-42394350D02*
X18693742Y-42704150D01*
D26*
X-14242258Y-41910350D02*
X-14769458Y-42437550D01*
D24*
X17927942Y-42394350D02*
X17476142Y-41942550D01*
D25*
X-24929458Y-46450750D02*
X-30009458Y-41370750D01*
D26*
X-13004158Y-41910350D02*
X-14242258Y-41910350D01*
D25*
X6907942Y-44966350D02*
X11965042Y-39909250D01*
D26*
X-10400658Y-48355750D02*
X-10807058Y-47949350D01*
X-14769458Y-47466750D02*
X-14286858Y-47949350D01*
%TO.N,Board_5-Net-(U2-PA7)*%
X-3779658Y-46966350D02*
X-6151258Y-46966350D01*
X-7708258Y-45409350D02*
X-12771658Y-45409350D01*
X-6151258Y-46966350D02*
X-7708258Y-45409350D01*
%TO.N,Board_5-Net-(U2-PA6)*%
X-8825858Y-46679350D02*
X-12771658Y-46679350D01*
X-6538858Y-48966350D02*
X-8825858Y-46679350D01*
X-3779658Y-48966350D02*
X-6538858Y-48966350D01*
D27*
%TO.N,Board_5-Net-(U2-PA3{slash}EXTCLK)*%
X-17681658Y-46679350D02*
X-16318858Y-46679350D01*
X-16312658Y-41910350D02*
X-17449158Y-41910350D01*
X-15810858Y-42412150D02*
X-16312658Y-41910350D01*
X-15810858Y-46171350D02*
X-15810858Y-42412150D01*
X-16318858Y-46679350D02*
X-15810858Y-46171350D01*
D26*
%TO.N,Board_5-Net-(U2-PA1)*%
X-9419458Y-42370750D02*
X-9419458Y-39595450D01*
X-12771658Y-44139350D02*
X-11188058Y-44139350D01*
X-11188058Y-44139350D02*
X-9419458Y-42370750D01*
%TO.N,Board_5-Net-(IC3-GND_4)*%
X-17681658Y-45409350D02*
X-20560658Y-45409350D01*
X-22389458Y-47238150D02*
X-22389458Y-48807950D01*
X-20560658Y-45409350D02*
X-22389458Y-47238150D01*
%TO.N,Board_5-Net-(IC3-DATA)*%
X-17681658Y-44139350D02*
X-22465658Y-44139350D01*
X-24929458Y-41675550D02*
X-24929458Y-40171950D01*
X-22465658Y-44139350D02*
X-24929458Y-41675550D01*
D28*
%TO.N,Board_5-Net-(IC3-ANT)*%
X-31050858Y-46808550D02*
X-33667058Y-44192350D01*
X-31050858Y-46806350D02*
X-31050858Y-46808550D01*
D29*
X-31050858Y-46806350D02*
X-30009458Y-47847750D01*
X-33667058Y-44192350D02*
X-37121458Y-44192350D01*
X-30009458Y-47847750D02*
X-30009458Y-48807950D01*
D24*
%TO.N,Board_5-Net-(BAT0B-S)*%
X23402942Y-42285150D02*
X23293742Y-42394350D01*
D25*
X27453342Y-42267750D02*
X23420342Y-42267750D01*
X23420342Y-42267750D02*
X23402942Y-42285150D01*
X28359742Y-43174150D02*
X27453342Y-42267750D01*
D30*
X24964142Y-39909250D02*
X24964142Y-42267750D01*
D25*
%TO.N,Board_5-GND*%
X-27469458Y-46450750D02*
X-32552858Y-41367350D01*
X-21931058Y-39713550D02*
X-22389458Y-40171950D01*
X-27469458Y-48807950D02*
X-27469458Y-46450750D01*
D30*
X23040942Y-39872150D02*
X19413242Y-39872150D01*
X23064142Y-39909250D02*
X23064142Y-39895350D01*
D25*
X-32552858Y-41367350D02*
X-36921458Y-41367350D01*
D26*
X-18528658Y-48101750D02*
X-18376258Y-47949350D01*
D30*
X-21727858Y-39510350D02*
X-22389458Y-40171950D01*
X23064142Y-39895350D02*
X23040942Y-39872150D01*
X-18528658Y-49625750D02*
X-18528658Y-48101750D01*
X20993742Y-40211850D02*
X20993742Y-42394350D01*
X-17449158Y-39510350D02*
X-21727858Y-39510350D01*
D26*
X-18376258Y-47949350D02*
X-17681658Y-47949350D01*
D31*
X19413242Y-39872150D02*
X19376142Y-39909250D01*
D24*
%TO.N,Board_4-VCC*%
X17927942Y-24596167D02*
X17476142Y-24144367D01*
D25*
X-3779658Y-27168167D02*
X6907942Y-27168167D01*
D26*
X-14286858Y-30151167D02*
X-12771658Y-30151167D01*
D25*
X6907942Y-27168167D02*
X11965042Y-22111067D01*
X11965042Y-22111067D02*
X17476142Y-22111067D01*
D26*
X-14242258Y-24112167D02*
X-14769458Y-24639367D01*
X-13004158Y-24112167D02*
X-14242258Y-24112167D01*
X-14769458Y-24639367D02*
X-14769458Y-29668567D01*
X-10400658Y-30557567D02*
X-10807058Y-30151167D01*
D24*
X17476142Y-24144367D02*
X17476142Y-22111067D01*
D26*
X-14769458Y-29668567D02*
X-14286858Y-30151167D01*
D24*
X18693742Y-24596167D02*
X18693742Y-24905967D01*
D25*
X-24929458Y-28652567D02*
X-30009458Y-23572567D01*
D24*
X18693742Y-24596167D02*
X17927942Y-24596167D01*
D26*
X-10807058Y-30151167D02*
X-12771658Y-30151167D01*
D25*
X-30009458Y-23572567D02*
X-30009458Y-22373767D01*
X-24929458Y-31009767D02*
X-24929458Y-28652567D01*
D26*
%TO.N,Board_4-Net-(U2-PA7)*%
X-6151258Y-29168167D02*
X-7708258Y-27611167D01*
X-3779658Y-29168167D02*
X-6151258Y-29168167D01*
X-7708258Y-27611167D02*
X-12771658Y-27611167D01*
%TO.N,Board_4-Net-(U2-PA6)*%
X-8825858Y-28881167D02*
X-12771658Y-28881167D01*
X-3779658Y-31168167D02*
X-6538858Y-31168167D01*
X-6538858Y-31168167D02*
X-8825858Y-28881167D01*
D27*
%TO.N,Board_4-Net-(U2-PA3{slash}EXTCLK)*%
X-16312658Y-24112167D02*
X-17449158Y-24112167D01*
X-16318858Y-28881167D02*
X-15810858Y-28373167D01*
X-15810858Y-28373167D02*
X-15810858Y-24613967D01*
X-15810858Y-24613967D02*
X-16312658Y-24112167D01*
X-17681658Y-28881167D02*
X-16318858Y-28881167D01*
D26*
%TO.N,Board_4-Net-(U2-PA1)*%
X-12771658Y-26341167D02*
X-11188058Y-26341167D01*
X-9419458Y-24572567D02*
X-9419458Y-21797267D01*
X-11188058Y-26341167D02*
X-9419458Y-24572567D01*
%TO.N,Board_4-Net-(IC3-GND_4)*%
X-22389458Y-29439967D02*
X-22389458Y-31009767D01*
X-17681658Y-27611167D02*
X-20560658Y-27611167D01*
X-20560658Y-27611167D02*
X-22389458Y-29439967D01*
%TO.N,Board_4-Net-(IC3-DATA)*%
X-17681658Y-26341167D02*
X-22465658Y-26341167D01*
X-24929458Y-23877367D02*
X-24929458Y-22373767D01*
X-22465658Y-26341167D02*
X-24929458Y-23877367D01*
D29*
%TO.N,Board_4-Net-(IC3-ANT)*%
X-33667058Y-26394167D02*
X-37121458Y-26394167D01*
D28*
X-31050858Y-29008167D02*
X-31050858Y-29010367D01*
D29*
X-31050858Y-29008167D02*
X-30009458Y-30049567D01*
X-30009458Y-30049567D02*
X-30009458Y-31009767D01*
D28*
X-31050858Y-29010367D02*
X-33667058Y-26394167D01*
D24*
%TO.N,Board_4-Net-(BAT0B-S)*%
X23402942Y-24486967D02*
X23293742Y-24596167D01*
D25*
X27453342Y-24469567D02*
X23420342Y-24469567D01*
D30*
X24964142Y-22111067D02*
X24964142Y-24469567D01*
D25*
X28359742Y-25375967D02*
X27453342Y-24469567D01*
X23420342Y-24469567D02*
X23402942Y-24486967D01*
%TO.N,Board_4-GND*%
X-21931058Y-21915367D02*
X-22389458Y-22373767D01*
D31*
X19413242Y-22073967D02*
X19376142Y-22111067D01*
D30*
X23040942Y-22073967D02*
X19413242Y-22073967D01*
D25*
X-27469458Y-28652567D02*
X-32552858Y-23569167D01*
D30*
X20993742Y-22413667D02*
X20993742Y-24596167D01*
D26*
X-18528658Y-30303567D02*
X-18376258Y-30151167D01*
D30*
X23064142Y-22097167D02*
X23040942Y-22073967D01*
X-18528658Y-31827567D02*
X-18528658Y-30303567D01*
X23064142Y-22111067D02*
X23064142Y-22097167D01*
D25*
X-27469458Y-31009767D02*
X-27469458Y-28652567D01*
D26*
X-18376258Y-30151167D02*
X-17681658Y-30151167D01*
D25*
X-32552858Y-23569167D02*
X-36921458Y-23569167D01*
D30*
X-21727858Y-21712167D02*
X-22389458Y-22373767D01*
X-17449158Y-21712167D02*
X-21727858Y-21712167D01*
D24*
%TO.N,Board_3-VCC*%
X17927942Y-6797984D02*
X17476142Y-6346184D01*
D25*
X-24929458Y-10854384D02*
X-30009458Y-5774384D01*
X-3779658Y-9369984D02*
X6907942Y-9369984D01*
X-24929458Y-13211584D02*
X-24929458Y-10854384D01*
D26*
X-14769458Y-11870384D02*
X-14286858Y-12352984D01*
X-10400658Y-12759384D02*
X-10807058Y-12352984D01*
D24*
X18693742Y-6797984D02*
X18693742Y-7107784D01*
D25*
X11965042Y-4312884D02*
X17476142Y-4312884D01*
X-30009458Y-5774384D02*
X-30009458Y-4575584D01*
D26*
X-14769458Y-6841184D02*
X-14769458Y-11870384D01*
X-10807058Y-12352984D02*
X-12771658Y-12352984D01*
D25*
X6907942Y-9369984D02*
X11965042Y-4312884D01*
D24*
X18693742Y-6797984D02*
X17927942Y-6797984D01*
D26*
X-14286858Y-12352984D02*
X-12771658Y-12352984D01*
D24*
X17476142Y-6346184D02*
X17476142Y-4312884D01*
D26*
X-14242258Y-6313984D02*
X-14769458Y-6841184D01*
X-13004158Y-6313984D02*
X-14242258Y-6313984D01*
%TO.N,Board_3-Net-(U2-PA7)*%
X-3779658Y-11369984D02*
X-6151258Y-11369984D01*
X-6151258Y-11369984D02*
X-7708258Y-9812984D01*
X-7708258Y-9812984D02*
X-12771658Y-9812984D01*
%TO.N,Board_3-Net-(U2-PA6)*%
X-3779658Y-13369984D02*
X-6538858Y-13369984D01*
X-8825858Y-11082984D02*
X-12771658Y-11082984D01*
X-6538858Y-13369984D02*
X-8825858Y-11082984D01*
D27*
%TO.N,Board_3-Net-(U2-PA3{slash}EXTCLK)*%
X-15810858Y-10574984D02*
X-15810858Y-6815784D01*
X-15810858Y-6815784D02*
X-16312658Y-6313984D01*
X-16312658Y-6313984D02*
X-17449158Y-6313984D01*
X-17681658Y-11082984D02*
X-16318858Y-11082984D01*
X-16318858Y-11082984D02*
X-15810858Y-10574984D01*
D26*
%TO.N,Board_3-Net-(U2-PA1)*%
X-12771658Y-8542984D02*
X-11188058Y-8542984D01*
X-9419458Y-6774384D02*
X-9419458Y-3999084D01*
X-11188058Y-8542984D02*
X-9419458Y-6774384D01*
%TO.N,Board_3-Net-(IC3-GND_4)*%
X-20560658Y-9812984D02*
X-22389458Y-11641784D01*
X-22389458Y-11641784D02*
X-22389458Y-13211584D01*
X-17681658Y-9812984D02*
X-20560658Y-9812984D01*
%TO.N,Board_3-Net-(IC3-DATA)*%
X-17681658Y-8542984D02*
X-22465658Y-8542984D01*
X-24929458Y-6079184D02*
X-24929458Y-4575584D01*
X-22465658Y-8542984D02*
X-24929458Y-6079184D01*
D29*
%TO.N,Board_3-Net-(IC3-ANT)*%
X-33667058Y-8595984D02*
X-37121458Y-8595984D01*
X-30009458Y-12251384D02*
X-30009458Y-13211584D01*
X-31050858Y-11209984D02*
X-30009458Y-12251384D01*
D28*
X-31050858Y-11212184D02*
X-33667058Y-8595984D01*
X-31050858Y-11209984D02*
X-31050858Y-11212184D01*
D24*
%TO.N,Board_3-Net-(BAT0B-S)*%
X23402942Y-6688784D02*
X23293742Y-6797984D01*
D25*
X28359742Y-7577784D02*
X27453342Y-6671384D01*
X27453342Y-6671384D02*
X23420342Y-6671384D01*
X23420342Y-6671384D02*
X23402942Y-6688784D01*
D30*
X24964142Y-4312884D02*
X24964142Y-6671384D01*
D25*
%TO.N,Board_3-GND*%
X-21931058Y-4117184D02*
X-22389458Y-4575584D01*
D30*
X-17449158Y-3913984D02*
X-21727858Y-3913984D01*
D26*
X-18376258Y-12352984D02*
X-17681658Y-12352984D01*
D30*
X23040942Y-4275784D02*
X19413242Y-4275784D01*
X23064142Y-4312884D02*
X23064142Y-4298984D01*
D25*
X-32552858Y-5770984D02*
X-36921458Y-5770984D01*
D26*
X-18528658Y-12505384D02*
X-18376258Y-12352984D01*
D30*
X-18528658Y-14029384D02*
X-18528658Y-12505384D01*
X-21727858Y-3913984D02*
X-22389458Y-4575584D01*
X20993742Y-4615484D02*
X20993742Y-6797984D01*
X23064142Y-4298984D02*
X23040942Y-4275784D01*
D31*
X19413242Y-4275784D02*
X19376142Y-4312884D01*
D25*
X-27469458Y-10854384D02*
X-32552858Y-5770984D01*
X-27469458Y-13211584D02*
X-27469458Y-10854384D01*
D26*
%TO.N,Board_2-VCC*%
X-13004158Y11484199D02*
X-14242258Y11484199D01*
X-14286858Y5445199D02*
X-12771658Y5445199D01*
D24*
X18693742Y11000199D02*
X18693742Y10690399D01*
D26*
X-14769458Y5927799D02*
X-14286858Y5445199D01*
D25*
X-24929458Y6943799D02*
X-30009458Y12023799D01*
X11965042Y13485299D02*
X17476142Y13485299D01*
D24*
X17927942Y11000199D02*
X17476142Y11451999D01*
X18693742Y11000199D02*
X17927942Y11000199D01*
X17476142Y11451999D02*
X17476142Y13485299D01*
D26*
X-10807058Y5445199D02*
X-12771658Y5445199D01*
X-14769458Y10956999D02*
X-14769458Y5927799D01*
X-14242258Y11484199D02*
X-14769458Y10956999D01*
D25*
X-30009458Y12023799D02*
X-30009458Y13222599D01*
D26*
X-10400658Y5038799D02*
X-10807058Y5445199D01*
D25*
X-24929458Y4586599D02*
X-24929458Y6943799D01*
X6907942Y8428199D02*
X11965042Y13485299D01*
X-3779658Y8428199D02*
X6907942Y8428199D01*
D26*
%TO.N,Board_2-Net-(U2-PA7)*%
X-6151258Y6428199D02*
X-7708258Y7985199D01*
X-7708258Y7985199D02*
X-12771658Y7985199D01*
X-3779658Y6428199D02*
X-6151258Y6428199D01*
%TO.N,Board_2-Net-(U2-PA6)*%
X-3779658Y4428199D02*
X-6538858Y4428199D01*
X-6538858Y4428199D02*
X-8825858Y6715199D01*
X-8825858Y6715199D02*
X-12771658Y6715199D01*
D27*
%TO.N,Board_2-Net-(U2-PA3{slash}EXTCLK)*%
X-17681658Y6715199D02*
X-16318858Y6715199D01*
X-16318858Y6715199D02*
X-15810858Y7223199D01*
X-16312658Y11484199D02*
X-17449158Y11484199D01*
X-15810858Y7223199D02*
X-15810858Y10982399D01*
X-15810858Y10982399D02*
X-16312658Y11484199D01*
D26*
%TO.N,Board_2-Net-(U2-PA1)*%
X-12771658Y9255199D02*
X-11188058Y9255199D01*
X-9419458Y11023799D02*
X-9419458Y13799099D01*
X-11188058Y9255199D02*
X-9419458Y11023799D01*
%TO.N,Board_2-Net-(IC3-GND_4)*%
X-22389458Y6156399D02*
X-22389458Y4586599D01*
X-17681658Y7985199D02*
X-20560658Y7985199D01*
X-20560658Y7985199D02*
X-22389458Y6156399D01*
%TO.N,Board_2-Net-(IC3-DATA)*%
X-22465658Y9255199D02*
X-24929458Y11718999D01*
X-17681658Y9255199D02*
X-22465658Y9255199D01*
X-24929458Y11718999D02*
X-24929458Y13222599D01*
D29*
%TO.N,Board_2-Net-(IC3-ANT)*%
X-30009458Y5546799D02*
X-30009458Y4586599D01*
X-31050858Y6588199D02*
X-30009458Y5546799D01*
D28*
X-31050858Y6588199D02*
X-31050858Y6585999D01*
D29*
X-33667058Y9202199D02*
X-37121458Y9202199D01*
D28*
X-31050858Y6585999D02*
X-33667058Y9202199D01*
D25*
%TO.N,Board_2-Net-(BAT0B-S)*%
X23420342Y11126799D02*
X23402942Y11109399D01*
X27453342Y11126799D02*
X23420342Y11126799D01*
D24*
X23402942Y11109399D02*
X23293742Y11000199D01*
D30*
X24964142Y13485299D02*
X24964142Y11126799D01*
D25*
X28359742Y10220399D02*
X27453342Y11126799D01*
D30*
%TO.N,Board_2-GND*%
X23064142Y13499199D02*
X23040942Y13522399D01*
D31*
X19413242Y13522399D02*
X19376142Y13485299D01*
D30*
X20993742Y13182699D02*
X20993742Y11000199D01*
D26*
X-18376258Y5445199D02*
X-17681658Y5445199D01*
D25*
X-27469458Y4586599D02*
X-27469458Y6943799D01*
X-21931058Y13680999D02*
X-22389458Y13222599D01*
D30*
X23064142Y13485299D02*
X23064142Y13499199D01*
X-17449158Y13884199D02*
X-21727858Y13884199D01*
D25*
X-27469458Y6943799D02*
X-32552858Y12027199D01*
D30*
X23040942Y13522399D02*
X19413242Y13522399D01*
X-18528658Y3768799D02*
X-18528658Y5292799D01*
D25*
X-32552858Y12027199D02*
X-36921458Y12027199D01*
D26*
X-18528658Y5292799D02*
X-18376258Y5445199D01*
D30*
X-21727858Y13884199D02*
X-22389458Y13222599D01*
D26*
%TO.N,Board_1-VCC*%
X-10807058Y23243382D02*
X-12771658Y23243382D01*
D24*
X17476142Y29250182D02*
X17476142Y31283482D01*
D25*
X-30009458Y29821982D02*
X-30009458Y31020782D01*
X6907942Y26226382D02*
X11965042Y31283482D01*
D26*
X-10400658Y22836982D02*
X-10807058Y23243382D01*
D24*
X18693742Y28798382D02*
X18693742Y28488582D01*
D26*
X-14242258Y29282382D02*
X-14769458Y28755182D01*
D24*
X17927942Y28798382D02*
X17476142Y29250182D01*
D26*
X-14769458Y23725982D02*
X-14286858Y23243382D01*
D25*
X-3779658Y26226382D02*
X6907942Y26226382D01*
X-24929458Y22384782D02*
X-24929458Y24741982D01*
X-24929458Y24741982D02*
X-30009458Y29821982D01*
D26*
X-13004158Y29282382D02*
X-14242258Y29282382D01*
D25*
X11965042Y31283482D02*
X17476142Y31283482D01*
D26*
X-14769458Y28755182D02*
X-14769458Y23725982D01*
D24*
X18693742Y28798382D02*
X17927942Y28798382D01*
D26*
X-14286858Y23243382D02*
X-12771658Y23243382D01*
%TO.N,Board_1-Net-(U2-PA7)*%
X-7708258Y25783382D02*
X-12771658Y25783382D01*
X-6151258Y24226382D02*
X-7708258Y25783382D01*
X-3779658Y24226382D02*
X-6151258Y24226382D01*
%TO.N,Board_1-Net-(U2-PA6)*%
X-6538858Y22226382D02*
X-8825858Y24513382D01*
X-3779658Y22226382D02*
X-6538858Y22226382D01*
X-8825858Y24513382D02*
X-12771658Y24513382D01*
D27*
%TO.N,Board_1-Net-(U2-PA3{slash}EXTCLK)*%
X-16312658Y29282382D02*
X-17449158Y29282382D01*
X-15810858Y25021382D02*
X-15810858Y28780582D01*
X-17681658Y24513382D02*
X-16318858Y24513382D01*
X-15810858Y28780582D02*
X-16312658Y29282382D01*
X-16318858Y24513382D02*
X-15810858Y25021382D01*
D26*
%TO.N,Board_1-Net-(U2-PA1)*%
X-9419458Y28821982D02*
X-9419458Y31597282D01*
X-11188058Y27053382D02*
X-9419458Y28821982D01*
X-12771658Y27053382D02*
X-11188058Y27053382D01*
%TO.N,Board_1-Net-(IC3-GND_4)*%
X-17681658Y25783382D02*
X-20560658Y25783382D01*
X-22389458Y23954582D02*
X-22389458Y22384782D01*
X-20560658Y25783382D02*
X-22389458Y23954582D01*
%TO.N,Board_1-Net-(IC3-DATA)*%
X-17681658Y27053382D02*
X-22465658Y27053382D01*
X-24929458Y29517182D02*
X-24929458Y31020782D01*
X-22465658Y27053382D02*
X-24929458Y29517182D01*
D28*
%TO.N,Board_1-Net-(IC3-ANT)*%
X-31050858Y24384182D02*
X-33667058Y27000382D01*
D29*
X-33667058Y27000382D02*
X-37121458Y27000382D01*
D28*
X-31050858Y24386382D02*
X-31050858Y24384182D01*
D29*
X-30009458Y23344982D02*
X-30009458Y22384782D01*
X-31050858Y24386382D02*
X-30009458Y23344982D01*
D25*
%TO.N,Board_1-Net-(BAT0B-S)*%
X28359742Y28018582D02*
X27453342Y28924982D01*
X23420342Y28924982D02*
X23402942Y28907582D01*
D24*
X23402942Y28907582D02*
X23293742Y28798382D01*
D30*
X24964142Y31283482D02*
X24964142Y28924982D01*
D25*
X27453342Y28924982D02*
X23420342Y28924982D01*
%TO.N,Board_1-GND*%
X-27469458Y22384782D02*
X-27469458Y24741982D01*
D30*
X-21727858Y31682382D02*
X-22389458Y31020782D01*
D26*
X-18528658Y23090982D02*
X-18376258Y23243382D01*
D30*
X20993742Y30980882D02*
X20993742Y28798382D01*
D25*
X-21931058Y31479182D02*
X-22389458Y31020782D01*
X-32552858Y29825382D02*
X-36921458Y29825382D01*
D31*
X19413242Y31320582D02*
X19376142Y31283482D01*
D25*
X-27469458Y24741982D02*
X-32552858Y29825382D01*
D30*
X23040942Y31320582D02*
X19413242Y31320582D01*
X23064142Y31297382D02*
X23040942Y31320582D01*
X-17449158Y31682382D02*
X-21727858Y31682382D01*
X-18528658Y21566982D02*
X-18528658Y23090982D01*
X23064142Y31283482D02*
X23064142Y31297382D01*
D26*
X-18376258Y23243382D02*
X-17681658Y23243382D01*
%TO.N,Board_0-VCC*%
X-10400658Y40635165D02*
X-10807058Y41041565D01*
D24*
X17927942Y46596565D02*
X17476142Y47048365D01*
D26*
X-14769458Y41524165D02*
X-14286858Y41041565D01*
X-13004158Y47080565D02*
X-14242258Y47080565D01*
D25*
X6907942Y44024565D02*
X11965042Y49081665D01*
D26*
X-14286858Y41041565D02*
X-12771658Y41041565D01*
D24*
X18693742Y46596565D02*
X17927942Y46596565D01*
X18693742Y46596565D02*
X18693742Y46286765D01*
X17476142Y47048365D02*
X17476142Y49081665D01*
D26*
X-14769458Y46553365D02*
X-14769458Y41524165D01*
D25*
X-30009458Y47620165D02*
X-30009458Y48818965D01*
X-3779658Y44024565D02*
X6907942Y44024565D01*
X-24929458Y40182965D02*
X-24929458Y42540165D01*
D26*
X-10807058Y41041565D02*
X-12771658Y41041565D01*
X-14242258Y47080565D02*
X-14769458Y46553365D01*
D25*
X-24929458Y42540165D02*
X-30009458Y47620165D01*
X11965042Y49081665D02*
X17476142Y49081665D01*
D26*
%TO.N,Board_0-Net-(U2-PA7)*%
X-3779658Y42024565D02*
X-6151258Y42024565D01*
X-7708258Y43581565D02*
X-12771658Y43581565D01*
X-6151258Y42024565D02*
X-7708258Y43581565D01*
%TO.N,Board_0-Net-(U2-PA6)*%
X-8825858Y42311565D02*
X-12771658Y42311565D01*
X-6538858Y40024565D02*
X-8825858Y42311565D01*
X-3779658Y40024565D02*
X-6538858Y40024565D01*
D27*
%TO.N,Board_0-Net-(U2-PA3{slash}EXTCLK)*%
X-15810858Y46578765D02*
X-16312658Y47080565D01*
X-17681658Y42311565D02*
X-16318858Y42311565D01*
X-15810858Y42819565D02*
X-15810858Y46578765D01*
X-16318858Y42311565D02*
X-15810858Y42819565D01*
X-16312658Y47080565D02*
X-17449158Y47080565D01*
D26*
%TO.N,Board_0-Net-(U2-PA1)*%
X-9419458Y46620165D02*
X-9419458Y49395465D01*
X-11188058Y44851565D02*
X-9419458Y46620165D01*
X-12771658Y44851565D02*
X-11188058Y44851565D01*
%TO.N,Board_0-Net-(IC3-GND_4)*%
X-17681658Y43581565D02*
X-20560658Y43581565D01*
X-20560658Y43581565D02*
X-22389458Y41752765D01*
X-22389458Y41752765D02*
X-22389458Y40182965D01*
%TO.N,Board_0-Net-(IC3-DATA)*%
X-24929458Y47315365D02*
X-24929458Y48818965D01*
X-22465658Y44851565D02*
X-24929458Y47315365D01*
X-17681658Y44851565D02*
X-22465658Y44851565D01*
D29*
%TO.N,Board_0-Net-(IC3-ANT)*%
X-33667058Y44798565D02*
X-37121458Y44798565D01*
D28*
X-31050858Y42184565D02*
X-31050858Y42182365D01*
D29*
X-31050858Y42184565D02*
X-30009458Y41143165D01*
X-30009458Y41143165D02*
X-30009458Y40182965D01*
D28*
X-31050858Y42182365D02*
X-33667058Y44798565D01*
D25*
%TO.N,Board_0-Net-(BAT0B-S)*%
X28359742Y45816765D02*
X27453342Y46723165D01*
X27453342Y46723165D02*
X23420342Y46723165D01*
D30*
X24964142Y49081665D02*
X24964142Y46723165D01*
D24*
X23402942Y46705765D02*
X23293742Y46596565D01*
D25*
X23420342Y46723165D02*
X23402942Y46705765D01*
D30*
%TO.N,Board_0-GND*%
X23064142Y49081665D02*
X23064142Y49095565D01*
D26*
X-18376258Y41041565D02*
X-17681658Y41041565D01*
D30*
X23064142Y49095565D02*
X23040942Y49118765D01*
X-21727858Y49480565D02*
X-22389458Y48818965D01*
D25*
X-27469458Y42540165D02*
X-32552858Y47623565D01*
D30*
X20993742Y48779065D02*
X20993742Y46596565D01*
D25*
X-32552858Y47623565D02*
X-36921458Y47623565D01*
D30*
X23040942Y49118765D02*
X19413242Y49118765D01*
D25*
X-27469458Y40182965D02*
X-27469458Y42540165D01*
D30*
X-17449158Y49480565D02*
X-21727858Y49480565D01*
X-18528658Y39365165D02*
X-18528658Y40889165D01*
D26*
X-18528658Y40889165D02*
X-18376258Y41041565D01*
D31*
X19413242Y49118765D02*
X19376142Y49081665D01*
D25*
X-21931058Y49277365D02*
X-22389458Y48818965D01*
%TD*%
M02*
