%TF.GenerationSoftware,KiCad,Pcbnew,7.0.11+dfsg-1build4*%
%TF.CreationDate,2025-08-26T14:56:20-06:00*%
%TF.ProjectId,,58585858-5858-4585-9858-585858585858,rev?*%
%TF.SameCoordinates,Original*%
%TF.FileFunction,Soldermask,Top*%
%TF.FilePolarity,Negative*%
%FSLAX46Y46*%
G04 Gerber Fmt 4.6, Leading zero omitted, Abs format (unit mm)*
G04 Created by KiCad (PCBNEW 7.0.11+dfsg-1build4) date 2025-08-26 14:56:20*
%MOMM*%
%LPD*%
G01*
G04 APERTURE LIST*
G04 Aperture macros list*
%AMRoundRect*
0 Rectangle with rounded corners*
0 $1 Rounding radius*
0 $2 $3 $4 $5 $6 $7 $8 $9 X,Y pos of 4 corners*
0 Add a 4 corners polygon primitive as box body*
4,1,4,$2,$3,$4,$5,$6,$7,$8,$9,$2,$3,0*
0 Add four circle primitives for the rounded corners*
1,1,$1+$1,$2,$3*
1,1,$1+$1,$4,$5*
1,1,$1+$1,$6,$7*
1,1,$1+$1,$8,$9*
0 Add four rect primitives between the rounded corners*
20,1,$1+$1,$2,$3,$4,$5,0*
20,1,$1+$1,$4,$5,$6,$7,0*
20,1,$1+$1,$6,$7,$8,$9,0*
20,1,$1+$1,$8,$9,$2,$3,0*%
G04 Aperture macros list end*
%ADD10RoundRect,0.100500X0.951500X0.301500X-0.951500X0.301500X-0.951500X-0.301500X0.951500X-0.301500X0*%
%ADD11RoundRect,0.102000X-1.800000X0.635000X-1.800000X-0.635000X1.800000X-0.635000X1.800000X0.635000X0*%
%ADD12RoundRect,0.102000X-2.100000X0.675000X-2.100000X-0.675000X2.100000X-0.675000X2.100000X0.675000X0*%
%ADD13RoundRect,0.101600X0.469900X0.889000X-0.469900X0.889000X-0.469900X-0.889000X0.469900X-0.889000X0*%
%ADD14RoundRect,0.101600X1.600200X0.889000X-1.600200X0.889000X-1.600200X-0.889000X1.600200X-0.889000X0*%
%ADD15RoundRect,0.101600X0.825500X0.889000X-0.825500X0.889000X-0.825500X-0.889000X0.825500X-0.889000X0*%
%ADD16C,1.600000*%
%ADD17RoundRect,0.101600X-0.450000X-0.650000X0.450000X-0.650000X0.450000X0.650000X-0.450000X0.650000X0*%
%ADD18RoundRect,0.101600X0.450000X0.650000X-0.450000X0.650000X-0.450000X-0.650000X0.450000X-0.650000X0*%
%ADD19R,1.676400X0.889000*%
%ADD20O,3.219200X1.711200*%
%ADD21R,1.350000X1.350000*%
%ADD22O,1.350000X1.350000*%
G04 APERTURE END LIST*
D10*
%TO.C,U2*%
X-12771658Y-30151167D03*
X-12771658Y-28881167D03*
X-12771658Y-27611167D03*
X-12771658Y-26341167D03*
X-17681658Y-26341167D03*
X-17681658Y-27611167D03*
X-17681658Y-28881167D03*
X-17681658Y-30151167D03*
%TD*%
D11*
%TO.C,J1*%
X-37121458Y-26394167D03*
D12*
X-36921458Y-23569167D03*
X-36921458Y-29219167D03*
%TD*%
D13*
%TO.C,U1*%
X23293742Y28798382D03*
X20993742Y28798382D03*
X18693742Y28798382D03*
D14*
X20993742Y22158782D03*
%TD*%
D15*
%TO.C,IC3*%
X-22389458Y13222599D03*
X-24929458Y13222599D03*
X-27469458Y13222599D03*
X-30009458Y13222599D03*
X-30009458Y4586599D03*
X-27469458Y4586599D03*
X-24929458Y4586599D03*
X-22389458Y4586599D03*
%TD*%
D16*
%TO.C,SW1*%
X-7219458Y-3999084D03*
X-9419458Y-3999084D03*
%TD*%
%TO.C,SW1*%
X-7219458Y31597282D03*
X-9419458Y31597282D03*
%TD*%
D17*
%TO.C,C2*%
X17476142Y-4312884D03*
X19376142Y-4312884D03*
%TD*%
D10*
%TO.C,U2*%
X-12771658Y23243382D03*
X-12771658Y24513382D03*
X-12771658Y25783382D03*
X-12771658Y27053382D03*
X-17681658Y27053382D03*
X-17681658Y25783382D03*
X-17681658Y24513382D03*
X-17681658Y23243382D03*
%TD*%
D18*
%TO.C,C1*%
X25017142Y-4351984D03*
X23117142Y-4351984D03*
%TD*%
D19*
%TO.C,U4*%
X-13004158Y-21712167D03*
X-17449158Y-21712167D03*
X-17449158Y-24112167D03*
X-13004158Y-24112167D03*
%TD*%
D16*
%TO.C,SW1*%
X-7219458Y49395465D03*
X-9419458Y49395465D03*
%TD*%
D13*
%TO.C,U1*%
X23293742Y46596565D03*
X20993742Y46596565D03*
X18693742Y46596565D03*
D14*
X20993742Y39956965D03*
%TD*%
D20*
%TO.C,BAT0*%
X28359742Y-10117784D03*
X28359742Y-7577784D03*
%TD*%
D13*
%TO.C,U1*%
X23293742Y-24596167D03*
X20993742Y-24596167D03*
X18693742Y-24596167D03*
D14*
X20993742Y-31235767D03*
%TD*%
D11*
%TO.C,J1*%
X-37121458Y27000382D03*
D12*
X-36921458Y29825382D03*
X-36921458Y24175382D03*
%TD*%
D15*
%TO.C,IC3*%
X-22389458Y31020782D03*
X-24929458Y31020782D03*
X-27469458Y31020782D03*
X-30009458Y31020782D03*
X-30009458Y22384782D03*
X-27469458Y22384782D03*
X-24929458Y22384782D03*
X-22389458Y22384782D03*
%TD*%
D21*
%TO.C,U3*%
X-3779658Y40024565D03*
D22*
X-3779658Y42024565D03*
X-3779658Y44024565D03*
X-3779658Y46024565D03*
%TD*%
D19*
%TO.C,U4*%
X-13004158Y13884199D03*
X-17449158Y13884199D03*
X-17449158Y11484199D03*
X-13004158Y11484199D03*
%TD*%
D18*
%TO.C,C1*%
X25017142Y-22150167D03*
X23117142Y-22150167D03*
%TD*%
D15*
%TO.C,IC3*%
X-22389458Y-22373767D03*
X-24929458Y-22373767D03*
X-27469458Y-22373767D03*
X-30009458Y-22373767D03*
X-30009458Y-31009767D03*
X-27469458Y-31009767D03*
X-24929458Y-31009767D03*
X-22389458Y-31009767D03*
%TD*%
D13*
%TO.C,U1*%
X23293742Y11000199D03*
X20993742Y11000199D03*
X18693742Y11000199D03*
D14*
X20993742Y4360599D03*
%TD*%
D17*
%TO.C,C2*%
X17476142Y-39909250D03*
X19376142Y-39909250D03*
%TD*%
D20*
%TO.C,BAT0*%
X28359742Y7680399D03*
X28359742Y10220399D03*
%TD*%
%TO.C,BAT0*%
X28359742Y-27915967D03*
X28359742Y-25375967D03*
%TD*%
D15*
%TO.C,IC3*%
X-22389458Y-40171950D03*
X-24929458Y-40171950D03*
X-27469458Y-40171950D03*
X-30009458Y-40171950D03*
X-30009458Y-48807950D03*
X-27469458Y-48807950D03*
X-24929458Y-48807950D03*
X-22389458Y-48807950D03*
%TD*%
D21*
%TO.C,U3*%
X-3779658Y4428199D03*
D22*
X-3779658Y6428199D03*
X-3779658Y8428199D03*
X-3779658Y10428199D03*
%TD*%
D10*
%TO.C,U2*%
X-12771658Y41041565D03*
X-12771658Y42311565D03*
X-12771658Y43581565D03*
X-12771658Y44851565D03*
X-17681658Y44851565D03*
X-17681658Y43581565D03*
X-17681658Y42311565D03*
X-17681658Y41041565D03*
%TD*%
D17*
%TO.C,C2*%
X17476142Y-22111067D03*
X19376142Y-22111067D03*
%TD*%
D21*
%TO.C,U3*%
X-3779658Y22226382D03*
D22*
X-3779658Y24226382D03*
X-3779658Y26226382D03*
X-3779658Y28226382D03*
%TD*%
D21*
%TO.C,U3*%
X-3779658Y-13369984D03*
D22*
X-3779658Y-11369984D03*
X-3779658Y-9369984D03*
X-3779658Y-7369984D03*
%TD*%
D19*
%TO.C,U4*%
X-13004158Y-3913984D03*
X-17449158Y-3913984D03*
X-17449158Y-6313984D03*
X-13004158Y-6313984D03*
%TD*%
D20*
%TO.C,BAT0*%
X28359742Y25478582D03*
X28359742Y28018582D03*
%TD*%
D21*
%TO.C,U3*%
X-3779658Y-48966350D03*
D22*
X-3779658Y-46966350D03*
X-3779658Y-44966350D03*
X-3779658Y-42966350D03*
%TD*%
D16*
%TO.C,SW1*%
X-7219458Y-39595450D03*
X-9419458Y-39595450D03*
%TD*%
D15*
%TO.C,IC3*%
X-22389458Y48818965D03*
X-24929458Y48818965D03*
X-27469458Y48818965D03*
X-30009458Y48818965D03*
X-30009458Y40182965D03*
X-27469458Y40182965D03*
X-24929458Y40182965D03*
X-22389458Y40182965D03*
%TD*%
D10*
%TO.C,U2*%
X-12771658Y-12352984D03*
X-12771658Y-11082984D03*
X-12771658Y-9812984D03*
X-12771658Y-8542984D03*
X-17681658Y-8542984D03*
X-17681658Y-9812984D03*
X-17681658Y-11082984D03*
X-17681658Y-12352984D03*
%TD*%
D11*
%TO.C,J1*%
X-37121458Y-44192350D03*
D12*
X-36921458Y-41367350D03*
X-36921458Y-47017350D03*
%TD*%
D16*
%TO.C,SW1*%
X-7219458Y-21797267D03*
X-9419458Y-21797267D03*
%TD*%
D17*
%TO.C,C2*%
X17476142Y49081665D03*
X19376142Y49081665D03*
%TD*%
D15*
%TO.C,IC3*%
X-22389458Y-4575584D03*
X-24929458Y-4575584D03*
X-27469458Y-4575584D03*
X-30009458Y-4575584D03*
X-30009458Y-13211584D03*
X-27469458Y-13211584D03*
X-24929458Y-13211584D03*
X-22389458Y-13211584D03*
%TD*%
D17*
%TO.C,C2*%
X17476142Y31283482D03*
X19376142Y31283482D03*
%TD*%
D16*
%TO.C,SW1*%
X-7219458Y13799099D03*
X-9419458Y13799099D03*
%TD*%
D20*
%TO.C,BAT0*%
X28359742Y43276765D03*
X28359742Y45816765D03*
%TD*%
D13*
%TO.C,U1*%
X23293742Y-42394350D03*
X20993742Y-42394350D03*
X18693742Y-42394350D03*
D14*
X20993742Y-49033950D03*
%TD*%
D13*
%TO.C,U1*%
X23293742Y-6797984D03*
X20993742Y-6797984D03*
X18693742Y-6797984D03*
D14*
X20993742Y-13437584D03*
%TD*%
D21*
%TO.C,U3*%
X-3779658Y-31168167D03*
D22*
X-3779658Y-29168167D03*
X-3779658Y-27168167D03*
X-3779658Y-25168167D03*
%TD*%
D11*
%TO.C,J1*%
X-37121458Y9202199D03*
D12*
X-36921458Y12027199D03*
X-36921458Y6377199D03*
%TD*%
D19*
%TO.C,U4*%
X-13004158Y49480565D03*
X-17449158Y49480565D03*
X-17449158Y47080565D03*
X-13004158Y47080565D03*
%TD*%
D18*
%TO.C,C1*%
X25017142Y13446199D03*
X23117142Y13446199D03*
%TD*%
D11*
%TO.C,J1*%
X-37121458Y-8595984D03*
D12*
X-36921458Y-5770984D03*
X-36921458Y-11420984D03*
%TD*%
D11*
%TO.C,J1*%
X-37121458Y44798565D03*
D12*
X-36921458Y47623565D03*
X-36921458Y41973565D03*
%TD*%
D19*
%TO.C,U4*%
X-13004158Y31682382D03*
X-17449158Y31682382D03*
X-17449158Y29282382D03*
X-13004158Y29282382D03*
%TD*%
%TO.C,U4*%
X-13004158Y-39510350D03*
X-17449158Y-39510350D03*
X-17449158Y-41910350D03*
X-13004158Y-41910350D03*
%TD*%
D10*
%TO.C,U2*%
X-12771658Y5445199D03*
X-12771658Y6715199D03*
X-12771658Y7985199D03*
X-12771658Y9255199D03*
X-17681658Y9255199D03*
X-17681658Y7985199D03*
X-17681658Y6715199D03*
X-17681658Y5445199D03*
%TD*%
D17*
%TO.C,C2*%
X17476142Y13485299D03*
X19376142Y13485299D03*
%TD*%
D20*
%TO.C,BAT0*%
X28359742Y-45714150D03*
X28359742Y-43174150D03*
%TD*%
D10*
%TO.C,U2*%
X-12771658Y-47949350D03*
X-12771658Y-46679350D03*
X-12771658Y-45409350D03*
X-12771658Y-44139350D03*
X-17681658Y-44139350D03*
X-17681658Y-45409350D03*
X-17681658Y-46679350D03*
X-17681658Y-47949350D03*
%TD*%
D18*
%TO.C,C1*%
X25017142Y49042565D03*
X23117142Y49042565D03*
%TD*%
%TO.C,C1*%
X25017142Y-39948350D03*
X23117142Y-39948350D03*
%TD*%
%TO.C,C1*%
X25017142Y31244382D03*
X23117142Y31244382D03*
%TD*%
M02*
