M48
; DRILL file {KiCad 7.0.11+dfsg-1build4} date Tue 26 Aug 2025 02:56:15 PM MDT
; FORMAT={-:-/ absolute / metric / decimal}
; #@! TF.CreationDate,2025-08-26T14:56:15-06:00
; #@! TF.GenerationSoftware,Kicad,Pcbnew,7.0.11+dfsg-1build4
; #@! TF.FileFunction,Plated,1,2,PTH
FMAT,2
METRIC
; #@! TA.AperFunction,Plated,PTH,ComponentDrill
T1C0.800
; #@! TA.AperFunction,Plated,PTH,ViaDrill
T2C0.900
; #@! TA.AperFunction,Plated,PTH,ComponentDrill
T3C1.000
; #@! TA.AperFunction,Plated,PTH,ViaDrill
T4C5.000
%
G90
G05
T1
X-9.419Y49.395
X-9.419Y31.597
X-9.419Y13.799
X-9.419Y-3.999
X-9.419Y-21.797
X-9.419Y-39.595
X-7.219Y49.395
X-7.219Y31.597
X-7.219Y13.799
X-7.219Y-3.999
X-7.219Y-21.797
X-7.219Y-39.595
X-3.78Y46.025
X-3.78Y44.025
X-3.78Y42.025
X-3.78Y40.025
X-3.78Y28.226
X-3.78Y26.226
X-3.78Y24.226
X-3.78Y22.226
X-3.78Y10.428
X-3.78Y8.428
X-3.78Y6.428
X-3.78Y4.428
X-3.78Y-7.37
X-3.78Y-9.37
X-3.78Y-11.37
X-3.78Y-13.37
X-3.78Y-25.168
X-3.78Y-27.168
X-3.78Y-29.168
X-3.78Y-31.168
X-3.78Y-42.966
X-3.78Y-44.966
X-3.78Y-46.966
X-3.78Y-48.966
T2
X-30.009Y48.819
X-30.009Y31.021
X-30.009Y13.223
X-30.009Y-4.576
X-30.009Y-22.374
X-30.009Y-40.172
X-22.389Y48.819
X-22.389Y31.021
X-22.389Y13.223
X-22.389Y-4.576
X-22.389Y-22.374
X-22.389Y-40.172
X-18.529Y39.365
X-18.529Y21.567
X-18.529Y3.769
X-18.529Y-14.029
X-18.529Y-31.828
X-18.529Y-49.626
X-10.401Y40.635
X-10.401Y22.837
X-10.401Y5.039
X-10.401Y-12.759
X-10.401Y-30.558
X-10.401Y-48.356
X21.22Y49.081
X21.22Y31.283
X21.22Y13.485
X21.22Y-4.313
X21.22Y-22.111
X21.22Y-39.91
T3
X28.36Y45.817
X28.36Y43.277
X28.36Y28.019
X28.36Y25.479
X28.36Y10.22
X28.36Y7.68
X28.36Y-7.578
X28.36Y-10.118
X28.36Y-25.376
X28.36Y-27.916
X28.36Y-43.174
X28.36Y-45.714
T4
X34.761Y44.521
X34.761Y26.723
X34.761Y8.925
X34.761Y-8.873
X34.761Y-26.671
X34.761Y-44.47
M30
