<?xml version="1.0" standalone="no"?>
<!DOCTYPE svg PUBLIC "-//W3C//DTD SVG 1.1//EN"
"http://www.w3.org/Graphics/SVG/1.1/DTD/svg11.dtd">
<svg width="131.717" height="464.315" viewBox="0 0 2744.09 9673.23" version="1.1"
xmlns="http://www.w3.org/2000/svg"
xmlns:xlink="http://www.w3.org/1999/xlink">
<circle cx="778.543" cy="4548.22" r="39.3701" style=""/>
<circle cx="778.543" cy="4348.22" r="39.3701" style=""/>
<circle cx="385.315" cy="3376.49" r="39.3701" style=""/>
<circle cx="366.575" cy="2970.19" r="39.3701" style=""/>
<circle cx="375.315" cy="1972.47" r="39.3701" style=""/>
<circle cx="373.346" cy="1176.49" r="39.3701" style=""/>
<circle cx="1372.09" cy="505.937" r="39.3701" style=""/>
<circle cx="2399.33" cy="978.457" r="39.3701" style=""/>
<circle cx="2405.31" cy="1370.5" r="39.3701" style=""/>
<circle cx="2402.56" cy="1978.22" r="39.3701" style=""/>
<circle cx="2402.56" cy="2974.2" r="39.3701" style=""/>
<circle cx="2404.53" cy="3174.2" r="39.3701" style=""/>
<circle cx="2405.31" cy="3376.49" r="39.3701" style=""/>
<circle cx="2178.54" cy="4348.22" r="39.3701" style=""/>
<circle cx="2178.54" cy="4548.22" r="39.3701" style=""/>
<circle cx="2178.54" cy="4748.22" r="39.3701" style=""/>
<circle cx="2178.54" cy="4948.22" r="39.3701" style=""/>
<circle cx="2178.54" cy="5148.22" r="39.3701" style=""/>
<circle cx="2178.54" cy="5348.22" r="39.3701" style=""/>
<circle cx="2358.54" cy="6074.2" r="39.3701" style=""/>
<circle cx="2190.59" cy="6076.25" r="39.3701" style=""/>
<circle cx="2358.54" cy="6270.19" r="39.3701" style=""/>
<circle cx="2190.59" cy="6276.25" r="39.3701" style=""/>
<circle cx="2358.54" cy="6472.24" r="39.3701" style=""/>
<circle cx="2190.59" cy="6476.25" r="39.3701" style=""/>
<circle cx="2358.54" cy="6674.2" r="39.3701" style=""/>
<circle cx="2190.59" cy="6676.25" r="39.3701" style=""/>
<circle cx="2190.59" cy="6876.25" r="39.3701" style=""/>
<circle cx="2190.59" cy="7076.25" r="39.3701" style=""/>
<circle cx="2190.59" cy="7276.25" r="39.3701" style=""/>
<circle cx="2190.59" cy="7476.25" r="39.3701" style=""/>
<circle cx="2190.59" cy="7676.25" r="39.3701" style=""/>
<circle cx="2198.86" cy="9167.35" r="39.3701" style=""/>
<circle cx="2190.59" cy="8676.25" r="39.3701" style=""/>
<circle cx="2190.59" cy="8476.25" r="39.3701" style=""/>
<circle cx="2190.59" cy="8276.25" r="39.3701" style=""/>
<circle cx="2190.59" cy="8076.25" r="39.3701" style=""/>
<circle cx="2190.59" cy="7876.25" r="39.3701" style=""/>
<circle cx="990.591" cy="6476.25" r="39.3701" style=""/>
<circle cx="990.591" cy="6276.25" r="39.3701" style=""/>
<circle cx="990.591" cy="6076.25" r="39.3701" style=""/>
<circle cx="778.543" cy="5348.22" r="39.3701" style=""/>
<circle cx="778.543" cy="5148.22" r="39.3701" style=""/>
<circle cx="778.543" cy="4948.22" r="39.3701" style=""/>
<circle cx="778.543" cy="4748.22" r="39.3701" style=""/>
<circle cx="650.591" cy="6090.19" r="39.3701" style=""/>
<circle cx="650.591" cy="6302.79" r="39.3701" style=""/>
<circle cx="650.591" cy="6490.19" r="39.3701" style=""/>
<circle cx="650.591" cy="6690.19" r="39.3701" style=""/>
<circle cx="990.591" cy="6676.25" r="39.3701" style=""/>
<circle cx="990.591" cy="6876.25" r="39.3701" style=""/>
<circle cx="990.591" cy="7076.25" r="39.3701" style=""/>
<circle cx="990.591" cy="7276.25" r="39.3701" style=""/>
<circle cx="990.591" cy="7476.25" r="39.3701" style=""/>
<circle cx="990.591" cy="7676.25" r="39.3701" style=""/>
<circle cx="990.591" cy="7876.25" r="39.3701" style=""/>
<circle cx="834.606" cy="7878.22" r="39.3701" style=""/>
<circle cx="990.591" cy="8076.25" r="39.3701" style=""/>
<circle cx="990.591" cy="8276.25" r="39.3701" style=""/>
<circle cx="990.591" cy="8476.25" r="39.3701" style=""/>
<circle cx="990.591" cy="8676.25" r="39.3701" style=""/>
<circle cx="545.315" cy="9167.35" r="39.3701" style=""/>
</svg>
