<?xml version="1.0" standalone="no"?>
<!DOCTYPE svg PUBLIC "-//W3C//DTD SVG 1.1//EN"
"http://www.w3.org/Graphics/SVG/1.1/DTD/svg11.dtd">
<svg width="131.717" height="464.315" viewBox="0 0 2744.09 9673.23" version="1.1"
xmlns="http://www.w3.org/2000/svg"
xmlns:xlink="http://www.w3.org/1999/xlink">
<g fill-rule="evenodd"><path d="M 299.638,2970.22 L 300.924,2957.16 L 304.732,2944.61 L 310.917,2933.04 L 319.241,2922.89 L 329.383,2914.57 L 340.954,2908.39 L 353.51,2904.58 L 366.567,2903.29 L 379.624,2904.58 L 392.18,2908.39 L 401.607,2913.43 L 565.795,2913.43 L 565.795,3031.54 L 518.552,3031.54 L 518.552,3113.43 L 565.795,3113.43 L 565.795,3231.54 L 376.819,3231.54 L 376.819,3113.43 L 424.064,3113.43 L 424.064,3031.54 L 393.152,3031.54 L 392.18,3032.05 L 379.624,3035.86 L 366.567,3037.15 L 353.51,3035.86 L 340.954,3032.05 L 329.383,3025.87 L 319.241,3017.55 L 310.917,3007.4 L 304.732,2995.83 L 300.924,2983.28 L 299.638,2970.22 z " style="fill-opacity:1.000000;fill:rgb(103,198,105);stroke:rgb(0,0,0);stroke-width:2"/></g>
<g fill-rule="evenodd"><path d="M 306.378,1176.48 L 307.664,1163.42 L 311.473,1150.87 L 317.658,1139.3 L 325.981,1129.15 L 336.123,1120.83 L 347.694,1114.65 L 360.25,1110.84 L 373.307,1109.55 L 386.364,1110.84 L 398.92,1114.65 L 399.582,1115 L 424.064,1115 L 424.064,1033.11 L 376.819,1033.11 L 376.819,915 L 565.795,915 L 565.795,1033.11 L 518.552,1033.11 L 518.552,1115 L 565.795,1115 L 565.795,1233.11 L 518.552,1233.11 L 518.552,1315 L 565.795,1315 L 565.795,1433.11 L 376.819,1433.11 L 376.819,1315 L 424.064,1315 L 424.064,1233.11 L 408.657,1233.11 L 398.92,1238.31 L 386.364,1242.12 L 373.307,1243.41 L 360.25,1242.12 L 347.694,1238.31 L 336.123,1232.13 L 325.981,1223.81 L 317.658,1213.66 L 311.473,1202.09 L 307.664,1189.54 L 306.378,1176.48 z " style="fill-opacity:1.000000;fill:rgb(115,81,255);stroke:rgb(0,0,0);stroke-width:2"/></g>
<g fill-rule="evenodd"><path d="M 308.378,1972.48 L 309.664,1959.42 L 313.473,1946.87 L 319.658,1935.3 L 327.981,1925.15 L 338.123,1916.83 L 349.694,1910.65 L 362.25,1906.84 L 375.307,1905.55 L 388.364,1906.84 L 400.92,1910.65 L 406.12,1913.43 L 565.795,1913.43 L 565.795,2031.54 L 518.552,2031.54 L 518.552,2113.43 L 565.795,2113.43 L 565.795,2231.54 L 376.819,2231.54 L 376.819,2113.43 L 424.064,2113.43 L 424.064,2031.54 L 406.12,2031.54 L 400.92,2034.31 L 388.364,2038.12 L 375.307,2039.41 L 362.25,2038.12 L 349.694,2034.31 L 338.123,2028.13 L 327.981,2019.81 L 319.658,2009.66 L 313.473,1998.09 L 309.664,1985.54 L 308.378,1972.48 z " style="fill-opacity:1.000000;fill:rgb(74,236,41);stroke:rgb(0,0,0);stroke-width:2"/></g>
<g fill-rule="evenodd"><path d="M 309.055,9167.32 L 313.594,9121.24 L 327.036,9076.93 L 348.865,9036.09 L 378.242,9000.29 L 414.039,8970.91 L 454.878,8949.08 L 499.191,8935.64 L 545.276,8931.1 L 591.36,8935.64 L 635.673,8949.08 L 676.513,8970.91 L 712.309,9000.29 L 741.686,9036.09 L 763.515,9076.93 L 776.957,9121.24 L 781.496,9167.32 L 776.957,9213.41 L 763.515,9257.72 L 741.686,9298.56 L 712.309,9334.36 L 676.513,9363.73 L 635.673,9385.56 L 591.36,9399 L 545.276,9403.54 L 499.191,9399 L 454.878,9385.56 L 414.039,9363.73 L 378.242,9334.36 L 348.865,9298.56 L 327.036,9257.72 L 313.594,9213.41 L 309.055,9167.32 z " style="fill-opacity:1.000000;fill:rgb(205,186,171);stroke:rgb(0,0,0);stroke-width:2"/></g>
<g fill-rule="evenodd"><path d="M 318.378,3376.48 L 319.664,3363.42 L 323.473,3350.87 L 329.658,3339.3 L 337.981,3329.15 L 348.123,3320.83 L 359.694,3314.65 L 372.25,3310.84 L 385.307,3309.55 L 398.364,3310.84 L 406.896,3313.43 L 565.795,3313.43 L 565.795,3431.54 L 423.215,3431.54 L 422.491,3432.13 L 410.92,3438.31 L 398.364,3442.12 L 385.307,3443.41 L 372.25,3442.12 L 359.694,3438.31 L 348.123,3432.13 L 337.981,3423.81 L 329.658,3413.66 L 323.473,3402.09 L 319.664,3389.54 L 318.378,3376.48 z " style="fill-opacity:1.000000;fill:rgb(242,251,227);stroke:rgb(0,0,0);stroke-width:2"/></g>
<g fill-rule="evenodd"><path d="M 376.819,2831.54 L 376.819,2713.43 L 565.795,2713.43 L 565.795,2831.54 L 376.819,2831.54 z " style="fill-opacity:1.000000;fill:rgb(70,124,194);stroke:rgb(0,0,0);stroke-width:2"/></g>
<g fill-rule="evenodd"><path d="M 376.819,2631.54 L 376.819,2513.43 L 565.795,2513.43 L 565.795,2548.86 L 786.828,2548.86 L 791.437,2549.31 L 795.868,2550.66 L 799.952,2552.84 L 803.531,2555.78 L 1241.27,2993.52 L 1244.21,2997.1 L 1246.39,3001.18 L 1247.74,3005.61 L 1248.19,3010.22 L 1248.19,7756.22 L 1247.9,7759.92 L 1247.03,7763.52 L 1245.62,7766.94 L 1243.68,7770.11 L 1241.27,7772.92 L 1121.27,7892.92 L 1117.69,7895.86 L 1113.61,7898.04 L 1109.18,7899.39 L 1104.57,7899.84 L 1052.04,7899.84 L 1051.54,7901.48 L 1045.44,7912.89 L 1037.24,7922.89 L 1027.23,7931.1 L 1015.82,7937.2 L 1003.44,7940.95 L 990.567,7942.22 L 977.691,7940.95 L 965.31,7937.2 L 953.899,7931.1 L 943.898,7922.89 L 935.69,7912.89 L 929.786,7901.84 L 897.005,7901.84 L 896.401,7903.83 L 890.216,7915.4 L 881.893,7925.55 L 871.751,7933.87 L 860.18,7940.05 L 847.624,7943.86 L 834.567,7945.15 L 821.51,7943.86 L 808.954,7940.05 L 797.383,7933.87 L 787.241,7925.55 L 778.917,7915.4 L 772.732,7903.83 L 768.924,7891.28 L 767.638,7878.22 L 768.924,7865.16 L 772.732,7852.61 L 778.917,7841.04 L 787.241,7830.89 L 797.383,7822.57 L 808.954,7816.39 L 821.51,7812.58 L 834.567,7811.29 L 847.624,7812.58 L 860.18,7816.39 L 871.751,7822.57 L 881.893,7830.89 L 890.216,7841.04 L 896.401,7852.61 L 897.005,7854.6 L 928.488,7854.6 L 929.591,7850.96 L 935.69,7839.55 L 943.898,7829.55 L 953.899,7821.34 L 965.31,7815.24 L 977.691,7811.49 L 990.567,7810.22 L 1003.44,7811.49 L 1015.82,7815.24 L 1027.23,7821.34 L 1037.24,7829.55 L 1045.44,7839.55 L 1051.54,7850.96 L 1052.04,7852.6 L 1094.78,7852.6 L 1200.95,7746.44 L 1200.95,3020.01 L 777.044,2596.1 L 565.795,2596.1 L 565.795,2631.54 L 376.819,2631.54 z " style="fill-opacity:1.000000;fill:rgb(84,248,27);stroke:rgb(0,0,0);stroke-width:2"/></g>
<g fill-rule="evenodd"><path d="M 376.819,2431.54 L 376.819,2313.43 L 565.795,2313.43 L 565.795,2431.54 L 376.819,2431.54 z " style="fill-opacity:1.000000;fill:rgb(232,231,141);stroke:rgb(0,0,0);stroke-width:2"/></g>
<g fill-rule="evenodd"><path d="M 583.638,6690.22 L 584.924,6677.16 L 588.732,6664.61 L 594.917,6653.04 L 603.241,6642.89 L 613.383,6634.57 L 624.954,6628.39 L 637.51,6624.58 L 650.567,6623.29 L 663.624,6624.58 L 676.18,6628.39 L 687.751,6634.57 L 697.893,6642.89 L 706.216,6653.04 L 712.401,6664.61 L 716.21,6677.16 L 717.496,6690.22 L 716.21,6703.28 L 712.401,6715.83 L 706.216,6727.4 L 697.893,6737.55 L 687.751,6745.87 L 676.18,6752.05 L 663.624,6755.86 L 650.567,6757.15 L 637.51,6755.86 L 624.954,6752.05 L 613.383,6745.87 L 603.241,6737.55 L 594.917,6727.4 L 588.732,6715.83 L 584.924,6703.28 L 583.638,6690.22 z " style="fill-opacity:1.000000;fill:rgb(118,90,46);stroke:rgb(0,0,0);stroke-width:2"/></g>
<g fill-rule="evenodd"><path d="M 583.638,6490.22 L 584.924,6477.16 L 588.732,6464.61 L 594.917,6453.04 L 603.241,6442.89 L 613.383,6434.57 L 624.954,6428.39 L 637.51,6424.58 L 650.567,6423.29 L 663.624,6424.58 L 676.18,6428.39 L 687.751,6434.57 L 697.893,6442.89 L 706.216,6453.04 L 712.401,6464.61 L 716.21,6477.16 L 717.496,6490.22 L 716.21,6503.28 L 712.401,6515.83 L 706.216,6527.4 L 697.893,6537.55 L 687.751,6545.87 L 676.18,6552.05 L 663.624,6555.86 L 650.567,6557.15 L 637.51,6555.86 L 624.954,6552.05 L 613.383,6545.87 L 603.241,6537.55 L 594.917,6527.4 L 588.732,6515.83 L 584.924,6503.28 L 583.638,6490.22 z " style="fill-opacity:1.000000;fill:rgb(99,51,159);stroke:rgb(0,0,0);stroke-width:2"/></g>
<g fill-rule="evenodd"><path d="M 583.638,6369.75 L 583.638,6235.89 L 717.496,6235.89 L 717.496,6369.75 L 583.638,6369.75 z " style="fill-opacity:1.000000;fill:rgb(201,154,102);stroke:rgb(0,0,0);stroke-width:2"/></g>
<g fill-rule="evenodd"><path d="M 583.638,6090.22 L 584.924,6077.16 L 588.732,6064.61 L 594.917,6053.04 L 603.241,6042.89 L 613.383,6034.57 L 624.954,6028.39 L 637.51,6024.58 L 650.567,6023.29 L 663.624,6024.58 L 676.18,6028.39 L 687.751,6034.57 L 697.893,6042.89 L 706.216,6053.04 L 712.401,6064.61 L 716.21,6077.16 L 717.496,6090.22 L 716.21,6103.28 L 712.401,6115.83 L 706.216,6127.4 L 697.893,6137.55 L 687.751,6145.87 L 676.18,6152.05 L 663.624,6155.86 L 650.567,6157.15 L 637.51,6155.86 L 624.954,6152.05 L 613.383,6145.87 L 603.241,6137.55 L 594.917,6127.4 L 588.732,6115.83 L 584.924,6103.28 L 583.638,6090.22 z " style="fill-opacity:1.000000;fill:rgb(50,13,183);stroke:rgb(0,0,0);stroke-width:2"/></g>
<g fill-rule="evenodd"><path d="M 708.567,5348.22 L 709.912,5334.56 L 713.895,5321.43 L 720.364,5309.33 L 729.069,5298.72 L 739.677,5290.02 L 751.779,5283.55 L 764.911,5279.57 L 778.567,5278.22 L 792.223,5279.57 L 805.355,5283.55 L 817.457,5290.02 L 828.064,5298.72 L 836.77,5309.33 L 843.238,5321.43 L 847.222,5334.56 L 848.567,5348.22 L 847.222,5361.88 L 843.238,5375.01 L 836.77,5387.11 L 828.064,5397.72 L 817.457,5406.42 L 805.355,5412.89 L 792.223,5416.88 L 778.567,5418.22 L 764.911,5416.88 L 751.779,5412.89 L 739.677,5406.42 L 729.069,5397.72 L 720.364,5387.11 L 713.895,5375.01 L 709.912,5361.88 L 708.567,5348.22 z " style="fill-opacity:1.000000;fill:rgb(49,88,163);stroke:rgb(0,0,0);stroke-width:2"/></g>
<g fill-rule="evenodd"><path d="M 708.567,5148.22 L 709.912,5134.56 L 713.895,5121.43 L 720.364,5109.33 L 729.069,5098.72 L 739.677,5090.02 L 751.779,5083.55 L 764.911,5079.57 L 778.567,5078.22 L 792.223,5079.57 L 805.355,5083.55 L 817.457,5090.02 L 828.064,5098.72 L 836.77,5109.33 L 843.238,5121.43 L 847.222,5134.56 L 848.567,5148.22 L 847.222,5161.88 L 843.238,5175.01 L 836.77,5187.11 L 828.064,5197.72 L 817.457,5206.42 L 805.355,5212.89 L 792.223,5216.88 L 778.567,5218.22 L 764.911,5216.88 L 751.779,5212.89 L 739.677,5206.42 L 729.069,5197.72 L 720.364,5187.11 L 713.895,5175.01 L 709.912,5161.88 L 708.567,5148.22 z " style="fill-opacity:1.000000;fill:rgb(90,37,93);stroke:rgb(0,0,0);stroke-width:2"/></g>
<g fill-rule="evenodd"><path d="M 708.567,4948.22 L 709.912,4934.56 L 713.895,4921.43 L 720.364,4909.33 L 729.069,4898.72 L 739.677,4890.02 L 751.779,4883.55 L 764.911,4879.57 L 778.567,4878.22 L 792.223,4879.57 L 805.355,4883.55 L 817.457,4890.02 L 828.064,4898.72 L 836.77,4909.33 L 843.238,4921.43 L 847.222,4934.56 L 848.567,4948.22 L 847.222,4961.88 L 843.238,4975.01 L 836.77,4987.11 L 828.064,4997.72 L 817.457,5006.42 L 805.355,5012.89 L 792.223,5016.88 L 778.567,5018.22 L 764.911,5016.88 L 751.779,5012.89 L 739.677,5006.42 L 729.069,4997.72 L 720.364,4987.11 L 713.895,4975.01 L 709.912,4961.88 L 708.567,4948.22 z " style="fill-opacity:1.000000;fill:rgb(5,23,88);stroke:rgb(0,0,0);stroke-width:2"/></g>
<g fill-rule="evenodd"><path d="M 708.567,4748.22 L 709.912,4734.56 L 713.895,4721.43 L 720.364,4709.33 L 729.069,4698.72 L 739.677,4690.02 L 751.779,4683.55 L 764.911,4679.57 L 778.567,4678.22 L 792.223,4679.57 L 805.355,4683.55 L 817.457,4690.02 L 828.064,4698.72 L 836.77,4709.33 L 843.238,4721.43 L 847.222,4734.56 L 848.567,4748.22 L 847.222,4761.88 L 843.238,4775.01 L 836.77,4787.11 L 828.064,4797.72 L 817.457,4806.42 L 805.355,4812.89 L 792.223,4816.88 L 778.567,4818.22 L 764.911,4816.88 L 751.779,4812.89 L 739.677,4806.42 L 729.069,4797.72 L 720.364,4787.11 L 713.895,4775.01 L 709.912,4761.88 L 708.567,4748.22 z " style="fill-opacity:1.000000;fill:rgb(233,94,212);stroke:rgb(0,0,0);stroke-width:2"/></g>
<g fill-rule="evenodd"><path d="M 708.567,4548.22 L 709.912,4534.56 L 713.895,4521.43 L 720.364,4509.33 L 729.069,4498.72 L 739.677,4490.02 L 751.779,4483.55 L 764.911,4479.57 L 778.567,4478.22 L 792.223,4479.57 L 805.355,4483.55 L 817.457,4490.02 L 828.064,4498.72 L 836.77,4509.33 L 843.238,4521.43 L 847.222,4534.56 L 848.567,4548.22 L 847.222,4561.88 L 843.238,4575.01 L 836.77,4587.11 L 828.064,4597.72 L 817.457,4606.42 L 805.355,4612.89 L 792.223,4616.88 L 778.567,4618.22 L 764.911,4616.88 L 751.779,4612.89 L 739.677,4606.42 L 729.069,4597.72 L 720.364,4587.11 L 713.895,4575.01 L 709.912,4561.88 L 708.567,4548.22 z " style="fill-opacity:1.000000;fill:rgb(171,178,205);stroke:rgb(0,0,0);stroke-width:2"/></g>
<g fill-rule="evenodd"><path d="M 708.567,4348.22 L 709.912,4334.56 L 713.895,4321.43 L 720.364,4309.33 L 729.069,4298.72 L 739.677,4290.02 L 751.779,4283.55 L 764.911,4279.57 L 778.567,4278.22 L 792.223,4279.57 L 805.355,4283.55 L 817.457,4290.02 L 828.064,4298.72 L 836.77,4309.33 L 843.238,4321.43 L 847.222,4334.56 L 848.567,4348.22 L 847.222,4361.88 L 843.238,4375.01 L 836.77,4387.11 L 828.064,4397.72 L 817.457,4406.42 L 805.355,4412.89 L 792.223,4416.88 L 778.567,4418.22 L 764.911,4416.88 L 751.779,4412.89 L 739.677,4406.42 L 729.069,4397.72 L 720.364,4387.11 L 713.895,4375.01 L 709.912,4361.88 L 708.567,4348.22 z " style="fill-opacity:1.000000;fill:rgb(198,155,180);stroke:rgb(0,0,0);stroke-width:2"/></g>
<g fill-rule="evenodd"><path d="M 924.567,8676.22 L 925.835,8663.34 L 929.591,8650.96 L 935.69,8639.55 L 943.898,8629.55 L 953.899,8621.34 L 965.31,8615.24 L 977.691,8611.49 L 990.567,8610.22 L 1003.44,8611.49 L 1015.82,8615.24 L 1027.23,8621.34 L 1037.24,8629.55 L 1045.44,8639.55 L 1051.54,8650.96 L 1055.3,8663.34 L 1056.57,8676.22 L 1055.3,8689.1 L 1051.54,8701.48 L 1045.44,8712.89 L 1037.24,8722.89 L 1027.23,8731.1 L 1015.82,8737.2 L 1003.44,8740.95 L 990.567,8742.22 L 977.691,8740.95 L 965.31,8737.2 L 953.899,8731.1 L 943.898,8722.89 L 935.69,8712.89 L 929.591,8701.48 L 925.835,8689.1 L 924.567,8676.22 z " style="fill-opacity:1.000000;fill:rgb(84,17,14);stroke:rgb(0,0,0);stroke-width:2"/></g>
<g fill-rule="evenodd"><path d="M 924.567,8476.22 L 925.835,8463.34 L 929.591,8450.96 L 935.69,8439.55 L 943.898,8429.55 L 953.899,8421.34 L 965.31,8415.24 L 977.691,8411.49 L 990.567,8410.22 L 1003.44,8411.49 L 1015.82,8415.24 L 1027.23,8421.34 L 1037.24,8429.55 L 1045.44,8439.55 L 1051.54,8450.96 L 1055.3,8463.34 L 1056.57,8476.22 L 1055.3,8489.1 L 1051.54,8501.48 L 1045.44,8512.89 L 1037.24,8522.89 L 1027.23,8531.1 L 1015.82,8537.2 L 1003.44,8540.95 L 990.567,8542.22 L 977.691,8540.95 L 965.31,8537.2 L 953.899,8531.1 L 943.898,8522.89 L 935.69,8512.89 L 929.591,8501.48 L 925.835,8489.1 L 924.567,8476.22 z " style="fill-opacity:1.000000;fill:rgb(130,116,65);stroke:rgb(0,0,0);stroke-width:2"/></g>
<g fill-rule="evenodd"><path d="M 924.567,8276.22 L 925.835,8263.34 L 929.591,8250.96 L 935.69,8239.55 L 943.898,8229.55 L 953.899,8221.34 L 965.31,8215.24 L 977.691,8211.49 L 990.567,8210.22 L 1003.44,8211.49 L 1015.82,8215.24 L 1027.23,8221.34 L 1037.24,8229.55 L 1045.44,8239.55 L 1051.54,8250.96 L 1055.3,8263.34 L 1056.57,8276.22 L 1055.3,8289.1 L 1051.54,8301.48 L 1045.44,8312.89 L 1037.24,8322.89 L 1027.23,8331.1 L 1015.82,8337.2 L 1003.44,8340.95 L 990.567,8342.22 L 977.691,8340.95 L 965.31,8337.2 L 953.899,8331.1 L 943.898,8322.89 L 935.69,8312.89 L 929.591,8301.48 L 925.835,8289.1 L 924.567,8276.22 z " style="fill-opacity:1.000000;fill:rgb(33,61,220);stroke:rgb(0,0,0);stroke-width:2"/></g>
<g fill-rule="evenodd"><path d="M 924.567,8076.22 L 925.835,8063.34 L 929.591,8050.96 L 935.69,8039.55 L 943.898,8029.55 L 953.899,8021.34 L 965.31,8015.24 L 977.691,8011.49 L 990.567,8010.22 L 1003.44,8011.49 L 1015.82,8015.24 L 1027.23,8021.34 L 1037.24,8029.55 L 1045.44,8039.55 L 1051.54,8050.96 L 1055.3,8063.34 L 1056.57,8076.22 L 1055.3,8089.1 L 1051.54,8101.48 L 1045.44,8112.89 L 1037.24,8122.89 L 1027.23,8131.1 L 1015.82,8137.2 L 1003.44,8140.95 L 990.567,8142.22 L 977.691,8140.95 L 965.31,8137.2 L 953.899,8131.1 L 943.898,8122.89 L 935.69,8112.89 L 929.591,8101.48 L 925.835,8089.1 L 924.567,8076.22 z " style="fill-opacity:1.000000;fill:rgb(135,112,233);stroke:rgb(0,0,0);stroke-width:2"/></g>
<g fill-rule="evenodd"><path d="M 924.567,7676.22 L 925.835,7663.34 L 929.591,7650.96 L 935.69,7639.55 L 943.898,7629.55 L 953.899,7621.34 L 965.31,7615.24 L 977.691,7611.49 L 990.567,7610.22 L 1003.44,7611.49 L 1015.82,7615.24 L 1027.23,7621.34 L 1037.24,7629.55 L 1045.44,7639.55 L 1051.54,7650.96 L 1055.3,7663.34 L 1056.57,7676.22 L 1055.3,7689.1 L 1051.54,7701.48 L 1045.44,7712.89 L 1037.24,7722.89 L 1027.23,7731.1 L 1015.82,7737.2 L 1003.44,7740.95 L 990.567,7742.22 L 977.691,7740.95 L 965.31,7737.2 L 953.899,7731.1 L 943.898,7722.89 L 935.69,7712.89 L 929.591,7701.48 L 925.835,7689.1 L 924.567,7676.22 z " style="fill-opacity:1.000000;fill:rgb(62,161,65);stroke:rgb(0,0,0);stroke-width:2"/></g>
<g fill-rule="evenodd"><path d="M 924.567,7476.22 L 925.835,7463.34 L 929.591,7450.96 L 935.69,7439.55 L 943.898,7429.55 L 953.899,7421.34 L 965.31,7415.24 L 977.691,7411.49 L 990.567,7410.22 L 1003.44,7411.49 L 1015.82,7415.24 L 1027.23,7421.34 L 1037.24,7429.55 L 1045.44,7439.55 L 1051.54,7450.96 L 1055.3,7463.34 L 1056.57,7476.22 L 1055.3,7489.1 L 1051.54,7501.48 L 1045.44,7512.89 L 1037.24,7522.89 L 1027.23,7531.1 L 1015.82,7537.2 L 1003.44,7540.95 L 990.567,7542.22 L 977.691,7540.95 L 965.31,7537.2 L 953.899,7531.1 L 943.898,7522.89 L 935.69,7512.89 L 929.591,7501.48 L 925.835,7489.1 L 924.567,7476.22 z " style="fill-opacity:1.000000;fill:rgb(225,252,103);stroke:rgb(0,0,0);stroke-width:2"/></g>
<g fill-rule="evenodd"><path d="M 924.567,7276.22 L 925.835,7263.34 L 929.591,7250.96 L 935.69,7239.55 L 943.898,7229.55 L 953.899,7221.34 L 965.31,7215.24 L 977.691,7211.49 L 990.567,7210.22 L 1003.44,7211.49 L 1015.82,7215.24 L 1027.23,7221.34 L 1037.24,7229.55 L 1045.44,7239.55 L 1051.54,7250.96 L 1055.3,7263.34 L 1056.57,7276.22 L 1055.3,7289.1 L 1051.54,7301.48 L 1045.44,7312.89 L 1037.24,7322.89 L 1027.23,7331.1 L 1015.82,7337.2 L 1003.44,7340.95 L 990.567,7342.22 L 977.691,7340.95 L 965.31,7337.2 L 953.899,7331.1 L 943.898,7322.89 L 935.69,7312.89 L 929.591,7301.48 L 925.835,7289.1 L 924.567,7276.22 z " style="fill-opacity:1.000000;fill:rgb(62,1,126);stroke:rgb(0,0,0);stroke-width:2"/></g>
<g fill-rule="evenodd"><path d="M 924.567,7076.22 L 925.835,7063.34 L 929.591,7050.96 L 935.69,7039.55 L 943.898,7029.55 L 953.899,7021.34 L 965.31,7015.24 L 977.691,7011.49 L 990.567,7010.22 L 1003.44,7011.49 L 1015.82,7015.24 L 1027.23,7021.34 L 1037.24,7029.55 L 1045.44,7039.55 L 1051.54,7050.96 L 1055.3,7063.34 L 1056.57,7076.22 L 1055.3,7089.1 L 1051.54,7101.48 L 1045.44,7112.89 L 1037.24,7122.89 L 1027.23,7131.1 L 1015.82,7137.2 L 1003.44,7140.95 L 990.567,7142.22 L 977.691,7140.95 L 965.31,7137.2 L 953.899,7131.1 L 943.898,7122.89 L 935.69,7112.89 L 929.591,7101.48 L 925.835,7089.1 L 924.567,7076.22 z " style="fill-opacity:1.000000;fill:rgb(151,234,220);stroke:rgb(0,0,0);stroke-width:2"/></g>
<g fill-rule="evenodd"><path d="M 924.567,6876.22 L 925.835,6863.34 L 929.591,6850.96 L 935.69,6839.55 L 943.898,6829.55 L 953.899,6821.34 L 965.31,6815.24 L 977.691,6811.49 L 990.567,6810.22 L 1003.44,6811.49 L 1015.82,6815.24 L 1027.23,6821.34 L 1037.24,6829.55 L 1045.44,6839.55 L 1051.54,6850.96 L 1055.3,6863.34 L 1056.57,6876.22 L 1055.3,6889.1 L 1051.54,6901.48 L 1045.44,6912.89 L 1037.24,6922.89 L 1027.23,6931.1 L 1015.82,6937.2 L 1003.44,6940.95 L 990.567,6942.22 L 977.691,6940.95 L 965.31,6937.2 L 953.899,6931.1 L 943.898,6922.89 L 935.69,6912.89 L 929.591,6901.48 L 925.835,6889.1 L 924.567,6876.22 z " style="fill-opacity:1.000000;fill:rgb(107,150,143);stroke:rgb(0,0,0);stroke-width:2"/></g>
<g fill-rule="evenodd"><path d="M 924.567,6676.22 L 925.835,6663.34 L 929.591,6650.96 L 935.69,6639.55 L 943.898,6629.55 L 953.899,6621.34 L 965.31,6615.24 L 977.691,6611.49 L 990.567,6610.22 L 1003.44,6611.49 L 1015.82,6615.24 L 1027.23,6621.34 L 1037.24,6629.55 L 1045.44,6639.55 L 1051.54,6650.96 L 1055.3,6663.34 L 1056.57,6676.22 L 1055.3,6689.1 L 1051.54,6701.48 L 1045.44,6712.89 L 1037.24,6722.89 L 1027.23,6731.1 L 1015.82,6737.2 L 1003.44,6740.95 L 990.567,6742.22 L 977.691,6740.95 L 965.31,6737.2 L 953.899,6731.1 L 943.898,6722.89 L 935.69,6712.89 L 929.591,6701.48 L 925.835,6689.1 L 924.567,6676.22 z " style="fill-opacity:1.000000;fill:rgb(56,92,42);stroke:rgb(0,0,0);stroke-width:2"/></g>
<g fill-rule="evenodd"><path d="M 924.567,6476.22 L 925.835,6463.34 L 929.591,6450.96 L 935.69,6439.55 L 943.898,6429.55 L 953.899,6421.34 L 965.31,6415.24 L 977.691,6411.49 L 990.567,6410.22 L 1003.44,6411.49 L 1015.82,6415.24 L 1027.23,6421.34 L 1037.24,6429.55 L 1045.44,6439.55 L 1051.54,6450.96 L 1055.3,6463.34 L 1056.57,6476.22 L 1055.3,6489.1 L 1051.54,6501.48 L 1045.44,6512.89 L 1037.24,6522.89 L 1027.23,6531.1 L 1015.82,6537.2 L 1003.44,6540.95 L 990.567,6542.22 L 977.691,6540.95 L 965.31,6537.2 L 953.899,6531.1 L 943.898,6522.89 L 935.69,6512.89 L 929.591,6501.48 L 925.835,6489.1 L 924.567,6476.22 z " style="fill-opacity:1.000000;fill:rgb(236,176,59);stroke:rgb(0,0,0);stroke-width:2"/></g>
<g fill-rule="evenodd"><path d="M 924.567,6276.22 L 925.835,6263.34 L 929.591,6250.96 L 935.69,6239.55 L 943.898,6229.55 L 953.899,6221.34 L 965.31,6215.24 L 977.691,6211.49 L 990.567,6210.22 L 1003.44,6211.49 L 1015.82,6215.24 L 1027.23,6221.34 L 1037.24,6229.55 L 1045.44,6239.55 L 1051.54,6250.96 L 1055.3,6263.34 L 1056.57,6276.22 L 1055.3,6289.1 L 1051.54,6301.48 L 1045.44,6312.89 L 1037.24,6322.89 L 1027.23,6331.1 L 1015.82,6337.2 L 1003.44,6340.95 L 990.567,6342.22 L 977.691,6340.95 L 965.31,6337.2 L 953.899,6331.1 L 943.898,6322.89 L 935.69,6312.89 L 929.591,6301.48 L 925.835,6289.1 L 924.567,6276.22 z " style="fill-opacity:1.000000;fill:rgb(251,50,175);stroke:rgb(0,0,0);stroke-width:2"/></g>
<g fill-rule="evenodd"><path d="M 924.567,6076.22 L 925.835,6063.34 L 929.591,6050.96 L 935.69,6039.55 L 943.898,6029.55 L 953.899,6021.34 L 965.31,6015.24 L 977.691,6011.49 L 990.567,6010.22 L 1003.44,6011.49 L 1015.82,6015.24 L 1027.23,6021.34 L 1037.24,6029.55 L 1045.44,6039.55 L 1051.54,6050.96 L 1055.3,6063.34 L 1056.57,6076.22 L 1055.3,6089.1 L 1051.54,6101.48 L 1045.44,6112.89 L 1037.24,6122.89 L 1027.23,6131.1 L 1015.82,6137.2 L 1003.44,6140.95 L 990.567,6142.22 L 977.691,6140.95 L 965.31,6137.2 L 953.899,6131.1 L 943.898,6122.89 L 935.69,6112.89 L 929.591,6101.48 L 925.835,6089.1 L 924.567,6076.22 z " style="fill-opacity:1.000000;fill:rgb(60,84,236);stroke:rgb(0,0,0);stroke-width:2"/></g>
<g fill-rule="evenodd"><path d="M 1135.83,505.906 L 1140.37,459.821 L 1153.81,415.508 L 1175.64,374.668 L 1205.01,338.872 L 1240.81,309.495 L 1281.65,287.666 L 1325.96,274.224 L 1372.05,269.685 L 1418.13,274.224 L 1462.44,287.666 L 1503.28,309.495 L 1539.08,338.872 L 1568.46,374.668 L 1590.29,415.508 L 1603.73,459.821 L 1608.27,505.906 L 1603.73,551.99 L 1590.29,596.303 L 1568.46,637.143 L 1539.08,672.939 L 1503.28,702.316 L 1462.44,724.145 L 1418.13,737.587 L 1372.05,742.126 L 1325.96,737.587 L 1281.65,724.145 L 1240.81,702.316 L 1205.01,672.939 L 1175.64,637.143 L 1153.81,596.303 L 1140.37,551.99 L 1135.83,505.906 z " style="fill-opacity:1.000000;fill:rgb(24,219,92);stroke:rgb(0,0,0);stroke-width:2"/></g>
<g fill-rule="evenodd"><path d="M 1360.94,6300.22 L 1360.94,2564.22 L 1361.23,2560.53 L 1362.1,2556.92 L 1363.52,2553.5 L 1365.46,2550.34 L 1367.86,2547.52 L 1759.6,2155.78 L 1763.18,2152.84 L 1767.27,2150.66 L 1771.7,2149.31 L 1776.31,2148.86 L 2219.34,2148.86 L 2219.34,2113.43 L 2408.31,2113.43 L 2408.31,2231.54 L 2219.34,2231.54 L 2219.34,2196.1 L 1786.09,2196.1 L 1408.19,2574.01 L 1408.19,6290.44 L 1770.35,6652.6 L 2129.09,6652.6 L 2129.59,6650.96 L 2135.69,6639.55 L 2143.9,6629.55 L 2153.9,6621.34 L 2165.31,6615.24 L 2177.69,6611.49 L 2190.57,6610.22 L 2203.44,6611.49 L 2215.82,6615.24 L 2227.23,6621.34 L 2237.24,6629.55 L 2245.44,6639.55 L 2251.35,6650.6 L 2296.13,6650.6 L 2296.73,6648.61 L 2302.92,6637.04 L 2311.24,6626.89 L 2321.38,6618.57 L 2332.95,6612.39 L 2345.51,6608.58 L 2358.57,6607.29 L 2371.62,6608.58 L 2384.18,6612.39 L 2395.75,6618.57 L 2405.89,6626.89 L 2414.22,6637.04 L 2420.4,6648.61 L 2424.21,6661.16 L 2425.5,6674.22 L 2424.21,6687.28 L 2420.4,6699.83 L 2414.22,6711.4 L 2405.89,6721.55 L 2395.75,6729.87 L 2384.18,6736.05 L 2371.62,6739.86 L 2358.57,6741.15 L 2345.51,6739.86 L 2332.95,6736.05 L 2321.38,6729.87 L 2311.24,6721.55 L 2302.92,6711.4 L 2296.73,6699.83 L 2296.13,6697.84 L 2252.65,6697.84 L 2251.54,6701.48 L 2245.44,6712.89 L 2237.24,6722.89 L 2227.23,6731.1 L 2215.82,6737.2 L 2203.44,6740.95 L 2190.57,6742.22 L 2177.69,6740.95 L 2165.31,6737.2 L 2153.9,6731.1 L 2143.9,6722.89 L 2135.69,6712.89 L 2129.59,6701.48 L 2129.09,6699.84 L 1760.57,6699.84 L 1756.87,6699.55 L 1753.27,6698.69 L 1749.84,6697.27 L 1746.68,6695.33 L 1743.86,6692.92 L 1367.86,6316.92 L 1364.93,6313.34 L 1362.74,6309.26 L 1361.4,6304.83 L 1360.94,6300.22 z " style="fill-opacity:1.000000;fill:rgb(2,26,254);stroke:rgb(0,0,0);stroke-width:2"/></g>
<g fill-rule="evenodd"><path d="M 1528.94,6154.22 L 1528.94,2692.22 L 1529.23,2688.53 L 1530.1,2684.92 L 1531.52,2681.5 L 1533.46,2678.34 L 1535.86,2675.52 L 1855.6,2355.78 L 1859.18,2352.84 L 1863.27,2350.66 L 1867.7,2349.31 L 1872.31,2348.86 L 2219.34,2348.86 L 2219.34,2313.43 L 2408.31,2313.43 L 2408.31,2431.54 L 2219.34,2431.54 L 2219.34,2396.1 L 1882.09,2396.1 L 1576.19,2702.01 L 1576.19,6144.44 L 1884.35,6452.6 L 2129.09,6452.6 L 2129.59,6450.96 L 2135.69,6439.55 L 2143.9,6429.55 L 2153.9,6421.34 L 2165.31,6415.24 L 2177.69,6411.49 L 2190.57,6410.22 L 2203.44,6411.49 L 2215.82,6415.24 L 2227.23,6421.34 L 2237.24,6429.55 L 2245.44,6439.55 L 2250.28,6448.6 L 2296.13,6448.6 L 2296.73,6446.61 L 2302.92,6435.04 L 2311.24,6424.89 L 2321.38,6416.57 L 2332.95,6410.39 L 2345.51,6406.58 L 2358.57,6405.29 L 2371.62,6406.58 L 2384.18,6410.39 L 2395.75,6416.57 L 2405.89,6424.89 L 2414.22,6435.04 L 2420.4,6446.61 L 2424.21,6459.16 L 2425.5,6472.22 L 2424.21,6485.28 L 2420.4,6497.83 L 2414.22,6509.4 L 2405.89,6519.55 L 2395.75,6527.87 L 2384.18,6534.05 L 2371.62,6537.86 L 2358.57,6539.15 L 2345.51,6537.86 L 2332.95,6534.05 L 2321.38,6527.87 L 2311.24,6519.55 L 2302.92,6509.4 L 2296.73,6497.83 L 2296.13,6495.84 L 2253.25,6495.84 L 2251.54,6501.48 L 2245.44,6512.89 L 2237.24,6522.89 L 2227.23,6531.1 L 2215.82,6537.2 L 2203.44,6540.95 L 2190.57,6542.22 L 2177.69,6540.95 L 2165.31,6537.2 L 2153.9,6531.1 L 2143.9,6522.89 L 2135.69,6512.89 L 2129.59,6501.48 L 2129.09,6499.84 L 1874.57,6499.84 L 1870.87,6499.55 L 1867.27,6498.69 L 1863.84,6497.27 L 1860.68,6495.33 L 1857.86,6492.92 L 1535.86,6170.92 L 1532.93,6167.34 L 1530.74,6163.26 L 1529.4,6158.83 L 1528.94,6154.22 z " style="fill-opacity:1.000000;fill:rgb(67,251,250);stroke:rgb(0,0,0);stroke-width:2"/></g>
<g fill-rule="evenodd"><path d="M 1704.94,6046.22 L 1704.94,2788.22 L 1705.23,2784.53 L 1706.1,2780.92 L 1707.52,2777.5 L 1709.46,2774.34 L 1711.86,2771.52 L 1927.6,2555.78 L 1931.18,2552.84 L 1935.27,2550.66 L 1939.7,2549.31 L 1944.31,2548.86 L 2219.34,2548.86 L 2219.34,2513.43 L 2408.31,2513.43 L 2408.31,2631.54 L 2219.34,2631.54 L 2219.34,2596.1 L 1954.09,2596.1 L 1752.19,2798.01 L 1752.19,6036.44 L 1968.35,6252.6 L 2129.09,6252.6 L 2129.59,6250.96 L 2135.69,6239.55 L 2143.9,6229.55 L 2153.9,6221.34 L 2165.31,6215.24 L 2177.69,6211.49 L 2190.57,6210.22 L 2203.44,6211.49 L 2215.82,6215.24 L 2227.23,6221.34 L 2237.24,6229.55 L 2245.44,6239.55 L 2249.21,6246.6 L 2296.13,6246.6 L 2296.73,6244.61 L 2302.92,6233.04 L 2311.24,6222.89 L 2321.38,6214.57 L 2332.95,6208.39 L 2345.51,6204.58 L 2358.57,6203.29 L 2371.62,6204.58 L 2384.18,6208.39 L 2395.75,6214.57 L 2405.89,6222.89 L 2414.22,6233.04 L 2420.4,6244.61 L 2424.21,6257.16 L 2425.5,6270.22 L 2424.21,6283.28 L 2420.4,6295.83 L 2414.22,6307.4 L 2405.89,6317.55 L 2395.75,6325.87 L 2384.18,6332.05 L 2371.62,6335.86 L 2358.57,6337.15 L 2345.51,6335.86 L 2332.95,6332.05 L 2321.38,6325.87 L 2311.24,6317.55 L 2302.92,6307.4 L 2296.73,6295.83 L 2296.13,6293.84 L 2253.86,6293.84 L 2251.54,6301.48 L 2245.44,6312.89 L 2237.24,6322.89 L 2227.23,6331.1 L 2215.82,6337.2 L 2203.44,6340.95 L 2190.57,6342.22 L 2177.69,6340.95 L 2165.31,6337.2 L 2153.9,6331.1 L 2143.9,6322.89 L 2135.69,6312.89 L 2129.59,6301.48 L 2129.09,6299.84 L 1958.57,6299.84 L 1954.87,6299.55 L 1951.27,6298.69 L 1947.84,6297.27 L 1944.68,6295.33 L 1941.86,6292.92 L 1711.86,6062.92 L 1708.93,6059.34 L 1706.74,6055.26 L 1705.4,6050.83 L 1704.94,6046.22 z " style="fill-opacity:1.000000;fill:rgb(170,58,251);stroke:rgb(0,0,0);stroke-width:2"/></g>
<g fill-rule="evenodd"><path d="M 1874.94,5944.22 L 1874.94,2864.22 L 1875.23,2860.53 L 1876.1,2856.92 L 1877.52,2853.5 L 1879.46,2850.34 L 1881.86,2847.52 L 1973.6,2755.78 L 1977.18,2752.84 L 1981.27,2750.66 L 1985.7,2749.31 L 1990.31,2748.86 L 2219.34,2748.86 L 2219.34,2713.43 L 2408.31,2713.43 L 2408.31,2831.54 L 2219.34,2831.54 L 2219.34,2796.1 L 2000.09,2796.1 L 1922.19,2874.01 L 1922.19,5934.44 L 2040.35,6052.6 L 2129.09,6052.6 L 2129.59,6050.96 L 2135.69,6039.55 L 2143.9,6029.55 L 2153.9,6021.34 L 2165.31,6015.24 L 2177.69,6011.49 L 2190.57,6010.22 L 2203.44,6011.49 L 2215.82,6015.24 L 2227.23,6021.34 L 2237.24,6029.55 L 2245.44,6039.55 L 2251.35,6050.6 L 2296.13,6050.6 L 2296.73,6048.61 L 2302.92,6037.04 L 2311.24,6026.89 L 2321.38,6018.57 L 2332.95,6012.39 L 2345.51,6008.58 L 2358.57,6007.29 L 2371.62,6008.58 L 2384.18,6012.39 L 2395.75,6018.57 L 2405.89,6026.89 L 2414.22,6037.04 L 2420.4,6048.61 L 2424.21,6061.16 L 2425.5,6074.22 L 2424.21,6087.28 L 2420.4,6099.83 L 2414.22,6111.4 L 2405.89,6121.55 L 2395.75,6129.87 L 2384.18,6136.05 L 2371.62,6139.86 L 2358.57,6141.15 L 2345.51,6139.86 L 2332.95,6136.05 L 2321.38,6129.87 L 2311.24,6121.55 L 2302.92,6111.4 L 2296.73,6099.83 L 2296.13,6097.84 L 2252.65,6097.84 L 2251.54,6101.48 L 2245.44,6112.89 L 2237.24,6122.89 L 2227.23,6131.1 L 2215.82,6137.2 L 2203.44,6140.95 L 2190.57,6142.22 L 2177.69,6140.95 L 2165.31,6137.2 L 2153.9,6131.1 L 2143.9,6122.89 L 2135.69,6112.89 L 2129.59,6101.48 L 2129.09,6099.84 L 2030.57,6099.84 L 2026.87,6099.55 L 2023.27,6098.69 L 2019.84,6097.27 L 2016.68,6095.33 L 2013.86,6092.92 L 1881.86,5960.92 L 1878.93,5957.34 L 1876.74,5953.26 L 1875.4,5948.83 L 1874.94,5944.22 z " style="fill-opacity:1.000000;fill:rgb(41,209,230);stroke:rgb(0,0,0);stroke-width:2"/></g>
<g fill-rule="evenodd"><path d="M 1962.6,9167.32 L 1967.14,9121.24 L 1980.58,9076.93 L 2002.41,9036.09 L 2031.79,9000.29 L 2067.58,8970.91 L 2108.42,8949.08 L 2152.73,8935.64 L 2198.82,8931.1 L 2244.9,8935.64 L 2289.22,8949.08 L 2330.06,8970.91 L 2365.85,9000.29 L 2395.23,9036.09 L 2417.06,9076.93 L 2430.5,9121.24 L 2435.04,9167.32 L 2430.5,9213.41 L 2417.06,9257.72 L 2395.23,9298.56 L 2365.85,9334.36 L 2330.06,9363.73 L 2289.22,9385.56 L 2244.9,9399 L 2198.82,9403.54 L 2152.73,9399 L 2108.42,9385.56 L 2067.58,9363.73 L 2031.79,9334.36 L 2002.41,9298.56 L 1980.58,9257.72 L 1967.14,9213.41 L 1962.6,9167.32 z " style="fill-opacity:1.000000;fill:rgb(5,60,124);stroke:rgb(0,0,0);stroke-width:2"/></g>
<g fill-rule="evenodd"><path d="M 2108.57,5348.22 L 2109.91,5334.56 L 2113.9,5321.43 L 2120.36,5309.33 L 2129.07,5298.72 L 2139.68,5290.02 L 2151.78,5283.55 L 2164.91,5279.57 L 2178.57,5278.22 L 2192.22,5279.57 L 2205.35,5283.55 L 2217.46,5290.02 L 2228.06,5298.72 L 2236.77,5309.33 L 2243.24,5321.43 L 2247.22,5334.56 L 2248.57,5348.22 L 2247.22,5361.88 L 2243.24,5375.01 L 2236.77,5387.11 L 2228.06,5397.72 L 2217.46,5406.42 L 2205.35,5412.89 L 2192.22,5416.88 L 2178.57,5418.22 L 2164.91,5416.88 L 2151.78,5412.89 L 2139.68,5406.42 L 2129.07,5397.72 L 2120.36,5387.11 L 2113.9,5375.01 L 2109.91,5361.88 L 2108.57,5348.22 z " style="fill-opacity:1.000000;fill:rgb(148,117,216);stroke:rgb(0,0,0);stroke-width:2"/></g>
<g fill-rule="evenodd"><path d="M 2108.57,5148.22 L 2109.91,5134.56 L 2113.9,5121.43 L 2120.36,5109.33 L 2129.07,5098.72 L 2139.68,5090.02 L 2151.78,5083.55 L 2164.91,5079.57 L 2178.57,5078.22 L 2192.22,5079.57 L 2205.35,5083.55 L 2217.46,5090.02 L 2228.06,5098.72 L 2236.77,5109.33 L 2243.24,5121.43 L 2247.22,5134.56 L 2248.57,5148.22 L 2247.22,5161.88 L 2243.24,5175.01 L 2236.77,5187.11 L 2228.06,5197.72 L 2217.46,5206.42 L 2205.35,5212.89 L 2192.22,5216.88 L 2178.57,5218.22 L 2164.91,5216.88 L 2151.78,5212.89 L 2139.68,5206.42 L 2129.07,5197.72 L 2120.36,5187.11 L 2113.9,5175.01 L 2109.91,5161.88 L 2108.57,5148.22 z " style="fill-opacity:1.000000;fill:rgb(190,97,137);stroke:rgb(0,0,0);stroke-width:2"/></g>
<g fill-rule="evenodd"><path d="M 2108.57,4948.22 L 2109.91,4934.56 L 2113.9,4921.43 L 2120.36,4909.33 L 2129.07,4898.72 L 2139.68,4890.02 L 2151.78,4883.55 L 2164.91,4879.57 L 2178.57,4878.22 L 2192.22,4879.57 L 2205.35,4883.55 L 2217.46,4890.02 L 2228.06,4898.72 L 2236.77,4909.33 L 2243.24,4921.43 L 2247.22,4934.56 L 2248.57,4948.22 L 2247.22,4961.88 L 2243.24,4975.01 L 2236.77,4987.11 L 2228.06,4997.72 L 2217.46,5006.42 L 2205.35,5012.89 L 2192.22,5016.88 L 2178.57,5018.22 L 2164.91,5016.88 L 2151.78,5012.89 L 2139.68,5006.42 L 2129.07,4997.72 L 2120.36,4987.11 L 2113.9,4975.01 L 2109.91,4961.88 L 2108.57,4948.22 z " style="fill-opacity:1.000000;fill:rgb(249,92,187);stroke:rgb(0,0,0);stroke-width:2"/></g>
<g fill-rule="evenodd"><path d="M 2108.57,4748.22 L 2109.91,4734.56 L 2113.9,4721.43 L 2120.36,4709.33 L 2129.07,4698.72 L 2139.68,4690.02 L 2151.78,4683.55 L 2164.91,4679.57 L 2178.57,4678.22 L 2192.22,4679.57 L 2205.35,4683.55 L 2217.46,4690.02 L 2228.06,4698.72 L 2236.77,4709.33 L 2243.24,4721.43 L 2247.22,4734.56 L 2248.57,4748.22 L 2247.22,4761.88 L 2243.24,4775.01 L 2236.77,4787.11 L 2228.06,4797.72 L 2217.46,4806.42 L 2205.35,4812.89 L 2192.22,4816.88 L 2178.57,4818.22 L 2164.91,4816.88 L 2151.78,4812.89 L 2139.68,4806.42 L 2129.07,4797.72 L 2120.36,4787.11 L 2113.9,4775.01 L 2109.91,4761.88 L 2108.57,4748.22 z " style="fill-opacity:1.000000;fill:rgb(168,153,15);stroke:rgb(0,0,0);stroke-width:2"/></g>
<g fill-rule="evenodd"><path d="M 2108.57,4548.22 L 2109.91,4534.56 L 2113.9,4521.43 L 2120.36,4509.33 L 2129.07,4498.72 L 2139.68,4490.02 L 2151.78,4483.55 L 2164.91,4479.57 L 2178.57,4478.22 L 2192.22,4479.57 L 2205.35,4483.55 L 2217.46,4490.02 L 2228.06,4498.72 L 2236.77,4509.33 L 2243.24,4521.43 L 2247.22,4534.56 L 2248.57,4548.22 L 2247.22,4561.88 L 2243.24,4575.01 L 2236.77,4587.11 L 2228.06,4597.72 L 2217.46,4606.42 L 2205.35,4612.89 L 2192.22,4616.88 L 2178.57,4618.22 L 2164.91,4616.88 L 2151.78,4612.89 L 2139.68,4606.42 L 2129.07,4597.72 L 2120.36,4587.11 L 2113.9,4575.01 L 2109.91,4561.88 L 2108.57,4548.22 z " style="fill-opacity:1.000000;fill:rgb(149,177,235);stroke:rgb(0,0,0);stroke-width:2"/></g>
<g fill-rule="evenodd"><path d="M 2108.57,4348.22 L 2109.91,4334.56 L 2113.9,4321.43 L 2120.36,4309.33 L 2129.07,4298.72 L 2139.68,4290.02 L 2151.78,4283.55 L 2164.91,4279.57 L 2178.57,4278.22 L 2192.22,4279.57 L 2205.35,4283.55 L 2217.46,4290.02 L 2228.06,4298.72 L 2236.77,4309.33 L 2243.24,4321.43 L 2247.22,4334.56 L 2248.57,4348.22 L 2247.22,4361.88 L 2243.24,4375.01 L 2236.77,4387.11 L 2228.06,4397.72 L 2217.46,4406.42 L 2205.35,4412.89 L 2192.22,4416.88 L 2178.57,4418.22 L 2164.91,4416.88 L 2151.78,4412.89 L 2139.68,4406.42 L 2129.07,4397.72 L 2120.36,4387.11 L 2113.9,4375.01 L 2109.91,4361.88 L 2108.57,4348.22 z " style="fill-opacity:1.000000;fill:rgb(241,179,5);stroke:rgb(0,0,0);stroke-width:2"/></g>
<g fill-rule="evenodd"><path d="M 2124.57,8676.22 L 2125.84,8663.34 L 2129.59,8650.96 L 2135.69,8639.55 L 2143.9,8629.55 L 2153.9,8621.34 L 2165.31,8615.24 L 2177.69,8611.49 L 2190.57,8610.22 L 2203.44,8611.49 L 2215.82,8615.24 L 2227.23,8621.34 L 2237.24,8629.55 L 2245.44,8639.55 L 2251.54,8650.96 L 2255.3,8663.34 L 2256.57,8676.22 L 2255.3,8689.1 L 2251.54,8701.48 L 2245.44,8712.89 L 2237.24,8722.89 L 2227.23,8731.1 L 2215.82,8737.2 L 2203.44,8740.95 L 2190.57,8742.22 L 2177.69,8740.95 L 2165.31,8737.2 L 2153.9,8731.1 L 2143.9,8722.89 L 2135.69,8712.89 L 2129.59,8701.48 L 2125.84,8689.1 L 2124.57,8676.22 z " style="fill-opacity:1.000000;fill:rgb(239,247,0);stroke:rgb(0,0,0);stroke-width:2"/></g>
<g fill-rule="evenodd"><path d="M 2124.57,8476.22 L 2125.84,8463.34 L 2129.59,8450.96 L 2135.69,8439.55 L 2143.9,8429.55 L 2153.9,8421.34 L 2165.31,8415.24 L 2177.69,8411.49 L 2190.57,8410.22 L 2203.44,8411.49 L 2215.82,8415.24 L 2227.23,8421.34 L 2237.24,8429.55 L 2245.44,8439.55 L 2251.54,8450.96 L 2255.3,8463.34 L 2256.57,8476.22 L 2255.3,8489.1 L 2251.54,8501.48 L 2245.44,8512.89 L 2237.24,8522.89 L 2227.23,8531.1 L 2215.82,8537.2 L 2203.44,8540.95 L 2190.57,8542.22 L 2177.69,8540.95 L 2165.31,8537.2 L 2153.9,8531.1 L 2143.9,8522.89 L 2135.69,8512.89 L 2129.59,8501.48 L 2125.84,8489.1 L 2124.57,8476.22 z " style="fill-opacity:1.000000;fill:rgb(233,161,58);stroke:rgb(0,0,0);stroke-width:2"/></g>
<g fill-rule="evenodd"><path d="M 2124.57,8276.22 L 2125.84,8263.34 L 2129.59,8250.96 L 2135.69,8239.55 L 2143.9,8229.55 L 2153.9,8221.34 L 2165.31,8215.24 L 2177.69,8211.49 L 2190.57,8210.22 L 2203.44,8211.49 L 2215.82,8215.24 L 2227.23,8221.34 L 2237.24,8229.55 L 2245.44,8239.55 L 2251.54,8250.96 L 2255.3,8263.34 L 2256.57,8276.22 L 2255.3,8289.1 L 2251.54,8301.48 L 2245.44,8312.89 L 2237.24,8322.89 L 2227.23,8331.1 L 2215.82,8337.2 L 2203.44,8340.95 L 2190.57,8342.22 L 2177.69,8340.95 L 2165.31,8337.2 L 2153.9,8331.1 L 2143.9,8322.89 L 2135.69,8312.89 L 2129.59,8301.48 L 2125.84,8289.1 L 2124.57,8276.22 z " style="fill-opacity:1.000000;fill:rgb(229,202,11);stroke:rgb(0,0,0);stroke-width:2"/></g>
<g fill-rule="evenodd"><path d="M 2124.57,8076.22 L 2125.84,8063.34 L 2129.59,8050.96 L 2135.69,8039.55 L 2143.9,8029.55 L 2153.9,8021.34 L 2165.31,8015.24 L 2177.69,8011.49 L 2190.57,8010.22 L 2203.44,8011.49 L 2215.82,8015.24 L 2227.23,8021.34 L 2237.24,8029.55 L 2245.44,8039.55 L 2251.54,8050.96 L 2255.3,8063.34 L 2256.57,8076.22 L 2255.3,8089.1 L 2251.54,8101.48 L 2245.44,8112.89 L 2237.24,8122.89 L 2227.23,8131.1 L 2215.82,8137.2 L 2203.44,8140.95 L 2190.57,8142.22 L 2177.69,8140.95 L 2165.31,8137.2 L 2153.9,8131.1 L 2143.9,8122.89 L 2135.69,8112.89 L 2129.59,8101.48 L 2125.84,8089.1 L 2124.57,8076.22 z " style="fill-opacity:1.000000;fill:rgb(203,208,72);stroke:rgb(0,0,0);stroke-width:2"/></g>
<g fill-rule="evenodd"><path d="M 2124.57,7876.22 L 2125.84,7863.34 L 2129.59,7850.96 L 2135.69,7839.55 L 2143.9,7829.55 L 2153.9,7821.34 L 2165.31,7815.24 L 2177.69,7811.49 L 2190.57,7810.22 L 2203.44,7811.49 L 2215.82,7815.24 L 2227.23,7821.34 L 2237.24,7829.55 L 2245.44,7839.55 L 2251.54,7850.96 L 2255.3,7863.34 L 2256.57,7876.22 L 2255.3,7889.1 L 2251.54,7901.48 L 2245.44,7912.89 L 2237.24,7922.89 L 2227.23,7931.1 L 2215.82,7937.2 L 2203.44,7940.95 L 2190.57,7942.22 L 2177.69,7940.95 L 2165.31,7937.2 L 2153.9,7931.1 L 2143.9,7922.89 L 2135.69,7912.89 L 2129.59,7901.48 L 2125.84,7889.1 L 2124.57,7876.22 z " style="fill-opacity:1.000000;fill:rgb(71,100,189);stroke:rgb(0,0,0);stroke-width:2"/></g>
<g fill-rule="evenodd"><path d="M 2124.57,7676.22 L 2125.84,7663.34 L 2129.59,7650.96 L 2135.69,7639.55 L 2143.9,7629.55 L 2153.9,7621.34 L 2165.31,7615.24 L 2177.69,7611.49 L 2190.57,7610.22 L 2203.44,7611.49 L 2215.82,7615.24 L 2227.23,7621.34 L 2237.24,7629.55 L 2245.44,7639.55 L 2251.54,7650.96 L 2255.3,7663.34 L 2256.57,7676.22 L 2255.3,7689.1 L 2251.54,7701.48 L 2245.44,7712.89 L 2237.24,7722.89 L 2227.23,7731.1 L 2215.82,7737.2 L 2203.44,7740.95 L 2190.57,7742.22 L 2177.69,7740.95 L 2165.31,7737.2 L 2153.9,7731.1 L 2143.9,7722.89 L 2135.69,7712.89 L 2129.59,7701.48 L 2125.84,7689.1 L 2124.57,7676.22 z " style="fill-opacity:1.000000;fill:rgb(31,35,30);stroke:rgb(0,0,0);stroke-width:2"/></g>
<g fill-rule="evenodd"><path d="M 2124.57,7476.22 L 2125.84,7463.34 L 2129.59,7450.96 L 2135.69,7439.55 L 2143.9,7429.55 L 2153.9,7421.34 L 2165.31,7415.24 L 2177.69,7411.49 L 2190.57,7410.22 L 2203.44,7411.49 L 2215.82,7415.24 L 2227.23,7421.34 L 2237.24,7429.55 L 2245.44,7439.55 L 2251.54,7450.96 L 2255.3,7463.34 L 2256.57,7476.22 L 2255.3,7489.1 L 2251.54,7501.48 L 2245.44,7512.89 L 2237.24,7522.89 L 2227.23,7531.1 L 2215.82,7537.2 L 2203.44,7540.95 L 2190.57,7542.22 L 2177.69,7540.95 L 2165.31,7537.2 L 2153.9,7531.1 L 2143.9,7522.89 L 2135.69,7512.89 L 2129.59,7501.48 L 2125.84,7489.1 L 2124.57,7476.22 z " style="fill-opacity:1.000000;fill:rgb(168,28,123);stroke:rgb(0,0,0);stroke-width:2"/></g>
<g fill-rule="evenodd"><path d="M 2124.57,7276.22 L 2125.84,7263.34 L 2129.59,7250.96 L 2135.69,7239.55 L 2143.9,7229.55 L 2153.9,7221.34 L 2165.31,7215.24 L 2177.69,7211.49 L 2190.57,7210.22 L 2203.44,7211.49 L 2215.82,7215.24 L 2227.23,7221.34 L 2237.24,7229.55 L 2245.44,7239.55 L 2251.54,7250.96 L 2255.3,7263.34 L 2256.57,7276.22 L 2255.3,7289.1 L 2251.54,7301.48 L 2245.44,7312.89 L 2237.24,7322.89 L 2227.23,7331.1 L 2215.82,7337.2 L 2203.44,7340.95 L 2190.57,7342.22 L 2177.69,7340.95 L 2165.31,7337.2 L 2153.9,7331.1 L 2143.9,7322.89 L 2135.69,7312.89 L 2129.59,7301.48 L 2125.84,7289.1 L 2124.57,7276.22 z " style="fill-opacity:1.000000;fill:rgb(100,197,20);stroke:rgb(0,0,0);stroke-width:2"/></g>
<g fill-rule="evenodd"><path d="M 2124.57,7076.22 L 2125.84,7063.34 L 2129.59,7050.96 L 2135.69,7039.55 L 2143.9,7029.55 L 2153.9,7021.34 L 2165.31,7015.24 L 2177.69,7011.49 L 2190.57,7010.22 L 2203.44,7011.49 L 2215.82,7015.24 L 2227.23,7021.34 L 2237.24,7029.55 L 2245.44,7039.55 L 2251.54,7050.96 L 2255.3,7063.34 L 2256.57,7076.22 L 2255.3,7089.1 L 2251.54,7101.48 L 2245.44,7112.89 L 2237.24,7122.89 L 2227.23,7131.1 L 2215.82,7137.2 L 2203.44,7140.95 L 2190.57,7142.22 L 2177.69,7140.95 L 2165.31,7137.2 L 2153.9,7131.1 L 2143.9,7122.89 L 2135.69,7112.89 L 2129.59,7101.48 L 2125.84,7089.1 L 2124.57,7076.22 z " style="fill-opacity:1.000000;fill:rgb(115,90,197);stroke:rgb(0,0,0);stroke-width:2"/></g>
<g fill-rule="evenodd"><path d="M 2124.57,6876.22 L 2125.84,6863.34 L 2129.59,6850.96 L 2135.69,6839.55 L 2143.9,6829.55 L 2153.9,6821.34 L 2165.31,6815.24 L 2177.69,6811.49 L 2190.57,6810.22 L 2203.44,6811.49 L 2215.82,6815.24 L 2227.23,6821.34 L 2237.24,6829.55 L 2245.44,6839.55 L 2251.54,6850.96 L 2255.3,6863.34 L 2256.57,6876.22 L 2255.3,6889.1 L 2251.54,6901.48 L 2245.44,6912.89 L 2237.24,6922.89 L 2227.23,6931.1 L 2215.82,6937.2 L 2203.44,6940.95 L 2190.57,6942.22 L 2177.69,6940.95 L 2165.31,6937.2 L 2153.9,6931.1 L 2143.9,6922.89 L 2135.69,6912.89 L 2129.59,6901.48 L 2125.84,6889.1 L 2124.57,6876.22 z " style="fill-opacity:1.000000;fill:rgb(94,75,121);stroke:rgb(0,0,0);stroke-width:2"/></g>
<g fill-rule="evenodd"><path d="M 2219.34,3431.54 L 2219.34,3313.43 L 2383.72,3313.43 L 2392.25,3310.84 L 2405.31,3309.55 L 2418.36,3310.84 L 2430.92,3314.65 L 2442.49,3320.83 L 2452.63,3329.15 L 2460.96,3339.3 L 2467.14,3350.87 L 2470.95,3363.42 L 2472.24,3376.48 L 2470.95,3389.54 L 2467.14,3402.09 L 2460.96,3413.66 L 2452.63,3423.81 L 2442.49,3432.13 L 2430.92,3438.31 L 2418.36,3442.12 L 2405.31,3443.41 L 2392.25,3442.12 L 2379.69,3438.31 L 2368.12,3432.13 L 2367.4,3431.54 L 2219.34,3431.54 z " style="fill-opacity:1.000000;fill:rgb(99,59,112);stroke:rgb(0,0,0);stroke-width:2"/></g>
<g fill-rule="evenodd"><path d="M 2219.34,3231.54 L 2219.34,3113.43 L 2377.01,3113.43 L 2378.95,3112.39 L 2391.51,3108.58 L 2404.57,3107.29 L 2417.62,3108.58 L 2430.18,3112.39 L 2441.75,3118.57 L 2451.89,3126.89 L 2460.22,3137.04 L 2466.4,3148.61 L 2470.21,3161.16 L 2471.5,3174.22 L 2470.21,3187.28 L 2466.4,3199.83 L 2460.22,3211.4 L 2451.89,3221.55 L 2441.75,3229.87 L 2430.18,3236.05 L 2417.62,3239.86 L 2404.57,3241.15 L 2391.51,3239.86 L 2378.95,3236.05 L 2370.5,3231.54 L 2219.34,3231.54 z " style="fill-opacity:1.000000;fill:rgb(100,36,17);stroke:rgb(0,0,0);stroke-width:2"/></g>
<g fill-rule="evenodd"><path d="M 2219.34,3031.54 L 2219.34,2913.43 L 2375.01,2913.43 L 2376.95,2912.39 L 2389.51,2908.58 L 2402.57,2907.29 L 2415.62,2908.58 L 2428.18,2912.39 L 2439.75,2918.57 L 2449.89,2926.89 L 2458.22,2937.04 L 2464.4,2948.61 L 2468.21,2961.16 L 2469.5,2974.22 L 2468.21,2987.28 L 2464.4,2999.83 L 2458.22,3011.4 L 2449.89,3021.55 L 2439.75,3029.87 L 2428.18,3036.05 L 2415.62,3039.86 L 2402.57,3041.15 L 2389.51,3039.86 L 2376.95,3036.05 L 2368.5,3031.54 L 2219.34,3031.54 z " style="fill-opacity:1.000000;fill:rgb(158,9,220);stroke:rgb(0,0,0);stroke-width:2"/></g>
<g fill-rule="evenodd"><path d="M 2219.34,2031.54 L 2219.34,1913.43 L 2386.71,1913.43 L 2389.51,1912.58 L 2402.57,1911.29 L 2415.62,1912.58 L 2428.18,1916.39 L 2439.75,1922.57 L 2449.89,1930.89 L 2458.22,1941.04 L 2464.4,1952.61 L 2468.21,1965.16 L 2469.5,1978.22 L 2468.21,1991.28 L 2464.4,2003.83 L 2458.22,2015.4 L 2449.89,2025.55 L 2439.75,2033.87 L 2428.18,2040.05 L 2415.62,2043.86 L 2402.57,2045.15 L 2389.51,2043.86 L 2376.95,2040.05 L 2365.38,2033.87 L 2362.54,2031.54 L 2219.34,2031.54 z " style="fill-opacity:1.000000;fill:rgb(170,212,172);stroke:rgb(0,0,0);stroke-width:2"/></g>
<g fill-rule="evenodd"><path d="M 2219.34,1433.11 L 2219.34,1315 L 2367.92,1315 L 2368.12,1314.83 L 2379.69,1308.65 L 2392.25,1304.84 L 2405.31,1303.55 L 2418.36,1304.84 L 2430.92,1308.65 L 2442.49,1314.83 L 2452.63,1323.15 L 2460.96,1333.3 L 2467.14,1344.87 L 2470.95,1357.42 L 2472.24,1370.48 L 2470.95,1383.54 L 2467.14,1396.09 L 2460.96,1407.66 L 2452.63,1417.81 L 2442.49,1426.13 L 2430.92,1432.31 L 2418.36,1436.12 L 2405.31,1437.41 L 2392.25,1436.12 L 2382.32,1433.11 L 2219.34,1433.11 z " style="fill-opacity:1.000000;fill:rgb(242,27,16);stroke:rgb(0,0,0);stroke-width:2"/></g>
<g fill-rule="evenodd"><path d="M 2219.34,1033.11 L 2219.34,915 L 2379.12,915 L 2386.25,912.837 L 2399.31,911.551 L 2412.36,912.837 L 2424.92,916.646 L 2436.49,922.831 L 2446.63,931.154 L 2454.96,941.296 L 2461.14,952.868 L 2464.95,965.423 L 2466.24,978.48 L 2464.95,991.538 L 2461.14,1004.09 L 2454.96,1015.66 L 2446.63,1025.81 L 2436.49,1034.13 L 2424.92,1040.31 L 2412.36,1044.12 L 2399.31,1045.41 L 2386.25,1044.12 L 2373.69,1040.31 L 2362.12,1034.13 L 2360.88,1033.11 L 2219.34,1033.11 z " style="fill-opacity:1.000000;fill:rgb(175,59,51);stroke:rgb(0,0,0);stroke-width:2"/></g>
</svg>
