<?xml version="1.0" standalone="no"?>
<!DOCTYPE svg PUBLIC "-//W3C//DTD SVG 1.1//EN"
"http://www.w3.org/Graphics/SVG/1.1/DTD/svg11.dtd">
<svg width="131.717" height="464.315" viewBox="0 0 2744.09 9673.23" version="1.1"
xmlns="http://www.w3.org/2000/svg"
xmlns:xlink="http://www.w3.org/1999/xlink">
<g fill-rule="evenodd"><path d="M 197.284,9430.39 L 197.284,2970.22 L 197.284,242.832 L 198.836,236.034 L 199.134,235.446 L 203.488,227.3 L 205.194,224.746 L 213.03,215.2 L 215.2,213.03 L 224.748,205.194 L 227.302,203.488 L 227.656,203.298 L 235.446,199.134 L 242.174,197.298 L 242.834,197.284 L 2501.26,197.284 L 2508.06,198.836 L 2508.65,199.134 L 2516.44,203.298 L 2516.79,203.488 L 2519.35,205.194 L 2528.89,213.03 L 2531.06,215.2 L 2538.9,224.746 L 2540.61,227.3 L 2544.96,235.446 L 2546.8,242.174 L 2546.81,242.832 L 2546.81,9430.39 L 2545.26,9437.19 L 2544.96,9437.78 L 2540.61,9445.93 L 2538.9,9448.48 L 2531.06,9458.03 L 2528.89,9460.2 L 2519.35,9468.03 L 2516.79,9469.74 L 2508.65,9474.09 L 2501.92,9475.93 L 2501.26,9475.94 L 242.834,9475.94 L 236.034,9474.39 L 235.448,9474.09 L 227.302,9469.74 L 224.748,9468.03 L 215.2,9460.2 L 213.03,9458.03 L 205.194,9448.48 L 203.488,9445.93 L 199.134,9437.78 L 197.298,9431.05 L 197.284,9430.39M 267.728,2970.22 L 269.228,2987.38 L 273.688,3004.03 L 275.554,3008.03 L 280.97,3019.64 L 290.852,3033.75 L 303.034,3045.94 L 317.148,3055.82 L 332.762,3063.1 L 349.404,3067.56 L 366.568,3069.06 L 383.732,3067.56 L 400.374,3063.1 L 415.988,3055.82 L 421.68,3051.83 L 428.138,3049.21 L 430.668,3049 L 589.446,3049 L 596.244,3050.55 L 600.526,3053.59 L 707.198,3160.26 L 710.908,3166.17 L 711.788,3171.34 L 711.788,4253.77 L 710.236,4260.57 L 705.888,4266.02 L 699.606,4269.05 L 696.118,4269.44 L 615.766,4269.44 L 615.368,4269.44 L 614.562,4269.42 L 608.554,4269.26 L 604.202,4270.04 L 603.026,4270.21 L 598.628,4270.66 L 596.7,4271.26 L 594.774,4271.73 L 592.784,4272.09 L 588.828,4273.67 L 588.68,4273.73 L 587.558,4274.13 L 583.34,4275.45 L 581.574,4276.43 L 579.782,4277.28 L 577.906,4278.03 L 574.214,4280.47 L 573.196,4281.08 L 569.332,4283.23 L 567.798,4284.54 L 566.214,4285.74 L 564.526,4286.85 L 561.4,4289.98 L 560.528,4290.79 L 557.174,4293.66 L 555.938,4295.26 L 554.628,4296.75 L 385.708,4465.67 L 385.43,4465.94 L 380.484,4470.64 L 377.96,4474.27 L 377.242,4475.22 L 374.45,4478.65 L 373.514,4480.44 L 372.486,4482.13 L 371.332,4483.79 L 369.588,4487.85 L 369.078,4488.93 L 367.032,4492.85 L 366.516,4494.65 L 366.476,4494.79 L 365.81,4496.66 L 365.552,4497.26 L 365.014,4498.52 L 364.124,4502.85 L 363.84,4504 L 362.624,4508.25 L 362.47,4510.27 L 362.196,4512.23 L 361.788,4514.21 L 361.788,4518.63 L 361.744,4519.82 L 361.408,4524.23 L 361.648,4526.11 L 361.662,4526.23 L 361.788,4528.21 L 361.788,8467.02 L 361.784,8467.42 L 361.61,8474.23 L 362.39,8478.59 L 362.556,8479.76 L 363.002,8484.16 L 363.608,8486.09 L 364.08,8488.01 L 364.438,8490 L 365.538,8492.76 L 366.076,8494.11 L 366.476,8495.23 L 367.8,8499.45 L 368.78,8501.21 L 369.63,8503 L 370.38,8504.88 L 372.814,8508.57 L 373.43,8509.59 L 375.574,8513.46 L 376.892,8514.99 L 378.086,8516.57 L 379.198,8518.26 L 382.324,8521.39 L 383.132,8522.26 L 386.012,8525.61 L 387.61,8526.85 L 389.098,8528.16 L 812.016,8951.08 L 812.288,8951.36 L 816.988,8956.3 L 820.618,8958.83 L 821.568,8959.54 L 824.992,8962.34 L 826.784,8963.27 L 828.48,8964.3 L 830.138,8965.45 L 834.202,8967.2 L 835.276,8967.71 L 839.194,8969.76 L 841.138,8970.31 L 843.004,8970.98 L 844.862,8971.77 L 849.194,8972.66 L 850.348,8972.95 L 853.274,8973.78 L 854.598,8974.16 L 856.614,8974.32 L 858.578,8974.59 L 860.556,8975 L 864.978,8975 L 866.166,8975.04 L 870.574,8975.38 L 872.168,8975.18 L 872.578,8975.12 L 874.558,8975 L 1127.37,8975 L 1127.77,8975 L 1134.58,8975.18 L 1138.93,8974.4 L 1140.11,8974.23 L 1144.51,8973.78 L 1146.44,8973.18 L 1148.36,8972.71 L 1150.35,8972.35 L 1154.46,8970.71 L 1155.58,8970.31 L 1159.8,8968.99 L 1161.56,8968.01 L 1163.35,8967.16 L 1165.23,8966.41 L 1168.92,8963.97 L 1169.94,8963.36 L 1173.8,8961.21 L 1175.34,8959.9 L 1176.92,8958.7 L 1178.61,8957.59 L 1181.74,8954.46 L 1182.61,8953.65 L 1185.96,8950.78 L 1187.2,8949.18 L 1188.51,8947.69 L 1976.61,8159.59 L 1982.51,8155.88 L 1987.69,8155 L 2128.09,8155 L 2134.88,8156.55 L 2137.07,8157.83 L 2141.61,8161.01 L 2143.77,8162.02 L 2149.28,8166.3 L 2152.38,8172.54 L 2152.47,8179.52 L 2149.52,8185.84 L 2144.13,8190.25 L 2143.77,8190.42 L 2141.61,8191.43 L 2127.63,8201.22 L 2115.56,8213.28 L 2105.77,8227.26 L 2098.56,8242.73 L 2094.15,8259.22 L 2092.66,8276.22 L 2094.15,8293.22 L 2098.56,8309.7 L 2105.77,8325.17 L 2115.56,8339.15 L 2127.63,8351.22 L 2141.61,8361.01 L 2143.77,8362.02 L 2149.28,8366.3 L 2152.38,8372.54 L 2152.47,8379.52 L 2149.52,8385.84 L 2144.13,8390.25 L 2143.77,8390.42 L 2141.61,8391.43 L 2127.63,8401.22 L 2115.56,8413.28 L 2105.77,8427.26 L 2098.56,8442.73 L 2094.15,8459.22 L 2092.66,8476.22 L 2094.1,8492.76 L 2094.15,8493.22 L 2098.56,8509.7 L 2105.77,8525.17 L 2115.56,8539.15 L 2127.63,8551.22 L 2141.61,8561.01 L 2143.77,8562.02 L 2149.28,8566.3 L 2152.38,8572.54 L 2152.47,8579.52 L 2149.52,8585.84 L 2144.13,8590.25 L 2143.77,8590.42 L 2141.61,8591.43 L 2127.63,8601.22 L 2115.56,8613.28 L 2105.77,8627.26 L 2098.56,8642.73 L 2094.15,8659.22 L 2092.66,8676.22 L 2094.15,8693.22 L 2098.56,8709.7 L 2105.77,8725.17 L 2115.56,8739.15 L 2127.63,8751.22 L 2141.61,8761.01 L 2147.03,8763.54 L 2157.08,8768.22 L 2169.6,8771.58 L 2173.56,8772.64 L 2190.57,8774.13 L 2207.57,8772.64 L 2224.05,8768.22 L 2239.52,8761.01 L 2253.5,8751.22 L 2265.57,8739.15 L 2275.36,8725.17 L 2282.57,8709.71 L 2286.99,8693.22 L 2288.47,8676.22 L 2286.99,8659.22 L 2282.57,8642.73 L 2275.36,8627.26 L 2265.57,8613.28 L 2253.5,8601.22 L 2239.52,8591.43 L 2237.36,8590.42 L 2231.85,8586.14 L 2228.75,8579.9 L 2228.66,8572.92 L 2231.61,8566.6 L 2237.01,8562.19 L 2237.36,8562.02 L 2239.52,8561.01 L 2253.5,8551.22 L 2265.57,8539.15 L 2275.36,8525.17 L 2282.57,8509.71 L 2286.99,8493.22 L 2288.47,8476.22 L 2286.99,8459.22 L 2282.57,8442.73 L 2275.36,8427.26 L 2265.57,8413.28 L 2253.5,8401.22 L 2239.52,8391.43 L 2238.98,8391.17 L 2237.36,8390.42 L 2231.85,8386.14 L 2228.75,8379.9 L 2228.66,8372.92 L 2231.61,8366.6 L 2237.01,8362.19 L 2237.36,8362.02 L 2239.52,8361.01 L 2253.5,8351.22 L 2265.57,8339.15 L 2275.36,8325.17 L 2282.57,8309.71 L 2286.99,8293.22 L 2288.47,8276.22 L 2286.99,8259.22 L 2282.57,8242.73 L 2275.36,8227.26 L 2265.57,8213.28 L 2253.5,8201.22 L 2239.52,8191.43 L 2237.36,8190.42 L 2231.85,8186.14 L 2228.75,8179.9 L 2228.66,8172.92 L 2231.61,8166.6 L 2237.01,8162.19 L 2237.36,8162.02 L 2239.52,8161.01 L 2253.5,8151.22 L 2265.57,8139.15 L 2275.36,8125.17 L 2282.57,8109.71 L 2286.99,8093.22 L 2288.47,8076.22 L 2286.99,8059.22 L 2282.57,8042.73 L 2275.36,8027.26 L 2265.57,8013.28 L 2253.5,8001.22 L 2239.52,7991.43 L 2237.36,7990.42 L 2231.85,7986.14 L 2228.75,7979.9 L 2228.66,7972.92 L 2231.61,7966.6 L 2237.01,7962.19 L 2237.36,7962.02 L 2239.52,7961.01 L 2253.5,7951.22 L 2265.57,7939.15 L 2275.36,7925.17 L 2282.57,7909.71 L 2286.99,7893.22 L 2288.47,7876.22 L 2286.99,7859.22 L 2283.02,7844.41 L 2282.57,7842.73 L 2275.36,7827.26 L 2265.57,7813.28 L 2253.5,7801.22 L 2239.52,7791.43 L 2237.36,7790.42 L 2231.85,7786.14 L 2228.75,7779.9 L 2228.66,7772.92 L 2231.61,7766.6 L 2237.01,7762.19 L 2237.36,7762.02 L 2239.52,7761.01 L 2253.5,7751.22 L 2265.57,7739.15 L 2275.36,7725.17 L 2282.57,7709.71 L 2286.99,7693.22 L 2288.47,7676.22 L 2286.99,7659.22 L 2282.57,7642.73 L 2275.36,7627.26 L 2265.57,7613.28 L 2253.5,7601.22 L 2239.52,7591.43 L 2237.36,7590.42 L 2231.85,7586.14 L 2228.75,7579.9 L 2228.66,7572.92 L 2231.61,7566.6 L 2237.01,7562.19 L 2237.36,7562.02 L 2239.52,7561.01 L 2253.5,7551.22 L 2265.57,7539.15 L 2275.36,7525.17 L 2282.57,7509.71 L 2286.99,7493.22 L 2288.47,7476.22 L 2286.99,7459.22 L 2282.57,7442.73 L 2275.36,7427.26 L 2265.57,7413.28 L 2253.5,7401.22 L 2239.52,7391.43 L 2237.36,7390.42 L 2231.85,7386.14 L 2228.75,7379.9 L 2228.66,7372.92 L 2231.61,7366.6 L 2237.01,7362.19 L 2237.36,7362.02 L 2239.52,7361.01 L 2253.5,7351.22 L 2265.57,7339.15 L 2275.36,7325.17 L 2282.57,7309.71 L 2286.99,7293.22 L 2288.47,7276.22 L 2286.99,7259.22 L 2282.57,7242.73 L 2275.36,7227.26 L 2265.57,7213.28 L 2253.5,7201.22 L 2239.52,7191.43 L 2237.36,7190.42 L 2231.85,7186.14 L 2228.75,7179.9 L 2228.66,7172.92 L 2231.61,7166.6 L 2237.01,7162.19 L 2237.36,7162.02 L 2239.52,7161.01 L 2253.5,7151.22 L 2265.57,7139.15 L 2275.36,7125.17 L 2282.57,7109.71 L 2286.99,7093.22 L 2288.47,7076.22 L 2286.99,7059.22 L 2282.57,7042.73 L 2275.36,7027.26 L 2265.57,7013.28 L 2253.5,7001.22 L 2239.52,6991.43 L 2237.36,6990.42 L 2231.85,6986.14 L 2228.75,6979.9 L 2228.66,6972.92 L 2231.61,6966.6 L 2237.01,6962.19 L 2237.36,6962.02 L 2239.52,6961.01 L 2253.5,6951.22 L 2265.57,6939.15 L 2275.36,6925.17 L 2282.57,6909.71 L 2286.99,6893.22 L 2288.47,6876.22 L 2286.99,6859.22 L 2282.57,6842.73 L 2275.36,6827.26 L 2265.57,6813.28 L 2253.5,6801.22 L 2239.52,6791.43 L 2237.36,6790.42 L 2231.85,6786.14 L 2228.75,6779.9 L 2228.66,6772.92 L 2231.61,6766.6 L 2237.01,6762.19 L 2237.36,6762.02 L 2239.52,6761.01 L 2253.5,6751.22 L 2258.2,6746.52 L 2263.83,6740.89 L 2269.73,6737.18 L 2276.66,6736.4 L 2283.25,6738.7 L 2285.99,6740.89 L 2295.03,6749.94 L 2309.15,6759.82 L 2324.76,6767.1 L 2341.4,6771.56 L 2358.57,6773.06 L 2375.73,6771.56 L 2392.37,6767.1 L 2407.99,6759.82 L 2422.1,6749.94 L 2434.28,6737.75 L 2444.16,6723.64 L 2451.45,6708.02 L 2455.9,6691.38 L 2457.41,6674.22 L 2455.9,6657.06 L 2451.45,6640.41 L 2448,6633.02 L 2444.16,6624.8 L 2440.93,6620.18 L 2436.1,6613.28 L 2434.28,6610.69 L 2422.1,6598.5 L 2407.99,6588.62 L 2405.41,6587.42 L 2399.91,6583.14 L 2396.8,6576.9 L 2396.72,6569.92 L 2399.66,6563.6 L 2405.06,6559.19 L 2405.41,6559.02 L 2407.99,6557.82 L 2422.1,6547.94 L 2434.28,6535.75 L 2444.16,6521.64 L 2451.45,6506.02 L 2455.9,6489.38 L 2457.41,6472.22 L 2455.9,6455.06 L 2451.45,6438.41 L 2449.19,6433.57 L 2444.16,6422.8 L 2442.08,6419.82 L 2436.58,6411.96 L 2434.28,6408.69 L 2422.1,6396.5 L 2407.99,6386.62 L 2405.41,6385.42 L 2399.91,6381.14 L 2396.8,6374.9 L 2396.72,6367.92 L 2399.66,6361.6 L 2405.06,6357.19 L 2405.41,6357.02 L 2407.99,6355.82 L 2422.1,6345.94 L 2434.28,6333.75 L 2444.16,6319.64 L 2451.45,6304.02 L 2455.9,6287.38 L 2457.41,6270.22 L 2455.9,6253.06 L 2451.45,6236.41 L 2450.61,6234.63 L 2444.16,6220.8 L 2444.14,6220.76 L 2434.28,6206.69 L 2422.1,6194.5 L 2408.61,6185.05 L 2403.93,6179.88 L 2401.95,6173.2 L 2403.08,6166.31 L 2407.08,6160.6 L 2408.61,6159.38 L 2416.65,6153.75 L 2422.1,6149.94 L 2434.28,6137.75 L 2444.16,6123.64 L 2451.45,6108.02 L 2455.9,6091.38 L 2457.41,6074.22 L 2455.9,6057.06 L 2451.45,6040.41 L 2444.16,6024.8 L 2436.1,6013.28 L 2434.28,6010.69 L 2422.1,5998.5 L 2407.99,5988.62 L 2392.37,5981.34 L 2375.73,5976.88 L 2358.57,5975.38 L 2341.4,5976.88 L 2324.76,5981.34 L 2309.15,5988.62 L 2295.03,5998.5 L 2283.99,6009.55 L 2278.08,6013.26 L 2271.15,6014.04 L 2264.57,6011.73 L 2261.83,6009.55 L 2253.5,6001.22 L 2239.52,5991.43 L 2227.9,5986.01 L 2224.05,5984.22 L 2207.57,5979.8 L 2190.57,5978.31 L 2173.56,5979.8 L 2157.08,5984.22 L 2141.61,5991.43 L 2127.63,6001.22 L 2115.56,6013.28 L 2105.77,6027.26 L 2098.56,6042.73 L 2094.15,6059.22 L 2092.66,6076.22 L 2093.98,6091.38 L 2094.15,6093.22 L 2098.56,6109.7 L 2105.77,6125.17 L 2115.56,6139.15 L 2127.63,6151.22 L 2141.61,6161.01 L 2143.77,6162.02 L 2149.28,6166.3 L 2152.38,6172.54 L 2152.47,6179.52 L 2149.52,6185.84 L 2144.13,6190.25 L 2143.77,6190.42 L 2141.61,6191.43 L 2127.63,6201.22 L 2115.56,6213.28 L 2105.77,6227.26 L 2098.56,6242.73 L 2094.15,6259.22 L 2092.66,6276.22 L 2093.63,6287.38 L 2094.15,6293.22 L 2098.56,6309.7 L 2105.77,6325.17 L 2115.56,6339.15 L 2127.63,6351.22 L 2141.61,6361.01 L 2143.77,6362.02 L 2149.28,6366.3 L 2152.38,6372.54 L 2152.47,6379.52 L 2149.52,6385.84 L 2144.13,6390.25 L 2143.77,6390.42 L 2141.61,6391.43 L 2127.63,6401.22 L 2115.56,6413.28 L 2105.77,6427.26 L 2098.56,6442.73 L 2094.15,6459.22 L 2092.66,6476.22 L 2093.81,6489.38 L 2094.15,6493.22 L 2098.56,6509.7 L 2105.77,6525.17 L 2115.56,6539.15 L 2127.63,6551.22 L 2141.61,6561.01 L 2143.77,6562.02 L 2149.28,6566.3 L 2152.38,6572.54 L 2152.47,6579.52 L 2149.52,6585.84 L 2144.13,6590.25 L 2143.77,6590.42 L 2141.61,6591.43 L 2127.63,6601.22 L 2115.56,6613.28 L 2105.77,6627.26 L 2098.56,6642.73 L 2094.15,6659.22 L 2092.66,6676.22 L 2093.98,6691.38 L 2094.15,6693.22 L 2098.56,6709.7 L 2105.77,6725.17 L 2115.56,6739.15 L 2127.63,6751.22 L 2141.61,6761.01 L 2143.77,6762.02 L 2149.28,6766.3 L 2152.38,6772.54 L 2152.47,6779.52 L 2149.52,6785.84 L 2144.13,6790.25 L 2143.77,6790.42 L 2141.61,6791.43 L 2127.63,6801.22 L 2115.56,6813.28 L 2105.77,6827.26 L 2098.56,6842.73 L 2094.15,6859.22 L 2092.66,6876.22 L 2094.12,6892.96 L 2094.15,6893.22 L 2098.56,6909.7 L 2105.77,6925.17 L 2115.56,6939.15 L 2127.63,6951.22 L 2141.61,6961.01 L 2143.77,6962.02 L 2149.28,6966.3 L 2152.38,6972.54 L 2152.47,6979.52 L 2149.52,6985.84 L 2144.13,6990.25 L 2143.77,6990.42 L 2141.61,6991.43 L 2127.63,7001.22 L 2115.56,7013.28 L 2105.77,7027.26 L 2098.56,7042.73 L 2094.15,7059.22 L 2093.28,7069.06 L 2092.66,7076.22 L 2094.15,7093.22 L 2098.56,7109.7 L 2105.77,7125.17 L 2115.56,7139.15 L 2127.63,7151.22 L 2141.61,7161.01 L 2143.77,7162.02 L 2149.28,7166.3 L 2152.38,7172.54 L 2152.47,7179.52 L 2149.52,7185.84 L 2144.13,7190.25 L 2143.77,7190.42 L 2141.61,7191.43 L 2127.63,7201.22 L 2115.56,7213.28 L 2105.77,7227.26 L 2098.56,7242.73 L 2094.15,7259.22 L 2092.66,7276.22 L 2094.15,7293.22 L 2098.56,7309.7 L 2105.77,7325.17 L 2115.56,7339.15 L 2127.63,7351.22 L 2141.61,7361.01 L 2143.77,7362.02 L 2149.28,7366.3 L 2152.38,7372.54 L 2152.47,7379.52 L 2149.52,7385.84 L 2144.13,7390.25 L 2143.77,7390.42 L 2141.61,7391.43 L 2127.63,7401.22 L 2115.56,7413.28 L 2105.77,7427.26 L 2098.56,7442.73 L 2094.15,7459.22 L 2092.66,7476.22 L 2094.15,7493.22 L 2098.56,7509.7 L 2105.77,7525.17 L 2115.56,7539.15 L 2127.63,7551.22 L 2141.61,7561.01 L 2143.77,7562.02 L 2149.28,7566.3 L 2152.38,7572.54 L 2152.47,7579.52 L 2149.52,7585.84 L 2144.13,7590.25 L 2143.77,7590.42 L 2141.61,7591.43 L 2127.63,7601.22 L 2115.56,7613.28 L 2105.77,7627.26 L 2098.56,7642.73 L 2094.15,7659.22 L 2092.66,7676.22 L 2094.15,7693.22 L 2098.56,7709.7 L 2105.77,7725.17 L 2115.56,7739.15 L 2127.63,7751.22 L 2141.61,7761.01 L 2143.77,7762.02 L 2149.28,7766.3 L 2152.38,7772.54 L 2152.47,7779.52 L 2149.52,7785.84 L 2144.13,7790.25 L 2143.77,7790.42 L 2141.61,7791.43 L 2127.63,7801.22 L 2115.56,7813.28 L 2105.77,7827.26 L 2098.56,7842.73 L 2094.15,7859.22 L 2092.66,7876.22 L 2094.15,7893.22 L 2098.56,7909.7 L 2105.77,7925.17 L 2115.56,7939.15 L 2127.63,7951.22 L 2141.61,7961.01 L 2143.77,7962.02 L 2149.28,7966.3 L 2152.38,7972.54 L 2152.47,7979.52 L 2149.52,7985.84 L 2144.13,7990.25 L 2143.77,7990.42 L 2141.61,7991.43 L 2138.83,7993.38 L 2137.07,7994.61 L 2130.61,7997.23 L 2128.09,7997.44 L 1949.76,7997.44 L 1949.37,7997.43 L 1949.28,7997.43 L 1942.55,7997.26 L 1938.2,7998.04 L 1937.02,7998.21 L 1932.63,7998.65 L 1930.7,7999.26 L 1928.77,7999.73 L 1926.78,8000.09 L 1922.68,8001.73 L 1921.56,8002.13 L 1917.34,8003.45 L 1915.57,8004.43 L 1913.78,8005.28 L 1911.9,8006.03 L 1908.21,8008.46 L 1907.19,8009.08 L 1903.33,8011.23 L 1901.8,8012.54 L 1900.21,8013.74 L 1898.53,8014.85 L 1895.4,8017.97 L 1894.53,8018.78 L 1891.17,8021.66 L 1889.94,8023.26 L 1888.62,8024.75 L 1100.53,8812.85 L 1094.62,8816.56 L 1089.45,8817.44 L 907.69,8817.44 L 900.892,8815.89 L 896.61,8812.85 L 759.978,8676.22 L 559.978,8476.22 L 523.936,8440.18 L 520.226,8434.27 L 519.348,8429.1 L 519.348,6721.72 L 519.348,6566.92 L 520.9,6560.12 L 525.248,6554.67 L 531.53,6551.64 L 535.016,6551.25 L 565.858,6551.25 L 572.658,6552.8 L 576.938,6555.84 L 582.108,6561.01 L 587.034,6565.94 L 597.734,6573.43 L 601.148,6575.82 L 610.516,6580.19 L 616.022,6584.47 L 619.126,6590.71 L 619.214,6597.68 L 616.266,6604 L 610.868,6608.42 L 610.484,6608.59 L 610.032,6608.81 L 595.764,6617.65 L 583.362,6628.95 L 573.25,6642.35 L 565.77,6657.37 L 565.384,6658.72 L 591.878,6658.72 L 594.917,6653.04 L 603.241,6642.89 L 613.383,6634.57 L 624.954,6628.39 L 637.51,6624.58 L 650.567,6623.29 L 663.624,6624.58 L 676.18,6628.39 L 687.751,6634.57 L 697.893,6642.89 L 706.216,6653.04 L 709.256,6658.72 L 735.752,6658.72 L 735.366,6657.37 L 727.886,6642.35 L 717.772,6628.95 L 705.37,6617.65 L 691.104,6608.81 L 690.454,6608.49 L 690.548,6608.3 L 685.8,6605.09 L 682.288,6599.07 L 681.738,6592.12 L 684.258,6585.62 L 689.348,6580.85 L 690.62,6580.19 L 699.988,6575.82 L 714.102,6565.94 L 726.284,6553.75 L 736.166,6539.64 L 743.448,6524.02 L 747.906,6507.38 L 749.408,6490.22 L 747.906,6473.06 L 743.448,6456.41 L 736.166,6440.8 L 726.284,6426.69 L 724.294,6424.7 L 720.584,6418.79 L 719.804,6411.86 L 722.108,6405.28 L 727.038,6400.35 L 728.262,6399.65 L 736.264,6395.58 L 743.328,6388.51 L 747.862,6379.61 L 748.85,6373.38 L 749.032,6372.23 L 749.032,6371.64 L 750.584,6364.85 L 754.932,6359.39 L 761.214,6356.37 L 764.702,6355.97 L 806.428,6355.97 L 807.374,6356 L 811.922,6356.28 L 816.408,6355.46 L 817.342,6355.31 L 821.864,6354.77 L 822.108,6354.67 L 824.842,6353.91 L 825.098,6353.86 L 829.254,6351.99 L 830.128,6351.63 L 834.39,6350.02 L 834.604,6349.87 L 837.074,6348.47 L 837.208,6348.41 L 837.312,6348.37 L 840.9,6345.56 L 841.662,6345 L 845.412,6342.41 L 848.434,6339 L 849.084,6338.31 L 851.424,6335.97 L 857.328,6332.26 L 862.504,6331.38 L 901.964,6331.38 L 908.762,6332.93 L 914.214,6337.28 L 914.8,6338.06 L 915.566,6339.15 L 927.634,6351.22 L 941.614,6361.01 L 943.776,6362.02 L 949.282,6366.3 L 952.384,6372.54 L 952.472,6379.51 L 949.524,6385.84 L 944.128,6390.25 L 943.778,6390.42 L 941.614,6391.43 L 927.634,6401.22 L 915.566,6413.28 L 905.776,6427.26 L 905.176,6428.55 L 898.564,6442.73 L 897.488,6446.75 L 894.148,6459.22 L 892.66,6476.22 L 894.148,6493.22 L 898.564,6509.71 L 905.776,6525.17 L 915.566,6539.15 L 927.634,6551.22 L 941.614,6561.01 L 943.776,6562.02 L 949.282,6566.3 L 952.384,6572.54 L 952.472,6579.51 L 949.524,6585.84 L 944.128,6590.25 L 943.778,6590.42 L 941.614,6591.43 L 927.634,6601.22 L 915.566,6613.28 L 905.776,6627.26 L 903.532,6632.08 L 898.564,6642.73 L 896.416,6650.75 L 894.148,6659.22 L 892.66,6676.22 L 894.148,6693.22 L 898.564,6709.71 L 905.776,6725.17 L 915.566,6739.15 L 927.634,6751.22 L 941.614,6761.01 L 943.776,6762.02 L 949.282,6766.3 L 952.384,6772.54 L 952.472,6779.51 L 949.524,6785.84 L 944.128,6790.25 L 943.778,6790.42 L 941.614,6791.43 L 927.634,6801.22 L 915.566,6813.28 L 905.776,6827.26 L 898.564,6842.73 L 894.148,6859.22 L 892.66,6876.22 L 894.148,6893.22 L 898.564,6909.71 L 905.776,6925.17 L 915.566,6939.15 L 927.634,6951.22 L 941.614,6961.01 L 943.776,6962.02 L 949.282,6966.3 L 952.384,6972.54 L 952.472,6979.51 L 949.524,6985.84 L 944.128,6990.25 L 943.778,6990.42 L 941.614,6991.43 L 927.634,7001.22 L 915.566,7013.28 L 905.776,7027.26 L 898.564,7042.73 L 894.148,7059.22 L 892.66,7076.22 L 894.148,7093.22 L 898.564,7109.71 L 905.776,7125.17 L 915.566,7139.15 L 927.634,7151.22 L 941.614,7161.01 L 943.776,7162.02 L 949.282,7166.3 L 952.384,7172.54 L 952.472,7179.51 L 949.524,7185.84 L 944.128,7190.25 L 943.778,7190.42 L 941.614,7191.43 L 927.634,7201.22 L 915.566,7213.28 L 905.776,7227.26 L 898.564,7242.73 L 894.148,7259.22 L 892.66,7276.22 L 894.148,7293.22 L 898.564,7309.71 L 905.776,7325.17 L 915.566,7339.15 L 927.634,7351.22 L 941.614,7361.01 L 943.776,7362.02 L 949.282,7366.3 L 952.384,7372.54 L 952.472,7379.51 L 949.524,7385.84 L 944.128,7390.25 L 943.778,7390.42 L 941.614,7391.43 L 927.634,7401.22 L 915.566,7413.28 L 905.776,7427.26 L 898.564,7442.73 L 894.148,7459.22 L 892.66,7476.22 L 894.148,7493.22 L 898.564,7509.71 L 905.776,7525.17 L 915.566,7539.15 L 927.634,7551.22 L 941.614,7561.01 L 943.776,7562.02 L 949.282,7566.3 L 952.384,7572.54 L 952.472,7579.51 L 949.524,7585.84 L 944.128,7590.25 L 943.778,7590.42 L 941.614,7591.43 L 927.634,7601.22 L 915.566,7613.28 L 905.776,7627.26 L 898.564,7642.73 L 894.148,7659.22 L 892.66,7676.22 L 894.148,7693.22 L 898.564,7709.71 L 905.776,7725.17 L 915.566,7739.15 L 927.634,7751.22 L 941.614,7761.01 L 943.776,7762.02 L 949.282,7766.3 L 952.384,7772.54 L 952.472,7779.51 L 949.524,7785.84 L 944.128,7790.25 L 943.778,7790.42 L 941.614,7791.43 L 927.634,7801.22 L 923.304,7805.55 L 917.4,7809.26 L 910.47,7810.04 L 903.888,7807.73 L 901.144,7805.55 L 898.102,7802.5 L 883.988,7792.62 L 868.374,7785.34 L 851.732,7780.88 L 834.568,7779.38 L 817.404,7780.88 L 800.762,7785.34 L 785.148,7792.62 L 771.034,7802.5 L 758.852,7814.69 L 755.568,7819.37 L 748.97,7828.8 L 741.688,7844.41 L 737.228,7861.06 L 735.728,7878.22 L 737.228,7895.38 L 741.688,7912.02 L 748.97,7927.64 L 758.852,7941.75 L 771.034,7953.94 L 785.148,7963.82 L 800.762,7971.1 L 817.404,7975.56 L 834.568,7977.06 L 851.732,7975.56 L 868.374,7971.1 L 883.988,7963.82 L 898.102,7953.94 L 903.144,7948.89 L 909.05,7945.18 L 915.98,7944.4 L 922.562,7946.7 L 925.304,7948.89 L 927.634,7951.22 L 941.614,7961.01 L 943.776,7962.02 L 949.282,7966.3 L 952.384,7972.54 L 952.472,7979.51 L 949.524,7985.84 L 944.128,7990.25 L 943.778,7990.42 L 941.614,7991.43 L 927.634,8001.22 L 915.566,8013.28 L 905.776,8027.26 L 898.564,8042.73 L 894.148,8059.22 L 892.66,8076.22 L 894.148,8093.22 L 898.564,8109.71 L 905.776,8125.17 L 915.566,8139.15 L 927.634,8151.22 L 941.614,8161.01 L 943.776,8162.02 L 949.282,8166.3 L 952.384,8172.54 L 952.472,8179.51 L 949.524,8185.84 L 944.128,8190.25 L 943.778,8190.42 L 941.614,8191.43 L 927.634,8201.22 L 915.566,8213.28 L 905.776,8227.26 L 898.564,8242.73 L 894.148,8259.22 L 892.66,8276.22 L 894.148,8293.22 L 898.564,8309.71 L 905.776,8325.17 L 915.566,8339.15 L 927.634,8351.22 L 941.614,8361.01 L 952.884,8366.27 L 958.39,8370.54 L 961.494,8376.79 L 961.582,8383.76 L 958.634,8390.08 L 953.434,8394.34 L 953.398,8394.51 L 972.082,8413.19 L 977.691,8411.49 L 990.567,8410.22 L 1003.44,8411.49 L 1009.05,8413.19 L 1027.74,8394.51 L 1027.63,8394.01 L 1023.43,8391.17 L 1019.92,8385.15 L 1019.37,8378.2 L 1021.89,8371.7 L 1026.98,8366.93 L 1028.25,8366.27 L 1039.52,8361.01 L 1053.5,8351.22 L 1065.57,8339.15 L 1075.36,8325.17 L 1082.57,8309.71 L 1086.99,8293.22 L 1088.48,8276.22 L 1086.99,8259.22 L 1082.57,8242.73 L 1075.36,8227.26 L 1065.57,8213.28 L 1053.5,8201.22 L 1039.52,8191.43 L 1037.36,8190.42 L 1031.85,8186.14 L 1028.75,8179.9 L 1028.66,8172.92 L 1031.61,8166.6 L 1037.01,8162.19 L 1037.36,8162.02 L 1039.52,8161.01 L 1053.5,8151.22 L 1065.57,8139.15 L 1075.36,8125.17 L 1082.57,8109.71 L 1086.99,8093.22 L 1088.48,8076.22 L 1086.99,8059.22 L 1082.57,8042.73 L 1075.36,8027.26 L 1065.57,8013.28 L 1053.5,8001.22 L 1039.52,7991.43 L 1037.36,7990.42 L 1031.85,7986.14 L 1028.75,7979.9 L 1028.66,7972.92 L 1031.61,7966.6 L 1037.01,7962.19 L 1037.36,7962.02 L 1039.52,7961.01 L 1053.5,7951.22 L 1065.57,7939.15 L 1075.36,7925.17 L 1082.57,7909.71 L 1086.99,7893.22 L 1088.48,7876.22 L 1086.99,7859.22 L 1082.57,7842.73 L 1075.36,7827.26 L 1065.57,7813.28 L 1053.5,7801.22 L 1039.52,7791.43 L 1037.36,7790.42 L 1031.85,7786.14 L 1028.75,7779.9 L 1028.66,7772.92 L 1031.61,7766.6 L 1037.01,7762.19 L 1037.36,7762.02 L 1039.52,7761.01 L 1053.5,7751.22 L 1065.57,7739.15 L 1075.36,7725.17 L 1082.57,7709.71 L 1086.99,7693.22 L 1088.48,7676.22 L 1086.99,7659.22 L 1082.57,7642.73 L 1075.36,7627.26 L 1065.57,7613.28 L 1053.5,7601.22 L 1039.52,7591.43 L 1037.36,7590.42 L 1031.85,7586.14 L 1028.75,7579.9 L 1028.66,7572.92 L 1031.61,7566.6 L 1037.01,7562.19 L 1037.36,7562.02 L 1039.52,7561.01 L 1053.5,7551.22 L 1065.57,7539.15 L 1066.34,7538.06 L 1071.51,7533.38 L 1078.2,7531.41 L 1079.17,7531.38 L 1534.43,7531.38 L 1535.37,7531.4 L 1539.92,7531.68 L 1544.41,7530.86 L 1545.34,7530.72 L 1549.86,7530.17 L 1550.11,7530.07 L 1552.84,7529.31 L 1553.1,7529.27 L 1557.25,7527.39 L 1558.13,7527.03 L 1562.39,7525.42 L 1562.6,7525.27 L 1565.07,7523.88 L 1565.15,7523.84 L 1565.31,7523.77 L 1568.9,7520.96 L 1569.66,7520.4 L 1573.41,7517.81 L 1576.43,7514.4 L 1577.08,7513.71 L 2018.06,7072.73 L 2018.74,7072.09 L 2022.16,7069.06 L 2024.74,7065.31 L 2025.3,7064.55 L 2028.12,7060.96 L 2028.22,7060.73 L 2029.62,7058.25 L 2029.76,7058.04 L 2031.38,7053.78 L 2031.74,7052.91 L 2033.61,7048.75 L 2033.66,7048.49 L 2034.42,7045.76 L 2034.43,7045.74 L 2034.51,7045.52 L 2035.06,7040.99 L 2035.21,7040.06 L 2036.03,7035.57 L 2035.75,7031.03 L 2035.72,7030.08 L 2035.72,5053.56 L 2037.28,5046.76 L 2040.31,5042.48 L 2056.9,5025.89 L 2074.34,5008.45 L 2080.24,5004.74 L 2087.17,5003.96 L 2093.75,5006.26 L 2098.25,5010.54 L 2100.49,5013.73 L 2113.05,5026.3 L 2126.03,5035.38 L 2130.71,5040.55 L 2132.68,5047.24 L 2131.55,5054.13 L 2127.55,5059.84 L 2126.03,5061.05 L 2113.05,5070.14 L 2100.49,5082.7 L 2090.3,5097.26 L 2082.79,5113.36 L 2078.19,5130.52 L 2076.64,5148.22 L 2078.19,5165.92 L 2082.79,5183.08 L 2090.3,5199.18 L 2100.49,5213.73 L 2113.05,5226.3 L 2126.03,5235.38 L 2130.71,5240.55 L 2132.68,5247.24 L 2131.55,5254.13 L 2127.55,5259.84 L 2126.03,5261.05 L 2113.05,5270.14 L 2100.49,5282.7 L 2090.3,5297.26 L 2082.79,5313.36 L 2078.19,5330.52 L 2076.64,5348.22 L 2078.19,5365.92 L 2082.79,5383.08 L 2090.3,5399.18 L 2100.49,5413.73 L 2113.05,5426.3 L 2127.6,5436.49 L 2143.71,5444 L 2149.43,5445.53 L 2160.87,5448.59 L 2178.57,5450.14 L 2196.26,5448.59 L 2213.43,5444 L 2229.53,5436.49 L 2244.08,5426.3 L 2256.64,5413.73 L 2266.83,5399.18 L 2274.34,5383.08 L 2278.94,5365.92 L 2280.49,5348.22 L 2278.94,5330.52 L 2274.34,5313.36 L 2266.83,5297.26 L 2256.64,5282.7 L 2244.08,5270.14 L 2231.1,5261.05 L 2226.42,5255.88 L 2224.45,5249.2 L 2225.58,5242.31 L 2229.58,5236.6 L 2231.1,5235.38 L 2236.73,5231.44 L 2244.08,5226.3 L 2256.64,5213.73 L 2266.83,5199.18 L 2274.34,5183.08 L 2278.94,5165.92 L 2280.49,5148.22 L 2278.94,5130.52 L 2274.34,5113.36 L 2266.83,5097.26 L 2256.64,5082.7 L 2244.08,5070.14 L 2231.1,5061.05 L 2226.42,5055.88 L 2224.45,5049.2 L 2225.58,5042.31 L 2229.58,5036.6 L 2231.1,5035.38 L 2236.73,5031.44 L 2244.08,5026.3 L 2256.64,5013.73 L 2266.83,4999.18 L 2274.34,4983.08 L 2278.94,4965.92 L 2280.49,4948.22 L 2278.94,4930.52 L 2274.34,4913.36 L 2266.83,4897.26 L 2256.64,4882.7 L 2244.08,4870.14 L 2231.1,4861.05 L 2226.42,4855.88 L 2224.45,4849.2 L 2225.58,4842.31 L 2229.58,4836.6 L 2231.1,4835.39 L 2244.08,4826.3 L 2256.64,4813.74 L 2266.83,4799.18 L 2274.34,4783.08 L 2278.94,4765.92 L 2280.49,4748.22 L 2278.94,4730.52 L 2274.34,4713.36 L 2266.83,4697.26 L 2256.64,4682.71 L 2244.08,4670.14 L 2236.73,4665 L 2231.1,4661.06 L 2226.42,4655.89 L 2224.45,4649.2 L 2225.58,4642.31 L 2229.58,4636.6 L 2231.1,4635.39 L 2244.08,4626.3 L 2256.64,4613.74 L 2266.83,4599.18 L 2274.34,4583.08 L 2278.94,4565.92 L 2280.49,4548.22 L 2278.94,4530.52 L 2274.34,4513.36 L 2266.83,4497.26 L 2256.64,4482.71 L 2244.08,4470.14 L 2236.73,4465 L 2231.1,4461.06 L 2226.42,4455.89 L 2224.45,4449.2 L 2225.58,4442.31 L 2229.58,4436.6 L 2231.1,4435.39 L 2244.08,4426.3 L 2256.64,4413.74 L 2266.83,4399.18 L 2274.34,4383.08 L 2278.94,4365.92 L 2280.49,4348.22 L 2278.94,4330.52 L 2274.34,4313.36 L 2266.83,4297.26 L 2256.64,4282.71 L 2244.08,4270.14 L 2229.53,4259.95 L 2213.43,4252.44 L 2196.26,4247.85 L 2178.57,4246.3 L 2160.87,4247.85 L 2149.43,4250.91 L 2143.71,4252.44 L 2127.6,4259.95 L 2113.05,4270.14 L 2100.49,4282.71 L 2090.3,4297.26 L 2082.79,4313.36 L 2078.19,4330.52 L 2076.64,4348.22 L 2078.19,4365.92 L 2082.79,4383.08 L 2090.3,4399.18 L 2100.49,4413.74 L 2113.05,4426.3 L 2126.03,4435.39 L 2130.71,4440.56 L 2132.68,4447.24 L 2131.55,4454.13 L 2127.55,4459.84 L 2126.03,4461.06 L 2113.05,4470.14 L 2100.49,4482.71 L 2090.3,4497.26 L 2082.79,4513.36 L 2078.19,4530.52 L 2076.64,4548.22 L 2078.19,4565.92 L 2082.79,4583.08 L 2090.3,4599.18 L 2100.49,4613.74 L 2113.05,4626.3 L 2126.03,4635.39 L 2130.71,4640.56 L 2132.68,4647.24 L 2131.55,4654.13 L 2127.55,4659.84 L 2126.03,4661.06 L 2113.05,4670.14 L 2100.49,4682.71 L 2090.3,4697.26 L 2082.79,4713.36 L 2078.19,4730.52 L 2076.64,4748.22 L 2078.19,4765.92 L 2082.79,4783.08 L 2090.3,4799.18 L 2100.49,4813.74 L 2113.05,4826.3 L 2126.03,4835.39 L 2130.71,4840.56 L 2132.68,4847.24 L 2131.55,4854.13 L 2127.55,4859.84 L 2126.03,4861.05 L 2113.05,4870.14 L 2100.49,4882.7 L 2097.91,4886.38 L 2092.74,4891.06 L 2086.05,4893.03 L 2085.08,4893.06 L 2058.71,4893.06 L 2057.76,4893.03 L 2057.73,4893.03 L 2057.23,4893 L 2053.21,4892.76 L 2048.73,4893.58 L 2047.79,4893.72 L 2043.27,4894.27 L 2043.02,4894.36 L 2040.29,4895.12 L 2040.04,4895.17 L 2035.88,4897.04 L 2035.01,4897.4 L 2030.74,4899.02 L 2030.53,4899.17 L 2028.06,4900.56 L 2027.82,4900.67 L 2024.23,4903.48 L 2023.47,4904.04 L 2019.72,4906.63 L 2016.7,4910.04 L 2016.05,4910.73 L 1943.08,4983.7 L 1942.39,4984.35 L 1938.98,4987.37 L 1936.39,4991.13 L 1935.83,4991.89 L 1933.02,4995.47 L 1932.91,4995.71 L 1931.52,4998.18 L 1931.37,4998.4 L 1929.75,5002.66 L 1929.39,5003.53 L 1927.52,5007.69 L 1927.47,5007.95 L 1926.71,5010.68 L 1926.62,5010.92 L 1926.07,5015.45 L 1925.93,5016.38 L 1925.1,5020.86 L 1925.38,5025.41 L 1925.41,5026.36 L 1925.41,7002.88 L 1923.86,7009.68 L 1920.82,7013.96 L 1518.31,7416.47 L 1512.4,7420.18 L 1507.23,7421.06 L 1079.17,7421.06 L 1072.37,7419.51 L 1066.92,7415.16 L 1066.34,7414.38 L 1065.57,7413.28 L 1053.5,7401.22 L 1039.52,7391.43 L 1037.36,7390.42 L 1031.85,7386.14 L 1028.75,7379.9 L 1028.66,7372.92 L 1031.61,7366.6 L 1037.01,7362.19 L 1037.36,7362.02 L 1039.52,7361.01 L 1053.5,7351.22 L 1065.57,7339.15 L 1066.34,7338.06 L 1071.51,7333.38 L 1078.2,7331.41 L 1079.17,7331.38 L 1402.43,7331.38 L 1403.37,7331.4 L 1407.92,7331.68 L 1412.41,7330.86 L 1413.34,7330.72 L 1417.86,7330.17 L 1418.11,7330.07 L 1420.84,7329.31 L 1421.1,7329.27 L 1425.25,7327.39 L 1426.13,7327.03 L 1430.39,7325.42 L 1430.6,7325.27 L 1433.07,7323.88 L 1433.15,7323.84 L 1433.31,7323.77 L 1436.9,7320.96 L 1437.66,7320.4 L 1441.41,7317.81 L 1444.43,7314.4 L 1445.08,7313.71 L 1854.06,6904.73 L 1854.74,6904.09 L 1858.16,6901.06 L 1860.75,6897.31 L 1861.3,6896.55 L 1864.12,6892.96 L 1864.22,6892.73 L 1865.62,6890.25 L 1865.76,6890.04 L 1867.38,6885.78 L 1867.74,6884.91 L 1869.61,6880.75 L 1869.66,6880.49 L 1870.42,6877.76 L 1870.51,6877.52 L 1871.06,6872.99 L 1871.21,6872.06 L 1872.03,6867.57 L 1871.75,6863.02 L 1871.72,6862.08 L 1871.72,3419.56 L 1873.28,3412.76 L 1876.31,3408.48 L 2050.82,3233.97 L 2056.73,3230.26 L 2061.9,3229.38 L 2314.83,3229.38 L 2321.63,3230.93 L 2327.08,3235.28 L 2327.66,3236.06 L 2328.85,3237.75 L 2341.03,3249.94 L 2355.15,3259.82 L 2370.76,3267.1 L 2387.4,3271.56 L 2404.57,3273.06 L 2421.73,3271.56 L 2438.37,3267.1 L 2453.99,3259.82 L 2468.1,3249.94 L 2480.28,3237.75 L 2490.16,3223.64 L 2497.45,3208.03 L 2501.9,3191.38 L 2503.41,3174.22 L 2501.9,3157.06 L 2497.45,3140.42 L 2490.16,3124.8 L 2480.28,3110.69 L 2468.1,3098.5 L 2457.91,3091.37 L 2453.99,3088.62 L 2452.56,3087.96 L 2447.05,3083.68 L 2443.95,3077.43 L 2443.86,3070.46 L 2446.81,3064.14 L 2451.48,3060.31 L 2451.39,3060.16 L 2451.99,3059.82 L 2466.1,3049.94 L 2478.28,3037.75 L 2488.16,3023.64 L 2495.45,3008.03 L 2499.9,2991.38 L 2501.41,2974.22 L 2499.9,2957.06 L 2495.45,2940.42 L 2488.16,2924.8 L 2478.28,2910.69 L 2466.1,2898.5 L 2451.99,2888.62 L 2436.37,2881.34 L 2419.73,2876.88 L 2402.57,2875.38 L 2385.4,2876.88 L 2368.76,2881.34 L 2361.72,2884.62 L 2353.15,2888.62 L 2339.03,2898.5 L 2330.85,2906.69 L 2326.85,2910.69 L 2325.66,2912.38 L 2320.49,2917.06 L 2313.8,2919.03 L 2312.83,2919.06 L 2014.71,2919.06 L 2013.76,2919.03 L 2009.21,2918.76 L 2004.73,2919.58 L 2003.79,2919.72 L 1999.27,2920.27 L 1999.03,2920.37 L 1996.29,2921.13 L 1996.04,2921.17 L 1991.88,2923.05 L 1991.01,2923.41 L 1986.74,2925.02 L 1986.53,2925.17 L 1984.06,2926.56 L 1983.82,2926.67 L 1980.23,2929.48 L 1979.47,2930.04 L 1975.72,2932.63 L 1972.7,2936.04 L 1972.05,2936.73 L 1603.08,3305.71 L 1602.39,3306.35 L 1598.98,3309.38 L 1596.39,3313.13 L 1595.83,3313.89 L 1594.32,3315.81 L 1593.02,3317.48 L 1592.91,3317.72 L 1591.52,3320.18 L 1591.37,3320.4 L 1589.75,3324.66 L 1589.39,3325.53 L 1587.92,3328.79 L 1587.52,3329.69 L 1587.47,3329.95 L 1586.71,3332.68 L 1586.62,3332.92 L 1586.07,3337.45 L 1585.93,3338.38 L 1585.1,3342.87 L 1585.38,3347.42 L 1585.41,3348.36 L 1585.41,6708.88 L 1583.86,6715.68 L 1580.82,6719.96 L 1284.31,7016.47 L 1278.41,7020.18 L 1273.23,7021.06 L 1079.17,7021.06 L 1072.37,7019.51 L 1066.92,7015.16 L 1066.34,7014.38 L 1065.57,7013.28 L 1053.5,7001.22 L 1039.52,6991.43 L 1037.36,6990.42 L 1031.85,6986.14 L 1028.75,6979.9 L 1028.66,6972.92 L 1031.61,6966.6 L 1037.01,6962.19 L 1037.36,6962.02 L 1039.52,6961.01 L 1053.5,6951.22 L 1065.57,6939.15 L 1066.34,6938.06 L 1071.51,6933.38 L 1078.2,6931.41 L 1079.17,6931.38 L 1222.43,6931.38 L 1223.37,6931.4 L 1227.92,6931.68 L 1232.41,6930.86 L 1233.34,6930.72 L 1237.86,6930.17 L 1238.11,6930.07 L 1240.84,6929.31 L 1241.1,6929.27 L 1245.25,6927.39 L 1246.13,6927.03 L 1250.39,6925.42 L 1250.6,6925.27 L 1253.07,6923.88 L 1253.21,6923.82 L 1253.31,6923.77 L 1256.9,6920.96 L 1257.66,6920.4 L 1261.41,6917.81 L 1264.43,6914.4 L 1265.08,6913.71 L 1319.57,6859.22 L 1504.06,6674.73 L 1504.74,6674.09 L 1508.16,6671.06 L 1510.75,6667.31 L 1511.3,6666.55 L 1514.12,6662.96 L 1514.22,6662.73 L 1515.62,6660.25 L 1515.76,6660.04 L 1517.38,6655.78 L 1517.74,6654.91 L 1519.61,6650.75 L 1519.66,6650.49 L 1520.42,6647.76 L 1520.51,6647.52 L 1521.06,6642.99 L 1521.2,6642.06 L 1522.03,6637.57 L 1521.75,6633.02 L 1521.72,6632.08 L 1521.72,2303.56 L 1523.28,2296.76 L 1526.31,2292.48 L 1780.82,2037.97 L 1786.73,2034.26 L 1791.9,2033.38 L 2312.83,2033.38 L 2319.63,2034.93 L 2325.08,2039.28 L 2325.66,2040.06 L 2326.85,2041.75 L 2339.03,2053.94 L 2353.15,2063.82 L 2368.76,2071.1 L 2385.4,2075.56 L 2402.57,2077.06 L 2419.73,2075.56 L 2436.37,2071.1 L 2451.99,2063.82 L 2466.1,2053.94 L 2478.28,2041.75 L 2488.16,2027.64 L 2495.45,2012.03 L 2499.9,1995.38 L 2501.41,1978.22 L 2499.9,1961.06 L 2495.45,1944.42 L 2488.16,1928.8 L 2478.28,1914.69 L 2466.1,1902.5 L 2451.99,1892.62 L 2436.37,1885.34 L 2419.73,1880.88 L 2402.57,1879.38 L 2385.4,1880.88 L 2368.76,1885.34 L 2353.15,1892.62 L 2339.03,1902.5 L 2326.85,1914.69 L 2325.66,1916.38 L 2320.49,1921.06 L 2313.8,1923.03 L 2312.83,1923.06 L 1764.71,1923.06 L 1763.76,1923.03 L 1759.21,1922.76 L 1754.73,1923.58 L 1753.79,1923.72 L 1749.27,1924.27 L 1749.03,1924.37 L 1746.29,1925.13 L 1746.04,1925.17 L 1741.88,1927.05 L 1741.01,1927.41 L 1736.74,1929.02 L 1736.53,1929.17 L 1734.06,1930.56 L 1733.82,1930.67 L 1732.37,1931.81 L 1730.23,1933.48 L 1729.47,1934.04 L 1725.72,1936.63 L 1722.7,1940.04 L 1722.05,1940.73 L 1429.08,2233.71 L 1428.39,2234.35 L 1424.98,2237.38 L 1422.39,2241.13 L 1421.83,2241.89 L 1420.32,2243.81 L 1419.02,2245.48 L 1418.91,2245.72 L 1417.52,2248.18 L 1417.37,2248.4 L 1415.75,2252.66 L 1415.39,2253.53 L 1413.92,2256.79 L 1413.52,2257.69 L 1413.47,2257.95 L 1412.71,2260.68 L 1412.62,2260.92 L 1412.07,2265.45 L 1411.93,2266.38 L 1411.1,2270.87 L 1411.38,2275.42 L 1411.41,2276.36 L 1411.41,6604.88 L 1409.86,6611.68 L 1406.82,6615.96 L 1206.31,6816.47 L 1200.41,6820.18 L 1195.23,6821.06 L 1079.17,6821.06 L 1072.37,6819.51 L 1066.92,6815.16 L 1066.34,6814.38 L 1065.57,6813.28 L 1053.5,6801.22 L 1039.52,6791.43 L 1037.36,6790.42 L 1031.85,6786.14 L 1028.75,6779.9 L 1028.66,6772.92 L 1031.61,6766.6 L 1037.01,6762.19 L 1037.36,6762.02 L 1039.52,6761.01 L 1053.5,6751.22 L 1065.57,6739.15 L 1066.34,6738.06 L 1071.51,6733.38 L 1078.2,6731.41 L 1079.17,6731.38 L 1170.43,6731.38 L 1171.37,6731.4 L 1175.92,6731.68 L 1180.41,6730.86 L 1181.34,6730.72 L 1185.86,6730.17 L 1186.11,6730.07 L 1188.84,6729.31 L 1189.1,6729.27 L 1193.25,6727.39 L 1194.13,6727.03 L 1198.39,6725.42 L 1198.6,6725.27 L 1201.07,6723.88 L 1201.21,6723.82 L 1201.31,6723.77 L 1204.9,6720.96 L 1205.66,6720.4 L 1209.41,6717.81 L 1212.43,6714.4 L 1213.08,6713.71 L 1340.06,6586.74 L 1340.75,6586.09 L 1344.16,6583.06 L 1346.75,6579.31 L 1347.31,6578.55 L 1350.12,6574.96 L 1350.22,6574.73 L 1351.62,6572.26 L 1351.77,6572.04 L 1353.38,6567.78 L 1353.74,6566.9 L 1355.61,6562.75 L 1355.66,6562.49 L 1356.42,6559.76 L 1356.52,6559.52 L 1357.07,6554.99 L 1357.21,6554.06 L 1358.03,6549.57 L 1357.75,6545.02 L 1357.73,6544.08 L 1357.73,5182.36 L 1357.75,5181.41 L 1358.03,5176.86 L 1357.21,5172.38 L 1357.07,5171.45 L 1356.52,5166.92 L 1356.42,5166.68 L 1355.66,5163.95 L 1355.61,5163.69 L 1353.74,5159.53 L 1353.38,5158.66 L 1351.77,5154.4 L 1351.62,5154.18 L 1350.22,5151.71 L 1350.12,5151.47 L 1347.31,5147.89 L 1346.75,5147.12 L 1344.16,5143.37 L 1340.75,5140.35 L 1340.06,5139.7 L 1111.08,4910.73 L 1110.43,4910.04 L 1107.41,4906.63 L 1103.66,4904.04 L 1102.9,4903.48 L 1099.31,4900.67 L 1099.07,4900.56 L 1096.6,4899.17 L 1096.39,4899.02 L 1092.13,4897.41 L 1091.26,4897.04 L 1087.1,4895.17 L 1086.84,4895.12 L 1084.11,4894.36 L 1083.86,4894.27 L 1079.34,4893.72 L 1078.41,4893.58 L 1073.92,4892.76 L 1069.78,4893.01 L 1069.4,4893.03 L 1069.37,4893.03 L 1068.43,4893.06 L 872.054,4893.06 L 865.256,4891.51 L 859.804,4887.16 L 859.22,4886.38 L 856.646,4882.7 L 844.084,4870.14 L 829.53,4859.95 L 825.894,4858.26 L 820.39,4853.98 L 817.286,4847.73 L 817.186,4840.82 L 818.83,4833.03 L 800.246,4814.44 L 792.223,4816.88 L 778.567,4818.22 L 764.911,4816.88 L 756.89,4814.44 L 738.306,4833.03 L 739.95,4840.82 L 739.836,4847.8 L 736.706,4854.03 L 731.24,4858.26 L 729.702,4858.97 L 727.606,4859.95 L 713.052,4870.14 L 700.49,4882.7 L 690.3,4897.26 L 682.792,4913.36 L 678.192,4930.52 L 676.644,4948.22 L 678.192,4965.92 L 682.792,4983.08 L 690.3,4999.18 L 700.49,5013.73 L 713.052,5026.3 L 720.402,5031.44 L 726.03,5035.38 L 730.708,5040.55 L 732.682,5047.24 L 731.556,5054.13 L 727.556,5059.84 L 726.03,5061.05 L 713.052,5070.14 L 700.49,5082.7 L 690.3,5097.26 L 682.792,5113.36 L 678.192,5130.52 L 676.644,5148.22 L 678.192,5165.92 L 682.792,5183.08 L 690.3,5199.18 L 700.49,5213.73 L 713.052,5226.3 L 720.402,5231.44 L 726.03,5235.38 L 730.708,5240.55 L 732.682,5247.24 L 731.556,5254.13 L 727.556,5259.84 L 726.03,5261.05 L 713.052,5270.14 L 700.49,5282.7 L 690.3,5297.26 L 682.792,5313.36 L 678.192,5330.52 L 676.644,5348.22 L 678.192,5365.92 L 682.792,5383.08 L 690.3,5399.18 L 700.49,5413.73 L 713.052,5426.3 L 727.606,5436.49 L 743.708,5444 L 760.868,5448.59 L 778.568,5450.14 L 796.266,5448.59 L 807.708,5445.53 L 813.428,5444 L 829.53,5436.49 L 844.084,5426.3 L 856.646,5413.73 L 866.836,5399.18 L 874.344,5383.08 L 878.942,5365.92 L 880.492,5348.22 L 878.942,5330.52 L 874.344,5313.36 L 866.836,5297.26 L 856.646,5282.7 L 844.082,5270.14 L 831.106,5261.05 L 826.426,5255.88 L 824.454,5249.2 L 825.58,5242.31 L 829.58,5236.6 L 831.106,5235.38 L 844.082,5226.3 L 856.646,5213.73 L 859.22,5210.06 L 864.39,5205.38 L 871.078,5203.41 L 872.054,5203.38 L 959.23,5203.38 L 966.03,5204.93 L 970.31,5207.97 L 1092.82,5330.48 L 1096.53,5336.38 L 1097.41,5341.56 L 1097.41,6009.06 L 1095.86,6015.86 L 1091.51,6021.31 L 1085.23,6024.34 L 1078.25,6024.34 L 1071.97,6021.31 L 1068.91,6018.05 L 1065.57,6013.28 L 1053.5,6001.22 L 1039.52,5991.43 L 1024.05,5984.22 L 1007.57,5979.8 L 990.568,5978.31 L 973.566,5979.8 L 957.082,5984.22 L 953.23,5986.01 L 941.614,5991.43 L 927.634,6001.22 L 915.566,6013.28 L 914.8,6014.38 L 909.628,6019.06 L 902.94,6021.03 L 901.964,6021.06 L 822.708,6021.06 L 821.762,6021.03 L 821.018,6020.99 L 817.212,6020.76 L 812.73,6021.58 L 811.796,6021.72 L 808.854,6022.08 L 807.27,6022.27 L 807.026,6022.36 L 804.296,6023.12 L 804.038,6023.17 L 799.882,6025.04 L 799.01,6025.4 L 796.216,6026.46 L 794.746,6027.02 L 794.532,6027.17 L 792.062,6028.56 L 791.822,6028.67 L 790.474,6029.73 L 784.164,6032.7 L 780.81,6033.06 L 738.906,6033.06 L 732.108,6031.51 L 726.654,6027.16 L 726.418,6026.84 L 726.284,6026.69 L 714.102,6014.5 L 699.988,6004.62 L 684.374,5997.34 L 667.732,5992.88 L 650.568,5991.38 L 633.404,5992.88 L 616.762,5997.34 L 601.148,6004.62 L 587.034,6014.5 L 574.852,6026.69 L 573.462,6028.67 L 564.97,6040.8 L 557.688,6056.41 L 553.228,6073.06 L 551.728,6090.22 L 553.228,6107.38 L 557.688,6124.02 L 564.856,6139.39 L 564.97,6139.64 L 566.14,6141.31 L 574.852,6153.75 L 587.034,6165.94 L 601.148,6175.82 L 601.19,6175.85 L 605.87,6181.02 L 607.842,6187.71 L 606.718,6194.59 L 602.718,6200.3 L 596.636,6203.71 L 592.204,6204.35 L 581.158,6204.35 L 574.942,6205.34 L 573.772,6205.52 L 564.872,6210.06 L 557.808,6217.12 L 554.724,6223.17 L 553.272,6226.02 L 552.104,6233.41 L 552.104,6372.23 L 553.272,6379.61 L 557.808,6388.51 L 564.872,6395.58 L 565.87,6396.3 L 565.814,6396.38 L 570.184,6400.03 L 573.068,6406.38 L 572.912,6413.35 L 569.746,6419.56 L 564.198,6423.78 L 557.718,6425.19 L 535.016,6425.19 L 528.218,6423.64 L 522.766,6419.29 L 519.74,6413 L 519.348,6409.52 L 519.348,4748.22 L 519.348,4561.34 L 520.9,4554.54 L 523.936,4550.26 L 642.61,4431.59 L 648.514,4427.88 L 653.69,4427 L 709.114,4427 L 715.914,4428.55 L 718.102,4429.83 L 726.03,4435.39 L 730.708,4440.56 L 732.682,4447.24 L 731.556,4454.13 L 727.556,4459.84 L 726.03,4461.06 L 720.402,4465 L 713.052,4470.14 L 700.49,4482.71 L 690.3,4497.26 L 682.792,4513.36 L 678.192,4530.52 L 676.644,4548.22 L 678.192,4565.92 L 682.792,4583.08 L 690.3,4599.18 L 700.49,4613.74 L 713.052,4626.3 L 727.606,4636.49 L 731.24,4638.18 L 736.746,4642.46 L 739.85,4648.71 L 739.95,4655.62 L 738.306,4663.42 L 756.889,4682 L 764.911,4679.57 L 778.567,4678.22 L 792.223,4679.57 L 800.247,4682 L 818.83,4663.42 L 817.186,4655.62 L 817.3,4648.65 L 820.43,4642.41 L 825.894,4638.18 L 829.53,4636.49 L 844.084,4626.3 L 856.646,4613.74 L 866.836,4599.18 L 874.344,4583.08 L 878.942,4565.92 L 880.492,4548.22 L 878.942,4530.52 L 874.344,4513.36 L 866.836,4497.26 L 856.646,4482.71 L 844.082,4470.14 L 831.106,4461.06 L 826.426,4455.89 L 824.454,4449.2 L 825.58,4442.31 L 829.58,4436.6 L 831.106,4435.39 L 844.082,4426.3 L 856.646,4413.74 L 866.836,4399.18 L 874.344,4383.08 L 878.942,4365.92 L 880.492,4348.22 L 878.942,4330.52 L 874.344,4313.36 L 870.816,4305.79 L 869.348,4299.17 L 869.348,3133.42 L 869.352,3133.02 L 869.526,3126.21 L 868.746,3121.86 L 868.58,3120.68 L 868.132,3116.28 L 867.528,3114.35 L 867.056,3112.43 L 866.698,3110.44 L 865.058,3106.33 L 864.66,3105.21 L 863.336,3100.99 L 862.356,3099.23 L 861.504,3097.43 L 860.754,3095.56 L 858.322,3091.87 L 857.706,3090.85 L 855.56,3086.98 L 854.244,3085.45 L 853.05,3083.87 L 851.938,3082.18 L 848.812,3079.05 L 848.004,3078.18 L 845.124,3074.83 L 843.526,3073.59 L 842.038,3072.28 L 685.122,2915.36 L 684.846,2915.08 L 680.148,2910.14 L 676.518,2907.61 L 675.568,2906.9 L 672.144,2904.1 L 670.352,2903.17 L 668.656,2902.14 L 666.996,2900.99 L 665.504,2900.34 L 662.934,2899.24 L 661.86,2898.73 L 657.942,2896.68 L 655.998,2896.13 L 654.132,2895.46 L 652.274,2894.67 L 647.944,2893.78 L 646.788,2893.49 L 646.578,2893.43 L 642.538,2892.28 L 640.522,2892.12 L 638.558,2891.85 L 637.296,2891.59 L 636.578,2891.44 L 632.16,2891.44 L 630.97,2891.4 L 630.65,2891.37 L 626.562,2891.06 L 624.934,2891.27 L 624.556,2891.32 L 622.578,2891.44 L 430.668,2891.44 L 423.868,2889.89 L 421.68,2888.61 L 415.988,2884.62 L 400.374,2877.34 L 383.732,2872.88 L 366.568,2871.38 L 349.404,2872.88 L 332.762,2877.34 L 317.148,2884.62 L 303.034,2894.5 L 290.852,2906.69 L 280.97,2920.8 L 273.688,2936.42 L 269.228,2953.06 L 267.728,2970.22M 565.384,6721.72 L 565.77,6723.07 L 573.25,6738.09 L 583.362,6751.48 L 595.764,6762.79 L 610.032,6771.62 L 619.072,6775.13 L 619.072,6748.91 L 613.383,6745.87 L 603.241,6737.55 L 594.917,6727.4 L 591.877,6721.72 L 565.384,6721.72M 682.064,6775.13 L 691.102,6771.62 L 705.37,6762.79 L 717.772,6751.48 L 727.886,6738.09 L 735.366,6723.07 L 735.752,6721.72 L 709.257,6721.72 L 706.216,6727.4 L 697.893,6737.55 L 687.751,6745.87 L 682.064,6748.91 L 682.064,6775.13M 684.544,4748.22 L 686.146,4765.5 L 690.894,4782.19 L 693.942,4788.31 L 712.346,4769.9 L 709.912,4761.88 L 708.567,4748.22 L 709.912,4734.56 L 712.346,4726.54 L 693.942,4708.14 L 690.894,4714.26 L 686.146,4730.94 L 684.544,4748.22M 844.788,4769.9 L 863.194,4788.31 L 866.242,4782.19 L 870.99,4765.5 L 872.59,4748.22 L 870.99,4730.94 L 866.242,4714.26 L 863.194,4708.14 L 844.789,4726.54 L 847.222,4734.56 L 848.567,4748.22 L 847.222,4761.88 L 844.788,4769.9M 892.66,8676.22 L 894.148,8693.22 L 898.564,8709.71 L 905.776,8725.17 L 915.566,8739.15 L 927.634,8751.22 L 941.614,8761.01 L 957.082,8768.22 L 973.566,8772.64 L 990.568,8774.13 L 1007.57,8772.64 L 1011.54,8771.58 L 1024.05,8768.22 L 1034.11,8763.54 L 1039.52,8761.01 L 1053.5,8751.22 L 1065.57,8739.15 L 1075.36,8725.17 L 1082.57,8709.71 L 1086.99,8693.22 L 1088.48,8676.22 L 1086.99,8659.22 L 1082.57,8642.73 L 1075.36,8627.26 L 1065.57,8613.28 L 1053.5,8601.22 L 1039.52,8591.43 L 1028.25,8586.17 L 1022.75,8581.89 L 1019.64,8575.65 L 1019.55,8568.68 L 1022.5,8562.36 L 1027.7,8558.1 L 1027.74,8557.93 L 1009.06,8539.25 L 1003.44,8540.95 L 990.567,8542.22 L 977.691,8540.95 L 972.08,8539.25 L 953.398,8557.93 L 953.502,8558.43 L 957.702,8561.26 L 961.216,8567.29 L 961.766,8574.24 L 959.248,8580.74 L 954.156,8585.51 L 952.884,8586.17 L 941.614,8591.43 L 927.634,8601.22 L 915.566,8613.28 L 905.776,8627.26 L 898.564,8642.73 L 894.148,8659.22 L 892.66,8676.22M 900.562,8476.22 L 902.094,8492.76 L 906.64,8508.73 L 908.924,8513.32 L 927.537,8494.71 L 925.835,8489.1 L 924.567,8476.22 L 925.835,8463.34 L 927.538,8457.73 L 908.924,8439.12 L 906.64,8443.71 L 902.094,8459.68 L 900.562,8476.22M 1053.6,8457.73 L 1055.3,8463.34 L 1056.57,8476.22 L 1055.3,8489.1 L 1053.6,8494.71 L 1072.21,8513.32 L 1074.5,8508.73 L 1079.04,8492.76 L 1080.57,8476.22 L 1079.04,8459.68 L 1074.5,8443.71 L 1072.21,8439.12 L 1053.6,8457.73 z " style="fill-opacity:1.000000;fill:rgb(103,198,105);stroke:rgb(0,0,0);stroke-width:2"/></g>
<g fill-rule="evenodd"><path d="M 299.638,2970.22 L 300.924,2957.16 L 304.732,2944.61 L 310.917,2933.04 L 319.241,2922.89 L 329.383,2914.57 L 340.954,2908.39 L 353.51,2904.58 L 366.567,2903.29 L 379.624,2904.58 L 392.18,2908.39 L 403.751,2914.57 L 413.893,2922.89 L 413.96,2922.98 L 628.568,2922.98 L 637.785,2923.88 L 646.648,2926.57 L 654.816,2930.94 L 661.975,2936.81 L 823.975,3098.81 L 829.85,3105.97 L 834.216,3114.14 L 836.904,3123 L 837.812,3132.22 L 837.812,4311.28 L 843.238,4321.43 L 847.222,4334.56 L 848.567,4348.22 L 847.222,4361.88 L 843.238,4375.01 L 836.77,4387.11 L 828.064,4397.72 L 817.457,4406.42 L 805.355,4412.89 L 792.223,4416.88 L 778.567,4418.22 L 764.911,4416.88 L 751.779,4412.89 L 739.677,4406.42 L 729.069,4397.72 L 727.22,4395.46 L 634.137,4395.46 L 487.812,4541.79 L 487.812,6456.72 L 592.946,6456.72 L 594.917,6453.04 L 603.241,6442.89 L 613.383,6434.57 L 624.954,6428.39 L 637.51,6424.58 L 650.567,6423.29 L 663.624,6424.58 L 676.18,6428.39 L 687.751,6434.57 L 697.893,6442.89 L 706.216,6453.04 L 712.401,6464.61 L 716.21,6477.16 L 717.496,6490.22 L 716.21,6503.28 L 712.401,6515.83 L 706.216,6527.4 L 697.893,6537.55 L 687.751,6545.87 L 676.18,6552.05 L 663.624,6555.86 L 650.567,6557.15 L 637.51,6555.86 L 624.954,6552.05 L 613.383,6545.87 L 603.241,6537.55 L 594.917,6527.4 L 590.808,6519.72 L 487.812,6519.72 L 487.812,8448.65 L 888.137,8848.98 L 1109,8848.98 L 1915.16,8042.81 L 1920.8,8038 L 1927.12,8034.13 L 1933.97,8031.29 L 1941.18,8029.56 L 1948.57,8028.98 L 2144.6,8028.98 L 2153.9,8021.34 L 2165.31,8015.24 L 2177.69,8011.49 L 2190.57,8010.22 L 2203.44,8011.49 L 2215.82,8015.24 L 2227.23,8021.34 L 2237.24,8029.55 L 2245.44,8039.55 L 2251.54,8050.96 L 2255.3,8063.34 L 2256.57,8076.22 L 2255.3,8089.1 L 2251.54,8101.48 L 2245.44,8112.89 L 2237.24,8122.89 L 2227.23,8131.1 L 2215.82,8137.2 L 2203.44,8140.95 L 2190.57,8142.22 L 2177.69,8140.95 L 2165.31,8137.2 L 2153.9,8131.1 L 2144.6,8123.46 L 1968.14,8123.46 L 1161.97,8929.63 L 1156.34,8934.44 L 1150.02,8938.32 L 1143.17,8941.15 L 1135.96,8942.88 L 1128.57,8943.46 L 868.568,8943.46 L 859.351,8942.56 L 850.489,8939.87 L 842.321,8935.5 L 835.162,8929.63 L 407.162,8501.63 L 401.286,8494.47 L 396.92,8486.3 L 394.232,8477.44 L 393.324,8468.22 L 393.324,4522.22 L 394.232,4513 L 396.92,4504.14 L 401.286,4495.97 L 407.162,4488.81 L 581.162,4314.81 L 588.321,4308.94 L 596.489,4304.57 L 605.351,4301.88 L 614.568,4300.98 L 727.22,4300.98 L 729.069,4298.72 L 739.677,4290.02 L 743.324,4288.07 L 743.324,3151.79 L 608.999,3017.46 L 413.96,3017.46 L 413.893,3017.55 L 403.751,3025.87 L 392.18,3032.05 L 379.624,3035.86 L 366.567,3037.15 L 353.51,3035.86 L 340.954,3032.05 L 329.383,3025.87 L 319.241,3017.55 L 310.917,3007.4 L 304.732,2995.83 L 300.924,2983.28 L 299.638,2970.22 z " style="fill-opacity:1.000000;fill:rgb(115,81,255);stroke:rgb(0,0,0);stroke-width:2"/></g>
<g fill-rule="evenodd"><path d="M 583.638,6369.75 L 583.638,6235.89 L 717.496,6235.89 L 717.496,6277.2 L 798.784,6277.2 L 816.463,6259.52 L 819.281,6257.11 L 822.442,6255.17 L 825.867,6253.75 L 829.471,6252.89 L 833.166,6252.6 L 929.095,6252.6 L 929.591,6250.96 L 935.69,6239.55 L 943.898,6229.55 L 953.899,6221.34 L 965.31,6215.24 L 977.691,6211.49 L 990.567,6210.22 L 1003.44,6211.49 L 1015.82,6215.24 L 1027.23,6221.34 L 1037.24,6229.55 L 1045.44,6239.55 L 1051.54,6250.96 L 1055.3,6263.34 L 1056.57,6276.22 L 1055.3,6289.1 L 1051.54,6301.48 L 1045.44,6312.89 L 1037.24,6322.89 L 1027.23,6331.1 L 1015.82,6337.2 L 1003.44,6340.95 L 990.567,6342.22 L 977.691,6340.95 L 965.31,6337.2 L 953.899,6331.1 L 943.898,6322.89 L 935.69,6312.89 L 929.591,6301.48 L 929.095,6299.84 L 842.951,6299.84 L 825.271,6317.52 L 822.453,6319.93 L 819.292,6321.87 L 815.868,6323.28 L 812.263,6324.15 L 808.568,6324.44 L 717.496,6324.44 L 717.496,6369.75 L 583.638,6369.75 z " style="fill-opacity:1.000000;fill:rgb(74,236,41);stroke:rgb(0,0,0);stroke-width:2"/></g>
<g fill-rule="evenodd"><path d="M 583.638,6090.22 L 584.924,6077.16 L 588.732,6064.61 L 594.917,6053.04 L 603.241,6042.89 L 613.383,6034.57 L 624.954,6028.39 L 637.51,6024.58 L 650.567,6023.29 L 663.624,6024.58 L 676.18,6028.39 L 687.751,6034.57 L 697.893,6042.89 L 706.216,6053.04 L 712.396,6064.6 L 798.784,6064.6 L 803.865,6059.52 L 806.683,6057.11 L 809.844,6055.17 L 813.269,6053.75 L 816.873,6052.89 L 820.568,6052.6 L 929.095,6052.6 L 929.591,6050.96 L 935.69,6039.55 L 943.898,6029.55 L 953.899,6021.34 L 965.31,6015.24 L 977.691,6011.49 L 990.567,6010.22 L 1003.44,6011.49 L 1015.82,6015.24 L 1027.23,6021.34 L 1037.24,6029.55 L 1045.44,6039.55 L 1051.54,6050.96 L 1055.3,6063.34 L 1056.57,6076.22 L 1055.3,6089.1 L 1051.54,6101.48 L 1045.44,6112.89 L 1037.24,6122.89 L 1027.23,6131.1 L 1015.82,6137.2 L 1003.44,6140.95 L 990.567,6142.22 L 977.691,6140.95 L 965.31,6137.2 L 953.899,6131.1 L 943.898,6122.89 L 935.69,6112.89 L 929.591,6101.48 L 929.095,6099.84 L 830.353,6099.84 L 825.271,6104.92 L 822.453,6107.33 L 819.292,6109.27 L 815.868,6110.69 L 812.263,6111.55 L 808.568,6111.84 L 713.612,6111.84 L 712.401,6115.83 L 706.216,6127.4 L 697.893,6137.55 L 687.751,6145.87 L 676.18,6152.05 L 663.624,6155.86 L 650.567,6157.15 L 637.51,6155.86 L 624.954,6152.05 L 613.383,6145.87 L 603.241,6137.55 L 594.917,6127.4 L 588.732,6115.83 L 584.924,6103.28 L 583.638,6090.22 z " style="fill-opacity:1.000000;fill:rgb(205,186,171);stroke:rgb(0,0,0);stroke-width:2"/></g>
<g fill-rule="evenodd"><path d="M 693.656,6192.17 L 693.656,6185.2 L 696.682,6178.91 L 699.944,6175.85 L 714.102,6165.94 L 719.436,6160.6 L 726.284,6153.75 L 728.872,6150.06 L 734.042,6145.38 L 740.73,6143.41 L 741.706,6143.38 L 806.428,6143.38 L 807.374,6143.4 L 811.922,6143.68 L 816.408,6142.86 L 817.342,6142.72 L 821.864,6142.17 L 822.108,6142.07 L 824.842,6141.31 L 825.098,6141.27 L 829.254,6139.39 L 830.128,6139.03 L 834.39,6137.42 L 834.604,6137.27 L 837.074,6135.88 L 837.208,6135.82 L 837.312,6135.77 L 838.662,6134.71 L 844.97,6131.74 L 848.326,6131.38 L 901.964,6131.38 L 908.762,6132.93 L 914.214,6137.28 L 914.8,6138.06 L 915.566,6139.15 L 927.634,6151.22 L 941.614,6161.01 L 943.776,6162.02 L 949.282,6166.3 L 952.384,6172.54 L 952.472,6179.51 L 949.524,6185.84 L 944.128,6190.25 L 943.778,6190.42 L 941.614,6191.43 L 927.634,6201.22 L 915.566,6213.28 L 914.8,6214.38 L 909.628,6219.06 L 902.94,6221.03 L 901.964,6221.06 L 835.306,6221.06 L 834.36,6221.03 L 833.616,6220.99 L 829.812,6220.76 L 825.328,6221.58 L 824.394,6221.72 L 821.452,6222.08 L 819.868,6222.27 L 819.624,6222.36 L 816.894,6223.12 L 816.636,6223.17 L 812.482,6225.04 L 811.606,6225.4 L 807.344,6227.02 L 807.13,6227.17 L 804.66,6228.56 L 804.422,6228.67 L 800.836,6231.48 L 800.072,6232.04 L 796.322,6234.63 L 793.3,6238.04 L 792.65,6238.73 L 790.31,6241.07 L 784.406,6244.78 L 779.23,6245.66 L 764.356,6245.66 L 757.558,6244.11 L 752.106,6239.76 L 749.08,6233.48 L 748.88,6232.44 L 748.728,6231.48 L 747.862,6226.02 L 743.328,6217.12 L 736.264,6210.06 L 727.364,6205.52 L 719.978,6204.35 L 708.932,6204.35 L 702.134,6202.8 L 696.682,6198.45 L 693.656,6192.17 z " style="fill-opacity:1.000000;fill:rgb(242,251,227);stroke:rgb(0,0,0);stroke-width:2"/></g>
<g fill-rule="evenodd"><path d="M 708.567,5348.22 L 709.912,5334.56 L 713.895,5321.43 L 720.364,5309.33 L 729.069,5298.72 L 739.677,5290.02 L 751.779,5283.55 L 764.911,5279.57 L 778.567,5278.22 L 792.223,5279.57 L 805.355,5283.55 L 817.457,5290.02 L 828.064,5298.72 L 836.77,5309.33 L 843.238,5321.43 L 847.222,5334.56 L 848.567,5348.22 L 847.222,5361.88 L 843.238,5375.01 L 836.77,5387.11 L 828.064,5397.72 L 817.457,5406.42 L 805.355,5412.89 L 792.223,5416.88 L 778.567,5418.22 L 764.911,5416.88 L 751.779,5412.89 L 739.677,5406.42 L 729.069,5397.72 L 720.364,5387.11 L 713.895,5375.01 L 709.912,5361.88 L 708.567,5348.22 z " style="fill-opacity:1.000000;fill:rgb(70,124,194);stroke:rgb(0,0,0);stroke-width:2"/></g>
<g fill-rule="evenodd"><path d="M 708.567,5148.22 L 709.912,5134.56 L 713.895,5121.43 L 720.364,5109.33 L 729.069,5098.72 L 739.677,5090.02 L 751.779,5083.55 L 764.911,5079.57 L 778.567,5078.22 L 792.223,5079.57 L 805.355,5083.55 L 817.457,5090.02 L 828.064,5098.72 L 836.77,5109.33 L 843.238,5121.43 L 844.199,5124.6 L 988.568,5124.6 L 993.177,5125.05 L 997.608,5126.4 L 1001.69,5128.58 L 1005.27,5131.52 L 1169.27,5295.52 L 1171.68,5298.34 L 1173.62,5301.5 L 1175.03,5304.92 L 1175.9,5308.53 L 1176.19,5312.22 L 1176.19,6430.22 L 1175.9,6433.92 L 1175.03,6437.52 L 1173.62,6440.94 L 1171.68,6444.11 L 1169.27,6446.92 L 1123.27,6492.92 L 1119.69,6495.86 L 1115.61,6498.04 L 1111.18,6499.39 L 1106.57,6499.84 L 1052.04,6499.84 L 1051.54,6501.48 L 1045.44,6512.89 L 1037.24,6522.89 L 1027.23,6531.1 L 1015.82,6537.2 L 1003.44,6540.95 L 990.567,6542.22 L 977.691,6540.95 L 965.31,6537.2 L 953.899,6531.1 L 943.898,6522.89 L 935.69,6512.89 L 929.591,6501.48 L 925.835,6489.1 L 924.567,6476.22 L 925.835,6463.34 L 929.591,6450.96 L 935.69,6439.55 L 943.898,6429.55 L 953.899,6421.34 L 965.31,6415.24 L 977.691,6411.49 L 990.567,6410.22 L 1003.44,6411.49 L 1015.82,6415.24 L 1027.23,6421.34 L 1037.24,6429.55 L 1045.44,6439.55 L 1051.54,6450.96 L 1052.04,6452.6 L 1096.78,6452.6 L 1128.95,6420.44 L 1128.95,5322.01 L 978.784,5171.84 L 844.199,5171.84 L 843.238,5175.01 L 836.77,5187.11 L 828.064,5197.72 L 817.457,5206.42 L 805.355,5212.89 L 792.223,5216.88 L 778.567,5218.22 L 764.911,5216.88 L 751.779,5212.89 L 739.677,5206.42 L 729.069,5197.72 L 720.364,5187.11 L 713.895,5175.01 L 709.912,5161.88 L 708.567,5148.22 z " style="fill-opacity:1.000000;fill:rgb(84,248,27);stroke:rgb(0,0,0);stroke-width:2"/></g>
<g fill-rule="evenodd"><path d="M 708.567,4948.22 L 709.912,4934.56 L 713.895,4921.43 L 720.364,4909.33 L 729.069,4898.72 L 739.677,4890.02 L 751.779,4883.55 L 764.911,4879.57 L 778.567,4878.22 L 792.223,4879.57 L 805.355,4883.55 L 817.457,4890.02 L 828.064,4898.72 L 836.77,4909.33 L 843.238,4921.43 L 844.199,4924.6 L 1070.57,4924.6 L 1074.26,4924.89 L 1077.87,4925.75 L 1081.29,4927.17 L 1084.45,4929.11 L 1087.27,4931.52 L 1319.27,5163.52 L 1321.68,5166.34 L 1323.62,5169.5 L 1325.03,5172.92 L 1325.9,5176.53 L 1326.19,5180.22 L 1326.19,6546.22 L 1325.74,6550.83 L 1324.39,6555.26 L 1322.21,6559.34 L 1319.27,6562.92 L 1189.27,6692.92 L 1186.45,6695.33 L 1183.29,6697.27 L 1179.87,6698.69 L 1176.26,6699.55 L 1172.57,6699.84 L 1052.04,6699.84 L 1051.54,6701.48 L 1045.44,6712.89 L 1037.24,6722.89 L 1027.23,6731.1 L 1015.82,6737.2 L 1003.44,6740.95 L 990.567,6742.22 L 977.691,6740.95 L 965.31,6737.2 L 953.899,6731.1 L 943.898,6722.89 L 935.69,6712.89 L 929.591,6701.48 L 925.835,6689.1 L 924.567,6676.22 L 925.835,6663.34 L 929.591,6650.96 L 935.69,6639.55 L 943.898,6629.55 L 953.899,6621.34 L 965.31,6615.24 L 977.691,6611.49 L 990.567,6610.22 L 1003.44,6611.49 L 1015.82,6615.24 L 1027.23,6621.34 L 1037.24,6629.55 L 1045.44,6639.55 L 1051.54,6650.96 L 1052.04,6652.6 L 1162.78,6652.6 L 1278.95,6536.44 L 1278.95,5190.01 L 1060.78,4971.84 L 844.199,4971.84 L 843.238,4975.01 L 836.77,4987.11 L 828.064,4997.72 L 817.457,5006.42 L 805.355,5012.89 L 792.223,5016.88 L 778.567,5018.22 L 764.911,5016.88 L 751.779,5012.89 L 739.677,5006.42 L 729.069,4997.72 L 720.364,4987.11 L 713.895,4975.01 L 709.912,4961.88 L 708.567,4948.22 z " style="fill-opacity:1.000000;fill:rgb(232,231,141);stroke:rgb(0,0,0);stroke-width:2"/></g>
<g fill-rule="evenodd"><path d="M 708.567,4548.22 L 709.912,4534.56 L 713.895,4521.43 L 720.364,4509.33 L 729.069,4498.72 L 739.677,4490.02 L 751.779,4483.55 L 764.911,4479.57 L 778.567,4478.22 L 792.223,4479.57 L 805.355,4483.55 L 817.457,4490.02 L 828.064,4498.72 L 836.77,4509.33 L 843.238,4521.43 L 847.222,4534.56 L 848.567,4548.22 L 847.222,4561.88 L 843.238,4575.01 L 836.77,4587.11 L 828.064,4597.72 L 817.457,4606.42 L 805.355,4612.89 L 792.223,4616.88 L 778.567,4618.22 L 764.911,4616.88 L 751.779,4612.89 L 739.677,4606.42 L 729.069,4597.72 L 720.364,4587.11 L 713.895,4575.01 L 709.912,4561.88 L 708.567,4548.22 z " style="fill-opacity:1.000000;fill:rgb(118,90,46);stroke:rgb(0,0,0);stroke-width:2"/></g>
<g fill-rule="evenodd"><path d="M 767.638,7878.22 L 768.924,7865.16 L 772.732,7852.61 L 778.917,7841.04 L 787.241,7830.89 L 797.383,7822.57 L 808.954,7816.39 L 821.51,7812.58 L 834.567,7811.29 L 847.624,7812.58 L 860.18,7816.39 L 871.751,7822.57 L 881.893,7830.89 L 890.216,7841.04 L 896.401,7852.61 L 897.005,7854.6 L 928.488,7854.6 L 929.591,7850.96 L 935.69,7839.55 L 943.898,7829.55 L 953.899,7821.34 L 965.31,7815.24 L 977.691,7811.49 L 990.567,7810.22 L 1003.44,7811.49 L 1015.82,7815.24 L 1027.23,7821.34 L 1037.24,7829.55 L 1045.44,7839.55 L 1051.54,7850.96 L 1055.3,7863.34 L 1056.57,7876.22 L 1055.3,7889.1 L 1051.54,7901.48 L 1045.44,7912.89 L 1037.24,7922.89 L 1027.23,7931.1 L 1015.82,7937.2 L 1003.44,7940.95 L 990.567,7942.22 L 977.691,7940.95 L 965.31,7937.2 L 953.899,7931.1 L 943.898,7922.89 L 935.69,7912.89 L 929.786,7901.84 L 897.005,7901.84 L 896.401,7903.83 L 890.216,7915.4 L 881.893,7925.55 L 871.751,7933.87 L 860.18,7940.05 L 847.624,7943.86 L 834.567,7945.15 L 821.51,7943.86 L 808.954,7940.05 L 797.383,7933.87 L 787.241,7925.55 L 778.917,7915.4 L 772.732,7903.83 L 768.924,7891.28 L 767.638,7878.22 z " style="fill-opacity:1.000000;fill:rgb(99,51,159);stroke:rgb(0,0,0);stroke-width:2"/></g>
<g fill-rule="evenodd"><path d="M 824.454,5049.2 L 825.58,5042.31 L 829.58,5036.6 L 831.106,5035.38 L 844.082,5026.3 L 856.646,5013.73 L 859.22,5010.06 L 864.39,5005.38 L 871.078,5003.41 L 872.054,5003.38 L 1041.23,5003.38 L 1048.03,5004.93 L 1052.31,5007.97 L 1242.82,5198.48 L 1246.53,5204.38 L 1247.41,5209.56 L 1247.41,6516.88 L 1245.86,6523.68 L 1242.82,6527.96 L 1154.31,6616.47 L 1148.41,6620.18 L 1143.23,6621.06 L 1079.17,6621.06 L 1072.37,6619.51 L 1066.92,6615.16 L 1066.34,6614.38 L 1065.57,6613.28 L 1053.5,6601.22 L 1039.52,6591.43 L 1037.36,6590.42 L 1031.85,6586.14 L 1028.75,6579.9 L 1028.66,6572.92 L 1031.61,6566.6 L 1037.01,6562.19 L 1037.36,6562.02 L 1039.52,6561.01 L 1053.5,6551.22 L 1065.57,6539.15 L 1066.34,6538.06 L 1071.51,6533.38 L 1078.2,6531.41 L 1079.17,6531.38 L 1104.43,6531.38 L 1105.37,6531.4 L 1109.92,6531.68 L 1114.41,6530.86 L 1115.34,6530.72 L 1119.86,6530.17 L 1120.11,6530.07 L 1122.84,6529.31 L 1123.1,6529.27 L 1127.25,6527.39 L 1128.13,6527.03 L 1132.39,6525.42 L 1132.6,6525.27 L 1135.07,6523.88 L 1135.21,6523.82 L 1135.31,6523.77 L 1138.9,6520.96 L 1139.66,6520.4 L 1143.41,6517.81 L 1146.43,6514.4 L 1147.08,6513.71 L 1190.06,6470.74 L 1190.75,6470.09 L 1194.16,6467.06 L 1196.75,6463.31 L 1197.31,6462.55 L 1200.12,6458.96 L 1200.22,6458.73 L 1201.62,6456.26 L 1201.77,6456.04 L 1203.38,6451.78 L 1203.74,6450.9 L 1205.61,6446.75 L 1205.66,6446.49 L 1206.42,6443.76 L 1206.52,6443.52 L 1206.85,6440.8 L 1207.07,6438.99 L 1207.21,6438.06 L 1208.03,6433.57 L 1207.75,6429.02 L 1207.73,6428.08 L 1207.73,5314.36 L 1207.75,5313.41 L 1208.03,5308.86 L 1207.21,5304.38 L 1207.07,5303.45 L 1206.52,5298.92 L 1206.42,5298.68 L 1205.66,5295.95 L 1205.61,5295.69 L 1203.74,5291.53 L 1203.38,5290.66 L 1201.77,5286.4 L 1201.62,5286.18 L 1200.22,5283.71 L 1200.12,5283.47 L 1197.31,5279.89 L 1196.75,5279.13 L 1194.16,5275.37 L 1190.75,5272.35 L 1190.06,5271.7 L 1029.08,5110.73 L 1028.43,5110.04 L 1025.41,5106.63 L 1021.66,5104.04 L 1020.9,5103.48 L 1017.31,5100.67 L 1017.07,5100.56 L 1014.6,5099.17 L 1014.39,5099.02 L 1010.13,5097.41 L 1009.26,5097.04 L 1005.1,5095.17 L 1004.84,5095.12 L 1002.11,5094.36 L 1001.86,5094.27 L 997.342,5093.72 L 996.406,5093.58 L 991.922,5092.76 L 987.374,5093.03 L 986.428,5093.06 L 872.054,5093.06 L 865.256,5091.51 L 859.804,5087.16 L 859.22,5086.38 L 856.646,5082.7 L 844.082,5070.14 L 831.106,5061.05 L 826.426,5055.88 L 824.454,5049.2 z " style="fill-opacity:1.000000;fill:rgb(201,154,102);stroke:rgb(0,0,0);stroke-width:2"/></g>
<g fill-rule="evenodd"><path d="M 924.567,8676.22 L 925.835,8663.34 L 929.591,8650.96 L 935.69,8639.55 L 943.898,8629.55 L 953.899,8621.34 L 965.31,8615.24 L 977.691,8611.49 L 990.567,8610.22 L 1003.44,8611.49 L 1015.82,8615.24 L 1027.23,8621.34 L 1037.24,8629.55 L 1045.44,8639.55 L 1051.54,8650.96 L 1055.3,8663.34 L 1056.57,8676.22 L 1055.3,8689.1 L 1051.54,8701.48 L 1045.44,8712.89 L 1037.24,8722.89 L 1027.23,8731.1 L 1015.82,8737.2 L 1003.44,8740.95 L 990.567,8742.22 L 977.691,8740.95 L 965.31,8737.2 L 953.899,8731.1 L 943.898,8722.89 L 935.69,8712.89 L 929.591,8701.48 L 925.835,8689.1 L 924.567,8676.22 z " style="fill-opacity:1.000000;fill:rgb(50,13,183);stroke:rgb(0,0,0);stroke-width:2"/></g>
<g fill-rule="evenodd"><path d="M 924.567,8276.22 L 925.835,8263.34 L 929.591,8250.96 L 935.69,8239.55 L 943.898,8229.55 L 953.899,8221.34 L 965.31,8215.24 L 977.691,8211.49 L 990.567,8210.22 L 1003.44,8211.49 L 1015.82,8215.24 L 1027.23,8221.34 L 1037.24,8229.55 L 1045.44,8239.55 L 1051.54,8250.96 L 1055.3,8263.34 L 1056.57,8276.22 L 1055.3,8289.1 L 1051.54,8301.48 L 1045.44,8312.89 L 1037.24,8322.89 L 1027.23,8331.1 L 1015.82,8337.2 L 1003.44,8340.95 L 990.567,8342.22 L 977.691,8340.95 L 965.31,8337.2 L 953.899,8331.1 L 943.898,8322.89 L 935.69,8312.89 L 929.591,8301.48 L 925.835,8289.1 L 924.567,8276.22 z " style="fill-opacity:1.000000;fill:rgb(49,88,163);stroke:rgb(0,0,0);stroke-width:2"/></g>
<g fill-rule="evenodd"><path d="M 924.567,8076.22 L 925.835,8063.34 L 929.591,8050.96 L 935.69,8039.55 L 943.898,8029.55 L 953.899,8021.34 L 965.31,8015.24 L 977.691,8011.49 L 990.567,8010.22 L 1003.44,8011.49 L 1015.82,8015.24 L 1027.23,8021.34 L 1037.24,8029.55 L 1045.44,8039.55 L 1051.54,8050.96 L 1055.3,8063.34 L 1056.57,8076.22 L 1055.3,8089.1 L 1051.54,8101.48 L 1045.44,8112.89 L 1037.24,8122.89 L 1027.23,8131.1 L 1015.82,8137.2 L 1003.44,8140.95 L 990.567,8142.22 L 977.691,8140.95 L 965.31,8137.2 L 953.899,8131.1 L 943.898,8122.89 L 935.69,8112.89 L 929.591,8101.48 L 925.835,8089.1 L 924.567,8076.22 z " style="fill-opacity:1.000000;fill:rgb(90,37,93);stroke:rgb(0,0,0);stroke-width:2"/></g>
<g fill-rule="evenodd"><path d="M 924.567,7676.22 L 925.835,7663.34 L 929.591,7650.96 L 935.69,7639.55 L 943.898,7629.55 L 953.899,7621.34 L 965.31,7615.24 L 977.691,7611.49 L 990.567,7610.22 L 1003.44,7611.49 L 1015.82,7615.24 L 1027.23,7621.34 L 1037.24,7629.55 L 1045.44,7639.55 L 1051.54,7650.96 L 1055.3,7663.34 L 1056.57,7676.22 L 1055.3,7689.1 L 1051.54,7701.48 L 1045.44,7712.89 L 1037.24,7722.89 L 1027.23,7731.1 L 1015.82,7737.2 L 1003.44,7740.95 L 990.567,7742.22 L 977.691,7740.95 L 965.31,7737.2 L 953.899,7731.1 L 943.898,7722.89 L 935.69,7712.89 L 929.591,7701.48 L 925.835,7689.1 L 924.567,7676.22 z " style="fill-opacity:1.000000;fill:rgb(5,23,88);stroke:rgb(0,0,0);stroke-width:2"/></g>
<g fill-rule="evenodd"><path d="M 924.567,7476.22 L 925.835,7463.34 L 929.591,7450.96 L 935.69,7439.55 L 943.898,7429.55 L 953.899,7421.34 L 965.31,7415.24 L 977.691,7411.49 L 990.567,7410.22 L 1003.44,7411.49 L 1015.82,7415.24 L 1027.23,7421.34 L 1037.24,7429.55 L 1045.44,7439.55 L 1051.54,7450.96 L 1052.04,7452.6 L 1526.78,7452.6 L 1956.94,7022.44 L 1956.94,5024.22 L 1957.4,5019.61 L 1958.74,5015.18 L 1960.93,5011.1 L 1963.86,5007.52 L 2039.86,4931.52 L 2042.68,4929.11 L 2045.84,4927.17 L 2049.27,4925.75 L 2052.87,4924.89 L 2056.57,4924.6 L 2112.94,4924.6 L 2113.9,4921.43 L 2120.36,4909.33 L 2129.07,4898.72 L 2139.68,4890.02 L 2151.78,4883.55 L 2164.91,4879.57 L 2178.57,4878.22 L 2192.22,4879.57 L 2205.35,4883.55 L 2217.46,4890.02 L 2228.06,4898.72 L 2236.77,4909.33 L 2243.24,4921.43 L 2247.22,4934.56 L 2248.57,4948.22 L 2247.22,4961.88 L 2243.24,4975.01 L 2236.77,4987.11 L 2228.06,4997.72 L 2217.46,5006.42 L 2205.35,5012.89 L 2192.22,5016.88 L 2178.57,5018.22 L 2164.91,5016.88 L 2151.78,5012.89 L 2139.68,5006.42 L 2129.07,4997.72 L 2120.36,4987.11 L 2113.9,4975.01 L 2112.94,4971.84 L 2066.35,4971.84 L 2004.19,5034.01 L 2004.19,7032.22 L 2003.9,7035.92 L 2003.03,7039.52 L 2001.61,7042.94 L 1999.68,7046.11 L 1997.27,7048.92 L 1553.27,7492.92 L 1549.69,7495.86 L 1545.61,7498.04 L 1541.17,7499.39 L 1536.57,7499.84 L 1052.04,7499.84 L 1051.54,7501.48 L 1045.44,7512.89 L 1037.24,7522.89 L 1027.23,7531.1 L 1015.82,7537.2 L 1003.44,7540.95 L 990.567,7542.22 L 977.691,7540.95 L 965.31,7537.2 L 953.899,7531.1 L 943.898,7522.89 L 935.69,7512.89 L 929.591,7501.48 L 925.835,7489.1 L 924.567,7476.22 z " style="fill-opacity:1.000000;fill:rgb(233,94,212);stroke:rgb(0,0,0);stroke-width:2"/></g>
<g fill-rule="evenodd"><path d="M 924.567,7276.22 L 925.835,7263.34 L 929.591,7250.96 L 935.69,7239.55 L 943.898,7229.55 L 953.899,7221.34 L 965.31,7215.24 L 977.691,7211.49 L 990.567,7210.22 L 1003.44,7211.49 L 1015.82,7215.24 L 1027.23,7221.34 L 1037.24,7229.55 L 1045.44,7239.55 L 1051.54,7250.96 L 1052.04,7252.6 L 1394.78,7252.6 L 1792.94,6854.44 L 1792.94,3390.22 L 1793.4,3385.61 L 1794.74,3381.18 L 1796.93,3377.1 L 1799.86,3373.52 L 2015.86,3157.52 L 2018.68,3155.11 L 2021.84,3153.17 L 2025.27,3151.75 L 2028.87,3150.89 L 2032.57,3150.6 L 2342.13,3150.6 L 2342.73,3148.61 L 2348.92,3137.04 L 2357.24,3126.89 L 2367.38,3118.57 L 2378.95,3112.39 L 2391.51,3108.58 L 2404.57,3107.29 L 2417.62,3108.58 L 2430.18,3112.39 L 2441.75,3118.57 L 2451.89,3126.89 L 2460.22,3137.04 L 2466.4,3148.61 L 2470.21,3161.16 L 2471.5,3174.22 L 2470.21,3187.28 L 2466.4,3199.83 L 2460.22,3211.4 L 2451.89,3221.55 L 2441.75,3229.87 L 2430.18,3236.05 L 2417.62,3239.86 L 2404.57,3241.15 L 2391.51,3239.86 L 2378.95,3236.05 L 2367.38,3229.87 L 2357.24,3221.55 L 2348.92,3211.4 L 2342.73,3199.83 L 2342.13,3197.84 L 2042.35,3197.84 L 1840.19,3400.01 L 1840.19,6864.22 L 1839.9,6867.92 L 1839.03,6871.52 L 1837.61,6874.94 L 1835.68,6878.11 L 1833.27,6880.92 L 1421.27,7292.92 L 1417.69,7295.86 L 1413.61,7298.04 L 1409.17,7299.39 L 1404.57,7299.84 L 1052.04,7299.84 L 1051.54,7301.48 L 1045.44,7312.89 L 1037.24,7322.89 L 1027.23,7331.1 L 1015.82,7337.2 L 1003.44,7340.95 L 990.567,7342.22 L 977.691,7340.95 L 965.31,7337.2 L 953.899,7331.1 L 943.898,7322.89 L 935.69,7312.89 L 929.591,7301.48 L 925.835,7289.1 L 924.567,7276.22 z " style="fill-opacity:1.000000;fill:rgb(171,178,205);stroke:rgb(0,0,0);stroke-width:2"/></g>
<g fill-rule="evenodd"><path d="M 924.567,7076.22 L 925.835,7063.34 L 929.591,7050.96 L 935.69,7039.55 L 943.898,7029.55 L 953.899,7021.34 L 965.31,7015.24 L 977.691,7011.49 L 990.567,7010.22 L 1003.44,7011.49 L 1015.82,7015.24 L 1027.23,7021.34 L 1037.24,7029.55 L 1045.44,7039.55 L 1051.54,7050.96 L 1052.04,7052.6 L 1292.78,7052.6 L 1616.94,6728.44 L 1616.94,3346.22 L 1617.4,3341.61 L 1618.74,3337.18 L 1620.93,3333.1 L 1623.86,3329.52 L 1995.86,2957.52 L 1998.68,2955.11 L 2001.84,2953.17 L 2005.27,2951.75 L 2008.87,2950.89 L 2012.57,2950.6 L 2340.13,2950.6 L 2340.73,2948.61 L 2346.92,2937.04 L 2355.24,2926.89 L 2365.38,2918.57 L 2376.95,2912.39 L 2389.51,2908.58 L 2402.57,2907.29 L 2415.62,2908.58 L 2428.18,2912.39 L 2439.75,2918.57 L 2449.89,2926.89 L 2458.22,2937.04 L 2464.4,2948.61 L 2468.21,2961.16 L 2469.5,2974.22 L 2468.21,2987.28 L 2464.4,2999.83 L 2458.22,3011.4 L 2449.89,3021.55 L 2439.75,3029.87 L 2428.18,3036.05 L 2415.62,3039.86 L 2402.57,3041.15 L 2389.51,3039.86 L 2376.95,3036.05 L 2365.38,3029.87 L 2355.24,3021.55 L 2346.92,3011.4 L 2340.73,2999.83 L 2340.13,2997.84 L 2022.35,2997.84 L 1664.19,3356.01 L 1664.19,6738.22 L 1663.73,6742.83 L 1662.39,6747.26 L 1660.21,6751.34 L 1657.27,6754.92 L 1319.27,7092.92 L 1316.45,7095.33 L 1313.29,7097.27 L 1309.87,7098.69 L 1306.26,7099.55 L 1302.57,7099.84 L 1052.04,7099.84 L 1051.54,7101.48 L 1045.44,7112.89 L 1037.24,7122.89 L 1027.23,7131.1 L 1015.82,7137.2 L 1003.44,7140.95 L 990.567,7142.22 L 977.691,7140.95 L 965.31,7137.2 L 953.899,7131.1 L 943.898,7122.89 L 935.69,7112.89 L 929.591,7101.48 L 925.835,7089.1 L 924.567,7076.22 z " style="fill-opacity:1.000000;fill:rgb(198,155,180);stroke:rgb(0,0,0);stroke-width:2"/></g>
<g fill-rule="evenodd"><path d="M 924.567,6876.22 L 925.835,6863.34 L 929.591,6850.96 L 935.69,6839.55 L 943.898,6829.55 L 953.899,6821.34 L 965.31,6815.24 L 977.691,6811.49 L 990.567,6810.22 L 1003.44,6811.49 L 1015.82,6815.24 L 1027.23,6821.34 L 1037.24,6829.55 L 1045.44,6839.55 L 1051.54,6850.96 L 1052.04,6852.6 L 1214.78,6852.6 L 1442.94,6624.44 L 1442.94,2274.22 L 1443.23,2270.53 L 1444.1,2266.92 L 1445.52,2263.5 L 1447.46,2260.34 L 1449.86,2257.52 L 1745.86,1961.52 L 1749.44,1958.58 L 1753.53,1956.4 L 1757.96,1955.05 L 1762.57,1954.6 L 2340.13,1954.6 L 2340.73,1952.61 L 2346.92,1941.04 L 2355.24,1930.89 L 2365.38,1922.57 L 2376.95,1916.39 L 2389.51,1912.58 L 2402.57,1911.29 L 2415.62,1912.58 L 2428.18,1916.39 L 2439.75,1922.57 L 2449.89,1930.89 L 2458.22,1941.04 L 2464.4,1952.61 L 2468.21,1965.16 L 2469.5,1978.22 L 2468.21,1991.28 L 2464.4,2003.83 L 2458.22,2015.4 L 2449.89,2025.55 L 2439.75,2033.87 L 2428.18,2040.05 L 2415.62,2043.86 L 2402.57,2045.15 L 2389.51,2043.86 L 2376.95,2040.05 L 2365.38,2033.87 L 2355.24,2025.55 L 2346.92,2015.4 L 2340.73,2003.83 L 2340.13,2001.84 L 1772.35,2001.84 L 1490.19,2284.01 L 1490.19,6634.22 L 1489.73,6638.83 L 1488.39,6643.26 L 1486.21,6647.34 L 1483.27,6650.92 L 1241.27,6892.92 L 1238.45,6895.33 L 1235.29,6897.27 L 1231.87,6898.69 L 1228.26,6899.55 L 1224.57,6899.84 L 1052.04,6899.84 L 1051.54,6901.48 L 1045.44,6912.89 L 1037.24,6922.89 L 1027.23,6931.1 L 1015.82,6937.2 L 1003.44,6940.95 L 990.567,6942.22 L 977.691,6940.95 L 965.31,6937.2 L 953.899,6931.1 L 943.898,6922.89 L 935.69,6912.89 L 929.591,6901.48 L 925.835,6889.1 L 924.567,6876.22 z " style="fill-opacity:1.000000;fill:rgb(84,17,14);stroke:rgb(0,0,0);stroke-width:2"/></g>
<g fill-rule="evenodd"><path d="M 1028.66,7172.92 L 1031.61,7166.6 L 1037.01,7162.19 L 1037.36,7162.02 L 1039.52,7161.01 L 1053.5,7151.22 L 1065.57,7139.15 L 1066.34,7138.06 L 1071.51,7133.38 L 1078.2,7131.41 L 1079.17,7131.38 L 1300.43,7131.38 L 1301.37,7131.4 L 1305.92,7131.68 L 1310.41,7130.86 L 1311.34,7130.72 L 1315.86,7130.17 L 1316.11,7130.07 L 1318.84,7129.31 L 1319.1,7129.27 L 1323.25,7127.39 L 1324.13,7127.03 L 1328.39,7125.42 L 1328.6,7125.27 L 1331.07,7123.88 L 1331.21,7123.82 L 1331.31,7123.77 L 1334.9,7120.96 L 1335.66,7120.4 L 1339.41,7117.81 L 1342.43,7114.4 L 1343.08,7113.71 L 1426.71,7030.08 L 1678.06,6778.73 L 1678.74,6778.09 L 1682.16,6775.06 L 1684.75,6771.31 L 1685.3,6770.55 L 1688.12,6766.96 L 1688.22,6766.73 L 1689.62,6764.26 L 1689.76,6764.04 L 1691.38,6759.78 L 1691.74,6758.91 L 1693.61,6754.75 L 1693.66,6754.49 L 1694.42,6751.76 L 1694.51,6751.52 L 1695.06,6746.99 L 1695.21,6746.06 L 1696.03,6741.57 L 1695.75,6737.03 L 1695.72,6736.08 L 1695.72,3375.56 L 1697.28,3368.76 L 1700.31,3364.48 L 2030.82,3033.97 L 2036.73,3030.26 L 2041.9,3029.38 L 2312.83,3029.38 L 2319.63,3030.93 L 2325.08,3035.28 L 2325.66,3036.06 L 2326.85,3037.75 L 2339.03,3049.94 L 2353.15,3059.82 L 2354.58,3060.49 L 2360.08,3064.77 L 2363.18,3071.01 L 2363.27,3077.98 L 2360.32,3084.3 L 2355.65,3088.13 L 2355.74,3088.28 L 2355.15,3088.62 L 2341.24,3098.36 L 2341.03,3098.5 L 2334.33,3105.21 L 2328.85,3110.69 L 2327.66,3112.38 L 2322.49,3117.06 L 2315.8,3119.03 L 2314.83,3119.06 L 2034.71,3119.06 L 2033.76,3119.03 L 2029.21,3118.76 L 2024.73,3119.58 L 2023.79,3119.72 L 2019.27,3120.27 L 2019.03,3120.37 L 2016.29,3121.13 L 2016.04,3121.17 L 2011.88,3123.05 L 2011.01,3123.41 L 2006.74,3125.02 L 2006.53,3125.17 L 2004.06,3126.56 L 2003.82,3126.67 L 2002.37,3127.81 L 2000.23,3129.48 L 1999.47,3130.04 L 1995.72,3132.63 L 1992.7,3136.04 L 1992.05,3136.73 L 1779.08,3349.71 L 1778.39,3350.35 L 1774.98,3353.38 L 1772.39,3357.13 L 1771.83,3357.89 L 1770.32,3359.81 L 1769.02,3361.48 L 1768.91,3361.72 L 1767.52,3364.18 L 1767.37,3364.4 L 1765.75,3368.66 L 1765.39,3369.53 L 1763.92,3372.79 L 1763.52,3373.69 L 1763.47,3373.95 L 1762.71,3376.68 L 1762.62,3376.92 L 1762.07,3381.45 L 1761.93,3382.38 L 1761.1,3386.87 L 1761.38,3391.42 L 1761.41,3392.36 L 1761.41,6834.88 L 1759.86,6841.68 L 1756.82,6845.96 L 1386.31,7216.47 L 1380.4,7220.18 L 1375.23,7221.06 L 1079.17,7221.06 L 1072.37,7219.51 L 1066.92,7215.16 L 1066.34,7214.38 L 1065.57,7213.28 L 1053.5,7201.22 L 1039.52,7191.43 L 1037.36,7190.42 L 1031.85,7186.14 L 1028.75,7179.9 L 1028.66,7172.92 z " style="fill-opacity:1.000000;fill:rgb(130,116,65);stroke:rgb(0,0,0);stroke-width:2"/></g>
<g fill-rule="evenodd"><path d="M 1028.66,6372.92 L 1031.61,6366.6 L 1037.01,6362.19 L 1037.36,6362.02 L 1039.52,6361.01 L 1053.5,6351.22 L 1065.57,6339.15 L 1068.91,6334.39 L 1074.08,6329.71 L 1080.76,6327.74 L 1087.65,6328.86 L 1093.36,6332.86 L 1096.77,6338.95 L 1097.41,6343.38 L 1097.41,6400.88 L 1095.86,6407.68 L 1092.82,6411.96 L 1089.45,6415.33 L 1083.55,6419.04 L 1076.62,6419.82 L 1070.04,6417.52 L 1066.08,6413.75 L 1066.01,6413.81 L 1065.57,6413.28 L 1053.5,6401.22 L 1039.52,6391.43 L 1037.36,6390.42 L 1031.85,6386.14 L 1028.75,6379.9 L 1028.66,6372.92 z " style="fill-opacity:1.000000;fill:rgb(33,61,220);stroke:rgb(0,0,0);stroke-width:2"/></g>
<g fill-rule="evenodd"><path d="M 1028.66,6172.92 L 1031.61,6166.6 L 1037.01,6162.19 L 1037.36,6162.02 L 1039.52,6161.01 L 1053.5,6151.22 L 1065.57,6139.15 L 1068.91,6134.39 L 1074.08,6129.71 L 1080.76,6127.74 L 1087.65,6128.86 L 1093.36,6132.86 L 1096.77,6138.95 L 1097.41,6143.38 L 1097.41,6209.06 L 1095.86,6215.86 L 1091.51,6221.31 L 1085.23,6224.34 L 1078.25,6224.34 L 1071.97,6221.31 L 1068.91,6218.05 L 1065.57,6213.28 L 1053.5,6201.22 L 1039.52,6191.43 L 1037.36,6190.42 L 1031.85,6186.14 L 1028.75,6179.9 L 1028.66,6172.92 z " style="fill-opacity:1.000000;fill:rgb(135,112,233);stroke:rgb(0,0,0);stroke-width:2"/></g>
<g fill-rule="evenodd"><path d="M 2108.57,5348.22 L 2109.91,5334.56 L 2113.9,5321.43 L 2120.36,5309.33 L 2129.07,5298.72 L 2139.68,5290.02 L 2151.78,5283.55 L 2164.91,5279.57 L 2178.57,5278.22 L 2192.22,5279.57 L 2205.35,5283.55 L 2217.46,5290.02 L 2228.06,5298.72 L 2236.77,5309.33 L 2243.24,5321.43 L 2247.22,5334.56 L 2248.57,5348.22 L 2247.22,5361.88 L 2243.24,5375.01 L 2236.77,5387.11 L 2228.06,5397.72 L 2217.46,5406.42 L 2205.35,5412.89 L 2192.22,5416.88 L 2178.57,5418.22 L 2164.91,5416.88 L 2151.78,5412.89 L 2139.68,5406.42 L 2129.07,5397.72 L 2120.36,5387.11 L 2113.9,5375.01 L 2109.91,5361.88 L 2108.57,5348.22 z " style="fill-opacity:1.000000;fill:rgb(62,161,65);stroke:rgb(0,0,0);stroke-width:2"/></g>
<g fill-rule="evenodd"><path d="M 2108.57,5148.22 L 2109.91,5134.56 L 2113.9,5121.43 L 2120.36,5109.33 L 2129.07,5098.72 L 2139.68,5090.02 L 2151.78,5083.55 L 2164.91,5079.57 L 2178.57,5078.22 L 2192.22,5079.57 L 2205.35,5083.55 L 2217.46,5090.02 L 2228.06,5098.72 L 2236.77,5109.33 L 2243.24,5121.43 L 2247.22,5134.56 L 2248.57,5148.22 L 2247.22,5161.88 L 2243.24,5175.01 L 2236.77,5187.11 L 2228.06,5197.72 L 2217.46,5206.42 L 2205.35,5212.89 L 2192.22,5216.88 L 2178.57,5218.22 L 2164.91,5216.88 L 2151.78,5212.89 L 2139.68,5206.42 L 2129.07,5197.72 L 2120.36,5187.11 L 2113.9,5175.01 L 2109.91,5161.88 L 2108.57,5148.22 z " style="fill-opacity:1.000000;fill:rgb(225,252,103);stroke:rgb(0,0,0);stroke-width:2"/></g>
<g fill-rule="evenodd"><path d="M 2108.57,4748.22 L 2109.91,4734.56 L 2113.9,4721.43 L 2120.36,4709.33 L 2129.07,4698.72 L 2139.68,4690.02 L 2151.78,4683.55 L 2164.91,4679.57 L 2178.57,4678.22 L 2192.22,4679.57 L 2205.35,4683.55 L 2217.46,4690.02 L 2228.06,4698.72 L 2236.77,4709.33 L 2243.24,4721.43 L 2247.22,4734.56 L 2248.57,4748.22 L 2247.22,4761.88 L 2243.24,4775.01 L 2236.77,4787.11 L 2228.06,4797.72 L 2217.46,4806.42 L 2205.35,4812.89 L 2192.22,4816.88 L 2178.57,4818.22 L 2164.91,4816.88 L 2151.78,4812.89 L 2139.68,4806.42 L 2129.07,4797.72 L 2120.36,4787.11 L 2113.9,4775.01 L 2109.91,4761.88 L 2108.57,4748.22 z " style="fill-opacity:1.000000;fill:rgb(62,1,126);stroke:rgb(0,0,0);stroke-width:2"/></g>
<g fill-rule="evenodd"><path d="M 2108.57,4548.22 L 2109.91,4534.56 L 2113.9,4521.43 L 2120.36,4509.33 L 2129.07,4498.72 L 2139.68,4490.02 L 2151.78,4483.55 L 2164.91,4479.57 L 2178.57,4478.22 L 2192.22,4479.57 L 2205.35,4483.55 L 2217.46,4490.02 L 2228.06,4498.72 L 2236.77,4509.33 L 2243.24,4521.43 L 2247.22,4534.56 L 2248.57,4548.22 L 2247.22,4561.88 L 2243.24,4575.01 L 2236.77,4587.11 L 2228.06,4597.72 L 2217.46,4606.42 L 2205.35,4612.89 L 2192.22,4616.88 L 2178.57,4618.22 L 2164.91,4616.88 L 2151.78,4612.89 L 2139.68,4606.42 L 2129.07,4597.72 L 2120.36,4587.11 L 2113.9,4575.01 L 2109.91,4561.88 L 2108.57,4548.22 z " style="fill-opacity:1.000000;fill:rgb(151,234,220);stroke:rgb(0,0,0);stroke-width:2"/></g>
<g fill-rule="evenodd"><path d="M 2108.57,4348.22 L 2109.91,4334.56 L 2113.9,4321.43 L 2120.36,4309.33 L 2129.07,4298.72 L 2139.68,4290.02 L 2151.78,4283.55 L 2164.91,4279.57 L 2178.57,4278.22 L 2192.22,4279.57 L 2205.35,4283.55 L 2217.46,4290.02 L 2228.06,4298.72 L 2236.77,4309.33 L 2243.24,4321.43 L 2247.22,4334.56 L 2248.57,4348.22 L 2247.22,4361.88 L 2243.24,4375.01 L 2236.77,4387.11 L 2228.06,4397.72 L 2217.46,4406.42 L 2205.35,4412.89 L 2192.22,4416.88 L 2178.57,4418.22 L 2164.91,4416.88 L 2151.78,4412.89 L 2139.68,4406.42 L 2129.07,4397.72 L 2120.36,4387.11 L 2113.9,4375.01 L 2109.91,4361.88 L 2108.57,4348.22 z " style="fill-opacity:1.000000;fill:rgb(107,150,143);stroke:rgb(0,0,0);stroke-width:2"/></g>
<g fill-rule="evenodd"><path d="M 2124.57,8676.22 L 2125.84,8663.34 L 2129.59,8650.96 L 2135.69,8639.55 L 2143.9,8629.55 L 2153.9,8621.34 L 2165.31,8615.24 L 2177.69,8611.49 L 2190.57,8610.22 L 2203.44,8611.49 L 2215.82,8615.24 L 2227.23,8621.34 L 2237.24,8629.55 L 2245.44,8639.55 L 2251.54,8650.96 L 2255.3,8663.34 L 2256.57,8676.22 L 2255.3,8689.1 L 2251.54,8701.48 L 2245.44,8712.89 L 2237.24,8722.89 L 2227.23,8731.1 L 2215.82,8737.2 L 2203.44,8740.95 L 2190.57,8742.22 L 2177.69,8740.95 L 2165.31,8737.2 L 2153.9,8731.1 L 2143.9,8722.89 L 2135.69,8712.89 L 2129.59,8701.48 L 2125.84,8689.1 L 2124.57,8676.22 z " style="fill-opacity:1.000000;fill:rgb(56,92,42);stroke:rgb(0,0,0);stroke-width:2"/></g>
<g fill-rule="evenodd"><path d="M 2124.57,8476.22 L 2125.84,8463.34 L 2129.59,8450.96 L 2135.69,8439.55 L 2143.9,8429.55 L 2153.9,8421.34 L 2165.31,8415.24 L 2177.69,8411.49 L 2190.57,8410.22 L 2203.44,8411.49 L 2215.82,8415.24 L 2227.23,8421.34 L 2237.24,8429.55 L 2245.44,8439.55 L 2251.54,8450.96 L 2255.3,8463.34 L 2256.57,8476.22 L 2255.3,8489.1 L 2251.54,8501.48 L 2245.44,8512.89 L 2237.24,8522.89 L 2227.23,8531.1 L 2215.82,8537.2 L 2203.44,8540.95 L 2190.57,8542.22 L 2177.69,8540.95 L 2165.31,8537.2 L 2153.9,8531.1 L 2143.9,8522.89 L 2135.69,8512.89 L 2129.59,8501.48 L 2125.84,8489.1 L 2124.57,8476.22 z " style="fill-opacity:1.000000;fill:rgb(236,176,59);stroke:rgb(0,0,0);stroke-width:2"/></g>
<g fill-rule="evenodd"><path d="M 2124.57,8276.22 L 2125.84,8263.34 L 2129.59,8250.96 L 2135.69,8239.55 L 2143.9,8229.55 L 2153.9,8221.34 L 2165.31,8215.24 L 2177.69,8211.49 L 2190.57,8210.22 L 2203.44,8211.49 L 2215.82,8215.24 L 2227.23,8221.34 L 2237.24,8229.55 L 2245.44,8239.55 L 2251.54,8250.96 L 2255.3,8263.34 L 2256.57,8276.22 L 2255.3,8289.1 L 2251.54,8301.48 L 2245.44,8312.89 L 2237.24,8322.89 L 2227.23,8331.1 L 2215.82,8337.2 L 2203.44,8340.95 L 2190.57,8342.22 L 2177.69,8340.95 L 2165.31,8337.2 L 2153.9,8331.1 L 2143.9,8322.89 L 2135.69,8312.89 L 2129.59,8301.48 L 2125.84,8289.1 L 2124.57,8276.22 z " style="fill-opacity:1.000000;fill:rgb(251,50,175);stroke:rgb(0,0,0);stroke-width:2"/></g>
<g fill-rule="evenodd"><path d="M 2124.57,7876.22 L 2125.84,7863.34 L 2129.59,7850.96 L 2135.69,7839.55 L 2143.9,7829.55 L 2153.9,7821.34 L 2165.31,7815.24 L 2177.69,7811.49 L 2190.57,7810.22 L 2203.44,7811.49 L 2215.82,7815.24 L 2227.23,7821.34 L 2237.24,7829.55 L 2245.44,7839.55 L 2251.54,7850.96 L 2255.3,7863.34 L 2256.57,7876.22 L 2255.3,7889.1 L 2251.54,7901.48 L 2245.44,7912.89 L 2237.24,7922.89 L 2227.23,7931.1 L 2215.82,7937.2 L 2203.44,7940.95 L 2190.57,7942.22 L 2177.69,7940.95 L 2165.31,7937.2 L 2153.9,7931.1 L 2143.9,7922.89 L 2135.69,7912.89 L 2129.59,7901.48 L 2125.84,7889.1 L 2124.57,7876.22 z " style="fill-opacity:1.000000;fill:rgb(60,84,236);stroke:rgb(0,0,0);stroke-width:2"/></g>
<g fill-rule="evenodd"><path d="M 2124.57,7676.22 L 2125.84,7663.34 L 2129.59,7650.96 L 2135.69,7639.55 L 2143.9,7629.55 L 2153.9,7621.34 L 2165.31,7615.24 L 2177.69,7611.49 L 2190.57,7610.22 L 2203.44,7611.49 L 2215.82,7615.24 L 2227.23,7621.34 L 2237.24,7629.55 L 2245.44,7639.55 L 2251.54,7650.96 L 2255.3,7663.34 L 2256.57,7676.22 L 2255.3,7689.1 L 2251.54,7701.48 L 2245.44,7712.89 L 2237.24,7722.89 L 2227.23,7731.1 L 2215.82,7737.2 L 2203.44,7740.95 L 2190.57,7742.22 L 2177.69,7740.95 L 2165.31,7737.2 L 2153.9,7731.1 L 2143.9,7722.89 L 2135.69,7712.89 L 2129.59,7701.48 L 2125.84,7689.1 L 2124.57,7676.22 z " style="fill-opacity:1.000000;fill:rgb(24,219,92);stroke:rgb(0,0,0);stroke-width:2"/></g>
<g fill-rule="evenodd"><path d="M 2124.57,7476.22 L 2125.84,7463.34 L 2129.59,7450.96 L 2135.69,7439.55 L 2143.9,7429.55 L 2153.9,7421.34 L 2165.31,7415.24 L 2177.69,7411.49 L 2190.57,7410.22 L 2203.44,7411.49 L 2215.82,7415.24 L 2227.23,7421.34 L 2237.24,7429.55 L 2245.44,7439.55 L 2251.54,7450.96 L 2255.3,7463.34 L 2256.57,7476.22 L 2255.3,7489.1 L 2251.54,7501.48 L 2245.44,7512.89 L 2237.24,7522.89 L 2227.23,7531.1 L 2215.82,7537.2 L 2203.44,7540.95 L 2190.57,7542.22 L 2177.69,7540.95 L 2165.31,7537.2 L 2153.9,7531.1 L 2143.9,7522.89 L 2135.69,7512.89 L 2129.59,7501.48 L 2125.84,7489.1 L 2124.57,7476.22 z " style="fill-opacity:1.000000;fill:rgb(2,26,254);stroke:rgb(0,0,0);stroke-width:2"/></g>
<g fill-rule="evenodd"><path d="M 2124.57,7276.22 L 2125.84,7263.34 L 2129.59,7250.96 L 2135.69,7239.55 L 2143.9,7229.55 L 2153.9,7221.34 L 2165.31,7215.24 L 2177.69,7211.49 L 2190.57,7210.22 L 2203.44,7211.49 L 2215.82,7215.24 L 2227.23,7221.34 L 2237.24,7229.55 L 2245.44,7239.55 L 2251.54,7250.96 L 2255.3,7263.34 L 2256.57,7276.22 L 2255.3,7289.1 L 2251.54,7301.48 L 2245.44,7312.89 L 2237.24,7322.89 L 2227.23,7331.1 L 2215.82,7337.2 L 2203.44,7340.95 L 2190.57,7342.22 L 2177.69,7340.95 L 2165.31,7337.2 L 2153.9,7331.1 L 2143.9,7322.89 L 2135.69,7312.89 L 2129.59,7301.48 L 2125.84,7289.1 L 2124.57,7276.22 z " style="fill-opacity:1.000000;fill:rgb(67,251,250);stroke:rgb(0,0,0);stroke-width:2"/></g>
<g fill-rule="evenodd"><path d="M 2124.57,7076.22 L 2125.84,7063.34 L 2129.59,7050.96 L 2135.69,7039.55 L 2143.9,7029.55 L 2153.9,7021.34 L 2165.31,7015.24 L 2177.69,7011.49 L 2190.57,7010.22 L 2203.44,7011.49 L 2215.82,7015.24 L 2227.23,7021.34 L 2237.24,7029.55 L 2245.44,7039.55 L 2251.54,7050.96 L 2255.3,7063.34 L 2256.57,7076.22 L 2255.3,7089.1 L 2251.54,7101.48 L 2245.44,7112.89 L 2237.24,7122.89 L 2227.23,7131.1 L 2215.82,7137.2 L 2203.44,7140.95 L 2190.57,7142.22 L 2177.69,7140.95 L 2165.31,7137.2 L 2153.9,7131.1 L 2143.9,7122.89 L 2135.69,7112.89 L 2129.59,7101.48 L 2125.84,7089.1 L 2124.57,7076.22 z " style="fill-opacity:1.000000;fill:rgb(170,58,251);stroke:rgb(0,0,0);stroke-width:2"/></g>
<g fill-rule="evenodd"><path d="M 2124.57,6876.22 L 2125.84,6863.34 L 2129.59,6850.96 L 2135.69,6839.55 L 2143.9,6829.55 L 2153.9,6821.34 L 2165.31,6815.24 L 2177.69,6811.49 L 2190.57,6810.22 L 2203.44,6811.49 L 2215.82,6815.24 L 2227.23,6821.34 L 2237.24,6829.55 L 2245.44,6839.55 L 2251.54,6850.96 L 2255.3,6863.34 L 2256.57,6876.22 L 2255.3,6889.1 L 2251.54,6901.48 L 2245.44,6912.89 L 2237.24,6922.89 L 2227.23,6931.1 L 2215.82,6937.2 L 2203.44,6940.95 L 2190.57,6942.22 L 2177.69,6940.95 L 2165.31,6937.2 L 2153.9,6931.1 L 2143.9,6922.89 L 2135.69,6912.89 L 2129.59,6901.48 L 2125.84,6889.1 L 2124.57,6876.22 z " style="fill-opacity:1.000000;fill:rgb(41,209,230);stroke:rgb(0,0,0);stroke-width:2"/></g>
<g fill-rule="evenodd"><path d="M 2124.57,6676.22 L 2125.84,6663.34 L 2129.59,6650.96 L 2135.69,6639.55 L 2143.9,6629.55 L 2153.9,6621.34 L 2165.31,6615.24 L 2177.69,6611.49 L 2190.57,6610.22 L 2203.44,6611.49 L 2215.82,6615.24 L 2227.23,6621.34 L 2237.24,6629.55 L 2245.44,6639.55 L 2251.35,6650.6 L 2296.13,6650.6 L 2296.73,6648.61 L 2302.92,6637.04 L 2311.24,6626.89 L 2321.38,6618.57 L 2332.95,6612.39 L 2345.51,6608.58 L 2358.57,6607.29 L 2371.62,6608.58 L 2384.18,6612.39 L 2395.75,6618.57 L 2405.89,6626.89 L 2414.22,6637.04 L 2420.4,6648.61 L 2424.21,6661.16 L 2425.5,6674.22 L 2424.21,6687.28 L 2420.4,6699.83 L 2414.22,6711.4 L 2405.89,6721.55 L 2395.75,6729.87 L 2384.18,6736.05 L 2371.62,6739.86 L 2358.57,6741.15 L 2345.51,6739.86 L 2332.95,6736.05 L 2321.38,6729.87 L 2311.24,6721.55 L 2302.92,6711.4 L 2296.73,6699.83 L 2296.13,6697.84 L 2252.65,6697.84 L 2251.54,6701.48 L 2245.44,6712.89 L 2237.24,6722.89 L 2227.23,6731.1 L 2215.82,6737.2 L 2203.44,6740.95 L 2190.57,6742.22 L 2177.69,6740.95 L 2165.31,6737.2 L 2153.9,6731.1 L 2143.9,6722.89 L 2135.69,6712.89 L 2129.59,6701.48 L 2125.84,6689.1 L 2124.57,6676.22 z " style="fill-opacity:1.000000;fill:rgb(5,60,124);stroke:rgb(0,0,0);stroke-width:2"/></g>
<g fill-rule="evenodd"><path d="M 2124.57,6476.22 L 2125.84,6463.34 L 2129.59,6450.96 L 2135.69,6439.55 L 2143.9,6429.55 L 2153.9,6421.34 L 2165.31,6415.24 L 2177.69,6411.49 L 2190.57,6410.22 L 2203.44,6411.49 L 2215.82,6415.24 L 2227.23,6421.34 L 2237.24,6429.55 L 2245.44,6439.55 L 2250.28,6448.6 L 2296.13,6448.6 L 2296.73,6446.61 L 2302.92,6435.04 L 2311.24,6424.89 L 2321.38,6416.57 L 2332.95,6410.39 L 2345.51,6406.58 L 2358.57,6405.29 L 2371.62,6406.58 L 2384.18,6410.39 L 2395.75,6416.57 L 2405.89,6424.89 L 2414.22,6435.04 L 2420.4,6446.61 L 2424.21,6459.16 L 2425.5,6472.22 L 2424.21,6485.28 L 2420.4,6497.83 L 2414.22,6509.4 L 2405.89,6519.55 L 2395.75,6527.87 L 2384.18,6534.05 L 2371.62,6537.86 L 2358.57,6539.15 L 2345.51,6537.86 L 2332.95,6534.05 L 2321.38,6527.87 L 2311.24,6519.55 L 2302.92,6509.4 L 2296.73,6497.83 L 2296.13,6495.84 L 2253.25,6495.84 L 2251.54,6501.48 L 2245.44,6512.89 L 2237.24,6522.89 L 2227.23,6531.1 L 2215.82,6537.2 L 2203.44,6540.95 L 2190.57,6542.22 L 2177.69,6540.95 L 2165.31,6537.2 L 2153.9,6531.1 L 2143.9,6522.89 L 2135.69,6512.89 L 2129.59,6501.48 L 2125.84,6489.1 L 2124.57,6476.22 z " style="fill-opacity:1.000000;fill:rgb(148,117,216);stroke:rgb(0,0,0);stroke-width:2"/></g>
<g fill-rule="evenodd"><path d="M 2124.57,6276.22 L 2125.84,6263.34 L 2129.59,6250.96 L 2135.69,6239.55 L 2143.9,6229.55 L 2153.9,6221.34 L 2165.31,6215.24 L 2177.69,6211.49 L 2190.57,6210.22 L 2203.44,6211.49 L 2215.82,6215.24 L 2227.23,6221.34 L 2237.24,6229.55 L 2245.44,6239.55 L 2249.21,6246.6 L 2296.13,6246.6 L 2296.73,6244.61 L 2302.92,6233.04 L 2311.24,6222.89 L 2321.38,6214.57 L 2332.95,6208.39 L 2345.51,6204.58 L 2358.57,6203.29 L 2371.62,6204.58 L 2384.18,6208.39 L 2395.75,6214.57 L 2405.89,6222.89 L 2414.22,6233.04 L 2420.4,6244.61 L 2424.21,6257.16 L 2425.5,6270.22 L 2424.21,6283.28 L 2420.4,6295.83 L 2414.22,6307.4 L 2405.89,6317.55 L 2395.75,6325.87 L 2384.18,6332.05 L 2371.62,6335.86 L 2358.57,6337.15 L 2345.51,6335.86 L 2332.95,6332.05 L 2321.38,6325.87 L 2311.24,6317.55 L 2302.92,6307.4 L 2296.73,6295.83 L 2296.13,6293.84 L 2253.86,6293.84 L 2251.54,6301.48 L 2245.44,6312.89 L 2237.24,6322.89 L 2227.23,6331.1 L 2215.82,6337.2 L 2203.44,6340.95 L 2190.57,6342.22 L 2177.69,6340.95 L 2165.31,6337.2 L 2153.9,6331.1 L 2143.9,6322.89 L 2135.69,6312.89 L 2129.59,6301.48 L 2125.84,6289.1 L 2124.57,6276.22 z " style="fill-opacity:1.000000;fill:rgb(190,97,137);stroke:rgb(0,0,0);stroke-width:2"/></g>
<g fill-rule="evenodd"><path d="M 2124.57,6076.22 L 2125.84,6063.34 L 2129.59,6050.96 L 2135.69,6039.55 L 2143.9,6029.55 L 2153.9,6021.34 L 2165.31,6015.24 L 2177.69,6011.49 L 2190.57,6010.22 L 2203.44,6011.49 L 2215.82,6015.24 L 2227.23,6021.34 L 2237.24,6029.55 L 2245.44,6039.55 L 2251.35,6050.6 L 2296.13,6050.6 L 2296.73,6048.61 L 2302.92,6037.04 L 2311.24,6026.89 L 2321.38,6018.57 L 2332.95,6012.39 L 2345.51,6008.58 L 2358.57,6007.29 L 2371.62,6008.58 L 2384.18,6012.39 L 2395.75,6018.57 L 2405.89,6026.89 L 2414.22,6037.04 L 2420.4,6048.61 L 2424.21,6061.16 L 2425.5,6074.22 L 2424.21,6087.28 L 2420.4,6099.83 L 2414.22,6111.4 L 2405.89,6121.55 L 2395.75,6129.87 L 2384.18,6136.05 L 2371.62,6139.86 L 2358.57,6141.15 L 2345.51,6139.86 L 2332.95,6136.05 L 2321.38,6129.87 L 2311.24,6121.55 L 2302.92,6111.4 L 2296.73,6099.83 L 2296.13,6097.84 L 2252.65,6097.84 L 2251.54,6101.48 L 2245.44,6112.89 L 2237.24,6122.89 L 2227.23,6131.1 L 2215.82,6137.2 L 2203.44,6140.95 L 2190.57,6142.22 L 2177.69,6140.95 L 2165.31,6137.2 L 2153.9,6131.1 L 2143.9,6122.89 L 2135.69,6112.89 L 2129.59,6101.48 L 2125.84,6089.1 L 2124.57,6076.22 z " style="fill-opacity:1.000000;fill:rgb(249,92,187);stroke:rgb(0,0,0);stroke-width:2"/></g>
<g fill-rule="evenodd"><path d="M 2228.66,6572.92 L 2231.61,6566.6 L 2237.01,6562.19 L 2237.36,6562.02 L 2239.52,6561.01 L 2253.5,6551.22 L 2256.79,6547.94 L 2264.83,6539.89 L 2270.73,6536.18 L 2277.66,6535.4 L 2284.25,6537.7 L 2286.99,6539.89 L 2295.03,6547.94 L 2309.15,6557.82 L 2311.72,6559.02 L 2317.23,6563.3 L 2320.33,6569.54 L 2320.42,6576.52 L 2317.47,6582.84 L 2312.07,6587.25 L 2311.72,6587.42 L 2309.15,6588.62 L 2295.03,6598.5 L 2283.99,6609.55 L 2278.08,6613.26 L 2271.15,6614.04 L 2264.57,6611.73 L 2261.83,6609.55 L 2253.5,6601.22 L 2239.52,6591.43 L 2237.36,6590.42 L 2231.85,6586.14 L 2228.75,6579.9 L 2228.66,6572.92 z " style="fill-opacity:1.000000;fill:rgb(168,153,15);stroke:rgb(0,0,0);stroke-width:2"/></g>
<g fill-rule="evenodd"><path d="M 2228.66,6372.92 L 2231.61,6366.6 L 2237.01,6362.19 L 2237.36,6362.02 L 2239.52,6361.01 L 2253.5,6351.22 L 2259.46,6345.26 L 2265.83,6338.89 L 2271.73,6335.18 L 2278.66,6334.4 L 2285.25,6336.7 L 2287.99,6338.89 L 2295.03,6345.94 L 2309.15,6355.82 L 2310.33,6356.37 L 2311.72,6357.02 L 2317.23,6361.3 L 2320.33,6367.54 L 2320.42,6374.52 L 2317.47,6380.84 L 2312.07,6385.25 L 2311.72,6385.42 L 2309.15,6386.62 L 2295.03,6396.5 L 2282.99,6408.55 L 2277.08,6412.26 L 2270.15,6413.04 L 2263.57,6410.73 L 2260.83,6408.55 L 2253.5,6401.22 L 2239.52,6391.43 L 2237.36,6390.42 L 2231.85,6386.14 L 2228.75,6379.9 L 2228.66,6372.92 z " style="fill-opacity:1.000000;fill:rgb(149,177,235);stroke:rgb(0,0,0);stroke-width:2"/></g>
<g fill-rule="evenodd"><path d="M 2228.66,6172.92 L 2231.61,6166.6 L 2237.01,6162.19 L 2237.36,6162.02 L 2239.52,6161.01 L 2253.5,6151.22 L 2254.79,6149.94 L 2263.83,6140.89 L 2269.73,6137.18 L 2276.66,6136.4 L 2283.25,6138.7 L 2285.99,6140.89 L 2295.03,6149.94 L 2308.53,6159.38 L 2313.2,6164.55 L 2315.18,6171.24 L 2314.05,6178.13 L 2310.05,6183.84 L 2308.53,6185.05 L 2295.03,6194.5 L 2282.37,6207.17 L 2282.28,6207.08 L 2277.38,6210.78 L 2270.55,6212.16 L 2263.79,6210.44 L 2259.86,6207.58 L 2253.5,6201.22 L 2239.52,6191.43 L 2237.36,6190.42 L 2231.85,6186.14 L 2228.75,6179.9 L 2228.66,6172.92 z " style="fill-opacity:1.000000;fill:rgb(241,179,5);stroke:rgb(0,0,0);stroke-width:2"/></g>
</svg>
