%TF.GenerationSoftware,KiCad,Pcbnew,7.0.11+dfsg-1build4*%
%TF.CreationDate,2025-12-30T08:59:32-07:00*%
%TF.ProjectId,panel,70616e65-6c2e-46b6-9963-61645f706362,rev?*%
%TF.SameCoordinates,Original*%
%TF.FileFunction,Soldermask,Bot*%
%TF.FilePolarity,Negative*%
%FSLAX46Y46*%
G04 Gerber Fmt 4.6, Leading zero omitted, Abs format (unit mm)*
G04 Created by KiCad (PCBNEW 7.0.11+dfsg-1build4) date 2025-12-30 08:59:32*
%MOMM*%
%LPD*%
G01*
G04 APERTURE LIST*
%ADD10R,1.700000X1.700000*%
%ADD11O,1.700000X1.700000*%
%ADD12C,1.982000*%
%ADD13C,1.880400*%
G04 APERTURE END LIST*
D10*
%TO.C,U3*%
X-9238300Y-18473400D03*
D11*
X-9238300Y-15773400D03*
X-9238300Y-20853400D03*
X-9238300Y-23393400D03*
%TD*%
D12*
%TO.C,U5*%
X-7612700Y6350000D03*
X-7612700Y3810000D03*
X-7612700Y1270000D03*
X-7612700Y-1270000D03*
X-7612700Y-3810000D03*
X-7612700Y-6350000D03*
X10167300Y6350000D03*
X10167300Y3810000D03*
X10167300Y1270000D03*
X10167300Y-1270000D03*
X10167300Y-3810000D03*
X10167300Y-6350000D03*
%TD*%
D13*
%TO.C,U1*%
X10319700Y-48615600D03*
X10319700Y-46075600D03*
X10319700Y-43535600D03*
X10319700Y-40995600D03*
X10319700Y-38455600D03*
X10319700Y-35915600D03*
X10319700Y-33375600D03*
X10319700Y-30835600D03*
X10319700Y-28295600D03*
X10319700Y-25755600D03*
X10319700Y-23215600D03*
X10319700Y-20675600D03*
X10319700Y-18135600D03*
X10319700Y-15595600D03*
X-4920300Y-15595600D03*
X-4920300Y-18135600D03*
X-4920300Y-20675600D03*
X-4920300Y-23215600D03*
X-4920300Y-25755600D03*
X-4920300Y-28295600D03*
X-4920300Y-30835600D03*
X-4920300Y-33375600D03*
X-4920300Y-35915600D03*
X-4920300Y-38455600D03*
X-4920300Y-40995600D03*
X-4920300Y-43535600D03*
X-4920300Y-46075600D03*
X-4920300Y-48615600D03*
%TD*%
M02*
