%TF.GenerationSoftware,KiCad,Pcbnew,7.0.11+dfsg-1build4*%
%TF.CreationDate,2025-12-30T08:59:32-07:00*%
%TF.ProjectId,panel,70616e65-6c2e-46b6-9963-61645f706362,rev?*%
%TF.SameCoordinates,Original*%
%TF.FileFunction,Legend,Top*%
%TF.FilePolarity,Positive*%
%FSLAX46Y46*%
G04 Gerber Fmt 4.6, Leading zero omitted, Abs format (unit mm)*
G04 Created by KiCad (PCBNEW 7.0.11+dfsg-1build4) date 2025-12-30 08:59:32*
%MOMM*%
%LPD*%
G01*
G04 APERTURE LIST*
%ADD10C,0.150000*%
%ADD11C,0.120000*%
%ADD12C,0.127000*%
%ADD13C,0.200000*%
G04 APERTURE END LIST*
D10*
X-10000204Y-12458219D02*
X-10000204Y-13267742D01*
X-10000204Y-13267742D02*
X-9952585Y-13362980D01*
X-9952585Y-13362980D02*
X-9904966Y-13410600D01*
X-9904966Y-13410600D02*
X-9809728Y-13458219D01*
X-9809728Y-13458219D02*
X-9619252Y-13458219D01*
X-9619252Y-13458219D02*
X-9524014Y-13410600D01*
X-9524014Y-13410600D02*
X-9476395Y-13362980D01*
X-9476395Y-13362980D02*
X-9428776Y-13267742D01*
X-9428776Y-13267742D02*
X-9428776Y-12458219D01*
X-9047823Y-12458219D02*
X-8428776Y-12458219D01*
X-8428776Y-12458219D02*
X-8762109Y-12839171D01*
X-8762109Y-12839171D02*
X-8619252Y-12839171D01*
X-8619252Y-12839171D02*
X-8524014Y-12886790D01*
X-8524014Y-12886790D02*
X-8476395Y-12934409D01*
X-8476395Y-12934409D02*
X-8428776Y-13029647D01*
X-8428776Y-13029647D02*
X-8428776Y-13267742D01*
X-8428776Y-13267742D02*
X-8476395Y-13362980D01*
X-8476395Y-13362980D02*
X-8524014Y-13410600D01*
X-8524014Y-13410600D02*
X-8619252Y-13458219D01*
X-8619252Y-13458219D02*
X-8904966Y-13458219D01*
X-8904966Y-13458219D02*
X-9000204Y-13410600D01*
X-9000204Y-13410600D02*
X-9047823Y-13362980D01*
X14047119Y9013095D02*
X14856642Y9013095D01*
X14856642Y9013095D02*
X14951880Y9060714D01*
X14951880Y9060714D02*
X14999500Y9108333D01*
X14999500Y9108333D02*
X15047119Y9203571D01*
X15047119Y9203571D02*
X15047119Y9394047D01*
X15047119Y9394047D02*
X14999500Y9489285D01*
X14999500Y9489285D02*
X14951880Y9536904D01*
X14951880Y9536904D02*
X14856642Y9584523D01*
X14856642Y9584523D02*
X14047119Y9584523D01*
X14047119Y10536904D02*
X14047119Y10060714D01*
X14047119Y10060714D02*
X14523309Y10013095D01*
X14523309Y10013095D02*
X14475690Y10060714D01*
X14475690Y10060714D02*
X14428071Y10155952D01*
X14428071Y10155952D02*
X14428071Y10394047D01*
X14428071Y10394047D02*
X14475690Y10489285D01*
X14475690Y10489285D02*
X14523309Y10536904D01*
X14523309Y10536904D02*
X14618547Y10584523D01*
X14618547Y10584523D02*
X14856642Y10584523D01*
X14856642Y10584523D02*
X14951880Y10536904D01*
X14951880Y10536904D02*
X14999500Y10489285D01*
X14999500Y10489285D02*
X15047119Y10394047D01*
X15047119Y10394047D02*
X15047119Y10155952D01*
X15047119Y10155952D02*
X14999500Y10060714D01*
X14999500Y10060714D02*
X14951880Y10013095D01*
X7902795Y-51225419D02*
X7902795Y-52034942D01*
X7902795Y-52034942D02*
X7950414Y-52130180D01*
X7950414Y-52130180D02*
X7998033Y-52177800D01*
X7998033Y-52177800D02*
X8093271Y-52225419D01*
X8093271Y-52225419D02*
X8283747Y-52225419D01*
X8283747Y-52225419D02*
X8378985Y-52177800D01*
X8378985Y-52177800D02*
X8426604Y-52130180D01*
X8426604Y-52130180D02*
X8474223Y-52034942D01*
X8474223Y-52034942D02*
X8474223Y-51225419D01*
X9474223Y-52225419D02*
X8902795Y-52225419D01*
X9188509Y-52225419D02*
X9188509Y-51225419D01*
X9188509Y-51225419D02*
X9093271Y-51368276D01*
X9093271Y-51368276D02*
X8998033Y-51463514D01*
X8998033Y-51463514D02*
X8902795Y-51511133D01*
X-634025Y35022434D02*
X-634025Y34385014D01*
X-634025Y34385014D02*
X-596530Y34310023D01*
X-596530Y34310023D02*
X-559034Y34272528D01*
X-559034Y34272528D02*
X-484044Y34235032D01*
X-484044Y34235032D02*
X-334062Y34235032D01*
X-334062Y34235032D02*
X-259072Y34272528D01*
X-259072Y34272528D02*
X-221576Y34310023D01*
X-221576Y34310023D02*
X-184081Y34385014D01*
X-184081Y34385014D02*
X-184081Y35022434D01*
X528329Y35022434D02*
X378348Y35022434D01*
X378348Y35022434D02*
X303357Y34984939D01*
X303357Y34984939D02*
X265862Y34947444D01*
X265862Y34947444D02*
X190871Y34834958D01*
X190871Y34834958D02*
X153376Y34684976D01*
X153376Y34684976D02*
X153376Y34385014D01*
X153376Y34385014D02*
X190871Y34310023D01*
X190871Y34310023D02*
X228367Y34272528D01*
X228367Y34272528D02*
X303357Y34235032D01*
X303357Y34235032D02*
X453339Y34235032D01*
X453339Y34235032D02*
X528329Y34272528D01*
X528329Y34272528D02*
X565824Y34310023D01*
X565824Y34310023D02*
X603320Y34385014D01*
X603320Y34385014D02*
X603320Y34572490D01*
X603320Y34572490D02*
X565824Y34647481D01*
X565824Y34647481D02*
X528329Y34684976D01*
X528329Y34684976D02*
X453339Y34722472D01*
X453339Y34722472D02*
X303357Y34722472D01*
X303357Y34722472D02*
X228367Y34684976D01*
X228367Y34684976D02*
X190871Y34647481D01*
X190871Y34647481D02*
X153376Y34572490D01*
D11*
%TO.C,U3*%
X-10568300Y-17043400D02*
X-10568300Y-24723400D01*
X-10568300Y-17043400D02*
X-7908300Y-17043400D01*
X-10568300Y-24723400D02*
X-7908300Y-24723400D01*
X-9238300Y-14443400D02*
X-7908300Y-14443400D01*
X-7908300Y-14443400D02*
X-7908300Y-15773400D01*
X-7908300Y-17043400D02*
X-7908300Y-24723400D01*
D12*
%TO.C,U5*%
X10167300Y12700000D02*
X-7612700Y12700000D01*
X-10152700Y10160000D02*
X-10152700Y-10160000D01*
X12707300Y-10160000D02*
X12707300Y10160000D01*
X-7612700Y-12700000D02*
X10167300Y-12700000D01*
X12707300Y10160000D02*
G75*
G03*
X10167300Y12700000I-2540001J-1D01*
G01*
X-7612700Y12700000D02*
G75*
G03*
X-10152700Y10160000I1J-2540001D01*
G01*
X10167300Y-12700000D02*
G75*
G03*
X12707300Y-10160000I0J2540000D01*
G01*
X-10152700Y-10160000D02*
G75*
G03*
X-7612700Y-12700000I2540000J0D01*
G01*
D13*
X-10802700Y6350000D02*
G75*
G03*
X-11002700Y6350000I-100000J0D01*
G01*
X-11002700Y6350000D02*
G75*
G03*
X-10802700Y6350000I100000J0D01*
G01*
D12*
%TO.C,U1*%
X11589700Y-48615600D02*
X11589700Y-15595600D01*
X10319700Y-14325600D02*
X-4920300Y-14325600D01*
X5239700Y-49885600D02*
X10319700Y-49885600D01*
X4731700Y-49377600D02*
X5239700Y-49885600D01*
X413700Y-49377600D02*
X4731700Y-49377600D01*
X-94300Y-49885600D02*
X413700Y-49377600D01*
X-4920300Y-49885600D02*
X-94300Y-49885600D01*
X-6190300Y-15595600D02*
X-6190300Y-48615600D01*
X10319700Y-49885600D02*
G75*
G03*
X11589700Y-48615600I1J1269999D01*
G01*
X11589700Y-15595600D02*
G75*
G03*
X10319700Y-14325600I-1269999J1D01*
G01*
X-6190300Y-48615600D02*
G75*
G03*
X-4920300Y-49885600I1270000J0D01*
G01*
X-4920300Y-14325600D02*
G75*
G03*
X-6190300Y-15595600I0J-1270000D01*
G01*
D13*
X12439700Y-48615600D02*
G75*
G03*
X12239700Y-48615600I-100000J0D01*
G01*
X12239700Y-48615600D02*
G75*
G03*
X12439700Y-48615600I100000J0D01*
G01*
%TD*%
M02*
