%TF.GenerationSoftware,KiCad,Pcbnew,7.0.11+dfsg-1build4*%
%TF.CreationDate,2025-12-30T08:59:32-07:00*%
%TF.ProjectId,panel,70616e65-6c2e-46b6-9963-61645f706362,rev?*%
%TF.SameCoordinates,Original*%
%TF.FileFunction,Copper,L2,Bot*%
%TF.FilePolarity,Positive*%
%FSLAX46Y46*%
G04 Gerber Fmt 4.6, Leading zero omitted, Abs format (unit mm)*
G04 Created by KiCad (PCBNEW 7.0.11+dfsg-1build4) date 2025-12-30 08:59:32*
%MOMM*%
%LPD*%
G01*
G04 APERTURE LIST*
%TA.AperFunction,ComponentPad*%
%ADD10R,1.700000X1.700000*%
%TD*%
%TA.AperFunction,ComponentPad*%
%ADD11O,1.700000X1.700000*%
%TD*%
%TA.AperFunction,ComponentPad*%
%ADD12C,1.778000*%
%TD*%
%TA.AperFunction,ComponentPad*%
%ADD13C,1.676400*%
%TD*%
%TA.AperFunction,ViaPad*%
%ADD14C,1.700000*%
%TD*%
%TA.AperFunction,ViaPad*%
%ADD15C,6.000000*%
%TD*%
%TA.AperFunction,Conductor*%
%ADD16C,1.200000*%
%TD*%
%TA.AperFunction,Conductor*%
%ADD17C,0.800000*%
%TD*%
%TA.AperFunction,Conductor*%
%ADD18C,0.400000*%
%TD*%
%TA.AperFunction,Conductor*%
%ADD19C,0.600000*%
%TD*%
G04 APERTURE END LIST*
D10*
%TO.P,U3,1,RX*%
%TO.N,Net-(U1-D1{slash}PA17)*%
X-9238300Y-18473400D03*
D11*
%TO.P,U3,2,TX*%
%TO.N,Net-(U1-D0{slash}PA16)*%
X-9238300Y-15773400D03*
%TO.P,U3,3,VDD*%
%TO.N,VCC*%
X-9238300Y-20853400D03*
%TO.P,U3,4,GND*%
%TO.N,GND*%
X-9238300Y-23393400D03*
%TD*%
D12*
%TO.P,U5,JP1_1,VIN*%
%TO.N,VCC*%
X-7612700Y6350000D03*
%TO.P,U5,JP1_2,3VO*%
%TO.N,unconnected-(U5-3VO-PadJP1_2)*%
X-7612700Y3810000D03*
%TO.P,U5,JP1_3,GND*%
%TO.N,GND*%
X-7612700Y1270000D03*
%TO.P,U5,JP1_4,SCL*%
%TO.N,Net-(U1-SCL{slash}PA13)*%
X-7612700Y-1270000D03*
%TO.P,U5,JP1_5,SDA*%
%TO.N,Net-(U1-SDA{slash}PA12)*%
X-7612700Y-3810000D03*
%TO.P,U5,JP1_6,~{INT}*%
%TO.N,unconnected-(U5-~{INT}-PadJP1_6)*%
X-7612700Y-6350000D03*
%TO.P,U5,JP2_1,BT*%
%TO.N,unconnected-(U5-BT-PadJP2_1)*%
X10167300Y6350000D03*
%TO.P,U5,JP2_2,P0*%
%TO.N,unconnected-(U5-P0-PadJP2_2)*%
X10167300Y3810000D03*
%TO.P,U5,JP2_3,P1*%
%TO.N,unconnected-(U5-P1-PadJP2_3)*%
X10167300Y1270000D03*
%TO.P,U5,JP2_4,~{RST}*%
%TO.N,Net-(U1-D10{slash}PA20)*%
X10167300Y-1270000D03*
%TO.P,U5,JP2_5,DI*%
%TO.N,unconnected-(U5-DI-PadJP2_5)*%
X10167300Y-3810000D03*
%TO.P,U5,JP2_6,CS*%
%TO.N,unconnected-(U5-CS-PadJP2_6)*%
X10167300Y-6350000D03*
%TD*%
D13*
%TO.P,U1,1,RESET*%
%TO.N,unconnected-(U1-RESET-Pad1)*%
X10319700Y-48615600D03*
%TO.P,U1,2,3.3V*%
%TO.N,unconnected-(U1-3.3V-Pad2)*%
X10319700Y-46075600D03*
%TO.P,U1,3,AREF*%
%TO.N,unconnected-(U1-AREF-Pad3)*%
X10319700Y-43535600D03*
%TO.P,U1,4,VHI*%
%TO.N,VCC*%
X10319700Y-40995600D03*
%TO.P,U1,5,A0/PA02*%
%TO.N,unconnected-(U1-A0{slash}PA02-Pad5)*%
X10319700Y-38455600D03*
%TO.P,U1,6,A1/PA05*%
%TO.N,unconnected-(U1-A1{slash}PA05-Pad6)*%
X10319700Y-35915600D03*
%TO.P,U1,7,A2/PB08*%
%TO.N,unconnected-(U1-A2{slash}PB08-Pad7)*%
X10319700Y-33375600D03*
%TO.P,U1,8,A3/PB09*%
%TO.N,unconnected-(U1-A3{slash}PB09-Pad8)*%
X10319700Y-30835600D03*
%TO.P,U1,9,A4/PA04*%
%TO.N,unconnected-(U1-A4{slash}PA04-Pad9)*%
X10319700Y-28295600D03*
%TO.P,U1,10,A5/PA06*%
%TO.N,unconnected-(U1-A5{slash}PA06-Pad10)*%
X10319700Y-25755600D03*
%TO.P,U1,11,SCK/PA01*%
%TO.N,Net-(U1-SCK{slash}PA01)*%
X10319700Y-23215600D03*
%TO.P,U1,12,MOSI/PA00*%
%TO.N,Net-(U1-MOSI{slash}PA00)*%
X10319700Y-20675600D03*
%TO.P,U1,13,MISO/PB23*%
%TO.N,Net-(U1-MISO{slash}PB23)*%
X10319700Y-18135600D03*
%TO.P,U1,14,D2/PA07*%
%TO.N,Net-(U1-D2{slash}PA07)*%
X10319700Y-15595600D03*
%TO.P,U1,20,D0/PA16*%
%TO.N,Net-(U1-D0{slash}PA16)*%
X-4920300Y-15595600D03*
%TO.P,U1,21,D1/PA17*%
%TO.N,Net-(U1-D1{slash}PA17)*%
X-4920300Y-18135600D03*
%TO.P,U1,22,SDA/PA12*%
%TO.N,Net-(U1-SDA{slash}PA12)*%
X-4920300Y-20675600D03*
%TO.P,U1,23,SCL/PA13*%
%TO.N,Net-(U1-SCL{slash}PA13)*%
X-4920300Y-23215600D03*
%TO.P,U1,24,D5/PA15*%
%TO.N,Net-(U1-D5{slash}PA15)*%
X-4920300Y-25755600D03*
%TO.P,U1,25,D7/PA18*%
%TO.N,Net-(U1-D7{slash}PA18)*%
X-4920300Y-28295600D03*
%TO.P,U1,26,D9/PA19*%
%TO.N,Net-(U1-D9{slash}PA19)*%
X-4920300Y-30835600D03*
%TO.P,U1,27,D10/PA20*%
%TO.N,Net-(U1-D10{slash}PA20)*%
X-4920300Y-33375600D03*
%TO.P,U1,28,D11/PA21*%
%TO.N,unconnected-(U1-D11{slash}PA21-Pad28)*%
X-4920300Y-35915600D03*
%TO.P,U1,29,D12/PA23*%
%TO.N,Net-(U1-D12{slash}PA23)*%
X-4920300Y-38455600D03*
%TO.P,U1,30,D13/PA22*%
%TO.N,unconnected-(U1-D13{slash}PA22-Pad30)*%
X-4920300Y-40995600D03*
%TO.P,U1,31,VBUS*%
%TO.N,unconnected-(U1-VBUS-Pad31)*%
X-4920300Y-43535600D03*
%TO.P,U1,32,GND*%
%TO.N,GND*%
X-4920300Y-46075600D03*
%TO.P,U1,33,VBAT*%
%TO.N,unconnected-(U1-VBAT-Pad33)*%
X-4920300Y-48615600D03*
%TD*%
D14*
%TO.N,VCC*%
X-12845100Y23850600D03*
%TO.N,GND*%
X12970700Y49145700D03*
D15*
X-75500Y55147400D03*
X10424500Y-54852600D03*
D14*
X-12607100Y18691100D03*
D15*
X-10575500Y-54852600D03*
D14*
X13046900Y18691100D03*
X13046900Y44167300D03*
X-12759500Y46631100D03*
X-12734100Y36521900D03*
%TO.N,Net-(U1-SCK{slash}PA01)*%
X12453300Y-23190200D03*
%TO.N,Net-(U1-MOSI{slash}PA00)*%
X12453300Y-20624800D03*
%TO.N,Net-(U1-MISO{slash}PB23)*%
X12453300Y-18059400D03*
%TO.N,Net-(U1-D5{slash}PA15)*%
X13012100Y36449000D03*
%TO.N,Net-(U1-D7{slash}PA18)*%
X13012100Y23799800D03*
%TO.N,Net-(U1-D9{slash}PA19)*%
X13037500Y21259800D03*
%TO.N,Net-(U1-D12{slash}PA23)*%
X-6901500Y-38481000D03*
%TO.N,Net-(U1-D2{slash}PA07)*%
X12453300Y-15570200D03*
%TD*%
D16*
%TO.N,VCC*%
X-11905300Y-45974000D02*
X-11905300Y-20472400D01*
X-6469700Y-51409600D02*
X-11905300Y-45974000D01*
X-3167700Y-51409600D02*
X-6469700Y-51409600D01*
X7246300Y-40995600D02*
X-3167700Y-51409600D01*
X10319700Y-40995600D02*
X7246300Y-40995600D01*
X-7460300Y19278600D02*
X-7460300Y21793200D01*
X-7460300Y21793200D02*
X-9517700Y23850600D01*
X-9517700Y23850600D02*
X-12845100Y23850600D01*
X-7460300Y6502400D02*
X-7612700Y6350000D01*
X-7612700Y6350000D02*
X-9695500Y6350000D01*
D17*
X-11549700Y-20828000D02*
X-11905300Y-20472400D01*
X-9670100Y-20828000D02*
X-11549700Y-20828000D01*
D16*
X-11905300Y4140200D02*
X-11905300Y-20472400D01*
X-7460300Y19278600D02*
X-7460300Y15392400D01*
X-7460300Y15392400D02*
X-7460300Y6502400D01*
X-9695500Y6350000D02*
X-11905300Y4140200D01*
D18*
%TO.N,Net-(U1-SCK{slash}PA01)*%
X10345100Y-23190200D02*
X10319700Y-23215600D01*
D19*
X12453300Y-23190200D02*
X10345100Y-23190200D01*
%TO.N,Net-(U1-MOSI{slash}PA00)*%
X12453300Y-20624800D02*
X10370500Y-20624800D01*
D18*
X10370500Y-20624800D02*
X10319700Y-20675600D01*
D19*
%TO.N,Net-(U1-MISO{slash}PB23)*%
X12453300Y-18059400D02*
X10395900Y-18059400D01*
D18*
X10395900Y-18059400D02*
X10319700Y-18135600D01*
D19*
%TO.N,Net-(U1-D0{slash}PA16)*%
X-7079300Y-15595600D02*
X-4920300Y-15595600D01*
X-9670100Y-15748000D02*
X-7231700Y-15748000D01*
X-7231700Y-15748000D02*
X-7079300Y-15595600D01*
%TO.N,Net-(U1-D1{slash}PA17)*%
X-6919300Y-18135600D02*
X-4920300Y-18135600D01*
D18*
X-4995500Y-18060400D02*
X-4920300Y-18135600D01*
D19*
X-9670100Y-18448000D02*
X-7231700Y-18448000D01*
D18*
X-5046300Y-18009600D02*
X-4920300Y-18135600D01*
D19*
X-7231700Y-18448000D02*
X-6919300Y-18135600D01*
%TO.N,Net-(U1-SDA{slash}PA12)*%
X-4920300Y-20675600D02*
X-3447100Y-20675600D01*
X-3447100Y-20675600D02*
X-2862900Y-20091400D01*
X-4945700Y-3810000D02*
X-7612700Y-3810000D01*
X-2862900Y-5892800D02*
X-4945700Y-3810000D01*
X-2862900Y-20091400D02*
X-2862900Y-5892800D01*
%TO.N,Net-(U1-SCL{slash}PA13)*%
X-4920300Y-23215600D02*
X-2608900Y-23215600D01*
X-2608900Y-23215600D02*
X-957900Y-21564600D01*
X-957900Y-4216400D02*
X-3904300Y-1270000D01*
X-957900Y-21564600D02*
X-957900Y-4216400D01*
X-3904300Y-1270000D02*
X-7612700Y-1270000D01*
%TO.N,Net-(U1-D5{slash}PA15)*%
X4884100Y36449000D02*
X13012100Y36449000D01*
X-1948500Y-25755600D02*
X1124900Y-22682200D01*
X1124900Y32689800D02*
X4884100Y36449000D01*
X1124900Y-22682200D02*
X1124900Y32689800D01*
X-4920300Y-25755600D02*
X-1948500Y-25755600D01*
%TO.N,Net-(U1-D7{slash}PA18)*%
X8059100Y23799800D02*
X13012100Y23799800D01*
X3334700Y19075400D02*
X3334700Y15189200D01*
X3334700Y-24003000D02*
X3334700Y15189200D01*
X-957900Y-28295600D02*
X3334700Y-24003000D01*
X3334700Y19075400D02*
X8059100Y23799800D01*
X-4920300Y-28295600D02*
X-957900Y-28295600D01*
%TO.N,Net-(U1-D9{slash}PA19)*%
X5569900Y-25603200D02*
X5569900Y14630400D01*
X8313100Y21259800D02*
X13037500Y21259800D01*
X337500Y-30835600D02*
X5569900Y-25603200D01*
X-4920300Y-30835600D02*
X337500Y-30835600D01*
X5569900Y18516600D02*
X8313100Y21259800D01*
X5569900Y18516600D02*
X5569900Y14630400D01*
%TO.N,Net-(U1-D10{slash}PA20)*%
X7652700Y-27736800D02*
X2013900Y-33375600D01*
X2013900Y-33375600D02*
X-4920300Y-33375600D01*
X8617900Y-1270000D02*
X7652700Y-2235200D01*
X10167300Y-1270000D02*
X8617900Y-1270000D01*
X7652700Y-2235200D02*
X7652700Y-27736800D01*
%TO.N,Net-(U1-D12{slash}PA23)*%
X-6901500Y-38481000D02*
X-4945700Y-38481000D01*
D18*
X-4945700Y-38481000D02*
X-4920300Y-38455600D01*
D19*
%TO.N,Net-(U1-D2{slash}PA07)*%
X12453300Y-15570200D02*
X10345100Y-15570200D01*
D18*
X10345100Y-15570200D02*
X10319700Y-15595600D01*
%TD*%
%TA.AperFunction,Conductor*%
%TO.N,GND*%
G36*
X14351874Y59047193D02*
G01*
X14359321Y59043411D01*
X14458273Y58990520D01*
X14462785Y58988109D01*
X14495218Y58966438D01*
X14616461Y58866936D01*
X14644036Y58839361D01*
X14743537Y58718120D01*
X14765209Y58685684D01*
X14820502Y58582238D01*
X14843824Y58496800D01*
X14844000Y58488430D01*
X14844000Y-58193630D01*
X14824293Y-58279973D01*
X14820502Y-58287438D01*
X14765209Y-58390884D01*
X14743538Y-58423318D01*
X14644036Y-58544561D01*
X14616461Y-58572136D01*
X14495220Y-58671637D01*
X14462784Y-58693309D01*
X14359338Y-58748602D01*
X14273902Y-58771924D01*
X14265531Y-58772100D01*
X-14416531Y-58772100D01*
X-14502874Y-58752393D01*
X-14510321Y-58748611D01*
X-14613785Y-58693309D01*
X-14646220Y-58671637D01*
X-14767461Y-58572136D01*
X-14795036Y-58544561D01*
X-14894538Y-58423318D01*
X-14916209Y-58390884D01*
X-14971502Y-58287438D01*
X-14994824Y-58202000D01*
X-14995000Y-58193630D01*
X-14995000Y23850600D01*
X-14100377Y23850600D01*
X-14081307Y23632623D01*
X-14024675Y23421270D01*
X-14000984Y23370464D01*
X-13932202Y23222961D01*
X-13932200Y23222957D01*
X-13806696Y23043720D01*
X-13651979Y22889003D01*
X-13472742Y22763499D01*
X-13472738Y22763497D01*
X-13274435Y22671027D01*
X-13274428Y22671024D01*
X-13063079Y22614393D01*
X-13063072Y22614392D01*
X-12845100Y22595323D01*
X-12627127Y22614392D01*
X-12627120Y22614393D01*
X-12415771Y22671024D01*
X-12415764Y22671027D01*
X-12217461Y22763497D01*
X-12217457Y22763499D01*
X-12145178Y22814111D01*
X-12063147Y22847492D01*
X-12031036Y22850100D01*
X-10014549Y22850100D01*
X-9928206Y22830393D01*
X-9873835Y22791814D01*
X-8519086Y21437065D01*
X-8471967Y21362077D01*
X-8460800Y21296351D01*
X-8460800Y7549500D01*
X-8480507Y7463157D01*
X-8535726Y7393916D01*
X-8615518Y7355489D01*
X-8659800Y7350500D01*
X-9680285Y7350500D01*
X-9685325Y7350563D01*
X-9695583Y7350823D01*
X-9771859Y7352757D01*
X-9771859Y7352756D01*
X-9771863Y7352757D01*
X-9827150Y7342847D01*
X-9842078Y7340754D01*
X-9897938Y7335074D01*
X-9922427Y7327390D01*
X-9946885Y7321386D01*
X-9972153Y7316858D01*
X-10022406Y7296783D01*
X-10024284Y7296034D01*
X-10038519Y7290965D01*
X-10092088Y7274159D01*
X-10114528Y7261703D01*
X-10137276Y7250899D01*
X-10161117Y7241377D01*
X-10207992Y7210483D01*
X-10220917Y7202653D01*
X-10270002Y7175409D01*
X-10289475Y7158690D01*
X-10309582Y7143529D01*
X-10331019Y7129402D01*
X-10370727Y7089692D01*
X-10381805Y7079427D01*
X-10424395Y7042866D01*
X-10440107Y7022566D01*
X-10456748Y7003671D01*
X-12602018Y4858400D01*
X-12605546Y4854960D01*
X-12668353Y4795259D01*
X-12700429Y4749172D01*
X-12709526Y4737107D01*
X-12744998Y4693607D01*
X-12756883Y4670853D01*
X-12769928Y4649319D01*
X-12784595Y4628249D01*
X-12806735Y4576653D01*
X-12813219Y4563002D01*
X-12839209Y4513249D01*
X-12845761Y4490346D01*
X-12846268Y4488578D01*
X-12854720Y4464840D01*
X-12857993Y4457213D01*
X-12864840Y4441258D01*
X-12876140Y4386268D01*
X-12879742Y4371592D01*
X-12895187Y4317618D01*
X-12897136Y4292011D01*
X-12900634Y4267074D01*
X-12905800Y4241941D01*
X-12905800Y4241940D01*
X-12905800Y4185815D01*
X-12906373Y4170706D01*
X-12910637Y4114724D01*
X-12907590Y4090798D01*
X-12907394Y4089259D01*
X-12905800Y4064119D01*
X-12905800Y-45958769D01*
X-12905863Y-45963809D01*
X-12908057Y-46050363D01*
X-12898147Y-46105650D01*
X-12896054Y-46120578D01*
X-12890374Y-46176438D01*
X-12882690Y-46200927D01*
X-12876686Y-46225385D01*
X-12872158Y-46250653D01*
X-12858182Y-46285640D01*
X-12851334Y-46302784D01*
X-12846265Y-46317019D01*
X-12829459Y-46370588D01*
X-12817003Y-46393028D01*
X-12806199Y-46415776D01*
X-12796677Y-46439617D01*
X-12765783Y-46486492D01*
X-12757952Y-46499417D01*
X-12730709Y-46548502D01*
X-12713990Y-46567975D01*
X-12698829Y-46588082D01*
X-12684702Y-46609519D01*
X-12644992Y-46649227D01*
X-12634727Y-46660305D01*
X-12598166Y-46702895D01*
X-12577866Y-46718607D01*
X-12558971Y-46735248D01*
X-7187901Y-52106317D01*
X-7184461Y-52109845D01*
X-7124759Y-52172653D01*
X-7078672Y-52204729D01*
X-7066607Y-52213826D01*
X-7023107Y-52249298D01*
X-7000353Y-52261183D01*
X-6978819Y-52274228D01*
X-6957749Y-52288895D01*
X-6906153Y-52311035D01*
X-6892513Y-52317513D01*
X-6842749Y-52343509D01*
X-6818069Y-52350569D01*
X-6794348Y-52359015D01*
X-6770758Y-52369140D01*
X-6715741Y-52380445D01*
X-6701085Y-52384042D01*
X-6663938Y-52394673D01*
X-6647122Y-52399485D01*
X-6647121Y-52399485D01*
X-6647118Y-52399486D01*
X-6621513Y-52401435D01*
X-6596583Y-52404932D01*
X-6571441Y-52410100D01*
X-6515302Y-52410100D01*
X-6500191Y-52410674D01*
X-6444224Y-52414937D01*
X-6423966Y-52412357D01*
X-6418758Y-52411694D01*
X-6393621Y-52410100D01*
X-3182930Y-52410100D01*
X-3177891Y-52410163D01*
X-3091337Y-52412357D01*
X-3091336Y-52412356D01*
X-3091336Y-52412357D01*
X-3036073Y-52402452D01*
X-3021106Y-52400352D01*
X-2965262Y-52394674D01*
X-2940765Y-52386988D01*
X-2916313Y-52380986D01*
X-2891047Y-52376458D01*
X-2838920Y-52355635D01*
X-2824690Y-52350569D01*
X-2771112Y-52333759D01*
X-2748665Y-52321299D01*
X-2725918Y-52310497D01*
X-2702083Y-52300977D01*
X-2702081Y-52300975D01*
X-2702079Y-52300975D01*
X-2655210Y-52270085D01*
X-2642283Y-52262253D01*
X-2593198Y-52235009D01*
X-2593196Y-52235008D01*
X-2593192Y-52235005D01*
X-2573725Y-52218292D01*
X-2553614Y-52203127D01*
X-2532181Y-52189002D01*
X-2492476Y-52149297D01*
X-2481397Y-52139030D01*
X-2438808Y-52102469D01*
X-2438801Y-52102461D01*
X-2423097Y-52082173D01*
X-2406446Y-52063267D01*
X7602434Y-42054386D01*
X7677422Y-42007267D01*
X7743148Y-41996100D01*
X9526209Y-41996100D01*
X9612552Y-42015807D01*
X9640348Y-42032086D01*
X9697984Y-42072444D01*
X9725434Y-42085244D01*
X9725436Y-42085245D01*
X9795360Y-42139596D01*
X9834778Y-42218904D01*
X9835881Y-42307461D01*
X9798453Y-42387726D01*
X9729904Y-42443803D01*
X9725436Y-42445955D01*
X9697980Y-42458757D01*
X9520434Y-42583077D01*
X9367177Y-42736334D01*
X9242857Y-42913880D01*
X9242855Y-42913883D01*
X9151254Y-43110325D01*
X9151253Y-43110327D01*
X9095160Y-43319673D01*
X9076268Y-43535600D01*
X9095160Y-43751526D01*
X9151253Y-43960872D01*
X9151254Y-43960874D01*
X9242855Y-44157316D01*
X9242857Y-44157319D01*
X9367177Y-44334865D01*
X9520434Y-44488122D01*
X9697980Y-44612442D01*
X9725436Y-44625245D01*
X9795360Y-44679596D01*
X9834778Y-44758904D01*
X9835881Y-44847461D01*
X9798453Y-44927726D01*
X9729904Y-44983803D01*
X9725436Y-44985955D01*
X9697980Y-44998757D01*
X9520434Y-45123077D01*
X9367177Y-45276334D01*
X9242857Y-45453880D01*
X9242855Y-45453883D01*
X9151254Y-45650325D01*
X9151253Y-45650327D01*
X9095160Y-45859673D01*
X9095159Y-45859677D01*
X9095159Y-45859680D01*
X9076268Y-46075600D01*
X9094645Y-46285647D01*
X9095160Y-46291526D01*
X9151253Y-46500872D01*
X9151254Y-46500874D01*
X9242855Y-46697316D01*
X9242857Y-46697319D01*
X9367177Y-46874865D01*
X9520434Y-47028122D01*
X9697980Y-47152442D01*
X9697983Y-47152443D01*
X9697984Y-47152444D01*
X9725434Y-47165244D01*
X9725436Y-47165245D01*
X9795360Y-47219596D01*
X9834778Y-47298904D01*
X9835881Y-47387461D01*
X9798453Y-47467726D01*
X9729904Y-47523803D01*
X9725436Y-47525955D01*
X9697980Y-47538757D01*
X9520434Y-47663077D01*
X9367177Y-47816334D01*
X9242857Y-47993880D01*
X9242855Y-47993883D01*
X9151254Y-48190325D01*
X9151253Y-48190327D01*
X9095160Y-48399673D01*
X9076268Y-48615600D01*
X9095160Y-48831526D01*
X9151253Y-49040872D01*
X9151254Y-49040874D01*
X9242855Y-49237316D01*
X9242857Y-49237319D01*
X9367177Y-49414865D01*
X9520434Y-49568122D01*
X9697980Y-49692442D01*
X9697983Y-49692444D01*
X9766777Y-49724522D01*
X9894421Y-49784044D01*
X9894425Y-49784045D01*
X9894427Y-49784046D01*
X10053380Y-49826636D01*
X10103780Y-49840141D01*
X10319700Y-49859032D01*
X10535620Y-49840141D01*
X10744979Y-49784044D01*
X10941416Y-49692444D01*
X11118963Y-49568124D01*
X11272224Y-49414863D01*
X11396544Y-49237316D01*
X11488144Y-49040879D01*
X11544241Y-48831520D01*
X11563132Y-48615600D01*
X11544241Y-48399680D01*
X11488144Y-48190321D01*
X11396544Y-47993884D01*
X11396544Y-47993883D01*
X11396542Y-47993880D01*
X11272222Y-47816334D01*
X11118965Y-47663077D01*
X10941420Y-47538758D01*
X10941414Y-47538755D01*
X10913963Y-47525954D01*
X10844040Y-47471605D01*
X10804622Y-47392298D01*
X10803517Y-47303742D01*
X10840945Y-47223476D01*
X10909493Y-47167398D01*
X10913925Y-47165262D01*
X10941416Y-47152444D01*
X11118963Y-47028124D01*
X11272224Y-46874863D01*
X11396544Y-46697316D01*
X11488144Y-46500879D01*
X11544241Y-46291520D01*
X11563132Y-46075600D01*
X11544241Y-45859680D01*
X11488144Y-45650321D01*
X11396544Y-45453884D01*
X11396544Y-45453883D01*
X11396542Y-45453880D01*
X11272222Y-45276334D01*
X11118965Y-45123077D01*
X10941420Y-44998758D01*
X10934517Y-44995539D01*
X10913963Y-44985954D01*
X10844040Y-44931605D01*
X10804622Y-44852298D01*
X10803517Y-44763742D01*
X10840945Y-44683476D01*
X10909493Y-44627398D01*
X10913925Y-44625262D01*
X10941416Y-44612444D01*
X11118963Y-44488124D01*
X11272224Y-44334863D01*
X11396544Y-44157316D01*
X11488144Y-43960879D01*
X11544241Y-43751520D01*
X11563132Y-43535600D01*
X11544241Y-43319680D01*
X11488144Y-43110321D01*
X11396544Y-42913884D01*
X11396544Y-42913883D01*
X11396542Y-42913880D01*
X11272222Y-42736334D01*
X11118965Y-42583077D01*
X10941420Y-42458758D01*
X10941416Y-42458756D01*
X10913963Y-42445954D01*
X10844040Y-42391605D01*
X10804622Y-42312298D01*
X10803517Y-42223742D01*
X10840945Y-42143476D01*
X10909493Y-42087398D01*
X10913925Y-42085262D01*
X10941416Y-42072444D01*
X11118963Y-41948124D01*
X11272224Y-41794863D01*
X11396544Y-41617316D01*
X11488144Y-41420879D01*
X11544241Y-41211520D01*
X11563132Y-40995600D01*
X11544241Y-40779680D01*
X11488144Y-40570321D01*
X11396544Y-40373884D01*
X11396544Y-40373883D01*
X11396542Y-40373880D01*
X11272222Y-40196334D01*
X11118965Y-40043077D01*
X10941420Y-39918758D01*
X10941416Y-39918756D01*
X10913963Y-39905954D01*
X10844040Y-39851605D01*
X10804622Y-39772298D01*
X10803517Y-39683742D01*
X10840945Y-39603476D01*
X10909493Y-39547398D01*
X10913925Y-39545262D01*
X10941416Y-39532444D01*
X11118963Y-39408124D01*
X11272224Y-39254863D01*
X11396544Y-39077316D01*
X11488144Y-38880879D01*
X11544241Y-38671520D01*
X11563132Y-38455600D01*
X11544241Y-38239680D01*
X11493865Y-38051671D01*
X11488146Y-38030327D01*
X11488145Y-38030325D01*
X11488144Y-38030321D01*
X11396544Y-37833884D01*
X11396544Y-37833883D01*
X11396542Y-37833880D01*
X11272222Y-37656334D01*
X11118965Y-37503077D01*
X10941420Y-37378758D01*
X10941416Y-37378756D01*
X10913963Y-37365954D01*
X10844040Y-37311605D01*
X10804622Y-37232298D01*
X10803517Y-37143742D01*
X10840945Y-37063476D01*
X10909493Y-37007398D01*
X10913925Y-37005262D01*
X10941416Y-36992444D01*
X11118963Y-36868124D01*
X11272224Y-36714863D01*
X11396544Y-36537316D01*
X11488144Y-36340879D01*
X11544241Y-36131520D01*
X11563132Y-35915600D01*
X11544241Y-35699680D01*
X11488144Y-35490321D01*
X11396544Y-35293884D01*
X11396544Y-35293883D01*
X11396542Y-35293880D01*
X11272222Y-35116334D01*
X11118965Y-34963077D01*
X10941420Y-34838758D01*
X10941416Y-34838756D01*
X10913963Y-34825954D01*
X10844040Y-34771605D01*
X10804622Y-34692298D01*
X10803517Y-34603742D01*
X10840945Y-34523476D01*
X10909493Y-34467398D01*
X10913925Y-34465262D01*
X10941416Y-34452444D01*
X11118963Y-34328124D01*
X11272224Y-34174863D01*
X11396544Y-33997316D01*
X11488144Y-33800879D01*
X11544241Y-33591520D01*
X11563132Y-33375600D01*
X11544241Y-33159680D01*
X11488144Y-32950321D01*
X11396544Y-32753884D01*
X11396544Y-32753883D01*
X11396542Y-32753880D01*
X11272222Y-32576334D01*
X11118965Y-32423077D01*
X10941420Y-32298758D01*
X10941416Y-32298756D01*
X10913963Y-32285954D01*
X10844040Y-32231605D01*
X10804622Y-32152298D01*
X10803517Y-32063742D01*
X10840945Y-31983476D01*
X10909493Y-31927398D01*
X10913925Y-31925262D01*
X10941416Y-31912444D01*
X11118963Y-31788124D01*
X11272224Y-31634863D01*
X11396544Y-31457316D01*
X11488144Y-31260879D01*
X11544241Y-31051520D01*
X11563132Y-30835600D01*
X11544241Y-30619680D01*
X11488144Y-30410321D01*
X11396544Y-30213884D01*
X11396544Y-30213883D01*
X11396542Y-30213880D01*
X11272222Y-30036334D01*
X11118965Y-29883077D01*
X10941420Y-29758758D01*
X10941416Y-29758756D01*
X10913963Y-29745954D01*
X10844040Y-29691605D01*
X10804622Y-29612298D01*
X10803517Y-29523742D01*
X10840945Y-29443476D01*
X10909493Y-29387398D01*
X10913925Y-29385262D01*
X10941416Y-29372444D01*
X11118963Y-29248124D01*
X11272224Y-29094863D01*
X11396544Y-28917316D01*
X11488144Y-28720879D01*
X11544241Y-28511520D01*
X11563132Y-28295600D01*
X11544241Y-28079680D01*
X11488144Y-27870321D01*
X11396544Y-27673884D01*
X11396544Y-27673883D01*
X11396542Y-27673880D01*
X11272222Y-27496334D01*
X11118965Y-27343077D01*
X10941420Y-27218758D01*
X10941416Y-27218756D01*
X10913963Y-27205954D01*
X10844040Y-27151605D01*
X10804622Y-27072298D01*
X10803517Y-26983742D01*
X10840945Y-26903476D01*
X10909493Y-26847398D01*
X10913925Y-26845262D01*
X10941416Y-26832444D01*
X11118963Y-26708124D01*
X11272224Y-26554863D01*
X11396544Y-26377316D01*
X11488144Y-26180879D01*
X11544241Y-25971520D01*
X11563132Y-25755600D01*
X11544241Y-25539680D01*
X11488144Y-25330321D01*
X11396544Y-25133884D01*
X11396544Y-25133883D01*
X11396542Y-25133880D01*
X11272222Y-24956334D01*
X11118965Y-24803077D01*
X10941420Y-24678758D01*
X10941416Y-24678756D01*
X10913963Y-24665954D01*
X10844040Y-24611605D01*
X10804622Y-24532298D01*
X10803517Y-24443742D01*
X10840945Y-24363476D01*
X10909493Y-24307398D01*
X10913925Y-24305262D01*
X10941416Y-24292444D01*
X11118963Y-24168124D01*
X11178641Y-24108446D01*
X11250142Y-24036946D01*
X11325130Y-23989827D01*
X11413137Y-23979911D01*
X11496730Y-24009162D01*
X11531570Y-24036946D01*
X11646420Y-24151796D01*
X11825657Y-24277300D01*
X11825661Y-24277302D01*
X12023970Y-24369775D01*
X12235323Y-24426407D01*
X12453300Y-24445477D01*
X12671277Y-24426407D01*
X12882630Y-24369775D01*
X13080939Y-24277302D01*
X13260177Y-24151798D01*
X13414898Y-23997077D01*
X13540402Y-23817839D01*
X13632875Y-23619530D01*
X13689507Y-23408177D01*
X13708577Y-23190200D01*
X13689507Y-22972223D01*
X13632875Y-22760870D01*
X13589117Y-22667032D01*
X13540403Y-22562564D01*
X13499349Y-22503933D01*
X13438015Y-22416337D01*
X13414901Y-22383327D01*
X13414899Y-22383325D01*
X13414898Y-22383323D01*
X13260177Y-22228602D01*
X13260176Y-22228601D01*
X13260175Y-22228600D01*
X13080943Y-22103100D01*
X13080939Y-22103098D01*
X13048248Y-22087854D01*
X12978326Y-22033505D01*
X12938908Y-21954198D01*
X12937803Y-21865642D01*
X12975231Y-21785376D01*
X13043779Y-21729298D01*
X13048207Y-21727164D01*
X13080939Y-21711902D01*
X13260177Y-21586398D01*
X13414898Y-21431677D01*
X13540402Y-21252439D01*
X13632875Y-21054130D01*
X13689507Y-20842777D01*
X13708577Y-20624800D01*
X13689507Y-20406823D01*
X13632875Y-20195470D01*
X13604213Y-20134005D01*
X13540403Y-19997164D01*
X13513923Y-19959347D01*
X13444031Y-19859529D01*
X13414901Y-19817927D01*
X13414899Y-19817925D01*
X13414898Y-19817923D01*
X13260177Y-19663202D01*
X13260176Y-19663201D01*
X13260175Y-19663200D01*
X13080943Y-19537700D01*
X13080939Y-19537698D01*
X13048248Y-19522454D01*
X12978326Y-19468105D01*
X12938908Y-19388798D01*
X12937803Y-19300242D01*
X12975231Y-19219976D01*
X13043779Y-19163898D01*
X13048207Y-19161764D01*
X13080939Y-19146502D01*
X13260177Y-19020998D01*
X13414898Y-18866277D01*
X13540402Y-18687039D01*
X13632875Y-18488730D01*
X13689507Y-18277377D01*
X13708577Y-18059400D01*
X13689507Y-17841423D01*
X13632875Y-17630070D01*
X13622310Y-17607414D01*
X13540403Y-17431764D01*
X13540038Y-17431243D01*
X13414898Y-17252523D01*
X13260177Y-17097802D01*
X13260176Y-17097801D01*
X13260175Y-17097800D01*
X13088813Y-16977811D01*
X13029389Y-16912144D01*
X13004341Y-16827196D01*
X13018632Y-16739793D01*
X13069430Y-16667247D01*
X13088813Y-16651789D01*
X13190949Y-16580272D01*
X13260177Y-16531798D01*
X13414898Y-16377077D01*
X13540402Y-16197839D01*
X13632875Y-15999530D01*
X13689507Y-15788177D01*
X13708577Y-15570200D01*
X13689507Y-15352223D01*
X13632875Y-15140870D01*
X13540402Y-14942562D01*
X13438015Y-14796337D01*
X13414901Y-14763327D01*
X13414899Y-14763325D01*
X13414898Y-14763323D01*
X13260177Y-14608602D01*
X13260176Y-14608601D01*
X13260175Y-14608600D01*
X13080942Y-14483099D01*
X13080938Y-14483097D01*
X12882635Y-14390627D01*
X12882628Y-14390624D01*
X12671279Y-14333993D01*
X12671272Y-14333992D01*
X12453300Y-14314923D01*
X12235327Y-14333992D01*
X12235320Y-14333993D01*
X12023971Y-14390624D01*
X12023965Y-14390626D01*
X11825664Y-14483096D01*
X11646427Y-14608598D01*
X11646418Y-14608606D01*
X11506168Y-14748855D01*
X11431179Y-14795973D01*
X11343173Y-14805889D01*
X11259579Y-14776637D01*
X11224744Y-14748857D01*
X11118963Y-14643076D01*
X11118962Y-14643075D01*
X11118961Y-14643074D01*
X10941419Y-14518757D01*
X10941416Y-14518755D01*
X10793885Y-14449961D01*
X10744979Y-14427156D01*
X10744977Y-14427155D01*
X10744974Y-14427154D01*
X10744972Y-14427153D01*
X10535626Y-14371060D01*
X10535622Y-14371059D01*
X10535620Y-14371059D01*
X10319700Y-14352168D01*
X10103780Y-14371059D01*
X10103777Y-14371059D01*
X10103773Y-14371060D01*
X9894427Y-14427153D01*
X9894425Y-14427154D01*
X9697983Y-14518755D01*
X9697980Y-14518757D01*
X9520434Y-14643077D01*
X9367177Y-14796334D01*
X9242857Y-14973880D01*
X9242855Y-14973883D01*
X9151254Y-15170325D01*
X9151253Y-15170327D01*
X9095160Y-15379673D01*
X9095159Y-15379677D01*
X9095159Y-15379680D01*
X9076268Y-15595600D01*
X9093116Y-15788172D01*
X9095160Y-15811526D01*
X9151253Y-16020872D01*
X9151254Y-16020874D01*
X9242855Y-16217316D01*
X9242857Y-16217319D01*
X9367177Y-16394865D01*
X9520434Y-16548122D01*
X9697980Y-16672442D01*
X9725436Y-16685245D01*
X9795360Y-16739596D01*
X9834778Y-16818904D01*
X9835881Y-16907461D01*
X9798453Y-16987726D01*
X9729904Y-17043803D01*
X9725436Y-17045955D01*
X9697980Y-17058757D01*
X9520434Y-17183077D01*
X9367177Y-17336334D01*
X9242857Y-17513880D01*
X9242855Y-17513883D01*
X9151254Y-17710325D01*
X9151253Y-17710327D01*
X9095160Y-17919673D01*
X9095159Y-17919677D01*
X9095159Y-17919680D01*
X9076268Y-18135600D01*
X9088672Y-18277379D01*
X9095160Y-18351526D01*
X9151253Y-18560872D01*
X9151254Y-18560874D01*
X9242855Y-18757316D01*
X9242857Y-18757319D01*
X9367177Y-18934865D01*
X9520434Y-19088122D01*
X9697980Y-19212442D01*
X9697983Y-19212443D01*
X9697984Y-19212444D01*
X9725434Y-19225244D01*
X9725436Y-19225245D01*
X9795360Y-19279596D01*
X9834778Y-19358904D01*
X9835881Y-19447461D01*
X9798453Y-19527726D01*
X9729904Y-19583803D01*
X9725436Y-19585955D01*
X9697980Y-19598757D01*
X9520434Y-19723077D01*
X9367177Y-19876334D01*
X9242857Y-20053880D01*
X9242855Y-20053883D01*
X9151254Y-20250325D01*
X9151253Y-20250327D01*
X9095160Y-20459673D01*
X9095159Y-20459677D01*
X9095159Y-20459680D01*
X9076268Y-20675600D01*
X9090894Y-20842777D01*
X9095160Y-20891526D01*
X9151253Y-21100872D01*
X9151254Y-21100874D01*
X9242855Y-21297316D01*
X9242857Y-21297319D01*
X9367177Y-21474865D01*
X9520434Y-21628122D01*
X9697980Y-21752442D01*
X9725436Y-21765245D01*
X9795360Y-21819596D01*
X9834778Y-21898904D01*
X9835881Y-21987461D01*
X9798453Y-22067726D01*
X9729904Y-22123803D01*
X9725436Y-22125955D01*
X9697980Y-22138757D01*
X9520434Y-22263077D01*
X9367177Y-22416334D01*
X9242857Y-22593880D01*
X9242855Y-22593883D01*
X9151254Y-22790325D01*
X9151253Y-22790327D01*
X9095160Y-22999673D01*
X9095159Y-22999677D01*
X9095159Y-22999680D01*
X9076268Y-23215600D01*
X9093116Y-23408172D01*
X9095160Y-23431526D01*
X9151253Y-23640872D01*
X9151254Y-23640874D01*
X9242855Y-23837316D01*
X9242857Y-23837319D01*
X9367177Y-24014865D01*
X9520434Y-24168122D01*
X9697980Y-24292442D01*
X9725436Y-24305245D01*
X9795360Y-24359596D01*
X9834778Y-24438904D01*
X9835881Y-24527461D01*
X9798453Y-24607726D01*
X9729904Y-24663803D01*
X9725436Y-24665955D01*
X9697980Y-24678757D01*
X9520434Y-24803077D01*
X9367177Y-24956334D01*
X9242857Y-25133880D01*
X9242855Y-25133883D01*
X9151254Y-25330325D01*
X9151253Y-25330327D01*
X9095160Y-25539673D01*
X9095159Y-25539677D01*
X9095159Y-25539680D01*
X9076268Y-25755600D01*
X9094873Y-25968256D01*
X9095160Y-25971526D01*
X9151253Y-26180872D01*
X9151254Y-26180874D01*
X9242855Y-26377316D01*
X9242857Y-26377319D01*
X9367177Y-26554865D01*
X9520434Y-26708122D01*
X9697980Y-26832442D01*
X9725436Y-26845245D01*
X9795360Y-26899596D01*
X9834778Y-26978904D01*
X9835881Y-27067461D01*
X9798453Y-27147726D01*
X9729904Y-27203803D01*
X9725436Y-27205955D01*
X9697980Y-27218757D01*
X9520434Y-27343077D01*
X9367177Y-27496334D01*
X9242857Y-27673880D01*
X9242855Y-27673883D01*
X9151254Y-27870325D01*
X9151253Y-27870327D01*
X9095160Y-28079673D01*
X9095159Y-28079677D01*
X9095159Y-28079680D01*
X9084218Y-28204730D01*
X9076268Y-28295600D01*
X9095160Y-28511526D01*
X9151253Y-28720872D01*
X9151254Y-28720874D01*
X9242855Y-28917316D01*
X9242857Y-28917319D01*
X9367177Y-29094865D01*
X9520434Y-29248122D01*
X9697980Y-29372442D01*
X9725436Y-29385245D01*
X9795360Y-29439596D01*
X9834778Y-29518904D01*
X9835881Y-29607461D01*
X9798453Y-29687726D01*
X9729904Y-29743803D01*
X9725436Y-29745955D01*
X9697980Y-29758757D01*
X9520434Y-29883077D01*
X9367177Y-30036334D01*
X9242857Y-30213880D01*
X9242855Y-30213883D01*
X9151254Y-30410325D01*
X9151253Y-30410327D01*
X9095160Y-30619673D01*
X9076268Y-30835600D01*
X9095160Y-31051526D01*
X9151253Y-31260872D01*
X9151254Y-31260874D01*
X9242855Y-31457316D01*
X9242857Y-31457319D01*
X9367177Y-31634865D01*
X9520434Y-31788122D01*
X9697980Y-31912442D01*
X9725436Y-31925245D01*
X9795360Y-31979596D01*
X9834778Y-32058904D01*
X9835881Y-32147461D01*
X9798453Y-32227726D01*
X9729904Y-32283803D01*
X9725436Y-32285955D01*
X9697980Y-32298757D01*
X9520434Y-32423077D01*
X9367177Y-32576334D01*
X9242857Y-32753880D01*
X9242855Y-32753883D01*
X9151254Y-32950325D01*
X9151253Y-32950327D01*
X9095160Y-33159673D01*
X9076268Y-33375600D01*
X9095160Y-33591526D01*
X9151253Y-33800872D01*
X9151254Y-33800874D01*
X9242855Y-33997316D01*
X9242857Y-33997319D01*
X9367177Y-34174865D01*
X9520434Y-34328122D01*
X9697980Y-34452442D01*
X9725436Y-34465245D01*
X9795360Y-34519596D01*
X9834778Y-34598904D01*
X9835881Y-34687461D01*
X9798453Y-34767726D01*
X9729904Y-34823803D01*
X9725436Y-34825955D01*
X9697980Y-34838757D01*
X9520434Y-34963077D01*
X9367177Y-35116334D01*
X9242857Y-35293880D01*
X9242855Y-35293883D01*
X9151254Y-35490325D01*
X9151253Y-35490327D01*
X9095160Y-35699673D01*
X9076268Y-35915600D01*
X9095160Y-36131526D01*
X9151253Y-36340872D01*
X9151254Y-36340874D01*
X9242855Y-36537316D01*
X9242857Y-36537319D01*
X9367177Y-36714865D01*
X9520434Y-36868122D01*
X9697980Y-36992442D01*
X9725436Y-37005245D01*
X9795360Y-37059596D01*
X9834778Y-37138904D01*
X9835881Y-37227461D01*
X9798453Y-37307726D01*
X9729904Y-37363803D01*
X9725436Y-37365955D01*
X9697980Y-37378757D01*
X9520434Y-37503077D01*
X9367177Y-37656334D01*
X9242857Y-37833880D01*
X9242855Y-37833883D01*
X9151254Y-38030325D01*
X9151253Y-38030327D01*
X9095160Y-38239673D01*
X9095159Y-38239677D01*
X9095159Y-38239680D01*
X9076268Y-38455600D01*
X9095160Y-38671526D01*
X9151253Y-38880872D01*
X9151254Y-38880874D01*
X9242855Y-39077316D01*
X9242857Y-39077319D01*
X9367177Y-39254865D01*
X9520434Y-39408122D01*
X9697980Y-39532442D01*
X9725436Y-39545245D01*
X9795360Y-39599596D01*
X9834778Y-39678904D01*
X9835881Y-39767461D01*
X9798453Y-39847726D01*
X9729904Y-39903803D01*
X9725436Y-39905955D01*
X9697983Y-39918756D01*
X9662667Y-39943484D01*
X9640350Y-39959111D01*
X9558320Y-39992492D01*
X9526209Y-39995100D01*
X7261515Y-39995100D01*
X7256474Y-39995036D01*
X7255415Y-39995009D01*
X7169941Y-39992842D01*
X7114680Y-40002746D01*
X7099715Y-40004844D01*
X7043866Y-40010524D01*
X7043860Y-40010525D01*
X7019368Y-40018210D01*
X6994915Y-40024212D01*
X6969649Y-40028741D01*
X6969641Y-40028743D01*
X6917519Y-40049563D01*
X6903280Y-40054632D01*
X6849720Y-40071437D01*
X6849713Y-40071440D01*
X6827264Y-40083900D01*
X6804516Y-40094702D01*
X6780684Y-40104221D01*
X6780683Y-40104222D01*
X6733813Y-40135111D01*
X6720889Y-40142941D01*
X6671800Y-40170189D01*
X6652321Y-40186911D01*
X6632214Y-40202071D01*
X6610784Y-40216194D01*
X6610783Y-40216195D01*
X6571076Y-40255901D01*
X6559994Y-40266171D01*
X6517400Y-40302738D01*
X6501692Y-40323031D01*
X6485046Y-40341931D01*
X-3523834Y-50350814D01*
X-3598822Y-50397933D01*
X-3664548Y-50409100D01*
X-5972851Y-50409100D01*
X-6059194Y-50389393D01*
X-6113565Y-50350814D01*
X-7848779Y-48615600D01*
X-6163732Y-48615600D01*
X-6144841Y-48831520D01*
X-6088744Y-49040879D01*
X-5997144Y-49237316D01*
X-5872824Y-49414863D01*
X-5719563Y-49568124D01*
X-5542016Y-49692444D01*
X-5345579Y-49784044D01*
X-5136220Y-49840141D01*
X-4920300Y-49859032D01*
X-4704380Y-49840141D01*
X-4653980Y-49826636D01*
X-4495027Y-49784046D01*
X-4495025Y-49784045D01*
X-4495021Y-49784044D01*
X-4367377Y-49724522D01*
X-4298583Y-49692444D01*
X-4298580Y-49692442D01*
X-4121034Y-49568122D01*
X-3967777Y-49414865D01*
X-3843457Y-49237319D01*
X-3843455Y-49237316D01*
X-3751854Y-49040874D01*
X-3751853Y-49040872D01*
X-3695760Y-48831526D01*
X-3676868Y-48615600D01*
X-3695760Y-48399673D01*
X-3751853Y-48190327D01*
X-3751854Y-48190325D01*
X-3843455Y-47993883D01*
X-3843457Y-47993880D01*
X-3967777Y-47816334D01*
X-4121034Y-47663077D01*
X-4298580Y-47538758D01*
X-4441723Y-47472009D01*
X-4511647Y-47417658D01*
X-4551065Y-47338350D01*
X-4552168Y-47249794D01*
X-4514740Y-47169528D01*
X-4448688Y-47115493D01*
X-4448235Y-47113347D01*
X-4920300Y-46641285D01*
X-4920301Y-46641285D01*
X-5392363Y-47113347D01*
X-5391036Y-47119636D01*
X-5337699Y-47155658D01*
X-5293079Y-47232160D01*
X-5286072Y-47320446D01*
X-5318064Y-47403029D01*
X-5382720Y-47463553D01*
X-5398877Y-47472009D01*
X-5542016Y-47538755D01*
X-5542019Y-47538757D01*
X-5719565Y-47663077D01*
X-5872822Y-47816334D01*
X-5997142Y-47993880D01*
X-5997144Y-47993883D01*
X-5997144Y-47993884D01*
X-6088744Y-48190321D01*
X-6144841Y-48399680D01*
X-6163732Y-48615600D01*
X-7848779Y-48615600D01*
X-10388779Y-46075600D01*
X-6063376Y-46075600D01*
X-6043912Y-46285640D01*
X-6043911Y-46285647D01*
X-5986190Y-46488519D01*
X-5986188Y-46488523D01*
X-5957174Y-46546789D01*
X-5557874Y-46147489D01*
X-5420300Y-46147489D01*
X-5379793Y-46285444D01*
X-5302061Y-46406398D01*
X-5193400Y-46500552D01*
X-5062615Y-46560280D01*
X-4956063Y-46575600D01*
X-4884537Y-46575600D01*
X-4777985Y-46560280D01*
X-4647200Y-46500552D01*
X-4538539Y-46406398D01*
X-4460807Y-46285444D01*
X-4420300Y-46147489D01*
X-4420300Y-46075600D01*
X-4354615Y-46075600D01*
X-3883424Y-46546790D01*
X-3854412Y-46488526D01*
X-3854410Y-46488520D01*
X-3796688Y-46285646D01*
X-3796687Y-46285640D01*
X-3777224Y-46075600D01*
X-3777224Y-46075599D01*
X-3796687Y-45865559D01*
X-3796688Y-45865553D01*
X-3854409Y-45662682D01*
X-3854410Y-45662678D01*
X-3883424Y-45604409D01*
X-4354615Y-46075600D01*
X-4420300Y-46075600D01*
X-4420300Y-46003711D01*
X-4460807Y-45865756D01*
X-4538539Y-45744802D01*
X-4647200Y-45650648D01*
X-4777985Y-45590920D01*
X-4884537Y-45575600D01*
X-4956063Y-45575600D01*
X-5062615Y-45590920D01*
X-5193400Y-45650648D01*
X-5302061Y-45744802D01*
X-5379793Y-45865756D01*
X-5420300Y-46003711D01*
X-5420300Y-46147489D01*
X-5557874Y-46147489D01*
X-5485985Y-46075600D01*
X-5485985Y-46075599D01*
X-5957174Y-45604409D01*
X-5986190Y-45662682D01*
X-6043911Y-45865552D01*
X-6043912Y-45865559D01*
X-6063376Y-46075599D01*
X-6063376Y-46075600D01*
X-10388779Y-46075600D01*
X-10846514Y-45617865D01*
X-10893633Y-45542877D01*
X-10904800Y-45477151D01*
X-10904800Y-23793400D01*
X-10320133Y-23793400D01*
X-10315237Y-23810606D01*
X-10315234Y-23810613D01*
X-10220239Y-24001391D01*
X-10091804Y-24171465D01*
X-10091799Y-24171470D01*
X-9934304Y-24315047D01*
X-9934297Y-24315053D01*
X-9753096Y-24427247D01*
X-9753090Y-24427250D01*
X-9638300Y-24471719D01*
X-9638300Y-23793400D01*
X-10320133Y-23793400D01*
X-10904800Y-23793400D01*
X-10904800Y-21827500D01*
X-10885093Y-21741157D01*
X-10829874Y-21671916D01*
X-10750082Y-21633489D01*
X-10705800Y-21628500D01*
X-10314104Y-21628500D01*
X-10227761Y-21648207D01*
X-10173390Y-21686786D01*
X-10107734Y-21752441D01*
X-10045177Y-21814998D01*
X-9909295Y-21910144D01*
X-9865942Y-21940500D01*
X-9865939Y-21940502D01*
X-9746951Y-21995987D01*
X-9677027Y-22050337D01*
X-9637609Y-22129645D01*
X-9636504Y-22218201D01*
X-9673933Y-22298467D01*
X-9742481Y-22354544D01*
X-9747354Y-22356694D01*
X-9753099Y-22359554D01*
X-9934297Y-22471746D01*
X-9934304Y-22471752D01*
X-10091799Y-22615329D01*
X-10091804Y-22615334D01*
X-10220239Y-22785408D01*
X-10315234Y-22976186D01*
X-10315237Y-22976193D01*
X-10320133Y-22993400D01*
X-9540197Y-22993400D01*
X-9620061Y-23062602D01*
X-9697793Y-23183556D01*
X-9738300Y-23321511D01*
X-9738300Y-23465289D01*
X-9697793Y-23603244D01*
X-9620061Y-23724198D01*
X-9511400Y-23818352D01*
X-9380615Y-23878080D01*
X-9274063Y-23893400D01*
X-9202537Y-23893400D01*
X-9095985Y-23878080D01*
X-8965200Y-23818352D01*
X-8936403Y-23793400D01*
X-8838300Y-23793400D01*
X-8838300Y-24471718D01*
X-8838299Y-24471719D01*
X-8723509Y-24427250D01*
X-8723503Y-24427247D01*
X-8542302Y-24315053D01*
X-8542295Y-24315047D01*
X-8384800Y-24171470D01*
X-8384795Y-24171465D01*
X-8256360Y-24001391D01*
X-8161365Y-23810613D01*
X-8161362Y-23810606D01*
X-8156467Y-23793400D01*
X-8838300Y-23793400D01*
X-8936403Y-23793400D01*
X-8856539Y-23724198D01*
X-8778807Y-23603244D01*
X-8738300Y-23465289D01*
X-8738300Y-23321511D01*
X-8778807Y-23183556D01*
X-8856539Y-23062602D01*
X-8936403Y-22993400D01*
X-8156466Y-22993400D01*
X-8161362Y-22976193D01*
X-8161365Y-22976186D01*
X-8256360Y-22785408D01*
X-8384795Y-22615334D01*
X-8384800Y-22615329D01*
X-8542295Y-22471752D01*
X-8542302Y-22471746D01*
X-8723500Y-22359554D01*
X-8731736Y-22355454D01*
X-8730542Y-22353056D01*
X-8790846Y-22312317D01*
X-8835454Y-22235808D01*
X-8842449Y-22147522D01*
X-8810445Y-22064943D01*
X-8745781Y-22004429D01*
X-8729648Y-21995987D01*
X-8610661Y-21940502D01*
X-8610657Y-21940500D01*
X-8431420Y-21814996D01*
X-8276703Y-21660279D01*
X-8151199Y-21481042D01*
X-8151197Y-21481038D01*
X-8058727Y-21282735D01*
X-8058724Y-21282728D01*
X-8002093Y-21071379D01*
X-8002092Y-21071372D01*
X-7983023Y-20853400D01*
X-8002092Y-20635427D01*
X-8002093Y-20635420D01*
X-8058724Y-20424071D01*
X-8058726Y-20424065D01*
X-8151196Y-20225764D01*
X-8276698Y-20046527D01*
X-8276702Y-20046522D01*
X-8301968Y-20021256D01*
X-8349084Y-19946266D01*
X-8358997Y-19858259D01*
X-8329744Y-19774666D01*
X-8267118Y-19712045D01*
X-8251593Y-19703236D01*
X-8149957Y-19651450D01*
X-8060249Y-19561742D01*
X-8002655Y-19448707D01*
X-8002653Y-19448700D01*
X-7990113Y-19369523D01*
X-7987800Y-19354919D01*
X-7987800Y-19347500D01*
X-7968093Y-19261157D01*
X-7912874Y-19191916D01*
X-7833082Y-19153489D01*
X-7788800Y-19148500D01*
X-7258885Y-19148500D01*
X-7246868Y-19148862D01*
X-7189094Y-19152358D01*
X-7132138Y-19141920D01*
X-7120276Y-19140115D01*
X-7062828Y-19133140D01*
X-7059735Y-19131967D01*
X-7025027Y-19122292D01*
X-7021768Y-19121695D01*
X-7021766Y-19121694D01*
X-7021765Y-19121694D01*
X-7021760Y-19121692D01*
X-6968974Y-19097935D01*
X-6957874Y-19093336D01*
X-6903770Y-19072818D01*
X-6901036Y-19070931D01*
X-6869664Y-19053238D01*
X-6867980Y-19052479D01*
X-6866643Y-19051878D01*
X-6866641Y-19051876D01*
X-6866636Y-19051874D01*
X-6821076Y-19016180D01*
X-6811397Y-19009058D01*
X-6763772Y-18976184D01*
X-6763769Y-18976181D01*
X-6725391Y-18932861D01*
X-6717151Y-18924108D01*
X-6687429Y-18894386D01*
X-6612441Y-18847267D01*
X-6546715Y-18836100D01*
X-6045571Y-18836100D01*
X-5959228Y-18855807D01*
X-5889987Y-18911026D01*
X-5882563Y-18920953D01*
X-5872824Y-18934863D01*
X-5719563Y-19088124D01*
X-5542016Y-19212444D01*
X-5514563Y-19225245D01*
X-5444640Y-19279595D01*
X-5405222Y-19358902D01*
X-5404117Y-19447458D01*
X-5441545Y-19527724D01*
X-5510093Y-19583802D01*
X-5514525Y-19585937D01*
X-5542016Y-19598756D01*
X-5542020Y-19598758D01*
X-5719565Y-19723077D01*
X-5872822Y-19876334D01*
X-5997142Y-20053880D01*
X-5997144Y-20053883D01*
X-6004767Y-20070231D01*
X-6088744Y-20250321D01*
X-6088745Y-20250325D01*
X-6088746Y-20250327D01*
X-6102411Y-20301327D01*
X-6144841Y-20459680D01*
X-6163732Y-20675600D01*
X-6144841Y-20891520D01*
X-6088744Y-21100879D01*
X-5997144Y-21297316D01*
X-5872824Y-21474863D01*
X-5719563Y-21628124D01*
X-5542016Y-21752444D01*
X-5514563Y-21765245D01*
X-5444640Y-21819595D01*
X-5405222Y-21898902D01*
X-5404117Y-21987458D01*
X-5441545Y-22067724D01*
X-5510093Y-22123802D01*
X-5514525Y-22125937D01*
X-5542016Y-22138756D01*
X-5542020Y-22138758D01*
X-5719565Y-22263077D01*
X-5872822Y-22416334D01*
X-5997142Y-22593880D01*
X-5997144Y-22593883D01*
X-6025650Y-22655015D01*
X-6088744Y-22790321D01*
X-6088745Y-22790325D01*
X-6088746Y-22790327D01*
X-6116024Y-22892131D01*
X-6144841Y-22999680D01*
X-6163732Y-23215600D01*
X-6144841Y-23431520D01*
X-6088744Y-23640879D01*
X-5997144Y-23837316D01*
X-5872824Y-24014863D01*
X-5719563Y-24168124D01*
X-5542016Y-24292444D01*
X-5514563Y-24305245D01*
X-5444640Y-24359595D01*
X-5405222Y-24438902D01*
X-5404117Y-24527458D01*
X-5441545Y-24607724D01*
X-5510093Y-24663802D01*
X-5514525Y-24665937D01*
X-5542016Y-24678756D01*
X-5542020Y-24678758D01*
X-5719565Y-24803077D01*
X-5872822Y-24956334D01*
X-5997142Y-25133880D01*
X-5997144Y-25133883D01*
X-5997144Y-25133884D01*
X-6088744Y-25330321D01*
X-6144841Y-25539680D01*
X-6163732Y-25755600D01*
X-6144841Y-25971520D01*
X-6088744Y-26180879D01*
X-5997144Y-26377316D01*
X-5872824Y-26554863D01*
X-5719563Y-26708124D01*
X-5542016Y-26832444D01*
X-5514563Y-26845245D01*
X-5444640Y-26899595D01*
X-5405222Y-26978902D01*
X-5404117Y-27067458D01*
X-5441545Y-27147724D01*
X-5510093Y-27203802D01*
X-5514525Y-27205937D01*
X-5542016Y-27218756D01*
X-5542020Y-27218758D01*
X-5719565Y-27343077D01*
X-5872822Y-27496334D01*
X-5997142Y-27673880D01*
X-5997144Y-27673883D01*
X-5997144Y-27673884D01*
X-6088744Y-27870321D01*
X-6144841Y-28079680D01*
X-6163732Y-28295600D01*
X-6144841Y-28511520D01*
X-6088744Y-28720879D01*
X-5997144Y-28917316D01*
X-5872824Y-29094863D01*
X-5719563Y-29248124D01*
X-5542016Y-29372444D01*
X-5514563Y-29385245D01*
X-5444640Y-29439595D01*
X-5405222Y-29518902D01*
X-5404117Y-29607458D01*
X-5441545Y-29687724D01*
X-5510093Y-29743802D01*
X-5514525Y-29745937D01*
X-5542016Y-29758756D01*
X-5542020Y-29758758D01*
X-5719565Y-29883077D01*
X-5872822Y-30036334D01*
X-5997142Y-30213880D01*
X-5997144Y-30213883D01*
X-5997144Y-30213884D01*
X-6088744Y-30410321D01*
X-6144841Y-30619680D01*
X-6163732Y-30835600D01*
X-6144841Y-31051520D01*
X-6088744Y-31260879D01*
X-5997144Y-31457316D01*
X-5872824Y-31634863D01*
X-5719563Y-31788124D01*
X-5542016Y-31912444D01*
X-5514563Y-31925245D01*
X-5444640Y-31979595D01*
X-5405222Y-32058902D01*
X-5404117Y-32147458D01*
X-5441545Y-32227724D01*
X-5510093Y-32283802D01*
X-5514525Y-32285937D01*
X-5542016Y-32298756D01*
X-5542020Y-32298758D01*
X-5719565Y-32423077D01*
X-5872822Y-32576334D01*
X-5997142Y-32753880D01*
X-5997144Y-32753883D01*
X-5997144Y-32753884D01*
X-6088744Y-32950321D01*
X-6144841Y-33159680D01*
X-6163732Y-33375600D01*
X-6144841Y-33591520D01*
X-6088744Y-33800879D01*
X-5997144Y-33997316D01*
X-5872824Y-34174863D01*
X-5719563Y-34328124D01*
X-5542016Y-34452444D01*
X-5514563Y-34465245D01*
X-5444640Y-34519595D01*
X-5405222Y-34598902D01*
X-5404117Y-34687458D01*
X-5441545Y-34767724D01*
X-5510093Y-34823802D01*
X-5514525Y-34825937D01*
X-5542016Y-34838756D01*
X-5542020Y-34838758D01*
X-5719565Y-34963077D01*
X-5872822Y-35116334D01*
X-5997142Y-35293880D01*
X-5997144Y-35293883D01*
X-5997144Y-35293884D01*
X-6088744Y-35490321D01*
X-6144841Y-35699680D01*
X-6163732Y-35915600D01*
X-6144841Y-36131520D01*
X-6088744Y-36340879D01*
X-5997144Y-36537316D01*
X-5872824Y-36714863D01*
X-5719563Y-36868124D01*
X-5542016Y-36992444D01*
X-5514563Y-37005245D01*
X-5444640Y-37059595D01*
X-5405222Y-37138902D01*
X-5404117Y-37227458D01*
X-5441545Y-37307724D01*
X-5510093Y-37363802D01*
X-5514525Y-37365937D01*
X-5542016Y-37378756D01*
X-5542020Y-37378758D01*
X-5719565Y-37503077D01*
X-5774542Y-37558054D01*
X-5849530Y-37605173D01*
X-5937537Y-37615089D01*
X-6021130Y-37585838D01*
X-6055970Y-37558054D01*
X-6094620Y-37519403D01*
X-6273857Y-37393899D01*
X-6273861Y-37393897D01*
X-6472164Y-37301427D01*
X-6472171Y-37301424D01*
X-6683520Y-37244793D01*
X-6683527Y-37244792D01*
X-6901500Y-37225723D01*
X-7119472Y-37244792D01*
X-7119479Y-37244793D01*
X-7330828Y-37301424D01*
X-7330834Y-37301426D01*
X-7529135Y-37393896D01*
X-7708372Y-37519398D01*
X-7708374Y-37519400D01*
X-7708377Y-37519402D01*
X-7863098Y-37674123D01*
X-7863100Y-37674125D01*
X-7863101Y-37674127D01*
X-7904792Y-37733668D01*
X-7988602Y-37853362D01*
X-8081075Y-38051670D01*
X-8137707Y-38263023D01*
X-8156777Y-38481000D01*
X-8137707Y-38698977D01*
X-8081075Y-38910330D01*
X-7988602Y-39108639D01*
X-7863098Y-39287877D01*
X-7708377Y-39442598D01*
X-7529139Y-39568102D01*
X-7330830Y-39660575D01*
X-7119477Y-39717207D01*
X-6901500Y-39736277D01*
X-6683523Y-39717207D01*
X-6472170Y-39660575D01*
X-6273861Y-39568102D01*
X-6273857Y-39568100D01*
X-6094620Y-39442596D01*
X-6030570Y-39378546D01*
X-5955582Y-39331427D01*
X-5867575Y-39321511D01*
X-5783982Y-39350762D01*
X-5749142Y-39378546D01*
X-5719565Y-39408122D01*
X-5719563Y-39408124D01*
X-5542016Y-39532444D01*
X-5514563Y-39545245D01*
X-5444640Y-39599595D01*
X-5405222Y-39678902D01*
X-5404117Y-39767458D01*
X-5441545Y-39847724D01*
X-5510093Y-39903802D01*
X-5514525Y-39905937D01*
X-5542016Y-39918756D01*
X-5542020Y-39918758D01*
X-5719565Y-40043077D01*
X-5872822Y-40196334D01*
X-5997142Y-40373880D01*
X-5997144Y-40373883D01*
X-5997144Y-40373884D01*
X-6088744Y-40570321D01*
X-6144841Y-40779680D01*
X-6163732Y-40995600D01*
X-6144841Y-41211520D01*
X-6088744Y-41420879D01*
X-5997144Y-41617316D01*
X-5872824Y-41794863D01*
X-5719563Y-41948124D01*
X-5542016Y-42072444D01*
X-5514563Y-42085245D01*
X-5444640Y-42139595D01*
X-5405222Y-42218902D01*
X-5404117Y-42307458D01*
X-5441545Y-42387724D01*
X-5510093Y-42443802D01*
X-5514525Y-42445937D01*
X-5542016Y-42458756D01*
X-5542020Y-42458758D01*
X-5719565Y-42583077D01*
X-5872822Y-42736334D01*
X-5997142Y-42913880D01*
X-5997144Y-42913883D01*
X-5997144Y-42913884D01*
X-6088744Y-43110321D01*
X-6144841Y-43319680D01*
X-6163732Y-43535600D01*
X-6144841Y-43751520D01*
X-6088744Y-43960879D01*
X-5997144Y-44157316D01*
X-5872824Y-44334863D01*
X-5719563Y-44488124D01*
X-5542016Y-44612444D01*
X-5398875Y-44679191D01*
X-5328955Y-44733539D01*
X-5289537Y-44812846D01*
X-5288432Y-44901403D01*
X-5325860Y-44981668D01*
X-5391909Y-45035702D01*
X-5392363Y-45037851D01*
X-4920301Y-45509915D01*
X-4920300Y-45509915D01*
X-4448235Y-45037851D01*
X-4449562Y-45031560D01*
X-4502900Y-44995539D01*
X-4547518Y-44919036D01*
X-4554525Y-44830750D01*
X-4522532Y-44748168D01*
X-4457876Y-44687644D01*
X-4441734Y-44679196D01*
X-4298584Y-44612444D01*
X-4298581Y-44612441D01*
X-4298579Y-44612441D01*
X-4121034Y-44488122D01*
X-3967777Y-44334865D01*
X-3843457Y-44157319D01*
X-3843455Y-44157316D01*
X-3751854Y-43960874D01*
X-3751853Y-43960872D01*
X-3695760Y-43751526D01*
X-3676868Y-43535600D01*
X-3695760Y-43319673D01*
X-3751853Y-43110327D01*
X-3751854Y-43110325D01*
X-3843455Y-42913883D01*
X-3843457Y-42913880D01*
X-3967777Y-42736334D01*
X-4121034Y-42583077D01*
X-4298580Y-42458757D01*
X-4326036Y-42445955D01*
X-4395960Y-42391604D01*
X-4435378Y-42312296D01*
X-4436481Y-42223739D01*
X-4399053Y-42143474D01*
X-4330504Y-42087397D01*
X-4326036Y-42085245D01*
X-4298580Y-42072442D01*
X-4121034Y-41948122D01*
X-3967777Y-41794865D01*
X-3843457Y-41617319D01*
X-3843455Y-41617316D01*
X-3751854Y-41420874D01*
X-3751853Y-41420872D01*
X-3695760Y-41211526D01*
X-3676868Y-40995600D01*
X-3695760Y-40779673D01*
X-3751853Y-40570327D01*
X-3751854Y-40570325D01*
X-3843455Y-40373883D01*
X-3843457Y-40373880D01*
X-3967777Y-40196334D01*
X-4121034Y-40043077D01*
X-4298580Y-39918757D01*
X-4326036Y-39905955D01*
X-4395960Y-39851604D01*
X-4435378Y-39772296D01*
X-4436481Y-39683739D01*
X-4399053Y-39603474D01*
X-4330504Y-39547397D01*
X-4326036Y-39545245D01*
X-4298580Y-39532442D01*
X-4121034Y-39408122D01*
X-3967777Y-39254865D01*
X-3843457Y-39077319D01*
X-3843455Y-39077316D01*
X-3751854Y-38880874D01*
X-3751853Y-38880872D01*
X-3695760Y-38671526D01*
X-3676868Y-38455600D01*
X-3695759Y-38239680D01*
X-3695759Y-38239677D01*
X-3695760Y-38239673D01*
X-3751853Y-38030327D01*
X-3751854Y-38030325D01*
X-3843455Y-37833883D01*
X-3843457Y-37833880D01*
X-3967777Y-37656334D01*
X-4121034Y-37503077D01*
X-4298580Y-37378757D01*
X-4326036Y-37365955D01*
X-4395960Y-37311604D01*
X-4435378Y-37232296D01*
X-4436481Y-37143739D01*
X-4399053Y-37063474D01*
X-4330504Y-37007397D01*
X-4326036Y-37005245D01*
X-4298580Y-36992442D01*
X-4121034Y-36868122D01*
X-3967777Y-36714865D01*
X-3843457Y-36537319D01*
X-3843455Y-36537316D01*
X-3751854Y-36340874D01*
X-3751853Y-36340872D01*
X-3695760Y-36131526D01*
X-3676868Y-35915600D01*
X-3695760Y-35699673D01*
X-3751853Y-35490327D01*
X-3751854Y-35490325D01*
X-3843455Y-35293883D01*
X-3843457Y-35293880D01*
X-3967777Y-35116334D01*
X-4121034Y-34963077D01*
X-4298580Y-34838757D01*
X-4326036Y-34825955D01*
X-4395960Y-34771604D01*
X-4435378Y-34692296D01*
X-4436481Y-34603739D01*
X-4399053Y-34523474D01*
X-4330504Y-34467397D01*
X-4326036Y-34465245D01*
X-4298580Y-34452442D01*
X-4121034Y-34328122D01*
X-3967778Y-34174866D01*
X-3958039Y-34160957D01*
X-3892372Y-34101533D01*
X-3807424Y-34076486D01*
X-3795029Y-34076100D01*
X1986715Y-34076100D01*
X1998731Y-34076462D01*
X2056506Y-34079958D01*
X2113470Y-34069518D01*
X2125322Y-34067715D01*
X2182772Y-34060740D01*
X2185859Y-34059569D01*
X2220575Y-34049891D01*
X2223832Y-34049295D01*
X2276642Y-34025526D01*
X2287705Y-34020944D01*
X2341830Y-34000418D01*
X2344551Y-33998539D01*
X2375942Y-33980835D01*
X2376905Y-33980401D01*
X2378957Y-33979478D01*
X2424532Y-33943771D01*
X2434160Y-33936685D01*
X2481829Y-33903783D01*
X2520225Y-33860441D01*
X2528431Y-33851724D01*
X8128824Y-28251331D01*
X8137563Y-28243106D01*
X8180883Y-28204729D01*
X8213772Y-28157079D01*
X8220868Y-28147434D01*
X8256577Y-28101857D01*
X8257929Y-28098851D01*
X8275640Y-28067450D01*
X8277518Y-28064730D01*
X8298045Y-28010601D01*
X8302627Y-27999536D01*
X8326394Y-27946732D01*
X8326991Y-27943474D01*
X8336670Y-27908757D01*
X8336765Y-27908505D01*
X8337840Y-27905672D01*
X8344817Y-27848206D01*
X8346620Y-27836354D01*
X8357057Y-27779406D01*
X8353563Y-27721642D01*
X8353200Y-27709626D01*
X8353200Y-2607785D01*
X8372907Y-2521442D01*
X8411486Y-2467071D01*
X8622189Y-2256368D01*
X8843613Y-2034943D01*
X8918599Y-1987826D01*
X9006606Y-1977910D01*
X9090199Y-2007161D01*
X9147336Y-2061516D01*
X9175715Y-2102045D01*
X9335257Y-2261587D01*
X9500067Y-2376989D01*
X9559491Y-2442657D01*
X9584539Y-2527604D01*
X9570248Y-2615007D01*
X9519450Y-2687554D01*
X9500067Y-2703011D01*
X9335257Y-2818412D01*
X9175713Y-2977956D01*
X9046295Y-3162783D01*
X9046293Y-3162787D01*
X8950935Y-3367282D01*
X8950935Y-3367283D01*
X8892540Y-3585219D01*
X8892538Y-3585229D01*
X8872874Y-3810000D01*
X8892538Y-4034770D01*
X8892540Y-4034780D01*
X8950935Y-4252716D01*
X8950935Y-4252717D01*
X9046293Y-4457212D01*
X9046295Y-4457216D01*
X9175713Y-4642043D01*
X9335257Y-4801587D01*
X9500067Y-4916989D01*
X9559491Y-4982657D01*
X9584539Y-5067604D01*
X9570248Y-5155007D01*
X9519450Y-5227554D01*
X9500067Y-5243011D01*
X9335257Y-5358412D01*
X9175713Y-5517956D01*
X9046295Y-5702783D01*
X9046293Y-5702787D01*
X8950935Y-5907282D01*
X8950935Y-5907283D01*
X8892540Y-6125219D01*
X8892538Y-6125229D01*
X8872874Y-6350000D01*
X8892538Y-6574770D01*
X8892540Y-6574780D01*
X8950935Y-6792716D01*
X8950935Y-6792717D01*
X9046293Y-6997212D01*
X9046295Y-6997216D01*
X9175713Y-7182043D01*
X9335256Y-7341586D01*
X9520083Y-7471004D01*
X9520087Y-7471006D01*
X9724580Y-7566363D01*
X9724582Y-7566363D01*
X9724583Y-7566364D01*
X9797228Y-7585829D01*
X9942525Y-7624761D01*
X10167300Y-7644426D01*
X10392075Y-7624761D01*
X10610016Y-7566364D01*
X10610017Y-7566364D01*
X10610017Y-7566363D01*
X10610020Y-7566363D01*
X10814513Y-7471006D01*
X10999341Y-7341588D01*
X11158888Y-7182041D01*
X11288306Y-6997213D01*
X11383663Y-6792720D01*
X11442061Y-6574775D01*
X11461726Y-6350000D01*
X11442061Y-6125225D01*
X11383663Y-5907280D01*
X11288306Y-5702787D01*
X11288304Y-5702783D01*
X11158886Y-5517956D01*
X10999343Y-5358413D01*
X10834532Y-5243011D01*
X10775108Y-5177344D01*
X10750060Y-5092396D01*
X10764351Y-5004993D01*
X10815149Y-4932447D01*
X10834532Y-4916989D01*
X10906007Y-4866940D01*
X10999341Y-4801588D01*
X11158888Y-4642041D01*
X11288306Y-4457213D01*
X11383663Y-4252720D01*
X11442061Y-4034775D01*
X11461726Y-3810000D01*
X11442061Y-3585225D01*
X11383663Y-3367280D01*
X11288306Y-3162787D01*
X11288304Y-3162783D01*
X11158886Y-2977956D01*
X10999343Y-2818413D01*
X10834532Y-2703011D01*
X10775108Y-2637344D01*
X10750060Y-2552396D01*
X10764351Y-2464993D01*
X10815149Y-2392447D01*
X10834532Y-2376989D01*
X10906007Y-2326940D01*
X10999341Y-2261588D01*
X11158888Y-2102041D01*
X11288306Y-1917213D01*
X11383663Y-1712720D01*
X11442061Y-1494775D01*
X11461726Y-1270000D01*
X11442061Y-1045225D01*
X11383663Y-827280D01*
X11288306Y-622787D01*
X11288304Y-622783D01*
X11158886Y-437956D01*
X10999343Y-278413D01*
X10834532Y-163011D01*
X10775108Y-97344D01*
X10750060Y-12396D01*
X10764351Y75007D01*
X10815149Y147553D01*
X10834532Y163011D01*
X10999343Y278413D01*
X11158886Y437956D01*
X11288304Y622783D01*
X11288306Y622787D01*
X11383664Y827282D01*
X11383664Y827283D01*
X11442059Y1045219D01*
X11442061Y1045225D01*
X11461726Y1270000D01*
X11442061Y1494775D01*
X11383663Y1712720D01*
X11288306Y1917213D01*
X11158888Y2102041D01*
X10999341Y2261588D01*
X10906007Y2326940D01*
X10834532Y2376989D01*
X10775108Y2442656D01*
X10750060Y2527604D01*
X10764351Y2615007D01*
X10815149Y2687553D01*
X10834532Y2703011D01*
X10999343Y2818413D01*
X11158886Y2977956D01*
X11288304Y3162783D01*
X11288306Y3162787D01*
X11383664Y3367282D01*
X11383664Y3367283D01*
X11442059Y3585219D01*
X11442061Y3585225D01*
X11461726Y3810000D01*
X11442061Y4034775D01*
X11383663Y4252720D01*
X11288306Y4457213D01*
X11158888Y4642041D01*
X10999341Y4801588D01*
X10906007Y4866940D01*
X10834532Y4916989D01*
X10775108Y4982656D01*
X10750060Y5067604D01*
X10764351Y5155007D01*
X10815149Y5227553D01*
X10834532Y5243011D01*
X10999343Y5358413D01*
X11158886Y5517956D01*
X11288304Y5702783D01*
X11288306Y5702787D01*
X11383664Y5907282D01*
X11383664Y5907283D01*
X11442059Y6125219D01*
X11442061Y6125225D01*
X11461726Y6350000D01*
X11442061Y6574775D01*
X11383663Y6792720D01*
X11288306Y6997213D01*
X11158888Y7182041D01*
X10999341Y7341588D01*
X10814513Y7471006D01*
X10610020Y7566363D01*
X10392075Y7624761D01*
X10167300Y7644426D01*
X9942525Y7624761D01*
X9797228Y7585829D01*
X9724583Y7566364D01*
X9724582Y7566364D01*
X9520087Y7471006D01*
X9520083Y7471004D01*
X9335256Y7341586D01*
X9175713Y7182043D01*
X9046295Y6997216D01*
X9046293Y6997212D01*
X8950935Y6792717D01*
X8950935Y6792716D01*
X8892540Y6574780D01*
X8892538Y6574770D01*
X8872874Y6350000D01*
X8892538Y6125229D01*
X8892540Y6125219D01*
X8950935Y5907283D01*
X8950935Y5907282D01*
X9046293Y5702787D01*
X9046295Y5702783D01*
X9175713Y5517956D01*
X9335257Y5358412D01*
X9500067Y5243011D01*
X9559491Y5177343D01*
X9584539Y5092396D01*
X9570248Y5004993D01*
X9519450Y4932446D01*
X9500067Y4916989D01*
X9335257Y4801587D01*
X9175713Y4642043D01*
X9046295Y4457216D01*
X9046293Y4457212D01*
X8950935Y4252717D01*
X8950935Y4252716D01*
X8892540Y4034780D01*
X8892538Y4034770D01*
X8872874Y3810000D01*
X8892538Y3585229D01*
X8892540Y3585219D01*
X8950935Y3367283D01*
X8950935Y3367282D01*
X9046293Y3162787D01*
X9046295Y3162783D01*
X9175713Y2977956D01*
X9335257Y2818412D01*
X9500067Y2703011D01*
X9559491Y2637343D01*
X9584539Y2552396D01*
X9570248Y2464993D01*
X9519450Y2392446D01*
X9500067Y2376989D01*
X9335257Y2261587D01*
X9175713Y2102043D01*
X9046295Y1917216D01*
X9046293Y1917212D01*
X8950935Y1712717D01*
X8950935Y1712716D01*
X8892540Y1494780D01*
X8892538Y1494770D01*
X8872874Y1270000D01*
X8892538Y1045229D01*
X8892540Y1045219D01*
X8950935Y827283D01*
X8950935Y827282D01*
X9046293Y622787D01*
X9046295Y622783D01*
X9175713Y437956D01*
X9335257Y278412D01*
X9500067Y163011D01*
X9559491Y97343D01*
X9584539Y12396D01*
X9570248Y-75007D01*
X9519450Y-147554D01*
X9500067Y-163011D01*
X9335257Y-278412D01*
X9175712Y-437958D01*
X9175709Y-437960D01*
X9143024Y-484641D01*
X9077357Y-544066D01*
X8992410Y-569113D01*
X8980013Y-569500D01*
X8645085Y-569500D01*
X8633068Y-569137D01*
X8632671Y-569113D01*
X8626311Y-568728D01*
X8575297Y-565642D01*
X8575290Y-565642D01*
X8518349Y-576076D01*
X8506474Y-577884D01*
X8449026Y-584860D01*
X8445916Y-586040D01*
X8411247Y-595704D01*
X8407972Y-596304D01*
X8407964Y-596306D01*
X8355177Y-620063D01*
X8344078Y-624660D01*
X8289969Y-645181D01*
X8289964Y-645184D01*
X8287231Y-647071D01*
X8255872Y-664758D01*
X8252842Y-666121D01*
X8207283Y-701814D01*
X8197610Y-708931D01*
X8149974Y-741813D01*
X8149971Y-741817D01*
X8111592Y-785137D01*
X8103354Y-793887D01*
X7176587Y-1720654D01*
X7167837Y-1728892D01*
X7124517Y-1767271D01*
X7124513Y-1767274D01*
X7091631Y-1814910D01*
X7084514Y-1824583D01*
X7048821Y-1870142D01*
X7047458Y-1873172D01*
X7029771Y-1904531D01*
X7027887Y-1907260D01*
X7027883Y-1907267D01*
X7007363Y-1961372D01*
X7002766Y-1972469D01*
X6979006Y-2025263D01*
X6979002Y-2025276D01*
X6978404Y-2028543D01*
X6968738Y-2063221D01*
X6967560Y-2066325D01*
X6967560Y-2066327D01*
X6960584Y-2123773D01*
X6958776Y-2135647D01*
X6948342Y-2192589D01*
X6948342Y-2192596D01*
X6951837Y-2250367D01*
X6952200Y-2262384D01*
X6952200Y-27364215D01*
X6932493Y-27450558D01*
X6893914Y-27504929D01*
X1782029Y-32616814D01*
X1707041Y-32663933D01*
X1641315Y-32675100D01*
X-3795029Y-32675100D01*
X-3881372Y-32655393D01*
X-3950613Y-32600174D01*
X-3958039Y-32590243D01*
X-3967778Y-32576333D01*
X-4121034Y-32423077D01*
X-4298580Y-32298757D01*
X-4326036Y-32285955D01*
X-4395960Y-32231604D01*
X-4435378Y-32152296D01*
X-4436481Y-32063739D01*
X-4399053Y-31983474D01*
X-4330504Y-31927397D01*
X-4326036Y-31925245D01*
X-4298580Y-31912442D01*
X-4121034Y-31788122D01*
X-3967778Y-31634866D01*
X-3958039Y-31620957D01*
X-3892372Y-31561533D01*
X-3807424Y-31536486D01*
X-3795029Y-31536100D01*
X310315Y-31536100D01*
X322331Y-31536462D01*
X380106Y-31539958D01*
X437070Y-31529518D01*
X448922Y-31527715D01*
X506372Y-31520740D01*
X509459Y-31519569D01*
X544175Y-31509891D01*
X547432Y-31509295D01*
X600242Y-31485526D01*
X611305Y-31480944D01*
X665430Y-31460418D01*
X668151Y-31458539D01*
X699542Y-31440835D01*
X700505Y-31440401D01*
X702557Y-31439478D01*
X748132Y-31403771D01*
X757760Y-31396685D01*
X805429Y-31363783D01*
X843825Y-31320441D01*
X852031Y-31311724D01*
X6046024Y-26117731D01*
X6054741Y-26109525D01*
X6098083Y-26071129D01*
X6130985Y-26023460D01*
X6138071Y-26013832D01*
X6173778Y-25968257D01*
X6175135Y-25965242D01*
X6192839Y-25933851D01*
X6194718Y-25931130D01*
X6215244Y-25877005D01*
X6219826Y-25865942D01*
X6243595Y-25813132D01*
X6244191Y-25809875D01*
X6253870Y-25775156D01*
X6255040Y-25772072D01*
X6262015Y-25714622D01*
X6263818Y-25702770D01*
X6274258Y-25645806D01*
X6270762Y-25588031D01*
X6270400Y-25576015D01*
X6270400Y18144015D01*
X6290107Y18230358D01*
X6328686Y18284729D01*
X8544971Y20501014D01*
X8619959Y20548133D01*
X8685685Y20559300D01*
X11897823Y20559300D01*
X11984166Y20539593D01*
X12053407Y20484374D01*
X12060835Y20474441D01*
X12075904Y20452919D01*
X12230620Y20298203D01*
X12409857Y20172699D01*
X12409861Y20172697D01*
X12608164Y20080227D01*
X12608171Y20080224D01*
X12819520Y20023593D01*
X12819527Y20023592D01*
X13037500Y20004523D01*
X13255472Y20023592D01*
X13255479Y20023593D01*
X13466828Y20080224D01*
X13466835Y20080227D01*
X13665138Y20172697D01*
X13665142Y20172699D01*
X13844379Y20298203D01*
X13999096Y20452920D01*
X14124600Y20632157D01*
X14124602Y20632161D01*
X14217072Y20830464D01*
X14217075Y20830471D01*
X14273706Y21041820D01*
X14273707Y21041823D01*
X14292777Y21259800D01*
X14273707Y21477777D01*
X14217075Y21689130D01*
X14124602Y21887438D01*
X13999098Y22066677D01*
X13844377Y22221398D01*
X13714980Y22312003D01*
X13665144Y22346899D01*
X13665141Y22346899D01*
X13665139Y22346902D01*
X13646984Y22355367D01*
X13577062Y22409715D01*
X13537643Y22489022D01*
X13536538Y22577578D01*
X13573965Y22657845D01*
X13633339Y22706418D01*
X13632220Y22708357D01*
X13639742Y22712699D01*
X13818979Y22838203D01*
X13973696Y22992920D01*
X14099200Y23172157D01*
X14099202Y23172161D01*
X14191672Y23370464D01*
X14191675Y23370471D01*
X14248306Y23581820D01*
X14248307Y23581823D01*
X14267377Y23799800D01*
X14248307Y24017777D01*
X14191675Y24229130D01*
X14099202Y24427438D01*
X13973698Y24606677D01*
X13818977Y24761398D01*
X13639739Y24886902D01*
X13441430Y24979375D01*
X13230077Y25036007D01*
X13012100Y25055077D01*
X12794123Y25036007D01*
X12582770Y24979375D01*
X12582767Y24979373D01*
X12582765Y24979373D01*
X12493402Y24937702D01*
X12384462Y24886902D01*
X12205223Y24761398D01*
X12101305Y24657480D01*
X12050501Y24606676D01*
X12035435Y24585159D01*
X11969767Y24525734D01*
X11884820Y24500687D01*
X11872423Y24500300D01*
X8086285Y24500300D01*
X8074268Y24500663D01*
X8016494Y24504158D01*
X7959533Y24493719D01*
X7947677Y24491915D01*
X7890228Y24484940D01*
X7887135Y24483767D01*
X7852425Y24474091D01*
X7849169Y24473495D01*
X7796377Y24449735D01*
X7785301Y24445146D01*
X7731170Y24424618D01*
X7728437Y24422732D01*
X7697067Y24405038D01*
X7694044Y24403678D01*
X7648486Y24367985D01*
X7638816Y24360870D01*
X7591171Y24327983D01*
X7591169Y24327981D01*
X7552784Y24284653D01*
X7544544Y24275900D01*
X2858590Y19589947D01*
X2849837Y19581707D01*
X2806518Y19543330D01*
X2806515Y19543327D01*
X2773640Y19495700D01*
X2766519Y19486022D01*
X2747356Y19461561D01*
X2730822Y19440457D01*
X2730821Y19440455D01*
X2730819Y19440452D01*
X2729457Y19437426D01*
X2711768Y19406063D01*
X2709884Y19403333D01*
X2709881Y19403329D01*
X2689358Y19349213D01*
X2684766Y19338128D01*
X2666159Y19296785D01*
X2661003Y19285328D01*
X2660404Y19282056D01*
X2650736Y19247373D01*
X2649560Y19244273D01*
X2649560Y19244271D01*
X2642584Y19186826D01*
X2640776Y19174950D01*
X2630342Y19118008D01*
X2630342Y19118005D01*
X2633837Y19060232D01*
X2634200Y19048215D01*
X2634200Y-23630415D01*
X2614493Y-23716758D01*
X2575914Y-23771129D01*
X-1189771Y-27536814D01*
X-1264759Y-27583933D01*
X-1330485Y-27595100D01*
X-3795029Y-27595100D01*
X-3881372Y-27575393D01*
X-3950613Y-27520174D01*
X-3958039Y-27510243D01*
X-3967778Y-27496333D01*
X-4121034Y-27343077D01*
X-4298580Y-27218757D01*
X-4326036Y-27205955D01*
X-4395960Y-27151604D01*
X-4435378Y-27072296D01*
X-4436481Y-26983739D01*
X-4399053Y-26903474D01*
X-4330504Y-26847397D01*
X-4326036Y-26845245D01*
X-4298580Y-26832442D01*
X-4121034Y-26708122D01*
X-3967778Y-26554866D01*
X-3958039Y-26540957D01*
X-3892372Y-26481533D01*
X-3807424Y-26456486D01*
X-3795029Y-26456100D01*
X-1975685Y-26456100D01*
X-1963668Y-26456462D01*
X-1905894Y-26459958D01*
X-1848938Y-26449520D01*
X-1837076Y-26447715D01*
X-1779628Y-26440740D01*
X-1776535Y-26439567D01*
X-1741827Y-26429892D01*
X-1738568Y-26429295D01*
X-1738566Y-26429294D01*
X-1738565Y-26429294D01*
X-1738560Y-26429292D01*
X-1685774Y-26405535D01*
X-1674674Y-26400936D01*
X-1620570Y-26380418D01*
X-1617836Y-26378531D01*
X-1586464Y-26360838D01*
X-1584780Y-26360079D01*
X-1583443Y-26359478D01*
X-1583441Y-26359476D01*
X-1583436Y-26359474D01*
X-1537876Y-26323780D01*
X-1528197Y-26316658D01*
X-1480572Y-26283784D01*
X-1480569Y-26283781D01*
X-1442191Y-26240461D01*
X-1433951Y-26231708D01*
X-741916Y-25539673D01*
X1601024Y-23196731D01*
X1609741Y-23188525D01*
X1653083Y-23150129D01*
X1685985Y-23102460D01*
X1693071Y-23092832D01*
X1728778Y-23047257D01*
X1730137Y-23044238D01*
X1747839Y-23012851D01*
X1749718Y-23010130D01*
X1770236Y-22956025D01*
X1774829Y-22944933D01*
X1798595Y-22892131D01*
X1799192Y-22888871D01*
X1808870Y-22854156D01*
X1810040Y-22851072D01*
X1817019Y-22793585D01*
X1818816Y-22781783D01*
X1829258Y-22724806D01*
X1825762Y-22667031D01*
X1825400Y-22655015D01*
X1825400Y32317215D01*
X1845107Y32403558D01*
X1883686Y32457929D01*
X5115971Y35690214D01*
X5190959Y35737333D01*
X5256685Y35748500D01*
X11872423Y35748500D01*
X11958766Y35728793D01*
X12028007Y35673574D01*
X12035435Y35663641D01*
X12050504Y35642119D01*
X12205220Y35487403D01*
X12384457Y35361899D01*
X12384461Y35361897D01*
X12582764Y35269427D01*
X12582771Y35269424D01*
X12794120Y35212793D01*
X12794127Y35212792D01*
X13012100Y35193723D01*
X13230072Y35212792D01*
X13230079Y35212793D01*
X13441428Y35269424D01*
X13441435Y35269427D01*
X13639738Y35361897D01*
X13639742Y35361899D01*
X13818979Y35487403D01*
X13973696Y35642120D01*
X14099200Y35821357D01*
X14099202Y35821361D01*
X14191672Y36019664D01*
X14191675Y36019671D01*
X14248306Y36231020D01*
X14248307Y36231023D01*
X14267377Y36449000D01*
X14248307Y36666977D01*
X14191675Y36878330D01*
X14099202Y37076638D01*
X13973698Y37255877D01*
X13818977Y37410598D01*
X13639739Y37536102D01*
X13441430Y37628575D01*
X13230077Y37685207D01*
X13012100Y37704277D01*
X12794123Y37685207D01*
X12582770Y37628575D01*
X12582767Y37628573D01*
X12582765Y37628573D01*
X12384464Y37536103D01*
X12384462Y37536102D01*
X12205223Y37410598D01*
X12050502Y37255877D01*
X12050501Y37255876D01*
X12035435Y37234359D01*
X11969767Y37174934D01*
X11884820Y37149887D01*
X11872423Y37149500D01*
X4911285Y37149500D01*
X4899268Y37149863D01*
X4841494Y37153358D01*
X4784533Y37142919D01*
X4772677Y37141115D01*
X4715228Y37134140D01*
X4712135Y37132967D01*
X4677425Y37123291D01*
X4674169Y37122695D01*
X4621377Y37098935D01*
X4610301Y37094346D01*
X4556170Y37073818D01*
X4553435Y37071930D01*
X4522062Y37054237D01*
X4519046Y37052879D01*
X4519044Y37052878D01*
X4500572Y37038406D01*
X4473477Y37017180D01*
X4463800Y37010060D01*
X4416172Y36977184D01*
X4416169Y36977181D01*
X4377791Y36933861D01*
X4369551Y36925108D01*
X648790Y33204347D01*
X640037Y33196107D01*
X596718Y33157730D01*
X596715Y33157727D01*
X563840Y33110100D01*
X556719Y33100422D01*
X537556Y33075961D01*
X521022Y33054857D01*
X521021Y33054855D01*
X521019Y33054852D01*
X519657Y33051826D01*
X501968Y33020463D01*
X500084Y33017733D01*
X500081Y33017729D01*
X479558Y32963613D01*
X474966Y32952528D01*
X456359Y32911185D01*
X451203Y32899728D01*
X450604Y32896456D01*
X440936Y32861773D01*
X439760Y32858673D01*
X439760Y32858671D01*
X432784Y32801226D01*
X430976Y32789350D01*
X420542Y32732408D01*
X420542Y32732405D01*
X424037Y32674632D01*
X424400Y32662615D01*
X424400Y-22309615D01*
X404693Y-22395958D01*
X366114Y-22450329D01*
X-2180371Y-24996814D01*
X-2255359Y-25043933D01*
X-2321085Y-25055100D01*
X-3795029Y-25055100D01*
X-3881372Y-25035393D01*
X-3950613Y-24980174D01*
X-3958039Y-24970243D01*
X-3967778Y-24956333D01*
X-4121034Y-24803077D01*
X-4298580Y-24678757D01*
X-4326036Y-24665955D01*
X-4395960Y-24611604D01*
X-4435378Y-24532296D01*
X-4436481Y-24443739D01*
X-4399053Y-24363474D01*
X-4330504Y-24307397D01*
X-4326036Y-24305245D01*
X-4298580Y-24292442D01*
X-4121034Y-24168122D01*
X-3967778Y-24014866D01*
X-3958039Y-24000957D01*
X-3892372Y-23941533D01*
X-3807424Y-23916486D01*
X-3795029Y-23916100D01*
X-2636085Y-23916100D01*
X-2624068Y-23916462D01*
X-2566294Y-23919958D01*
X-2509338Y-23909520D01*
X-2497476Y-23907715D01*
X-2440028Y-23900740D01*
X-2436935Y-23899567D01*
X-2402227Y-23889892D01*
X-2398968Y-23889295D01*
X-2398966Y-23889294D01*
X-2398965Y-23889294D01*
X-2398960Y-23889292D01*
X-2346174Y-23865535D01*
X-2335074Y-23860936D01*
X-2280970Y-23840418D01*
X-2278236Y-23838531D01*
X-2246864Y-23820838D01*
X-2245180Y-23820079D01*
X-2243843Y-23819478D01*
X-2243841Y-23819476D01*
X-2243836Y-23819474D01*
X-2198276Y-23783780D01*
X-2188597Y-23776658D01*
X-2140972Y-23743784D01*
X-2140969Y-23743781D01*
X-2102591Y-23700461D01*
X-2094351Y-23691708D01*
X-481798Y-22079154D01*
X-473045Y-22070914D01*
X-429718Y-22032530D01*
X-429715Y-22032526D01*
X-396827Y-21984880D01*
X-389717Y-21975217D01*
X-354022Y-21929656D01*
X-354020Y-21929653D01*
X-354019Y-21929651D01*
X-354018Y-21929649D01*
X-352660Y-21926631D01*
X-334968Y-21895262D01*
X-333082Y-21892530D01*
X-312551Y-21838396D01*
X-307958Y-21827308D01*
X-284203Y-21774528D01*
X-284203Y-21774527D01*
X-283603Y-21771252D01*
X-273938Y-21736581D01*
X-272762Y-21733480D01*
X-272760Y-21733471D01*
X-265785Y-21676031D01*
X-263977Y-21664153D01*
X-253542Y-21607205D01*
X-253542Y-21607202D01*
X-257037Y-21549432D01*
X-257400Y-21537415D01*
X-257400Y-4243584D01*
X-257037Y-4231567D01*
X-253542Y-4173796D01*
X-253542Y-4173790D01*
X-263976Y-4116849D01*
X-265784Y-4104974D01*
X-272760Y-4047526D01*
X-273940Y-4044416D01*
X-283604Y-4009747D01*
X-284204Y-4006472D01*
X-284207Y-4006460D01*
X-307960Y-3953682D01*
X-312556Y-3942586D01*
X-333080Y-3888472D01*
X-334973Y-3885730D01*
X-352659Y-3854371D01*
X-354020Y-3851346D01*
X-389722Y-3805773D01*
X-396837Y-3796103D01*
X-429717Y-3748470D01*
X-473037Y-3710092D01*
X-481787Y-3701854D01*
X-3389754Y-793887D01*
X-3397992Y-785137D01*
X-3436371Y-741817D01*
X-3436374Y-741813D01*
X-3484010Y-708931D01*
X-3493683Y-701814D01*
X-3539243Y-666121D01*
X-3539242Y-666121D01*
X-3542272Y-664758D01*
X-3573631Y-647071D01*
X-3576360Y-645187D01*
X-3576367Y-645183D01*
X-3630472Y-624663D01*
X-3641569Y-620066D01*
X-3694363Y-596306D01*
X-3694376Y-596302D01*
X-3697643Y-595704D01*
X-3732321Y-586038D01*
X-3735426Y-584860D01*
X-3792873Y-577884D01*
X-3804747Y-576076D01*
X-3861689Y-565642D01*
X-3861698Y-565642D01*
X-3914247Y-568821D01*
X-3919071Y-569113D01*
X-3919468Y-569137D01*
X-3931485Y-569500D01*
X-6425413Y-569500D01*
X-6511756Y-549793D01*
X-6580997Y-494574D01*
X-6588424Y-484641D01*
X-6621109Y-437960D01*
X-6621112Y-437958D01*
X-6780656Y-278413D01*
X-6965483Y-148995D01*
X-6965486Y-148993D01*
X-7011645Y-127470D01*
X-7081570Y-73119D01*
X-7120988Y6188D01*
X-7122259Y93960D01*
X-7101369Y192985D01*
X-7612700Y704315D01*
X-7612701Y704315D01*
X-8124028Y192986D01*
X-8103139Y93961D01*
X-8104600Y5409D01*
X-8144337Y-73739D01*
X-8213754Y-127469D01*
X-8233291Y-136580D01*
X-8259910Y-148992D01*
X-8259916Y-148995D01*
X-8444743Y-278413D01*
X-8604286Y-437956D01*
X-8733704Y-622783D01*
X-8733706Y-622787D01*
X-8829063Y-827280D01*
X-8887461Y-1045225D01*
X-8907126Y-1270000D01*
X-8887461Y-1494775D01*
X-8829063Y-1712720D01*
X-8733706Y-1917213D01*
X-8604288Y-2102041D01*
X-8444741Y-2261588D01*
X-8351407Y-2326940D01*
X-8279932Y-2376989D01*
X-8220508Y-2442656D01*
X-8195460Y-2527604D01*
X-8209751Y-2615007D01*
X-8260549Y-2687553D01*
X-8279932Y-2703011D01*
X-8444743Y-2818413D01*
X-8604286Y-2977956D01*
X-8733704Y-3162783D01*
X-8733706Y-3162787D01*
X-8829063Y-3367280D01*
X-8887461Y-3585225D01*
X-8907126Y-3810000D01*
X-8887461Y-4034775D01*
X-8829063Y-4252720D01*
X-8733706Y-4457213D01*
X-8604288Y-4642041D01*
X-8444741Y-4801588D01*
X-8351407Y-4866940D01*
X-8279932Y-4916989D01*
X-8220508Y-4982656D01*
X-8195460Y-5067604D01*
X-8209751Y-5155007D01*
X-8260549Y-5227553D01*
X-8279932Y-5243011D01*
X-8444743Y-5358413D01*
X-8604286Y-5517956D01*
X-8733704Y-5702783D01*
X-8733706Y-5702787D01*
X-8829063Y-5907280D01*
X-8887461Y-6125225D01*
X-8907126Y-6350000D01*
X-8887461Y-6574775D01*
X-8829063Y-6792720D01*
X-8733706Y-6997213D01*
X-8604288Y-7182041D01*
X-8444741Y-7341588D01*
X-8259913Y-7471006D01*
X-8055420Y-7566363D01*
X-7837475Y-7624761D01*
X-7612700Y-7644426D01*
X-7387925Y-7624761D01*
X-7242628Y-7585829D01*
X-7169983Y-7566364D01*
X-7169982Y-7566364D01*
X-6965487Y-7471006D01*
X-6965483Y-7471004D01*
X-6780656Y-7341586D01*
X-6621113Y-7182043D01*
X-6491695Y-6997216D01*
X-6491693Y-6997212D01*
X-6396335Y-6792717D01*
X-6396335Y-6792716D01*
X-6337940Y-6574780D01*
X-6337938Y-6574770D01*
X-6318274Y-6350000D01*
X-6337938Y-6125229D01*
X-6337940Y-6125219D01*
X-6396335Y-5907283D01*
X-6396335Y-5907282D01*
X-6491693Y-5702787D01*
X-6491695Y-5702783D01*
X-6621113Y-5517956D01*
X-6780657Y-5358412D01*
X-6945467Y-5243011D01*
X-7004891Y-5177343D01*
X-7029939Y-5092396D01*
X-7015648Y-5004993D01*
X-6964850Y-4932446D01*
X-6945467Y-4916989D01*
X-6780657Y-4801587D01*
X-6621109Y-4642039D01*
X-6588424Y-4595359D01*
X-6522757Y-4535934D01*
X-6437810Y-4510887D01*
X-6425413Y-4510500D01*
X-5318285Y-4510500D01*
X-5231942Y-4530207D01*
X-5177571Y-4568786D01*
X-3621686Y-6124671D01*
X-3574567Y-6199659D01*
X-3563400Y-6265385D01*
X-3563400Y-14742697D01*
X-3583107Y-14829040D01*
X-3638326Y-14898281D01*
X-3718118Y-14936708D01*
X-3806682Y-14936708D01*
X-3886474Y-14898281D01*
X-3925411Y-14856840D01*
X-3967779Y-14796332D01*
X-4121034Y-14643077D01*
X-4298580Y-14518757D01*
X-4298583Y-14518755D01*
X-4495025Y-14427154D01*
X-4495027Y-14427153D01*
X-4704373Y-14371060D01*
X-4704377Y-14371059D01*
X-4704380Y-14371059D01*
X-4920300Y-14352168D01*
X-5136220Y-14371059D01*
X-5136222Y-14371059D01*
X-5136226Y-14371060D01*
X-5345572Y-14427153D01*
X-5345574Y-14427154D01*
X-5345577Y-14427155D01*
X-5345579Y-14427156D01*
X-5394485Y-14449961D01*
X-5542016Y-14518755D01*
X-5542019Y-14518757D01*
X-5719565Y-14643077D01*
X-5872821Y-14796333D01*
X-5882561Y-14810243D01*
X-5948228Y-14869667D01*
X-6033176Y-14894714D01*
X-6045571Y-14895100D01*
X-7052127Y-14895100D01*
X-7064141Y-14894737D01*
X-7073595Y-14894165D01*
X-7121902Y-14891243D01*
X-7121909Y-14891243D01*
X-7178834Y-14901674D01*
X-7190710Y-14903482D01*
X-7228059Y-14908017D01*
X-7248172Y-14910460D01*
X-7248174Y-14910460D01*
X-7251287Y-14911641D01*
X-7285957Y-14921305D01*
X-7289223Y-14921903D01*
X-7289236Y-14921907D01*
X-7342010Y-14945659D01*
X-7353095Y-14950251D01*
X-7388564Y-14963703D01*
X-7407231Y-14970782D01*
X-7409958Y-14972665D01*
X-7441324Y-14990357D01*
X-7444357Y-14991722D01*
X-7444359Y-14991723D01*
X-7444362Y-14991725D01*
X-7461499Y-15005151D01*
X-7541621Y-15042886D01*
X-7584224Y-15047500D01*
X-8116409Y-15047500D01*
X-8202752Y-15027793D01*
X-8271993Y-14972574D01*
X-8275007Y-14968542D01*
X-8276696Y-14966528D01*
X-8431424Y-14811800D01*
X-8610657Y-14686299D01*
X-8610661Y-14686297D01*
X-8808964Y-14593827D01*
X-8808971Y-14593824D01*
X-9020320Y-14537193D01*
X-9020327Y-14537192D01*
X-9238300Y-14518123D01*
X-9456272Y-14537192D01*
X-9456279Y-14537193D01*
X-9667628Y-14593824D01*
X-9667634Y-14593826D01*
X-9865935Y-14686296D01*
X-10045172Y-14811798D01*
X-10045174Y-14811800D01*
X-10045177Y-14811802D01*
X-10199898Y-14966523D01*
X-10199900Y-14966525D01*
X-10199901Y-14966527D01*
X-10217545Y-14991725D01*
X-10325402Y-15145762D01*
X-10417875Y-15344070D01*
X-10474507Y-15555423D01*
X-10493577Y-15773400D01*
X-10474507Y-15991377D01*
X-10417875Y-16202730D01*
X-10326849Y-16397935D01*
X-10325402Y-16401038D01*
X-10325400Y-16401042D01*
X-10310521Y-16422291D01*
X-10199898Y-16580277D01*
X-10045177Y-16734998D01*
X-9865939Y-16860502D01*
X-9865933Y-16860504D01*
X-9865386Y-16860888D01*
X-9805961Y-16926555D01*
X-9780914Y-17011503D01*
X-9795204Y-17098906D01*
X-9846001Y-17171453D01*
X-9923245Y-17214775D01*
X-9979526Y-17222900D01*
X-10119817Y-17222900D01*
X-10198750Y-17235401D01*
X-10213604Y-17237754D01*
X-10213605Y-17237754D01*
X-10326644Y-17295351D01*
X-10416350Y-17385057D01*
X-10455506Y-17461905D01*
X-10473946Y-17498096D01*
X-10488800Y-17591881D01*
X-10488799Y-19354918D01*
X-10473946Y-19448704D01*
X-10416350Y-19561742D01*
X-10416348Y-19561744D01*
X-10326643Y-19651449D01*
X-10313973Y-19660655D01*
X-10314668Y-19661612D01*
X-10259168Y-19707947D01*
X-10222542Y-19788582D01*
X-10224529Y-19877123D01*
X-10264735Y-19956034D01*
X-10335198Y-20009685D01*
X-10417497Y-20027500D01*
X-10705800Y-20027500D01*
X-10792143Y-20007793D01*
X-10861384Y-19952574D01*
X-10899811Y-19872782D01*
X-10904800Y-19828500D01*
X-10904800Y1270000D01*
X-8806793Y1270000D01*
X-8786462Y1050589D01*
X-8786460Y1050579D01*
X-8726160Y838647D01*
X-8726157Y838641D01*
X-8687458Y760925D01*
X-8250273Y1198111D01*
X-8112700Y1198111D01*
X-8072193Y1060156D01*
X-7994461Y939202D01*
X-7885800Y845048D01*
X-7755015Y785320D01*
X-7648463Y770000D01*
X-7576937Y770000D01*
X-7470385Y785320D01*
X-7339600Y845048D01*
X-7230939Y939202D01*
X-7153207Y1060156D01*
X-7112700Y1198111D01*
X-7112700Y1269999D01*
X-7047015Y1269999D01*
X-6537940Y760925D01*
X-6499237Y838651D01*
X-6438939Y1050579D01*
X-6438937Y1050589D01*
X-6418606Y1270000D01*
X-6438937Y1489410D01*
X-6438939Y1489420D01*
X-6499239Y1701351D01*
X-6499244Y1701362D01*
X-6537940Y1779074D01*
X-7047015Y1270000D01*
X-7047015Y1269999D01*
X-7112700Y1269999D01*
X-7112700Y1341889D01*
X-7153207Y1479844D01*
X-7230939Y1600798D01*
X-7339600Y1694952D01*
X-7470385Y1754680D01*
X-7576937Y1770000D01*
X-7648463Y1770000D01*
X-7755015Y1754680D01*
X-7885800Y1694952D01*
X-7994461Y1600798D01*
X-8072193Y1479844D01*
X-8112700Y1341889D01*
X-8112700Y1198111D01*
X-8250273Y1198111D01*
X-8178385Y1269999D01*
X-8178385Y1270001D01*
X-8687458Y1779074D01*
X-8687459Y1779074D01*
X-8726156Y1701363D01*
X-8726160Y1701352D01*
X-8786460Y1489420D01*
X-8786462Y1489410D01*
X-8806793Y1270000D01*
X-10904800Y1270000D01*
X-10904800Y3643351D01*
X-10885093Y3729694D01*
X-10846514Y3784065D01*
X-9339366Y5291214D01*
X-9264378Y5338333D01*
X-9198652Y5349500D01*
X-8494758Y5349500D01*
X-8408415Y5329793D01*
X-8380616Y5313511D01*
X-8279932Y5243011D01*
X-8220508Y5177343D01*
X-8195460Y5092396D01*
X-8209751Y5004993D01*
X-8260549Y4932446D01*
X-8279932Y4916989D01*
X-8351407Y4866940D01*
X-8444741Y4801588D01*
X-8604288Y4642041D01*
X-8733706Y4457213D01*
X-8829063Y4252720D01*
X-8887461Y4034775D01*
X-8907126Y3810000D01*
X-8887461Y3585225D01*
X-8887459Y3585219D01*
X-8829064Y3367283D01*
X-8829064Y3367282D01*
X-8733706Y3162787D01*
X-8733704Y3162783D01*
X-8604286Y2977956D01*
X-8444743Y2818413D01*
X-8259916Y2688995D01*
X-8259912Y2688993D01*
X-8213753Y2667469D01*
X-8143828Y2613118D01*
X-8104410Y2533811D01*
X-8103139Y2446039D01*
X-8124028Y2347013D01*
X-7612701Y1835685D01*
X-7612700Y1835685D01*
X-7101370Y2347013D01*
X-7122259Y2446040D01*
X-7120797Y2534592D01*
X-7081060Y2613739D01*
X-7011648Y2667468D01*
X-6965484Y2688995D01*
X-6965483Y2688995D01*
X-6780656Y2818413D01*
X-6621113Y2977956D01*
X-6491695Y3162783D01*
X-6491693Y3162787D01*
X-6396335Y3367282D01*
X-6396335Y3367283D01*
X-6337940Y3585219D01*
X-6337938Y3585229D01*
X-6318274Y3810000D01*
X-6337938Y4034770D01*
X-6337940Y4034780D01*
X-6396335Y4252716D01*
X-6396335Y4252717D01*
X-6491693Y4457212D01*
X-6491695Y4457216D01*
X-6621113Y4642043D01*
X-6780657Y4801587D01*
X-6945467Y4916989D01*
X-7004891Y4982657D01*
X-7029939Y5067604D01*
X-7015648Y5155007D01*
X-6964850Y5227554D01*
X-6945467Y5243011D01*
X-6780657Y5358412D01*
X-6621113Y5517956D01*
X-6491695Y5702783D01*
X-6491693Y5702787D01*
X-6396335Y5907282D01*
X-6396335Y5907283D01*
X-6337940Y6125219D01*
X-6337938Y6125229D01*
X-6318274Y6350000D01*
X-6337938Y6574770D01*
X-6337939Y6574777D01*
X-6396337Y6792720D01*
X-6396337Y6792721D01*
X-6441155Y6888831D01*
X-6459800Y6972933D01*
X-6459800Y21777969D01*
X-6459736Y21783010D01*
X-6457542Y21869561D01*
X-6467446Y21924819D01*
X-6469546Y21939789D01*
X-6475225Y21995636D01*
X-6482911Y22020135D01*
X-6488911Y22044584D01*
X-6493439Y22069845D01*
X-6493443Y22069858D01*
X-6514265Y22121985D01*
X-6519336Y22136229D01*
X-6536139Y22189783D01*
X-6536139Y22189784D01*
X-6536141Y22189788D01*
X-6548601Y22212237D01*
X-6559403Y22234984D01*
X-6568921Y22258814D01*
X-6568925Y22258820D01*
X-6599814Y22305689D01*
X-6607638Y22318604D01*
X-6634891Y22367702D01*
X-6634895Y22367707D01*
X-6651610Y22387178D01*
X-6666776Y22407292D01*
X-6680897Y22428718D01*
X-6720589Y22468410D01*
X-6730868Y22479501D01*
X-6767435Y22522096D01*
X-6787730Y22537806D01*
X-6806635Y22554456D01*
X-8799459Y24547279D01*
X-8802979Y24550889D01*
X-8862638Y24613650D01*
X-8862641Y24613653D01*
X-8908722Y24645726D01*
X-8920795Y24654830D01*
X-8964292Y24690297D01*
X-8964293Y24690298D01*
X-8987044Y24702182D01*
X-9008587Y24715234D01*
X-9029651Y24729895D01*
X-9029653Y24729896D01*
X-9048601Y24738027D01*
X-9081249Y24752037D01*
X-9094881Y24758511D01*
X-9144651Y24784509D01*
X-9169329Y24791570D01*
X-9193045Y24800013D01*
X-9216642Y24810140D01*
X-9271632Y24821440D01*
X-9286312Y24825044D01*
X-9288978Y24825806D01*
X-9340279Y24840486D01*
X-9340278Y24840486D01*
X-9340282Y24840487D01*
X-9365889Y24842436D01*
X-9390827Y24845935D01*
X-9406850Y24849228D01*
X-9415958Y24851100D01*
X-9415959Y24851100D01*
X-9472083Y24851100D01*
X-9487192Y24851674D01*
X-9491248Y24851982D01*
X-9543176Y24855937D01*
X-9563858Y24853302D01*
X-9568642Y24852694D01*
X-9593779Y24851100D01*
X-12031036Y24851100D01*
X-12117379Y24870807D01*
X-12145178Y24887089D01*
X-12217457Y24937700D01*
X-12217461Y24937702D01*
X-12415764Y25030172D01*
X-12415766Y25030173D01*
X-12415770Y25030175D01*
X-12627123Y25086807D01*
X-12845100Y25105877D01*
X-13063077Y25086807D01*
X-13274430Y25030175D01*
X-13472738Y24937702D01*
X-13651977Y24812198D01*
X-13806698Y24657477D01*
X-13932202Y24478238D01*
X-14024675Y24279930D01*
X-14081307Y24068577D01*
X-14100377Y23850600D01*
X-14995000Y23850600D01*
X-14995000Y58488430D01*
X-14975293Y58574773D01*
X-14971502Y58582238D01*
X-14916209Y58685684D01*
X-14894537Y58718120D01*
X-14795036Y58839361D01*
X-14767461Y58866936D01*
X-14646218Y58966438D01*
X-14613785Y58988109D01*
X-14609273Y58990520D01*
X-14510338Y59043402D01*
X-14424902Y59066724D01*
X-14416531Y59066900D01*
X14265531Y59066900D01*
X14351874Y59047193D01*
G37*
%TD.AperFunction*%
%TD*%
%TA.AperFunction,NonConductor*%
G36*
X11496730Y-16389162D02*
G01*
X11531570Y-16416946D01*
X11646420Y-16531796D01*
X11817787Y-16651789D01*
X11877211Y-16717456D01*
X11902259Y-16802404D01*
X11887968Y-16889807D01*
X11837170Y-16962353D01*
X11817787Y-16977811D01*
X11646430Y-17097796D01*
X11646425Y-17097800D01*
X11485558Y-17258667D01*
X11484412Y-17257521D01*
X11422286Y-17304563D01*
X11335476Y-17322095D01*
X11249655Y-17300226D01*
X11199760Y-17263872D01*
X11118965Y-17183077D01*
X10941420Y-17058758D01*
X10941416Y-17058756D01*
X10913963Y-17045954D01*
X10844040Y-16991605D01*
X10804622Y-16912298D01*
X10803517Y-16823742D01*
X10840945Y-16743476D01*
X10909493Y-16687398D01*
X10913925Y-16685262D01*
X10941416Y-16672444D01*
X11118963Y-16548124D01*
X11135291Y-16531796D01*
X11250142Y-16416946D01*
X11325130Y-16369827D01*
X11413137Y-16359911D01*
X11496730Y-16389162D01*
G37*
%TD.AperFunction*%
%TA.AperFunction,NonConductor*%
G36*
X-3687394Y-16264179D02*
G01*
X-3614847Y-16314977D01*
X-3571525Y-16392221D01*
X-3563400Y-16448502D01*
X-3563400Y-17282697D01*
X-3583107Y-17369040D01*
X-3638326Y-17438281D01*
X-3718118Y-17476708D01*
X-3806682Y-17476708D01*
X-3886474Y-17438281D01*
X-3925411Y-17396840D01*
X-3967779Y-17336332D01*
X-4121034Y-17183077D01*
X-4298580Y-17058757D01*
X-4326036Y-17045955D01*
X-4395960Y-16991604D01*
X-4435378Y-16912296D01*
X-4436481Y-16823739D01*
X-4399053Y-16743474D01*
X-4330504Y-16687397D01*
X-4326036Y-16685245D01*
X-4298580Y-16672442D01*
X-4121034Y-16548122D01*
X-3967777Y-16394865D01*
X-3925411Y-16334360D01*
X-3859744Y-16274936D01*
X-3774796Y-16249888D01*
X-3687394Y-16264179D01*
G37*
%TD.AperFunction*%
%TA.AperFunction,NonConductor*%
G36*
X-5959228Y-16315807D02*
G01*
X-5889987Y-16371026D01*
X-5882563Y-16380953D01*
X-5872824Y-16394863D01*
X-5719563Y-16548124D01*
X-5542016Y-16672444D01*
X-5514563Y-16685245D01*
X-5444640Y-16739595D01*
X-5405222Y-16818902D01*
X-5404117Y-16907458D01*
X-5441545Y-16987724D01*
X-5510093Y-17043802D01*
X-5514525Y-17045937D01*
X-5542016Y-17058756D01*
X-5542020Y-17058758D01*
X-5719565Y-17183077D01*
X-5872821Y-17336333D01*
X-5882561Y-17350243D01*
X-5948228Y-17409667D01*
X-6033176Y-17434714D01*
X-6045571Y-17435100D01*
X-6892127Y-17435100D01*
X-6904141Y-17434737D01*
X-6913595Y-17434165D01*
X-6961902Y-17431243D01*
X-6961909Y-17431243D01*
X-7018834Y-17441674D01*
X-7030710Y-17443482D01*
X-7068059Y-17448017D01*
X-7088172Y-17450460D01*
X-7088173Y-17450460D01*
X-7088175Y-17450461D01*
X-7091282Y-17451639D01*
X-7125960Y-17461306D01*
X-7129228Y-17461905D01*
X-7129237Y-17461907D01*
X-7182002Y-17485655D01*
X-7193105Y-17490255D01*
X-7247230Y-17510782D01*
X-7249963Y-17512669D01*
X-7281335Y-17530363D01*
X-7284359Y-17531724D01*
X-7284360Y-17531724D01*
X-7329904Y-17567406D01*
X-7339586Y-17574531D01*
X-7387226Y-17607414D01*
X-7387230Y-17607418D01*
X-7425607Y-17650737D01*
X-7433847Y-17659490D01*
X-7463571Y-17689214D01*
X-7538559Y-17736333D01*
X-7604285Y-17747500D01*
X-7793192Y-17747500D01*
X-7879535Y-17727793D01*
X-7948776Y-17672574D01*
X-7987203Y-17592782D01*
X-7989742Y-17579628D01*
X-7991678Y-17567406D01*
X-8002654Y-17498096D01*
X-8002654Y-17498094D01*
X-8060251Y-17385055D01*
X-8149957Y-17295349D01*
X-8262992Y-17237755D01*
X-8262999Y-17237753D01*
X-8356781Y-17222900D01*
X-8497070Y-17222900D01*
X-8583413Y-17203193D01*
X-8652654Y-17147974D01*
X-8691081Y-17068182D01*
X-8691081Y-16979618D01*
X-8652654Y-16899826D01*
X-8611212Y-16860889D01*
X-8431424Y-16734999D01*
X-8363672Y-16667247D01*
X-8276702Y-16580277D01*
X-8243849Y-16533358D01*
X-8178183Y-16473934D01*
X-8093235Y-16448887D01*
X-8080838Y-16448500D01*
X-7258885Y-16448500D01*
X-7246868Y-16448862D01*
X-7189094Y-16452358D01*
X-7132138Y-16441920D01*
X-7120276Y-16440115D01*
X-7062828Y-16433140D01*
X-7059735Y-16431967D01*
X-7025027Y-16422292D01*
X-7021768Y-16421695D01*
X-7021766Y-16421694D01*
X-7021765Y-16421694D01*
X-7021760Y-16421692D01*
X-6968974Y-16397935D01*
X-6957874Y-16393336D01*
X-6903770Y-16372818D01*
X-6901036Y-16370931D01*
X-6869664Y-16353238D01*
X-6867980Y-16352479D01*
X-6866643Y-16351878D01*
X-6866641Y-16351876D01*
X-6866636Y-16351874D01*
X-6849502Y-16338450D01*
X-6769380Y-16300714D01*
X-6726776Y-16296100D01*
X-6045571Y-16296100D01*
X-5959228Y-16315807D01*
G37*
%TD.AperFunction*%
%TA.AperFunction,NonConductor*%
G36*
X11522130Y-18903762D02*
G01*
X11556970Y-18931546D01*
X11646420Y-19020996D01*
X11825657Y-19146500D01*
X11825660Y-19146501D01*
X11825661Y-19146502D01*
X11840645Y-19153489D01*
X11858350Y-19161745D01*
X11928274Y-19216096D01*
X11967692Y-19295404D01*
X11968795Y-19383960D01*
X11931367Y-19464226D01*
X11862819Y-19520303D01*
X11858351Y-19522454D01*
X11825665Y-19537696D01*
X11825664Y-19537696D01*
X11646427Y-19663198D01*
X11493470Y-19816155D01*
X11418481Y-19863273D01*
X11330474Y-19873189D01*
X11246881Y-19843938D01*
X11212042Y-19816154D01*
X11118965Y-19723077D01*
X10941420Y-19598758D01*
X10941416Y-19598756D01*
X10913963Y-19585954D01*
X10844040Y-19531605D01*
X10804622Y-19452298D01*
X10803517Y-19363742D01*
X10840945Y-19283476D01*
X10909493Y-19227398D01*
X10913925Y-19225262D01*
X10941416Y-19212444D01*
X11118963Y-19088124D01*
X11194611Y-19012476D01*
X11275542Y-18931546D01*
X11350530Y-18884427D01*
X11438537Y-18874511D01*
X11522130Y-18903762D01*
G37*
%TD.AperFunction*%
%TA.AperFunction,NonConductor*%
G36*
X-3687394Y-18804179D02*
G01*
X-3614847Y-18854977D01*
X-3571525Y-18932221D01*
X-3563400Y-18988502D01*
X-3563400Y-19718815D01*
X-3583107Y-19805158D01*
X-3621686Y-19859529D01*
X-3664469Y-19902312D01*
X-3739457Y-19949431D01*
X-3827464Y-19959347D01*
X-3911057Y-19930096D01*
X-3961339Y-19882264D01*
X-3962198Y-19882985D01*
X-3967779Y-19876332D01*
X-4121034Y-19723077D01*
X-4298580Y-19598757D01*
X-4326036Y-19585955D01*
X-4395960Y-19531604D01*
X-4435378Y-19452296D01*
X-4436481Y-19363739D01*
X-4399053Y-19283474D01*
X-4330504Y-19227397D01*
X-4326036Y-19225245D01*
X-4326034Y-19225244D01*
X-4298584Y-19212444D01*
X-4298583Y-19212443D01*
X-4298580Y-19212442D01*
X-4121034Y-19088122D01*
X-3967777Y-18934865D01*
X-3925411Y-18874360D01*
X-3859744Y-18814936D01*
X-3774796Y-18789888D01*
X-3687394Y-18804179D01*
G37*
%TD.AperFunction*%
%TA.AperFunction,NonConductor*%
G36*
X11509430Y-21456462D02*
G01*
X11544270Y-21484246D01*
X11646420Y-21586396D01*
X11825657Y-21711900D01*
X11858350Y-21727145D01*
X11928274Y-21781496D01*
X11967692Y-21860804D01*
X11968795Y-21949360D01*
X11931367Y-22029626D01*
X11862819Y-22085703D01*
X11858351Y-22087854D01*
X11825665Y-22103096D01*
X11825664Y-22103096D01*
X11646427Y-22228598D01*
X11646418Y-22228606D01*
X11506168Y-22368855D01*
X11431179Y-22415973D01*
X11343173Y-22425889D01*
X11259579Y-22396637D01*
X11224744Y-22368857D01*
X11118963Y-22263076D01*
X11118962Y-22263075D01*
X11118961Y-22263074D01*
X10941420Y-22138758D01*
X10941416Y-22138756D01*
X10913963Y-22125954D01*
X10844040Y-22071605D01*
X10804622Y-21992298D01*
X10803517Y-21903742D01*
X10840945Y-21823476D01*
X10909493Y-21767398D01*
X10913925Y-21765262D01*
X10941416Y-21752444D01*
X11118963Y-21628124D01*
X11160691Y-21586396D01*
X11262842Y-21484246D01*
X11337830Y-21437127D01*
X11425837Y-21427211D01*
X11509430Y-21456462D01*
G37*
%TD.AperFunction*%
%TA.AperFunction,NonConductor*%
G36*
X-4190542Y-1990207D02*
G01*
X-4136171Y-2028786D01*
X-1716686Y-4448271D01*
X-1669567Y-4523259D01*
X-1658400Y-4588985D01*
X-1658400Y-21192015D01*
X-1678107Y-21278358D01*
X-1716686Y-21332729D01*
X-2840771Y-22456814D01*
X-2915759Y-22503933D01*
X-2981485Y-22515100D01*
X-3795029Y-22515100D01*
X-3881372Y-22495393D01*
X-3950613Y-22440174D01*
X-3958039Y-22430243D01*
X-3967778Y-22416333D01*
X-4121034Y-22263077D01*
X-4298580Y-22138757D01*
X-4326036Y-22125955D01*
X-4395960Y-22071604D01*
X-4435378Y-21992296D01*
X-4436481Y-21903739D01*
X-4399053Y-21823474D01*
X-4330504Y-21767397D01*
X-4326036Y-21765245D01*
X-4298580Y-21752442D01*
X-4121034Y-21628122D01*
X-3967778Y-21474866D01*
X-3958039Y-21460957D01*
X-3892372Y-21401533D01*
X-3807424Y-21376486D01*
X-3795029Y-21376100D01*
X-3474285Y-21376100D01*
X-3462268Y-21376462D01*
X-3404494Y-21379958D01*
X-3347538Y-21369520D01*
X-3335676Y-21367715D01*
X-3278228Y-21360740D01*
X-3275135Y-21359567D01*
X-3240427Y-21349892D01*
X-3237168Y-21349295D01*
X-3237166Y-21349294D01*
X-3237165Y-21349294D01*
X-3237160Y-21349292D01*
X-3184374Y-21325535D01*
X-3173274Y-21320936D01*
X-3119170Y-21300418D01*
X-3116436Y-21298531D01*
X-3085064Y-21280838D01*
X-3083380Y-21280079D01*
X-3082043Y-21279478D01*
X-3082041Y-21279476D01*
X-3082036Y-21279474D01*
X-3036476Y-21243780D01*
X-3026797Y-21236658D01*
X-2979172Y-21203784D01*
X-2979169Y-21203781D01*
X-2940791Y-21160461D01*
X-2932551Y-21151708D01*
X-2386798Y-20605954D01*
X-2378045Y-20597714D01*
X-2334718Y-20559330D01*
X-2334715Y-20559326D01*
X-2301827Y-20511680D01*
X-2294717Y-20502017D01*
X-2259022Y-20456456D01*
X-2259020Y-20456453D01*
X-2259019Y-20456451D01*
X-2259018Y-20456449D01*
X-2257660Y-20453431D01*
X-2239968Y-20422062D01*
X-2238082Y-20419330D01*
X-2217551Y-20365196D01*
X-2212958Y-20354108D01*
X-2189203Y-20301328D01*
X-2189203Y-20301327D01*
X-2188603Y-20298052D01*
X-2178938Y-20263381D01*
X-2177762Y-20260280D01*
X-2177760Y-20260271D01*
X-2173569Y-20225762D01*
X-2170784Y-20202828D01*
X-2168977Y-20190953D01*
X-2158542Y-20134005D01*
X-2158542Y-20134002D01*
X-2162037Y-20076232D01*
X-2162400Y-20064215D01*
X-2162400Y-5919984D01*
X-2162037Y-5907967D01*
X-2158542Y-5850196D01*
X-2158542Y-5850189D01*
X-2168976Y-5793247D01*
X-2170784Y-5781373D01*
X-2177760Y-5723927D01*
X-2177760Y-5723925D01*
X-2178938Y-5720821D01*
X-2188604Y-5686143D01*
X-2189202Y-5682876D01*
X-2189206Y-5682863D01*
X-2212966Y-5630069D01*
X-2217563Y-5618972D01*
X-2238083Y-5564867D01*
X-2238087Y-5564860D01*
X-2239971Y-5562131D01*
X-2257658Y-5530772D01*
X-2259021Y-5527742D01*
X-2294714Y-5482183D01*
X-2301831Y-5472510D01*
X-2334713Y-5424874D01*
X-2334717Y-5424871D01*
X-2378037Y-5386492D01*
X-2386787Y-5378254D01*
X-4431154Y-3333887D01*
X-4439392Y-3325137D01*
X-4477771Y-3281817D01*
X-4477774Y-3281813D01*
X-4525410Y-3248931D01*
X-4535083Y-3241814D01*
X-4580643Y-3206121D01*
X-4580642Y-3206121D01*
X-4583672Y-3204758D01*
X-4615031Y-3187071D01*
X-4617760Y-3185187D01*
X-4617767Y-3185183D01*
X-4671872Y-3164663D01*
X-4682969Y-3160066D01*
X-4735763Y-3136306D01*
X-4735776Y-3136302D01*
X-4739043Y-3135704D01*
X-4773721Y-3126038D01*
X-4776826Y-3124860D01*
X-4834273Y-3117884D01*
X-4846147Y-3116076D01*
X-4903089Y-3105642D01*
X-4903098Y-3105642D01*
X-4960868Y-3109137D01*
X-4972885Y-3109500D01*
X-6425413Y-3109500D01*
X-6511756Y-3089793D01*
X-6580997Y-3034574D01*
X-6588424Y-3024641D01*
X-6621109Y-2977960D01*
X-6621112Y-2977958D01*
X-6780657Y-2818412D01*
X-6945467Y-2703011D01*
X-7004891Y-2637343D01*
X-7029939Y-2552396D01*
X-7015648Y-2464993D01*
X-6964850Y-2392446D01*
X-6945467Y-2376989D01*
X-6780657Y-2261587D01*
X-6621109Y-2102039D01*
X-6588424Y-2055359D01*
X-6522757Y-1995934D01*
X-6437810Y-1970887D01*
X-6425413Y-1970500D01*
X-4276885Y-1970500D01*
X-4190542Y-1990207D01*
G37*
%TD.AperFunction*%
%TA.AperFunction,NonConductor*%
G36*
X11958766Y23079593D02*
G01*
X12028007Y23024374D01*
X12035435Y23014441D01*
X12050504Y22992919D01*
X12205220Y22838203D01*
X12384457Y22712699D01*
X12384460Y22712698D01*
X12402619Y22704230D01*
X12472542Y22649877D01*
X12511958Y22570568D01*
X12513059Y22482012D01*
X12475628Y22401747D01*
X12416265Y22353186D01*
X12417386Y22351246D01*
X12409864Y22346903D01*
X12409862Y22346902D01*
X12409858Y22346899D01*
X12233287Y22223263D01*
X12230623Y22221398D01*
X12145454Y22136229D01*
X12075901Y22066676D01*
X12060835Y22045159D01*
X11995167Y21985734D01*
X11910220Y21960687D01*
X11897823Y21960300D01*
X8340285Y21960300D01*
X8328268Y21960663D01*
X8270494Y21964158D01*
X8213533Y21953719D01*
X8201677Y21951915D01*
X8144228Y21944940D01*
X8141135Y21943767D01*
X8106425Y21934091D01*
X8103169Y21933495D01*
X8050377Y21909735D01*
X8039301Y21905146D01*
X7985170Y21884618D01*
X7982435Y21882730D01*
X7951062Y21865037D01*
X7948046Y21863679D01*
X7948044Y21863678D01*
X7929572Y21849206D01*
X7902477Y21827980D01*
X7892800Y21820860D01*
X7845172Y21787984D01*
X7845169Y21787981D01*
X7806791Y21744661D01*
X7798551Y21735908D01*
X5093790Y19031147D01*
X5085037Y19022907D01*
X5041718Y18984530D01*
X5041715Y18984527D01*
X5008840Y18936900D01*
X5001719Y18927222D01*
X4982556Y18902761D01*
X4966022Y18881657D01*
X4966021Y18881655D01*
X4966019Y18881652D01*
X4964657Y18878626D01*
X4946968Y18847263D01*
X4945084Y18844533D01*
X4945081Y18844529D01*
X4924558Y18790413D01*
X4919966Y18779328D01*
X4901359Y18737985D01*
X4896203Y18726528D01*
X4895604Y18723256D01*
X4885936Y18688573D01*
X4884760Y18685473D01*
X4884760Y18685471D01*
X4877784Y18628026D01*
X4875976Y18616150D01*
X4865542Y18559208D01*
X4865542Y18559205D01*
X4869037Y18501432D01*
X4869400Y18489415D01*
X4869400Y-25230615D01*
X4849693Y-25316958D01*
X4811114Y-25371329D01*
X105629Y-30076814D01*
X30641Y-30123933D01*
X-35085Y-30135100D01*
X-3795029Y-30135100D01*
X-3881372Y-30115393D01*
X-3950613Y-30060174D01*
X-3958039Y-30050243D01*
X-3967778Y-30036333D01*
X-4121034Y-29883077D01*
X-4298580Y-29758757D01*
X-4326036Y-29745955D01*
X-4395960Y-29691604D01*
X-4435378Y-29612296D01*
X-4436481Y-29523739D01*
X-4399053Y-29443474D01*
X-4330504Y-29387397D01*
X-4326036Y-29385245D01*
X-4298580Y-29372442D01*
X-4121034Y-29248122D01*
X-3967778Y-29094866D01*
X-3958039Y-29080957D01*
X-3892372Y-29021533D01*
X-3807424Y-28996486D01*
X-3795029Y-28996100D01*
X-985085Y-28996100D01*
X-973068Y-28996462D01*
X-915294Y-28999958D01*
X-858338Y-28989520D01*
X-846476Y-28987715D01*
X-789028Y-28980740D01*
X-785935Y-28979567D01*
X-751227Y-28969892D01*
X-747968Y-28969295D01*
X-747966Y-28969294D01*
X-747965Y-28969294D01*
X-747960Y-28969292D01*
X-695174Y-28945535D01*
X-684074Y-28940936D01*
X-629970Y-28920418D01*
X-627236Y-28918531D01*
X-595864Y-28900838D01*
X-594180Y-28900079D01*
X-592843Y-28899478D01*
X-592841Y-28899476D01*
X-592836Y-28899474D01*
X-547276Y-28863780D01*
X-537597Y-28856658D01*
X-489972Y-28823784D01*
X-489969Y-28823781D01*
X-451591Y-28780461D01*
X-443351Y-28771708D01*
X618731Y-27709626D01*
X3810824Y-24517531D01*
X3819541Y-24509325D01*
X3862883Y-24470929D01*
X3895786Y-24423260D01*
X3902855Y-24413652D01*
X3938578Y-24368057D01*
X3939938Y-24365033D01*
X3957631Y-24333662D01*
X3959518Y-24330930D01*
X3980048Y-24276792D01*
X3984619Y-24265754D01*
X4008394Y-24212932D01*
X4008990Y-24209675D01*
X4018668Y-24174959D01*
X4019840Y-24171872D01*
X4026817Y-24114406D01*
X4028620Y-24102554D01*
X4039057Y-24045606D01*
X4035563Y-23987842D01*
X4035200Y-23975826D01*
X4035200Y18702815D01*
X4054907Y18789158D01*
X4093486Y18843529D01*
X8290970Y23041014D01*
X8365958Y23088133D01*
X8431684Y23099300D01*
X11872423Y23099300D01*
X11958766Y23079593D01*
G37*
%TD.AperFunction*%
M02*
