<?xml version="1.0" standalone="no"?>
<!DOCTYPE svg PUBLIC "-//W3C//DTD SVG 1.1//EN"
"http://www.w3.org/Graphics/SVG/1.1/DTD/svg11.dtd">
<svg width="131.717" height="464.315" viewBox="0 0 2744.09 9673.23" version="1.1"
xmlns="http://www.w3.org/2000/svg"
xmlns:xlink="http://www.w3.org/1999/xlink">
<g fill-rule="evenodd"><path d="M 0,9673.23 L 0,0 L 2744.09,0 L 2744.09,9673.23 L 0,9673.23 z " style="fill-opacity:0.200000;fill:rgb(103,198,105);"/></g>
<polyline points="96.4581,9482.28 96.4581,190.946 98.2741,172.514 103.652,154.788 112.382,138.452 124.134,124.134 138.452,112.382 154.788,103.652 172.514,98.2745 190.946,96.4585 2553.15,96.4585 2571.58,98.2745 2589.31,103.652 2605.64,112.382 2619.96,124.134 2631.71,138.452 2640.44,154.788 2645.82,172.514 2647.64,190.946 2647.64,9482.28 2645.82,9500.71 2640.44,9518.44 2631.71,9534.78 2619.96,9549.09 2605.64,9560.85 2589.31,9569.58 2571.58,9574.95 2553.15,9576.77 190.946,9576.77 172.514,9574.95 154.788,9569.58 138.452,9560.85 124.134,9549.09 112.382,9534.78 103.652,9518.44 98.2741,9500.71 96.4581,9482.28" style="stroke:rgb(103,198,105);stroke-width:188.976378;fill:none;stroke-opacity:0.5;stroke-linecap:round;stroke-linejoin:round;;fill:none"/>
<polyline points="96.4581,9482.28 96.4581,190.946 98.2741,172.514 103.652,154.788 112.382,138.452 124.134,124.134 138.452,112.382 154.788,103.652 172.514,98.2745 190.946,96.4585 2553.15,96.4585 2571.58,98.2745 2589.31,103.652 2605.64,112.382 2619.96,124.134 2631.71,138.452 2640.44,154.788 2645.82,172.514 2647.64,190.946 2647.64,9482.28 2645.82,9500.71 2640.44,9518.44 2631.71,9534.78 2619.96,9549.09 2605.64,9560.85 2589.31,9569.58 2571.58,9574.95 2553.15,9576.77 190.946,9576.77 172.514,9574.95 154.788,9569.58 138.452,9560.85 124.134,9549.09 112.382,9534.78 103.652,9518.44 98.2741,9500.71 96.4581,9482.28" style="stroke:rgb(0,0,0);stroke-width:1px;fill:none;stroke-opacity:1;stroke-linecap:round;stroke-linejoin:round;;fill:none"/>
<g fill-rule="evenodd"><path d="M 190.946,9482.28 L 190.946,190.946 L 2553.15,190.946 L 2553.15,9482.28 L 190.946,9482.28 z " style="fill-opacity:1.000000;fill:rgb(103,198,105);stroke:rgb(0,0,0);stroke-width:2"/></g>
</svg>
