M48
; DRILL file {KiCad 7.0.11+dfsg-1build4} date Thu 10 Jul 2025 09:09:08 AM MDT
; FORMAT={-:-/ absolute / metric / decimal}
; #@! TF.CreationDate,2025-07-10T09:09:08-06:00
; #@! TF.GenerationSoftware,Kicad,Pcbnew,7.0.11+dfsg-1build4
; #@! TF.FileFunction,Plated,1,2,PTH
FMAT,2
METRIC
; #@! TA.AperFunction,Plated,PTH,ComponentDrill
T1C0.800
; #@! TA.AperFunction,Plated,PTH,ViaDrill
T2C0.900
; #@! TA.AperFunction,Plated,PTH,ComponentDrill
T3C1.000
; #@! TA.AperFunction,Plated,PTH,ViaDrill
T4C5.000
%
G90
G05
T1
X-2.84Y48.651
X-2.84Y46.651
X-2.84Y44.651
X-2.84Y42.651
X-2.84Y30.943
X-2.84Y28.943
X-2.84Y26.943
X-2.84Y24.943
X-2.84Y13.234
X-2.84Y11.234
X-2.84Y9.234
X-2.84Y7.234
X-2.84Y-4.475
X-2.84Y-6.475
X-2.84Y-8.475
X-2.84Y-10.475
X-2.84Y-22.183
X-2.84Y-24.183
X-2.84Y-26.183
X-2.84Y-28.183
X-2.84Y-39.892
X-2.84Y-41.892
X-2.84Y-43.892
X-2.84Y-45.892
T2
X-14.146Y41.535
X-14.146Y23.826
X-14.146Y6.118
X-14.146Y-11.591
X-14.146Y-29.3
X-14.146Y-47.008
X-13.988Y49.233
X-13.988Y31.524
X-13.988Y13.816
X-13.988Y-3.893
X-13.988Y-21.602
X-13.988Y-39.31
X-11.377Y41.459
X-11.377Y23.75
X-11.377Y6.041
X-11.377Y-11.667
X-11.377Y-29.376
X-11.377Y-47.085
X-6.475Y41.535
X-6.475Y23.826
X-6.475Y6.118
X-6.475Y-11.591
X-6.475Y-29.3
X-6.475Y-47.008
X14.859Y48.889
X14.859Y31.181
X14.859Y13.472
X14.859Y-4.237
X14.859Y-21.945
X14.859Y-39.654
X21.869Y48.663
X21.869Y30.954
X21.869Y13.246
X21.869Y-4.463
X21.869Y-22.172
X21.869Y-39.88
T3
X21.922Y45.624
X21.922Y43.084
X21.922Y27.916
X21.922Y25.376
X21.922Y10.207
X21.922Y7.667
X21.922Y-7.502
X21.922Y-10.042
X21.922Y-25.21
X21.922Y-27.75
X21.922Y-42.919
X21.922Y-45.459
T4
X30.022Y44.267
X30.022Y26.558
X30.022Y8.849
X30.022Y-8.859
X30.022Y-26.568
X30.022Y-44.277
M30
