M48
; DRILL file {KiCad 7.0.11+dfsg-1build4} date Sat 15 Aug 2026 08:17:21 PM MDT
; FORMAT={-:-/ absolute / metric / decimal}
; #@! TF.CreationDate,2026-08-15T20:17:21-06:00
; #@! TF.GenerationSoftware,Kicad,Pcbnew,7.0.11+dfsg-1build4
; #@! TF.FileFunction,Plated,1,2,PTH
FMAT,2
METRIC
; #@! TA.AperFunction,Plated,PTH,ViaDrill
T1C1.000
; #@! TA.AperFunction,Plated,PTH,ComponentDrill
T2C1.000
; #@! TA.AperFunction,Plated,PTH,ViaDrill
T3C2.000
%
G90
G05
T1
X-12.845Y23.851
X-12.759Y46.631
X-12.734Y36.522
X-12.607Y18.691
X12.971Y49.146
X13.012Y36.449
X13.012Y23.8
X13.037Y21.26
X13.047Y44.167
X13.047Y18.691
T2
X-9.238Y-15.773
X-9.238Y-18.473
X-9.238Y-20.853
X-9.238Y-23.393
X-7.613Y6.35
X-7.613Y3.81
X-7.613Y1.27
X-7.613Y-1.27
X-7.613Y-3.81
X-7.613Y-6.35
X-4.92Y-15.596
X-4.92Y-18.136
X-4.92Y-20.676
X-4.92Y-23.216
X-4.92Y-25.756
X-4.92Y-28.296
X-4.92Y-30.836
X-4.92Y-33.376
X-4.92Y-35.916
X-4.92Y-38.456
X-4.92Y-40.996
X-4.92Y-43.536
X-4.92Y-46.076
X-4.92Y-48.616
X10.167Y6.35
X10.167Y3.81
X10.167Y1.27
X10.167Y-1.27
X10.167Y-3.81
X10.167Y-6.35
X10.32Y-15.596
X10.32Y-18.136
X10.32Y-20.676
X10.32Y-23.216
X10.32Y-25.756
X10.32Y-28.296
X10.32Y-30.836
X10.32Y-33.376
X10.32Y-35.916
X10.32Y-38.456
X10.32Y-40.996
X10.32Y-43.536
X10.32Y-46.076
X10.32Y-48.616
T3
X-10.5Y-55.0
X0.0Y59.0
X10.5Y-55.0
M30
